<svg width="500" height="140" viewBox="0 0 500 140" fill="none" xmlns="http://www.w3.org/2000/svg">
<rect width="500" height="140" fill="#C4C4C4"/>
<mask id="path-1-inside-1_516_688" fill="white">
<path fill-rule="evenodd" clip-rule="evenodd" d="M72.1486 33H39V107H86.5V47.9053L72.1486 33Z"/>
</mask>
<path fill-rule="evenodd" clip-rule="evenodd" d="M72.1486 33H39V107H86.5V47.9053L72.1486 33Z" fill="#C4C4C4"/>
<path d="M39 33V31H37V33H39ZM72.1486 33L73.5893 31.6128L72.9993 31H72.1486V33ZM39 107H37V109H39V107ZM86.5 107V109H88.5V107H86.5ZM86.5 47.9053H88.5V47.099L87.9408 46.5182L86.5 47.9053ZM39 35H72.1486V31H39V35ZM41 107V33H37V107H41ZM86.5 105H39V109H86.5V105ZM84.5 47.9053V107H88.5V47.9053H84.5ZM87.9408 46.5182L73.5893 31.6128L70.7079 34.3872L85.0593 49.2925L87.9408 46.5182Z" fill="black" mask="url(#path-1-inside-1_516_688)"/>
<mask id="path-3-inside-2_516_688" fill="white">
<path fill-rule="evenodd" clip-rule="evenodd" d="M72.25 33.1052V47.8002H86.3989L72.25 33.1052Z"/>
</mask>
<path fill-rule="evenodd" clip-rule="evenodd" d="M72.25 33.1052V47.8002H86.3989L72.25 33.1052Z" fill="#C4C4C4"/>
<path d="M72.25 47.8002H70.25V49.8002H72.25V47.8002ZM72.25 33.1052L73.6907 31.718L70.25 28.1445V33.1052H72.25ZM86.3989 47.8002V49.8002H91.1009L87.8396 46.413L86.3989 47.8002ZM74.25 47.8002V33.1052H70.25V47.8002H74.25ZM86.3989 45.8002H72.25V49.8002H86.3989V45.8002ZM87.8396 46.413L73.6907 31.718L70.8093 34.4924L84.9582 49.1874L87.8396 46.413Z" fill="black" mask="url(#path-3-inside-2_516_688)"/>
<path d="M93.9205 89.3902L98.4205 96.8334L102.92 89.3902H105.273L99.6591 98.1175L105.273 106.845H102.92L98.4205 99.6402L93.9205 106.845H91.5795L97.125 98.1175L91.5795 89.3902H93.9205ZM117.631 107.163C116.2 107.163 114.919 106.905 113.791 106.39C112.662 105.867 111.768 105.144 111.109 104.22C110.45 103.295 110.101 102.231 110.063 101.027H112.211C112.249 101.875 112.51 102.617 112.995 103.254C113.48 103.883 114.124 104.375 114.927 104.731C115.73 105.08 116.624 105.254 117.609 105.254C118.685 105.254 119.631 105.053 120.45 104.652C121.275 104.25 121.919 103.701 122.381 103.004C122.851 102.299 123.086 101.504 123.086 100.617C123.086 99.6781 122.847 98.8485 122.37 98.1288C121.893 97.4091 121.207 96.8485 120.313 96.447C119.427 96.0455 118.366 95.8447 117.131 95.8447H115.768V93.9356H117.131C118.139 93.9356 119.029 93.7538 119.802 93.3902C120.582 93.019 121.196 92.5 121.643 91.8334C122.09 91.1667 122.313 90.3826 122.313 89.4811C122.313 88.625 122.12 87.8712 121.734 87.2197C121.347 86.5682 120.802 86.0568 120.097 85.6856C119.4 85.3144 118.586 85.1288 117.654 85.1288C116.753 85.1288 115.927 85.3031 115.177 85.6515C114.427 86 113.821 86.4925 113.359 87.1288C112.904 87.7652 112.662 88.519 112.631 89.3902H110.575C110.605 88.1781 110.938 87.1137 111.575 86.197C112.219 85.2728 113.071 84.5531 114.131 84.0379C115.2 83.5152 116.381 83.2538 117.677 83.2538C119.048 83.2538 120.234 83.5341 121.234 84.0947C122.234 84.6553 123.006 85.4015 123.552 86.3334C124.105 87.2576 124.381 88.2765 124.381 89.3902C124.381 90.7159 124.022 91.8523 123.302 92.7993C122.582 93.7387 121.613 94.3902 120.393 94.7538V94.9015C121.878 95.197 123.044 95.8561 123.893 96.8788C124.749 97.894 125.177 99.1402 125.177 100.617C125.177 101.86 124.851 102.977 124.2 103.97C123.548 104.955 122.654 105.735 121.518 106.311C120.389 106.879 119.094 107.163 117.631 107.163Z" fill="black"/>
<path d="M255.92 89.5455L260.42 96.9886L264.92 89.5455H267.273L261.659 98.2727L267.273 107H264.92L260.42 99.7955L255.92 107H253.58L259.125 98.2727L253.58 89.5455H255.92ZM272.075 107V105.443L279.677 96.8977C280.669 95.7765 281.469 94.8182 282.075 94.0227C282.681 93.2273 283.12 92.4924 283.393 91.8182C283.673 91.1439 283.813 90.4432 283.813 89.7159C283.813 88.8295 283.605 88.0568 283.188 87.3977C282.779 86.7311 282.215 86.2121 281.495 85.8409C280.775 85.4697 279.965 85.2841 279.063 85.2841C278.109 85.2841 277.272 85.4886 276.552 85.8977C275.84 86.3068 275.287 86.8674 274.893 87.5795C274.499 88.2917 274.302 89.1098 274.302 90.0341H272.268C272.268 88.7462 272.563 87.6061 273.154 86.6136C273.753 85.6136 274.567 84.8295 275.597 84.2614C276.635 83.6932 277.81 83.4091 279.12 83.4091C280.416 83.4091 281.567 83.6894 282.575 84.25C283.582 84.803 284.374 85.5568 284.95 86.5114C285.525 87.4659 285.813 88.5341 285.813 89.7159C285.813 90.572 285.662 91.4015 285.359 92.2045C285.063 93.0076 284.552 93.9015 283.825 94.8864C283.097 95.8712 282.09 97.0758 280.802 98.5L275.029 104.943V105.091H286.541V107H272.075Z" fill="black"/>
<rect x="169" y="34" width="78" height="20" stroke="black" stroke-width="2"/>
<rect x="176.5" y="43.5" width="1" height="1" fill="#D9D9D9" stroke="black"/>
<rect x="182.5" y="43.5" width="1" height="1" fill="#D9D9D9" stroke="black"/>
<rect x="188.5" y="43.5" width="1" height="1" fill="#D9D9D9" stroke="black"/>
<rect x="200.5" y="43.5" width="39" height="1" fill="#D9D9D9" stroke="black"/>
<rect x="169" y="60" width="78" height="20" stroke="black" stroke-width="2"/>
<rect x="176.5" y="69.5" width="1" height="1" fill="#D9D9D9" stroke="black"/>
<rect x="182.5" y="69.5" width="1" height="1" fill="#D9D9D9" stroke="black"/>
<rect x="188.5" y="69.5" width="1" height="1" fill="#D9D9D9" stroke="black"/>
<rect x="200.5" y="69.5" width="39" height="1" fill="#D9D9D9" stroke="black"/>
<rect x="169" y="86" width="78" height="20" stroke="black" stroke-width="2"/>
<rect x="176.5" y="95.5" width="1" height="1" fill="#D9D9D9" stroke="black"/>
<rect x="182.5" y="95.5" width="1" height="1" fill="#D9D9D9" stroke="black"/>
<rect x="188.5" y="95.5" width="1" height="1" fill="#D9D9D9" stroke="black"/>
<rect x="200.5" y="95.5" width="39" height="1" fill="#D9D9D9" stroke="black"/>
<path d="M435.92 89.5455L440.42 96.9886L444.92 89.5455H447.273L441.659 98.2727L447.273 107H444.92L440.42 99.7955L435.92 107H433.58L439.125 98.2727L433.58 89.5455H435.92ZM459.256 83.7273V107H457.131V85.9545H456.995L451.541 89.5795V87.375L457.041 83.7273H459.256Z" fill="black"/>
<path d="M369.667 43C355.495 43 345.31 54.5426 345.021 66.8571C336.363 69.3977 330 77.1338 330 86.4286C330 97.7763 339.416 107 351 107H407C419.374 107 428 98.8587 428 88.7143C428 80.5081 422.303 72.5381 413.891 70.6785C413.604 63.9553 410.339 58.9342 405.833 56.2857C401.415 53.6886 395.957 53.3727 391.141 55.3571C387.279 48.5365 379.671 43 369.667 43ZM369.667 45.2857C379.184 45.2857 386.293 50.7162 389.609 57.2143C389.75 57.484 389.994 57.6882 390.288 57.7819C390.582 57.8757 390.901 57.8514 391.177 57.7143C395.479 55.6074 400.632 55.8784 404.667 58.2499C408.702 60.6216 411.667 65.0635 411.667 71.5714C411.672 71.8398 411.773 72.0979 411.953 72.3003C412.133 72.5027 412.38 72.6366 412.651 72.6785C420.294 73.9348 425.667 81.2902 425.667 88.7143C425.667 97.609 418.353 104.714 407 104.714H351C340.677 104.714 332.333 96.541 332.333 86.4286C332.333 77.8718 338.322 70.7194 346.406 68.7143C346.663 68.6495 346.889 68.501 347.048 68.2932C347.208 68.0855 347.29 67.831 347.281 67.5714C347.17 56.2219 356.528 45.2857 369.667 45.2857Z" fill="black"/>
<line x1="364.47" y1="88.6119" x2="378.612" y2="74.4697" stroke="black" stroke-width="2"/>
<line x1="392.577" y1="89.8493" x2="378.435" y2="75.7072" stroke="black" stroke-width="2"/>
<line x1="378" y1="76" x2="378" y2="106" stroke="black" stroke-width="2"/>
</svg>
