<svg width="500" height="380" viewBox="0 0 500 380" fill="none" xmlns="http://www.w3.org/2000/svg">
<rect width="500" height="380" fill="#C4C4C4"/>
<rect x="51" y="37" width="98" height="58" stroke="black" stroke-width="2"/>
<rect x="86" y="95" width="28" height="16" stroke="black" stroke-width="2"/>
<rect x="70.5" y="110.5" width="59" height="1" stroke="black"/>
<rect x="351" y="37" width="98" height="58" stroke="black" stroke-width="2"/>
<rect x="386" y="95" width="28" height="16" stroke="black" stroke-width="2"/>
<rect x="370.5" y="110.5" width="59" height="1" stroke="black"/>
<line x1="401" y1="112" x2="401" y2="152" stroke="black" stroke-width="2"/>
<line x1="101" y1="112" x2="101" y2="152" stroke="black" stroke-width="2"/>
<line x1="350" y1="67" x2="150" y2="67" stroke="black" stroke-width="2"/>
<rect x="51" y="153" width="98" height="58" stroke="black" stroke-width="2"/>
<rect x="86" y="211" width="28" height="16" stroke="black" stroke-width="2"/>
<rect x="70.5" y="226.5" width="59" height="1" stroke="black"/>
<rect x="351" y="153" width="98" height="58" stroke="black" stroke-width="2"/>
<rect x="386" y="211" width="28" height="16" stroke="black" stroke-width="2"/>
<rect x="370.5" y="226.5" width="59" height="1" stroke="black"/>
<line x1="350" y1="183" x2="150" y2="183" stroke="black" stroke-width="2"/>
<line x1="249" y1="298" x2="249" y2="66" stroke="black" stroke-width="2"/>
<line x1="401" y1="228" x2="401" y2="268" stroke="black" stroke-width="2"/>
<line x1="101" y1="228" x2="101" y2="268" stroke="black" stroke-width="2"/>
<rect x="51" y="269" width="98" height="58" stroke="black" stroke-width="2"/>
<rect x="86" y="327" width="28" height="16" stroke="black" stroke-width="2"/>
<rect x="70.5" y="342.5" width="59" height="1" stroke="black"/>
<rect x="351" y="269" width="98" height="58" stroke="black" stroke-width="2"/>
<rect x="386" y="327" width="28" height="16" stroke="black" stroke-width="2"/>
<rect x="370.5" y="342.5" width="59" height="1" stroke="black"/>
<line x1="350" y1="299" x2="150" y2="299" stroke="black" stroke-width="2"/>
</svg>
