<svg width="500" height="480" viewBox="0 0 500 480" fill="none" xmlns="http://www.w3.org/2000/svg">
<rect x="36.4424" y="36.5" width="100" height="62" stroke="black" stroke-width="2"/>
<path d="M62.1697 84.5H52.4878V49.5909H62.9197C66.1924 49.5909 68.9935 50.2841 71.3231 51.6705C73.6526 53.0568 75.4367 55.0455 76.6753 57.6364C77.9253 60.2159 78.5447 63.3125 78.5333 66.9261C78.5219 70.6193 77.8742 73.7784 76.5901 76.4034C75.306 79.017 73.4481 81.0227 71.0162 82.4205C68.5844 83.8068 65.6356 84.5 62.1697 84.5ZM54.6185 82.5227H62.0844C65.1981 82.5227 67.8231 81.9034 69.9594 80.6648C72.0958 79.4148 73.7094 77.625 74.8003 75.2955C75.9026 72.9659 76.4481 70.1761 76.4367 66.9261C76.4367 63.7216 75.9083 60.9773 74.8515 58.6932C73.7947 56.3977 72.2549 54.6364 70.2322 53.4091C68.2208 52.1818 65.7549 51.5682 62.8344 51.5682H54.6185V82.5227ZM84.82 84.5H82.57L95.1666 49.5909H97.6211L110.218 84.5H107.968L96.4791 52.3352H96.3086L84.82 84.5ZM88.0075 71.358H104.78V73.3352H88.0075V71.358ZM119.82 49.5909V84.5H117.689V49.5909H119.82Z" fill="black"/>
<rect x="101.558" y="125.5" width="362" height="42" stroke="black" stroke-width="2"/>
<path d="M117.122 136.136V156.5H115.262V136.136H117.122ZM124.498 146.955V156.5H122.728V141.227H124.448V143.624H124.607C124.965 142.841 125.522 142.215 126.278 141.744C127.04 141.267 127.981 141.028 129.102 141.028C130.129 141.028 131.031 141.244 131.806 141.675C132.588 142.099 133.195 142.725 133.626 143.554C134.063 144.383 134.282 145.4 134.282 146.607V156.5H132.512V146.716C132.512 145.463 132.161 144.472 131.458 143.743C130.762 143.014 129.827 142.649 128.654 142.649C127.852 142.649 127.139 142.821 126.516 143.166C125.893 143.511 125.399 144.008 125.035 144.658C124.677 145.301 124.498 146.066 124.498 146.955ZM145.787 141.227V142.768H138.28V141.227H145.787ZM140.626 156.5V138.99C140.626 138.168 140.815 137.475 141.193 136.912C141.578 136.348 142.078 135.921 142.695 135.629C143.311 135.338 143.964 135.192 144.653 135.192C145.117 135.192 145.502 135.232 145.807 135.311C146.118 135.384 146.364 135.457 146.543 135.53L146.026 137.081C145.893 137.041 145.731 136.995 145.538 136.942C145.346 136.889 145.104 136.862 144.812 136.862C144.044 136.862 143.45 137.078 143.033 137.509C142.615 137.939 142.406 138.556 142.406 139.358L142.396 156.5H140.626ZM155.186 156.818C153.867 156.818 152.701 156.483 151.686 155.814C150.679 155.144 149.89 154.22 149.32 153.04C148.75 151.853 148.465 150.484 148.465 148.933C148.465 147.369 148.75 145.993 149.32 144.807C149.89 143.614 150.679 142.686 151.686 142.023C152.701 141.353 153.867 141.018 155.186 141.018C156.505 141.018 157.669 141.353 158.676 142.023C159.684 142.692 160.473 143.62 161.043 144.807C161.62 145.993 161.908 147.369 161.908 148.933C161.908 150.484 161.623 151.853 161.053 153.04C160.483 154.22 159.691 155.144 158.676 155.814C157.669 156.483 156.505 156.818 155.186 156.818ZM155.186 155.197C156.247 155.197 157.145 154.912 157.881 154.342C158.617 153.772 159.174 153.013 159.551 152.065C159.936 151.117 160.128 150.073 160.128 148.933C160.128 147.793 159.936 146.746 159.551 145.791C159.174 144.837 158.617 144.071 157.881 143.494C157.145 142.918 156.247 142.629 155.186 142.629C154.132 142.629 153.234 142.918 152.492 143.494C151.756 144.071 151.196 144.837 150.811 145.791C150.434 146.746 150.245 147.793 150.245 148.933C150.245 150.073 150.434 151.117 150.811 152.065C151.196 153.013 151.756 153.772 152.492 154.342C153.228 154.912 154.126 155.197 155.186 155.197ZM166.353 156.5V141.227H168.073V143.574H168.203C168.508 142.805 169.038 142.185 169.794 141.714C170.556 141.237 171.418 140.999 172.379 140.999C172.525 140.999 172.687 141.002 172.866 141.009C173.045 141.015 173.194 141.022 173.313 141.028V142.828C173.234 142.815 173.095 142.795 172.896 142.768C172.697 142.742 172.482 142.729 172.25 142.729C171.454 142.729 170.745 142.898 170.122 143.236C169.505 143.567 169.018 144.028 168.66 144.618C168.302 145.208 168.123 145.881 168.123 146.636V156.5H166.353ZM176.894 156.5V141.227H178.614V143.574H178.773C179.078 142.785 179.585 142.165 180.294 141.714C181.01 141.257 181.869 141.028 182.87 141.028C183.924 141.028 184.789 141.277 185.465 141.774C186.148 142.265 186.658 142.941 186.996 143.803H187.125C187.47 142.954 188.03 142.281 188.806 141.784C189.588 141.28 190.536 141.028 191.649 141.028C193.068 141.028 194.188 141.476 195.01 142.371C195.832 143.259 196.243 144.558 196.243 146.268V156.5H194.473V146.268C194.473 145.062 194.165 144.157 193.549 143.554C192.932 142.951 192.12 142.649 191.112 142.649C189.946 142.649 189.048 143.007 188.418 143.723C187.788 144.439 187.473 145.347 187.473 146.447V156.5H185.664V146.109C185.664 145.075 185.375 144.24 184.799 143.604C184.222 142.967 183.41 142.649 182.362 142.649C181.66 142.649 181.027 142.821 180.463 143.166C179.907 143.511 179.466 143.991 179.141 144.608C178.823 145.218 178.664 145.92 178.664 146.716V156.5H176.894ZM205.755 156.848C204.833 156.848 203.991 156.669 203.229 156.311C202.467 155.946 201.86 155.423 201.409 154.74C200.959 154.051 200.733 153.215 200.733 152.234C200.733 151.479 200.876 150.842 201.161 150.325C201.446 149.808 201.85 149.384 202.374 149.053C202.898 148.721 203.517 148.459 204.233 148.267C204.949 148.075 205.738 147.926 206.6 147.82C207.455 147.714 208.177 147.621 208.767 147.541C209.364 147.462 209.818 147.336 210.13 147.163C210.441 146.991 210.597 146.713 210.597 146.328V145.97C210.597 144.929 210.285 144.111 209.662 143.514C209.046 142.911 208.157 142.609 206.997 142.609C205.897 142.609 204.999 142.851 204.303 143.335C203.613 143.819 203.13 144.389 202.851 145.045L201.171 144.439C201.515 143.604 201.993 142.937 202.603 142.44C203.212 141.937 203.895 141.575 204.651 141.357C205.406 141.131 206.172 141.018 206.948 141.018C207.531 141.018 208.138 141.095 208.767 141.247C209.404 141.4 209.994 141.665 210.537 142.043C211.081 142.414 211.522 142.934 211.86 143.604C212.198 144.267 212.367 145.108 212.367 146.129V156.5H210.597V154.084H210.487C210.275 154.535 209.96 154.972 209.543 155.396C209.125 155.821 208.602 156.169 207.972 156.44C207.342 156.712 206.603 156.848 205.755 156.848ZM205.993 155.227C206.934 155.227 207.75 155.018 208.439 154.601C209.129 154.183 209.659 153.63 210.03 152.94C210.408 152.244 210.597 151.479 210.597 150.643V148.436C210.464 148.562 210.242 148.675 209.931 148.774C209.626 148.874 209.271 148.963 208.867 149.043C208.469 149.116 208.071 149.179 207.674 149.232C207.276 149.285 206.918 149.331 206.6 149.371C205.738 149.477 205.002 149.643 204.392 149.868C203.782 150.093 203.315 150.405 202.99 150.803C202.665 151.194 202.503 151.697 202.503 152.314C202.503 153.242 202.835 153.961 203.497 154.472C204.16 154.975 204.992 155.227 205.993 155.227ZM223.65 141.227V142.768H216.362V141.227H223.65ZM218.639 137.568H220.419V152.513C220.419 153.149 220.528 153.65 220.747 154.014C220.966 154.372 221.251 154.627 221.602 154.78C221.953 154.926 222.328 154.999 222.726 154.999C222.958 154.999 223.157 154.985 223.322 154.959C223.488 154.926 223.634 154.893 223.76 154.859L224.138 156.46C223.965 156.527 223.753 156.586 223.501 156.639C223.249 156.699 222.938 156.729 222.567 156.729C221.917 156.729 221.291 156.586 220.687 156.301C220.091 156.016 219.6 155.592 219.216 155.028C218.831 154.465 218.639 153.766 218.639 152.93V137.568ZM228.25 156.5V141.227H230.03V156.5H228.25ZM229.155 138.602C228.79 138.602 228.479 138.48 228.22 138.234C227.962 137.982 227.832 137.681 227.832 137.33C227.832 136.978 227.962 136.68 228.22 136.435C228.479 136.183 228.79 136.057 229.155 136.057C229.519 136.057 229.831 136.183 230.089 136.435C230.348 136.68 230.477 136.978 230.477 137.33C230.477 137.681 230.348 137.982 230.089 138.234C229.831 138.48 229.519 138.602 229.155 138.602ZM241.207 156.818C239.887 156.818 238.721 156.483 237.707 155.814C236.699 155.144 235.91 154.22 235.34 153.04C234.77 151.853 234.485 150.484 234.485 148.933C234.485 147.369 234.77 145.993 235.34 144.807C235.91 143.614 236.699 142.686 237.707 142.023C238.721 141.353 239.887 141.018 241.207 141.018C242.526 141.018 243.689 141.353 244.697 142.023C245.704 142.692 246.493 143.62 247.063 144.807C247.64 145.993 247.928 147.369 247.928 148.933C247.928 150.484 247.643 151.853 247.073 153.04C246.503 154.22 245.711 155.144 244.697 155.814C243.689 156.483 242.526 156.818 241.207 156.818ZM241.207 155.197C242.267 155.197 243.165 154.912 243.901 154.342C244.637 153.772 245.194 153.013 245.572 152.065C245.956 151.117 246.148 150.073 246.148 148.933C246.148 147.793 245.956 146.746 245.572 145.791C245.194 144.837 244.637 144.071 243.901 143.494C243.165 142.918 242.267 142.629 241.207 142.629C240.153 142.629 239.254 142.918 238.512 143.494C237.776 144.071 237.216 144.837 236.832 145.791C236.454 146.746 236.265 147.793 236.265 148.933C236.265 150.073 236.454 151.117 236.832 152.065C237.216 153.013 237.776 153.772 238.512 154.342C239.248 154.912 240.146 155.197 241.207 155.197ZM254.143 146.955V156.5H252.373V141.227H254.094V143.624H254.253C254.611 142.841 255.167 142.215 255.923 141.744C256.685 141.267 257.627 141.028 258.747 141.028C259.774 141.028 260.676 141.244 261.452 141.675C262.234 142.099 262.84 142.725 263.271 143.554C263.709 144.383 263.927 145.4 263.927 146.607V156.5H262.158V146.716C262.158 145.463 261.806 144.472 261.104 143.743C260.408 143.014 259.473 142.649 258.3 142.649C257.497 142.649 256.785 142.821 256.162 143.166C255.539 143.511 255.045 144.008 254.68 144.658C254.322 145.301 254.143 146.066 254.143 146.955ZM277.951 136.136H280.099L287.487 153.875H287.666L295.053 136.136H297.201V156.5H295.451V140.064H295.292L288.421 156.5H286.731L279.86 140.064H279.701V156.5H277.951V136.136ZM307.073 156.848C306.152 156.848 305.31 156.669 304.547 156.311C303.785 155.946 303.179 155.423 302.728 154.74C302.277 154.051 302.052 153.215 302.052 152.234C302.052 151.479 302.194 150.842 302.479 150.325C302.764 149.808 303.169 149.384 303.692 149.053C304.216 148.721 304.836 148.459 305.552 148.267C306.268 148.075 307.056 147.926 307.918 147.82C308.773 147.714 309.496 147.621 310.086 147.541C310.682 147.462 311.136 147.336 311.448 147.163C311.759 146.991 311.915 146.713 311.915 146.328V145.97C311.915 144.929 311.604 144.111 310.981 143.514C310.364 142.911 309.476 142.609 308.316 142.609C307.215 142.609 306.317 142.851 305.621 143.335C304.932 143.819 304.448 144.389 304.17 145.045L302.489 144.439C302.834 143.604 303.311 142.937 303.921 142.44C304.531 141.937 305.214 141.575 305.969 141.357C306.725 141.131 307.491 141.018 308.266 141.018C308.849 141.018 309.456 141.095 310.086 141.247C310.722 141.4 311.312 141.665 311.856 142.043C312.399 142.414 312.84 142.934 313.178 143.604C313.516 144.267 313.685 145.108 313.685 146.129V156.5H311.915V154.084H311.806C311.594 154.535 311.279 154.972 310.861 155.396C310.444 155.821 309.92 156.169 309.29 156.44C308.661 156.712 307.921 156.848 307.073 156.848ZM307.312 155.227C308.253 155.227 309.068 155.018 309.758 154.601C310.447 154.183 310.977 153.63 311.349 152.94C311.726 152.244 311.915 151.479 311.915 150.643V148.436C311.783 148.562 311.561 148.675 311.249 148.774C310.944 148.874 310.59 148.963 310.185 149.043C309.787 149.116 309.39 149.179 308.992 149.232C308.594 149.285 308.236 149.331 307.918 149.371C307.056 149.477 306.321 149.643 305.711 149.868C305.101 150.093 304.634 150.405 304.309 150.803C303.984 151.194 303.822 151.697 303.822 152.314C303.822 153.242 304.153 153.961 304.816 154.472C305.479 154.975 306.311 155.227 307.312 155.227ZM320.723 146.955V156.5H318.953V141.227H320.673V143.624H320.833C321.19 142.841 321.747 142.215 322.503 141.744C323.265 141.267 324.207 141.028 325.327 141.028C326.354 141.028 327.256 141.244 328.031 141.675C328.814 142.099 329.42 142.725 329.851 143.554C330.288 144.383 330.507 145.4 330.507 146.607V156.5H328.737V146.716C328.737 145.463 328.386 144.472 327.683 143.743C326.987 143.014 326.053 142.649 324.879 142.649C324.077 142.649 323.365 142.821 322.742 143.166C322.119 143.511 321.625 144.008 321.26 144.658C320.902 145.301 320.723 146.066 320.723 146.955ZM339.994 156.848C339.072 156.848 338.23 156.669 337.468 156.311C336.706 155.946 336.099 155.423 335.649 154.74C335.198 154.051 334.972 153.215 334.972 152.234C334.972 151.479 335.115 150.842 335.4 150.325C335.685 149.808 336.089 149.384 336.613 149.053C337.137 148.721 337.757 148.459 338.472 148.267C339.188 148.075 339.977 147.926 340.839 147.82C341.694 147.714 342.417 147.621 343.007 147.541C343.603 147.462 344.057 147.336 344.369 147.163C344.68 146.991 344.836 146.713 344.836 146.328V145.97C344.836 144.929 344.524 144.111 343.901 143.514C343.285 142.911 342.397 142.609 341.237 142.609C340.136 142.609 339.238 142.851 338.542 143.335C337.853 143.819 337.369 144.389 337.09 145.045L335.41 144.439C335.755 143.604 336.232 142.937 336.842 142.44C337.452 141.937 338.134 141.575 338.89 141.357C339.646 141.131 340.411 141.018 341.187 141.018C341.77 141.018 342.377 141.095 343.007 141.247C343.643 141.4 344.233 141.665 344.776 142.043C345.32 142.414 345.761 142.934 346.099 143.604C346.437 144.267 346.606 145.108 346.606 146.129V156.5H344.836V154.084H344.727C344.515 154.535 344.2 154.972 343.782 155.396C343.364 155.821 342.841 156.169 342.211 156.44C341.581 156.712 340.842 156.848 339.994 156.848ZM340.232 155.227C341.174 155.227 341.989 155.018 342.678 154.601C343.368 154.183 343.898 153.63 344.269 152.94C344.647 152.244 344.836 151.479 344.836 150.643V148.436C344.703 148.562 344.481 148.675 344.17 148.774C343.865 148.874 343.51 148.963 343.106 149.043C342.708 149.116 342.31 149.179 341.913 149.232C341.515 149.285 341.157 149.331 340.839 149.371C339.977 149.477 339.241 149.643 338.632 149.868C338.022 150.093 337.554 150.405 337.23 150.803C336.905 151.194 336.742 151.697 336.742 152.314C336.742 153.242 337.074 153.961 337.737 154.472C338.399 154.975 339.231 155.227 340.232 155.227ZM357.701 162.545C356.66 162.545 355.749 162.41 354.966 162.138C354.184 161.873 353.525 161.508 352.988 161.044C352.451 160.58 352.033 160.06 351.735 159.483L353.187 158.528C353.405 158.913 353.697 159.291 354.062 159.662C354.433 160.033 354.913 160.341 355.503 160.587C356.1 160.832 356.832 160.955 357.701 160.955C359.053 160.955 360.143 160.616 360.972 159.94C361.807 159.264 362.225 158.214 362.225 156.788V153.348H362.066C361.86 153.812 361.565 154.276 361.181 154.74C360.796 155.197 360.293 155.579 359.67 155.884C359.053 156.188 358.287 156.341 357.373 156.341C356.153 156.341 355.069 156.039 354.121 155.436C353.18 154.833 352.437 153.971 351.894 152.851C351.357 151.724 351.089 150.382 351.089 148.824C351.089 147.279 351.35 145.92 351.874 144.747C352.404 143.574 353.143 142.659 354.091 142.003C355.039 141.347 356.143 141.018 357.402 141.018C358.337 141.018 359.113 141.184 359.729 141.516C360.346 141.84 360.839 142.245 361.211 142.729C361.589 143.213 361.884 143.683 362.096 144.141H362.275V141.227H364.005V156.898C364.005 158.19 363.73 159.254 363.179 160.089C362.629 160.925 361.88 161.541 360.932 161.939C359.984 162.343 358.907 162.545 357.701 162.545ZM357.581 154.72C358.562 154.72 359.401 154.485 360.097 154.014C360.793 153.537 361.327 152.854 361.698 151.966C362.069 151.078 362.255 150.02 362.255 148.794C362.255 147.601 362.072 146.544 361.708 145.622C361.343 144.694 360.813 143.965 360.117 143.435C359.428 142.898 358.582 142.629 357.581 142.629C356.561 142.629 355.699 142.904 354.996 143.455C354.294 144.005 353.763 144.747 353.405 145.682C353.047 146.61 352.868 147.647 352.868 148.794C352.868 149.961 353.051 150.991 353.415 151.886C353.78 152.775 354.313 153.471 355.016 153.974C355.719 154.472 356.574 154.72 357.581 154.72ZM375.425 156.818C374 156.818 372.767 156.487 371.726 155.824C370.686 155.154 369.88 154.23 369.31 153.05C368.747 151.863 368.465 150.498 368.465 148.953C368.465 147.415 368.747 146.05 369.31 144.857C369.88 143.657 370.666 142.719 371.667 142.043C372.674 141.36 373.838 141.018 375.157 141.018C375.985 141.018 376.784 141.171 377.553 141.476C378.322 141.774 379.011 142.235 379.621 142.858C380.238 143.474 380.725 144.253 381.083 145.195C381.441 146.129 381.62 147.236 381.62 148.516V149.391H369.688V147.83H379.81C379.81 146.848 379.611 145.967 379.214 145.185C378.822 144.396 378.276 143.773 377.573 143.315C376.877 142.858 376.071 142.629 375.157 142.629C374.189 142.629 373.337 142.888 372.601 143.405C371.866 143.922 371.289 144.605 370.871 145.453C370.46 146.302 370.251 147.23 370.245 148.237V149.172C370.245 150.385 370.454 151.446 370.871 152.354C371.295 153.255 371.895 153.955 372.671 154.452C373.446 154.949 374.365 155.197 375.425 155.197C376.148 155.197 376.781 155.085 377.324 154.859C377.875 154.634 378.335 154.332 378.706 153.955C379.084 153.57 379.369 153.149 379.562 152.692L381.242 153.239C381.01 153.882 380.629 154.475 380.098 155.018C379.575 155.562 378.919 156 378.13 156.331C377.348 156.656 376.446 156.818 375.425 156.818ZM386.08 156.5V141.227H387.8V143.574H387.959C388.264 142.785 388.771 142.165 389.481 141.714C390.196 141.257 391.055 141.028 392.056 141.028C393.11 141.028 393.975 141.277 394.651 141.774C395.334 142.265 395.844 142.941 396.182 143.803H396.311C396.656 142.954 397.216 142.281 397.992 141.784C398.774 141.28 399.722 141.028 400.836 141.028C402.254 141.028 403.374 141.476 404.196 142.371C405.018 143.259 405.429 144.558 405.429 146.268V156.5H403.66V146.268C403.66 145.062 403.351 144.157 402.735 143.554C402.118 142.951 401.306 142.649 400.299 142.649C399.132 142.649 398.234 143.007 397.604 143.723C396.974 144.439 396.66 145.347 396.66 146.447V156.5H394.85V146.109C394.85 145.075 394.561 144.24 393.985 143.604C393.408 142.967 392.596 142.649 391.549 142.649C390.846 142.649 390.213 142.821 389.65 143.166C389.093 143.511 388.652 143.991 388.327 144.608C388.009 145.218 387.85 145.92 387.85 146.716V156.5H386.08ZM416.85 156.818C415.425 156.818 414.192 156.487 413.151 155.824C412.11 155.154 411.305 154.23 410.735 153.05C410.171 151.863 409.89 150.498 409.89 148.953C409.89 147.415 410.171 146.05 410.735 144.857C411.305 143.657 412.09 142.719 413.091 142.043C414.099 141.36 415.262 141.018 416.581 141.018C417.41 141.018 418.209 141.171 418.978 141.476C419.747 141.774 420.436 142.235 421.046 142.858C421.662 143.474 422.15 144.253 422.508 145.195C422.865 146.129 423.044 147.236 423.044 148.516V149.391H411.113V147.83H421.235C421.235 146.848 421.036 145.967 420.638 145.185C420.247 144.396 419.7 143.773 418.998 143.315C418.302 142.858 417.496 142.629 416.581 142.629C415.614 142.629 414.762 142.888 414.026 143.405C413.29 143.922 412.714 144.605 412.296 145.453C411.885 146.302 411.676 147.23 411.669 148.237V149.172C411.669 150.385 411.878 151.446 412.296 152.354C412.72 153.255 413.32 153.955 414.096 154.452C414.871 154.949 415.789 155.197 416.85 155.197C417.572 155.197 418.205 155.085 418.749 154.859C419.299 154.634 419.76 154.332 420.131 153.955C420.509 153.57 420.794 153.149 420.986 152.692L422.667 153.239C422.435 153.882 422.053 154.475 421.523 155.018C420.999 155.562 420.343 156 419.554 156.331C418.772 156.656 417.871 156.818 416.85 156.818ZM429.275 146.955V156.5H427.505V141.227H429.225V143.624H429.384C429.742 142.841 430.299 142.215 431.054 141.744C431.817 141.267 432.758 141.028 433.878 141.028C434.906 141.028 435.807 141.244 436.583 141.675C437.365 142.099 437.972 142.725 438.402 143.554C438.84 144.383 439.059 145.4 439.059 146.607V156.5H437.289V146.716C437.289 145.463 436.937 144.472 436.235 143.743C435.539 143.014 434.604 142.649 433.431 142.649C432.629 142.649 431.916 142.821 431.293 143.166C430.67 143.511 430.176 144.008 429.811 144.658C429.454 145.301 429.275 146.066 429.275 146.955ZM450.295 141.227V142.768H443.007V141.227H450.295ZM445.284 137.568H447.064V152.513C447.064 153.149 447.173 153.65 447.392 154.014C447.61 154.372 447.896 154.627 448.247 154.78C448.598 154.926 448.973 154.999 449.37 154.999C449.602 154.999 449.801 154.985 449.967 154.959C450.133 154.926 450.279 154.893 450.405 154.859L450.782 156.46C450.61 156.527 450.398 156.586 450.146 156.639C449.894 156.699 449.583 156.729 449.211 156.729C448.562 156.729 447.935 156.586 447.332 156.301C446.735 156.016 446.245 155.592 445.86 155.028C445.476 154.465 445.284 153.766 445.284 152.93V137.568Z" fill="black"/>
<line x1="53.4731" y1="84.5" x2="53.4731" y2="363.5" stroke="black" stroke-width="2"/>
<line x1="100.558" y1="145.5" x2="52.5579" y2="145.5" stroke="black" stroke-width="2"/>
<rect x="101.558" y="194.5" width="345" height="42" stroke="black" stroke-width="2"/>
<path d="M115.262 225.5V205.136H121.835C123.28 205.136 124.486 205.415 125.454 205.972C126.429 206.522 127.161 207.271 127.652 208.219C128.149 209.167 128.397 210.234 128.397 211.42C128.397 212.607 128.152 213.678 127.662 214.632C127.171 215.58 126.442 216.332 125.474 216.889C124.506 217.439 123.303 217.714 121.865 217.714H116.694V216.044H121.815C122.882 216.044 123.767 215.845 124.47 215.447C125.172 215.043 125.696 214.493 126.041 213.797C126.392 213.101 126.568 212.309 126.568 211.42C126.568 210.532 126.392 209.74 126.041 209.044C125.696 208.348 125.169 207.801 124.46 207.403C123.757 207.006 122.866 206.807 121.785 206.807H117.122V225.5H115.262ZM138.727 225.818C137.407 225.818 136.241 225.483 135.227 224.814C134.219 224.144 133.43 223.22 132.86 222.04C132.29 220.853 132.005 219.484 132.005 217.933C132.005 216.369 132.29 214.993 132.86 213.807C133.43 212.614 134.219 211.686 135.227 211.023C136.241 210.353 137.407 210.018 138.727 210.018C140.046 210.018 141.209 210.353 142.217 211.023C143.224 211.692 144.013 212.62 144.583 213.807C145.16 214.993 145.448 216.369 145.448 217.933C145.448 219.484 145.163 220.853 144.593 222.04C144.023 223.22 143.231 224.144 142.217 224.814C141.209 225.483 140.046 225.818 138.727 225.818ZM138.727 224.197C139.787 224.197 140.685 223.912 141.421 223.342C142.157 222.772 142.714 222.013 143.092 221.065C143.476 220.117 143.668 219.073 143.668 217.933C143.668 216.793 143.476 215.746 143.092 214.791C142.714 213.837 142.157 213.071 141.421 212.494C140.685 211.918 139.787 211.629 138.727 211.629C137.673 211.629 136.774 211.918 136.032 212.494C135.296 213.071 134.736 213.837 134.352 214.791C133.974 215.746 133.785 216.793 133.785 217.933C133.785 219.073 133.974 220.117 134.352 221.065C134.736 222.013 135.296 222.772 136.032 223.342C136.768 223.912 137.666 224.197 138.727 224.197ZM160.155 213.578L158.534 214.036C158.375 213.578 158.15 213.164 157.858 212.793C157.566 212.421 157.185 212.126 156.714 211.908C156.25 211.689 155.674 211.58 154.984 211.58C153.95 211.58 153.102 211.825 152.439 212.315C151.776 212.806 151.445 213.439 151.445 214.214C151.445 214.871 151.67 215.404 152.121 215.815C152.578 216.22 153.281 216.541 154.229 216.78L156.535 217.347C157.815 217.658 158.773 218.152 159.409 218.828C160.052 219.504 160.374 220.353 160.374 221.374C160.374 222.235 160.135 223.001 159.658 223.67C159.18 224.34 158.514 224.867 157.659 225.251C156.811 225.629 155.826 225.818 154.706 225.818C153.214 225.818 151.985 225.483 151.017 224.814C150.049 224.138 149.429 223.163 149.158 221.891L150.858 221.473C151.077 222.381 151.504 223.067 152.141 223.531C152.784 223.995 153.629 224.227 154.676 224.227C155.849 224.227 156.787 223.965 157.49 223.442C158.193 222.911 158.544 222.249 158.544 221.453C158.544 220.837 158.338 220.32 157.928 219.902C157.517 219.478 156.893 219.166 156.058 218.967L153.562 218.371C152.237 218.053 151.256 217.549 150.619 216.859C149.983 216.17 149.665 215.315 149.665 214.294C149.665 213.452 149.893 212.713 150.351 212.077C150.808 211.434 151.438 210.93 152.24 210.565C153.042 210.201 153.957 210.018 154.984 210.018C156.383 210.018 157.5 210.337 158.335 210.973C159.177 211.603 159.784 212.471 160.155 213.578ZM170.825 210.227V211.768H163.536V210.227H170.825ZM165.813 206.568H167.593V221.513C167.593 222.149 167.702 222.65 167.921 223.014C168.14 223.372 168.425 223.627 168.776 223.78C169.128 223.926 169.502 223.999 169.9 223.999C170.132 223.999 170.331 223.985 170.496 223.959C170.662 223.926 170.808 223.893 170.934 223.859L171.312 225.46C171.139 225.527 170.927 225.586 170.675 225.639C170.423 225.699 170.112 225.729 169.741 225.729C169.091 225.729 168.465 225.586 167.861 225.301C167.265 225.016 166.774 224.592 166.39 224.028C166.005 223.465 165.813 222.766 165.813 221.93V206.568ZM177.502 215.955V225.5H175.732V205.136H177.502V212.624H177.661C178.019 211.835 178.573 211.205 179.322 210.734C180.077 210.264 181.032 210.028 182.185 210.028C183.219 210.028 184.128 210.241 184.91 210.665C185.692 211.089 186.302 211.715 186.739 212.544C187.177 213.373 187.396 214.393 187.396 215.607V225.5H185.616V215.716C185.616 214.456 185.264 213.465 184.562 212.743C183.866 212.014 182.924 211.649 181.738 211.649C180.923 211.649 180.197 211.821 179.56 212.166C178.924 212.511 178.42 213.008 178.049 213.658C177.684 214.301 177.502 215.066 177.502 215.955ZM202.321 219.663V210.227H204.091V225.5H202.321V222.964H202.182C201.824 223.747 201.257 224.4 200.481 224.923C199.706 225.44 198.758 225.699 197.638 225.699C196.663 225.699 195.798 225.487 195.043 225.062C194.287 224.632 193.694 224.002 193.263 223.173C192.832 222.345 192.616 221.327 192.616 220.121V210.227H194.386V220.011C194.386 221.205 194.738 222.166 195.44 222.895C196.143 223.617 197.044 223.979 198.145 223.979C198.834 223.979 199.497 223.813 200.133 223.482C200.77 223.15 201.293 222.666 201.704 222.03C202.115 221.387 202.321 220.598 202.321 219.663ZM209.337 225.5V210.227H211.057V212.574H211.216C211.521 211.785 212.028 211.165 212.737 210.714C213.453 210.257 214.311 210.028 215.312 210.028C216.366 210.028 217.231 210.277 217.908 210.774C218.59 211.265 219.101 211.941 219.439 212.803H219.568C219.913 211.954 220.473 211.281 221.248 210.784C222.031 210.28 222.979 210.028 224.092 210.028C225.511 210.028 226.631 210.476 227.453 211.371C228.275 212.259 228.686 213.558 228.686 215.268V225.5H226.916V215.268C226.916 214.062 226.608 213.157 225.991 212.554C225.375 211.951 224.563 211.649 223.555 211.649C222.389 211.649 221.49 212.007 220.861 212.723C220.231 213.439 219.916 214.347 219.916 215.447V225.5H218.106V215.109C218.106 214.075 217.818 213.24 217.241 212.604C216.665 211.967 215.853 211.649 214.805 211.649C214.103 211.649 213.47 211.821 212.906 212.166C212.349 212.511 211.909 212.991 211.584 213.608C211.266 214.218 211.106 214.92 211.106 215.716V225.5H209.337ZM239.868 225.818C238.549 225.818 237.382 225.483 236.368 224.814C235.36 224.144 234.571 223.22 234.001 222.04C233.431 220.853 233.146 219.484 233.146 217.933C233.146 216.369 233.431 214.993 234.001 213.807C234.571 212.614 235.36 211.686 236.368 211.023C237.382 210.353 238.549 210.018 239.868 210.018C241.187 210.018 242.35 210.353 243.358 211.023C244.365 211.692 245.154 212.62 245.724 213.807C246.301 214.993 246.589 216.369 246.589 217.933C246.589 219.484 246.304 220.853 245.734 222.04C245.164 223.22 244.372 224.144 243.358 224.814C242.35 225.483 241.187 225.818 239.868 225.818ZM239.868 224.197C240.928 224.197 241.827 223.912 242.562 223.342C243.298 222.772 243.855 222.013 244.233 221.065C244.617 220.117 244.81 219.073 244.81 217.933C244.81 216.793 244.617 215.746 244.233 214.791C243.855 213.837 243.298 213.071 242.562 212.494C241.827 211.918 240.928 211.629 239.868 211.629C238.814 211.629 237.916 211.918 237.173 212.494C236.437 213.071 235.877 213.837 235.493 214.791C235.115 215.746 234.926 216.793 234.926 217.933C234.926 219.073 235.115 220.117 235.493 221.065C235.877 222.013 236.437 222.772 237.173 223.342C237.909 223.912 238.807 224.197 239.868 224.197ZM260.739 219.663V210.227H262.509V225.5H260.739V222.964H260.6C260.242 223.747 259.675 224.4 258.9 224.923C258.124 225.44 257.176 225.699 256.056 225.699C255.082 225.699 254.216 225.487 253.461 225.062C252.705 224.632 252.112 224.002 251.681 223.173C251.25 222.345 251.035 221.327 251.035 220.121V210.227H252.805V220.011C252.805 221.205 253.156 222.166 253.859 222.895C254.561 223.617 255.463 223.979 256.563 223.979C257.252 223.979 257.915 223.813 258.552 223.482C259.188 223.15 259.712 222.666 260.123 222.03C260.534 221.387 260.739 220.598 260.739 219.663ZM278.016 213.578L276.395 214.036C276.236 213.578 276.011 213.164 275.719 212.793C275.428 212.421 275.046 212.126 274.576 211.908C274.112 211.689 273.535 211.58 272.846 211.58C271.812 211.58 270.963 211.825 270.3 212.315C269.637 212.806 269.306 213.439 269.306 214.214C269.306 214.871 269.531 215.404 269.982 215.815C270.439 216.22 271.142 216.541 272.09 216.78L274.397 217.347C275.676 217.658 276.634 218.152 277.27 218.828C277.913 219.504 278.235 220.353 278.235 221.374C278.235 222.235 277.996 223.001 277.519 223.67C277.042 224.34 276.376 224.867 275.52 225.251C274.672 225.629 273.688 225.818 272.567 225.818C271.076 225.818 269.846 225.483 268.878 224.814C267.911 224.138 267.291 223.163 267.019 221.891L268.719 221.473C268.938 222.381 269.366 223.067 270.002 223.531C270.645 223.995 271.49 224.227 272.537 224.227C273.711 224.227 274.649 223.965 275.351 223.442C276.054 222.911 276.405 222.249 276.405 221.453C276.405 220.837 276.2 220.32 275.789 219.902C275.378 219.478 274.755 219.166 273.92 218.967L271.424 218.371C270.098 218.053 269.117 217.549 268.481 216.859C267.844 216.17 267.526 215.315 267.526 214.294C267.526 213.452 267.755 212.713 268.212 212.077C268.67 211.434 269.299 210.93 270.101 210.565C270.903 210.201 271.818 210.018 272.846 210.018C274.244 210.018 275.361 210.337 276.197 210.973C277.038 211.603 277.645 212.471 278.016 213.578ZM291.473 205.136H293.621L301.009 222.875H301.188L308.575 205.136H310.723V225.5H308.973V209.064H308.814L301.943 225.5H300.253L293.382 209.064H293.223V225.5H291.473V205.136ZM322.504 225.818C321.079 225.818 319.846 225.487 318.805 224.824C317.764 224.154 316.959 223.23 316.389 222.05C315.826 220.863 315.544 219.498 315.544 217.953C315.544 216.415 315.826 215.05 316.389 213.857C316.959 212.657 317.745 211.719 318.746 211.043C319.753 210.36 320.916 210.018 322.236 210.018C323.064 210.018 323.863 210.171 324.632 210.476C325.401 210.774 326.09 211.235 326.7 211.858C327.317 212.474 327.804 213.253 328.162 214.195C328.52 215.129 328.699 216.236 328.699 217.516V218.391H316.767V216.83H326.889C326.889 215.848 326.69 214.967 326.292 214.185C325.901 213.396 325.354 212.773 324.652 212.315C323.956 211.858 323.15 211.629 322.236 211.629C321.268 211.629 320.416 211.888 319.68 212.405C318.944 212.922 318.368 213.605 317.95 214.453C317.539 215.302 317.33 216.23 317.324 217.237V218.172C317.324 219.385 317.532 220.446 317.95 221.354C318.374 222.255 318.974 222.955 319.75 223.452C320.525 223.949 321.443 224.197 322.504 224.197C323.227 224.197 323.86 224.085 324.403 223.859C324.953 223.634 325.414 223.332 325.785 222.955C326.163 222.57 326.448 222.149 326.64 221.692L328.321 222.239C328.089 222.882 327.708 223.475 327.177 224.018C326.654 224.562 325.997 225 325.209 225.331C324.426 225.656 323.525 225.818 322.504 225.818ZM343.42 213.578L341.8 214.036C341.64 213.578 341.415 213.164 341.123 212.793C340.832 212.421 340.451 212.126 339.98 211.908C339.516 211.689 338.939 211.58 338.25 211.58C337.216 211.58 336.367 211.825 335.704 212.315C335.041 212.806 334.71 213.439 334.71 214.214C334.71 214.871 334.935 215.404 335.386 215.815C335.844 216.22 336.546 216.541 337.494 216.78L339.801 217.347C341.08 217.658 342.038 218.152 342.675 218.828C343.318 219.504 343.639 220.353 343.639 221.374C343.639 222.235 343.4 223.001 342.923 223.67C342.446 224.34 341.78 224.867 340.925 225.251C340.076 225.629 339.092 225.818 337.971 225.818C336.48 225.818 335.25 225.483 334.282 224.814C333.315 224.138 332.695 223.163 332.423 221.891L334.123 221.473C334.342 222.381 334.77 223.067 335.406 223.531C336.049 223.995 336.894 224.227 337.942 224.227C339.115 224.227 340.053 223.965 340.755 223.442C341.458 222.911 341.809 222.249 341.809 221.453C341.809 220.837 341.604 220.32 341.193 219.902C340.782 219.478 340.159 219.166 339.324 218.967L336.828 218.371C335.502 218.053 334.521 217.549 333.885 216.859C333.248 216.17 332.93 215.315 332.93 214.294C332.93 213.452 333.159 212.713 333.616 212.077C334.074 211.434 334.703 210.93 335.505 210.565C336.308 210.201 337.222 210.018 338.25 210.018C339.648 210.018 340.765 210.337 341.601 210.973C342.443 211.603 343.049 212.471 343.42 213.578ZM358.336 213.578L356.715 214.036C356.556 213.578 356.331 213.164 356.039 212.793C355.747 212.421 355.366 212.126 354.895 211.908C354.431 211.689 353.855 211.58 353.165 211.58C352.131 211.58 351.283 211.825 350.62 212.315C349.957 212.806 349.625 213.439 349.625 214.214C349.625 214.871 349.851 215.404 350.302 215.815C350.759 216.22 351.462 216.541 352.41 216.78L354.716 217.347C355.996 217.658 356.954 218.152 357.59 218.828C358.233 219.504 358.554 220.353 358.554 221.374C358.554 222.235 358.316 223.001 357.839 223.67C357.361 224.34 356.695 224.867 355.84 225.251C354.991 225.629 354.007 225.818 352.887 225.818C351.395 225.818 350.166 225.483 349.198 224.814C348.23 224.138 347.61 223.163 347.339 221.891L349.039 221.473C349.258 222.381 349.685 223.067 350.322 223.531C350.965 223.995 351.81 224.227 352.857 224.227C354.03 224.227 354.968 223.965 355.671 223.442C356.374 222.911 356.725 222.249 356.725 221.453C356.725 220.837 356.519 220.32 356.108 219.902C355.697 219.478 355.074 219.166 354.239 218.967L351.743 218.371C350.418 218.053 349.437 217.549 348.8 216.859C348.164 216.17 347.846 215.315 347.846 214.294C347.846 213.452 348.074 212.713 348.532 212.077C348.989 211.434 349.619 210.93 350.421 210.565C351.223 210.201 352.138 210.018 353.165 210.018C354.564 210.018 355.681 210.337 356.516 210.973C357.358 211.603 357.965 212.471 358.336 213.578ZM367.255 225.848C366.334 225.848 365.492 225.669 364.73 225.311C363.968 224.946 363.361 224.423 362.91 223.74C362.46 223.051 362.234 222.215 362.234 221.234C362.234 220.479 362.377 219.842 362.662 219.325C362.947 218.808 363.351 218.384 363.875 218.053C364.398 217.721 365.018 217.459 365.734 217.267C366.45 217.075 367.239 216.926 368.101 216.82C368.956 216.714 369.678 216.621 370.268 216.541C370.865 216.462 371.319 216.336 371.63 216.163C371.942 215.991 372.098 215.713 372.098 215.328V214.97C372.098 213.929 371.786 213.111 371.163 212.514C370.547 211.911 369.658 211.609 368.498 211.609C367.398 211.609 366.5 211.851 365.804 212.335C365.114 212.819 364.63 213.389 364.352 214.045L362.672 213.439C363.016 212.604 363.494 211.937 364.103 211.44C364.713 210.937 365.396 210.575 366.152 210.357C366.907 210.131 367.673 210.018 368.449 210.018C369.032 210.018 369.638 210.095 370.268 210.247C370.905 210.4 371.495 210.665 372.038 211.043C372.582 211.414 373.022 211.934 373.361 212.604C373.699 213.267 373.868 214.108 373.868 215.129V225.5H372.098V223.084H371.988C371.776 223.535 371.461 223.972 371.044 224.396C370.626 224.821 370.103 225.169 369.473 225.44C368.843 225.712 368.104 225.848 367.255 225.848ZM367.494 224.227C368.435 224.227 369.251 224.018 369.94 223.601C370.629 223.183 371.16 222.63 371.531 221.94C371.909 221.244 372.098 220.479 372.098 219.643V217.436C371.965 217.562 371.743 217.675 371.432 217.774C371.127 217.874 370.772 217.963 370.368 218.043C369.97 218.116 369.572 218.179 369.174 218.232C368.777 218.285 368.419 218.331 368.101 218.371C367.239 218.477 366.503 218.643 365.893 218.868C365.283 219.093 364.816 219.405 364.491 219.803C364.166 220.194 364.004 220.697 364.004 221.314C364.004 222.242 364.335 222.961 364.998 223.472C365.661 223.975 366.493 224.227 367.494 224.227ZM384.962 231.545C383.922 231.545 383.01 231.41 382.228 231.138C381.446 230.873 380.786 230.508 380.249 230.044C379.712 229.58 379.295 229.06 378.997 228.483L380.448 227.528C380.667 227.913 380.959 228.291 381.323 228.662C381.694 229.033 382.175 229.341 382.765 229.587C383.362 229.832 384.094 229.955 384.962 229.955C386.315 229.955 387.405 229.616 388.234 228.94C389.069 228.264 389.487 227.214 389.487 225.788V222.348H389.328C389.122 222.812 388.827 223.276 388.443 223.74C388.058 224.197 387.554 224.579 386.931 224.884C386.315 225.188 385.549 225.341 384.634 225.341C383.415 225.341 382.331 225.039 381.383 224.436C380.442 223.833 379.699 222.971 379.156 221.851C378.619 220.724 378.35 219.382 378.35 217.824C378.35 216.279 378.612 214.92 379.136 213.747C379.666 212.574 380.405 211.659 381.353 211.003C382.301 210.347 383.405 210.018 384.664 210.018C385.599 210.018 386.374 210.184 386.991 210.516C387.607 210.84 388.101 211.245 388.472 211.729C388.85 212.213 389.145 212.683 389.357 213.141H389.536V210.227H391.266V225.898C391.266 227.19 390.991 228.254 390.441 229.089C389.891 229.925 389.142 230.541 388.194 230.939C387.246 231.343 386.169 231.545 384.962 231.545ZM384.843 223.72C385.824 223.72 386.663 223.485 387.359 223.014C388.055 222.537 388.588 221.854 388.96 220.966C389.331 220.078 389.516 219.02 389.516 217.794C389.516 216.601 389.334 215.544 388.97 214.622C388.605 213.694 388.075 212.965 387.379 212.435C386.689 211.898 385.844 211.629 384.843 211.629C383.822 211.629 382.961 211.904 382.258 212.455C381.555 213.005 381.025 213.747 380.667 214.682C380.309 215.61 380.13 216.647 380.13 217.794C380.13 218.961 380.312 219.991 380.677 220.886C381.042 221.775 381.575 222.471 382.278 222.974C382.98 223.472 383.836 223.72 384.843 223.72ZM396.532 225.5V210.227H398.312V225.5H396.532ZM397.437 207.602C397.072 207.602 396.761 207.48 396.502 207.234C396.244 206.982 396.114 206.681 396.114 206.33C396.114 205.978 396.244 205.68 396.502 205.435C396.761 205.183 397.072 205.057 397.437 205.057C397.801 205.057 398.113 205.183 398.372 205.435C398.63 205.68 398.759 205.978 398.759 206.33C398.759 206.681 398.63 206.982 398.372 207.234C398.113 207.48 397.801 207.602 397.437 207.602ZM405.323 215.955V225.5H403.553V210.227H405.273V212.624H405.432C405.79 211.841 406.347 211.215 407.102 210.744C407.865 210.267 408.806 210.028 409.926 210.028C410.954 210.028 411.855 210.244 412.631 210.675C413.413 211.099 414.019 211.725 414.45 212.554C414.888 213.383 415.107 214.4 415.107 215.607V225.5H413.337V215.716C413.337 214.463 412.985 213.472 412.283 212.743C411.587 212.014 410.652 211.649 409.479 211.649C408.677 211.649 407.964 211.821 407.341 212.166C406.718 212.511 406.224 213.008 405.859 213.658C405.501 214.301 405.323 215.066 405.323 215.955ZM426.154 231.545C425.113 231.545 424.202 231.41 423.42 231.138C422.638 230.873 421.978 230.508 421.441 230.044C420.904 229.58 420.487 229.06 420.188 228.483L421.64 227.528C421.859 227.913 422.15 228.291 422.515 228.662C422.886 229.033 423.367 229.341 423.957 229.587C424.553 229.832 425.286 229.955 426.154 229.955C427.506 229.955 428.597 229.616 429.426 228.94C430.261 228.264 430.678 227.214 430.678 225.788V222.348H430.519C430.314 222.812 430.019 223.276 429.634 223.74C429.25 224.197 428.746 224.579 428.123 224.884C427.506 225.188 426.741 225.341 425.826 225.341C424.606 225.341 423.523 225.039 422.575 224.436C421.633 223.833 420.891 222.971 420.347 221.851C419.81 220.724 419.542 219.382 419.542 217.824C419.542 216.279 419.804 214.92 420.327 213.747C420.858 212.574 421.597 211.659 422.545 211.003C423.493 210.347 424.596 210.018 425.856 210.018C426.791 210.018 427.566 210.184 428.183 210.516C428.799 210.84 429.293 211.245 429.664 211.729C430.042 212.213 430.337 212.683 430.549 213.141H430.728V210.227H432.458V225.898C432.458 227.19 432.183 228.254 431.633 229.089C431.083 229.925 430.334 230.541 429.386 230.939C428.438 231.343 427.361 231.545 426.154 231.545ZM426.035 223.72C427.016 223.72 427.854 223.485 428.551 223.014C429.247 222.537 429.78 221.854 430.151 220.966C430.523 220.078 430.708 219.02 430.708 217.794C430.708 216.601 430.526 215.544 430.161 214.622C429.797 213.694 429.266 212.965 428.57 212.435C427.881 211.898 427.036 211.629 426.035 211.629C425.014 211.629 424.152 211.904 423.45 212.455C422.747 213.005 422.217 213.747 421.859 214.682C421.501 215.61 421.322 216.647 421.322 217.794C421.322 218.961 421.504 219.991 421.869 220.886C422.233 221.775 422.767 222.471 423.47 222.974C424.172 223.472 425.027 223.72 426.035 223.72Z" fill="black"/>
<line x1="100.558" y1="214.5" x2="52.5579" y2="214.5" stroke="black" stroke-width="2"/>
<rect x="101.558" y="263.5" width="241" height="42" stroke="black" stroke-width="2"/>
<path d="M131.957 284.318C131.957 286.439 131.579 288.286 130.823 289.857C130.068 291.421 129.027 292.634 127.701 293.496C126.382 294.351 124.864 294.778 123.147 294.778C121.43 294.778 119.909 294.351 118.583 293.496C117.264 292.634 116.227 291.421 115.471 289.857C114.722 288.286 114.348 286.439 114.348 284.318C114.348 282.197 114.722 280.354 115.471 278.79C116.227 277.219 117.268 276.006 118.593 275.151C119.919 274.289 121.437 273.858 123.147 273.858C124.864 273.858 126.382 274.289 127.701 275.151C129.027 276.006 130.068 277.219 130.823 278.79C131.579 280.354 131.957 282.197 131.957 284.318ZM130.147 284.318C130.147 282.495 129.842 280.934 129.233 279.635C128.623 278.329 127.791 277.331 126.737 276.642C125.683 275.953 124.486 275.608 123.147 275.608C121.815 275.608 120.622 275.953 119.568 276.642C118.514 277.331 117.679 278.326 117.062 279.625C116.452 280.924 116.147 282.489 116.147 284.318C116.147 286.141 116.452 287.702 117.062 289.001C117.672 290.301 118.504 291.298 119.558 291.994C120.612 292.684 121.808 293.028 123.147 293.028C124.486 293.028 125.683 292.684 126.737 291.994C127.797 291.305 128.633 290.311 129.243 289.011C129.852 287.705 130.154 286.141 130.147 284.318ZM138.416 284.955V294.5H136.646V279.227H138.366V281.624H138.525C138.883 280.841 139.44 280.215 140.196 279.744C140.958 279.267 141.899 279.028 143.019 279.028C144.047 279.028 144.948 279.244 145.724 279.675C146.506 280.099 147.113 280.725 147.544 281.554C147.981 282.383 148.2 283.4 148.2 284.607V294.5H146.43V284.716C146.43 283.463 146.079 282.472 145.376 281.743C144.68 281.014 143.745 280.649 142.572 280.649C141.77 280.649 141.057 280.821 140.434 281.166C139.811 281.511 139.317 282.008 138.953 282.658C138.595 283.301 138.416 284.066 138.416 284.955ZM155.191 274.136V294.5H153.421V274.136H155.191ZM160.454 294.5V279.227H162.234V294.5H160.454ZM161.359 276.602C160.994 276.602 160.682 276.48 160.424 276.234C160.165 275.982 160.036 275.681 160.036 275.33C160.036 274.978 160.165 274.68 160.424 274.435C160.682 274.183 160.994 274.057 161.359 274.057C161.723 274.057 162.035 274.183 162.293 274.435C162.552 274.68 162.681 274.978 162.681 275.33C162.681 275.681 162.552 275.982 162.293 276.234C162.035 276.48 161.723 276.602 161.359 276.602ZM169.244 284.955V294.5H167.474V279.227H169.195V281.624H169.354C169.712 280.841 170.268 280.215 171.024 279.744C171.786 279.267 172.728 279.028 173.848 279.028C174.875 279.028 175.777 279.244 176.552 279.675C177.335 280.099 177.941 280.725 178.372 281.554C178.81 282.383 179.028 283.4 179.028 284.607V294.5H177.258V284.716C177.258 283.463 176.907 282.472 176.204 281.743C175.508 281.014 174.574 280.649 173.4 280.649C172.598 280.649 171.886 280.821 171.263 281.166C170.64 281.511 170.146 282.008 169.781 282.658C169.423 283.301 169.244 284.066 169.244 284.955ZM190.424 294.818C188.999 294.818 187.766 294.487 186.725 293.824C185.684 293.154 184.879 292.23 184.309 291.05C183.745 289.863 183.464 288.498 183.464 286.953C183.464 285.415 183.745 284.05 184.309 282.857C184.879 281.657 185.664 280.719 186.665 280.043C187.673 279.36 188.836 279.018 190.155 279.018C190.984 279.018 191.783 279.171 192.552 279.476C193.321 279.774 194.01 280.235 194.62 280.858C195.236 281.474 195.724 282.253 196.082 283.195C196.44 284.129 196.619 285.236 196.619 286.516V287.391H184.687V285.83H194.809C194.809 284.848 194.61 283.967 194.212 283.185C193.821 282.396 193.274 281.773 192.572 281.315C191.876 280.858 191.07 280.629 190.155 280.629C189.188 280.629 188.336 280.888 187.6 281.405C186.864 281.922 186.288 282.605 185.87 283.453C185.459 284.302 185.25 285.23 185.244 286.237V287.172C185.244 288.385 185.452 289.446 185.87 290.354C186.294 291.255 186.894 291.955 187.67 292.452C188.445 292.949 189.363 293.197 190.424 293.197C191.146 293.197 191.78 293.085 192.323 292.859C192.873 292.634 193.334 292.332 193.705 291.955C194.083 291.57 194.368 291.149 194.56 290.692L196.241 291.239C196.009 291.882 195.628 292.475 195.097 293.018C194.574 293.562 193.917 294 193.128 294.331C192.346 294.656 191.445 294.818 190.424 294.818ZM209.882 274.136H212.029L219.417 291.875H219.596L226.984 274.136H229.132V294.5H227.382V278.064H227.223L220.352 294.5H218.661L211.791 278.064H211.632V294.5H209.882V274.136ZM240.913 294.818C239.487 294.818 238.254 294.487 237.214 293.824C236.173 293.154 235.368 292.23 234.797 291.05C234.234 289.863 233.952 288.498 233.952 286.953C233.952 285.415 234.234 284.05 234.797 282.857C235.368 281.657 236.153 280.719 237.154 280.043C238.162 279.36 239.325 279.018 240.644 279.018C241.473 279.018 242.271 279.171 243.04 279.476C243.809 279.774 244.499 280.235 245.109 280.858C245.725 281.474 246.212 282.253 246.57 283.195C246.928 284.129 247.107 285.236 247.107 286.516V287.391H235.175V285.83H245.297C245.297 284.848 245.099 283.967 244.701 283.185C244.31 282.396 243.763 281.773 243.06 281.315C242.364 280.858 241.559 280.629 240.644 280.629C239.676 280.629 238.824 280.888 238.089 281.405C237.353 281.922 236.776 282.605 236.359 283.453C235.948 284.302 235.739 285.23 235.732 286.237V287.172C235.732 288.385 235.941 289.446 236.359 290.354C236.783 291.255 237.383 291.955 238.158 292.452C238.934 292.949 239.852 293.197 240.913 293.197C241.635 293.197 242.268 293.085 242.812 292.859C243.362 292.634 243.823 292.332 244.194 291.955C244.572 291.57 244.857 291.149 245.049 290.692L246.729 291.239C246.497 291.882 246.116 292.475 245.586 293.018C245.062 293.562 244.406 294 243.617 294.331C242.835 294.656 241.933 294.818 240.913 294.818ZM251.567 294.5V279.227H253.287V281.574H253.447C253.752 280.785 254.259 280.165 254.968 279.714C255.684 279.257 256.542 279.028 257.543 279.028C258.597 279.028 259.462 279.277 260.138 279.774C260.821 280.265 261.332 280.941 261.67 281.803H261.799C262.144 280.954 262.704 280.281 263.479 279.784C264.261 279.28 265.209 279.028 266.323 279.028C267.742 279.028 268.862 279.476 269.684 280.371C270.506 281.259 270.917 282.558 270.917 284.268V294.5H269.147V284.268C269.147 283.062 268.839 282.157 268.222 281.554C267.606 280.951 266.794 280.649 265.786 280.649C264.619 280.649 263.721 281.007 263.091 281.723C262.462 282.439 262.147 283.347 262.147 284.447V294.5H260.337V284.109C260.337 283.075 260.049 282.24 259.472 281.604C258.895 280.967 258.083 280.649 257.036 280.649C256.333 280.649 255.7 280.821 255.137 281.166C254.58 281.511 254.139 281.991 253.814 282.608C253.496 283.218 253.337 283.92 253.337 284.716V294.5H251.567ZM282.099 294.818C280.779 294.818 279.613 294.483 278.599 293.814C277.591 293.144 276.802 292.22 276.232 291.04C275.662 289.853 275.377 288.484 275.377 286.933C275.377 285.369 275.662 283.993 276.232 282.807C276.802 281.614 277.591 280.686 278.599 280.023C279.613 279.353 280.779 279.018 282.099 279.018C283.418 279.018 284.581 279.353 285.589 280.023C286.596 280.692 287.385 281.62 287.955 282.807C288.532 283.993 288.82 285.369 288.82 286.933C288.82 288.484 288.535 289.853 287.965 291.04C287.395 292.22 286.603 293.144 285.589 293.814C284.581 294.483 283.418 294.818 282.099 294.818ZM282.099 293.197C283.159 293.197 284.057 292.912 284.793 292.342C285.529 291.772 286.086 291.013 286.464 290.065C286.848 289.117 287.04 288.073 287.04 286.933C287.04 285.793 286.848 284.746 286.464 283.791C286.086 282.837 285.529 282.071 284.793 281.494C284.057 280.918 283.159 280.629 282.099 280.629C281.045 280.629 280.146 280.918 279.404 281.494C278.668 282.071 278.108 282.837 277.724 283.791C277.346 284.746 277.157 285.793 277.157 286.933C277.157 288.073 277.346 289.117 277.724 290.065C278.108 291.013 278.668 291.772 279.404 292.342C280.14 292.912 281.038 293.197 282.099 293.197ZM293.265 294.5V279.227H294.986V281.574H295.115C295.42 280.805 295.95 280.185 296.706 279.714C297.468 279.237 298.33 278.999 299.291 278.999C299.437 278.999 299.599 279.002 299.778 279.009C299.957 279.015 300.106 279.022 300.226 279.028V280.828C300.146 280.815 300.007 280.795 299.808 280.768C299.609 280.742 299.394 280.729 299.162 280.729C298.366 280.729 297.657 280.898 297.034 281.236C296.417 281.567 295.93 282.028 295.572 282.618C295.214 283.208 295.035 283.881 295.035 284.636V294.5H293.265ZM303.826 294.5V279.227H305.606V294.5H303.826ZM304.731 276.602C304.366 276.602 304.054 276.48 303.796 276.234C303.537 275.982 303.408 275.681 303.408 275.33C303.408 274.978 303.537 274.68 303.796 274.435C304.054 274.183 304.366 274.057 304.731 274.057C305.095 274.057 305.407 274.183 305.665 274.435C305.924 274.68 306.053 274.978 306.053 275.33C306.053 275.681 305.924 275.982 305.665 276.234C305.407 276.48 305.095 276.602 304.731 276.602ZM315.112 294.848C314.191 294.848 313.349 294.669 312.586 294.311C311.824 293.946 311.218 293.423 310.767 292.74C310.316 292.051 310.091 291.215 310.091 290.234C310.091 289.479 310.233 288.842 310.518 288.325C310.803 287.808 311.208 287.384 311.731 287.053C312.255 286.721 312.875 286.459 313.591 286.267C314.307 286.075 315.095 285.926 315.957 285.82C316.812 285.714 317.535 285.621 318.125 285.541C318.721 285.462 319.175 285.336 319.487 285.163C319.799 284.991 319.954 284.713 319.954 284.328V283.97C319.954 282.929 319.643 282.111 319.02 281.514C318.403 280.911 317.515 280.609 316.355 280.609C315.255 280.609 314.356 280.851 313.66 281.335C312.971 281.819 312.487 282.389 312.209 283.045L310.528 282.439C310.873 281.604 311.35 280.937 311.96 280.44C312.57 279.937 313.253 279.575 314.008 279.357C314.764 279.131 315.53 279.018 316.305 279.018C316.889 279.018 317.495 279.095 318.125 279.247C318.761 279.4 319.351 279.665 319.895 280.043C320.438 280.414 320.879 280.934 321.217 281.604C321.555 282.267 321.724 283.108 321.724 284.129V294.5H319.954V292.084H319.845C319.633 292.535 319.318 292.972 318.9 293.396C318.483 293.821 317.959 294.169 317.329 294.44C316.7 294.712 315.96 294.848 315.112 294.848ZM315.351 293.227C316.292 293.227 317.107 293.018 317.797 292.601C318.486 292.183 319.016 291.63 319.388 290.94C319.765 290.244 319.954 289.479 319.954 288.643V286.436C319.822 286.562 319.6 286.675 319.288 286.774C318.983 286.874 318.629 286.963 318.224 287.043C317.826 287.116 317.429 287.179 317.031 287.232C316.633 287.285 316.275 287.331 315.957 287.371C315.095 287.477 314.36 287.643 313.75 287.868C313.14 288.093 312.673 288.405 312.348 288.803C312.023 289.194 311.861 289.697 311.861 290.314C311.861 291.242 312.192 291.961 312.855 292.472C313.518 292.975 314.35 293.227 315.351 293.227ZM328.762 274.136V294.5H326.992V274.136H328.762Z" fill="black"/>
<line x1="100.558" y1="283.5" x2="52.5579" y2="283.5" stroke="black" stroke-width="2"/>
<rect x="101.558" y="332.5" width="190" height="42" stroke="black" stroke-width="2"/>
<path d="M115.262 363.5V343.136H121.835C123.28 343.136 124.486 343.398 125.454 343.922C126.429 344.439 127.161 345.158 127.652 346.08C128.149 346.994 128.397 348.045 128.397 349.232C128.397 350.418 128.149 351.465 127.652 352.374C127.161 353.282 126.432 353.991 125.464 354.501C124.496 355.012 123.296 355.267 121.865 355.267H116.267V353.567H121.815C122.876 353.567 123.757 353.391 124.46 353.04C125.169 352.688 125.696 352.188 126.041 351.538C126.392 350.889 126.568 350.12 126.568 349.232C126.568 348.343 126.392 347.568 126.041 346.905C125.689 346.235 125.159 345.718 124.45 345.354C123.747 344.989 122.859 344.807 121.785 344.807H117.122V363.5H115.262ZM124.241 354.312L129.252 363.5H127.105L122.143 354.312H124.241ZM139.129 363.818C137.704 363.818 136.471 363.487 135.43 362.824C134.39 362.154 133.584 361.23 133.014 360.05C132.451 358.863 132.169 357.498 132.169 355.953C132.169 354.415 132.451 353.05 133.014 351.857C133.584 350.657 134.37 349.719 135.371 349.043C136.378 348.36 137.542 348.018 138.861 348.018C139.689 348.018 140.488 348.171 141.257 348.476C142.026 348.774 142.715 349.235 143.325 349.858C143.942 350.474 144.429 351.253 144.787 352.195C145.145 353.129 145.324 354.236 145.324 355.516V356.391H133.392V354.83H143.514C143.514 353.848 143.315 352.967 142.918 352.185C142.526 351.396 141.98 350.773 141.277 350.315C140.581 349.858 139.776 349.629 138.861 349.629C137.893 349.629 137.041 349.888 136.305 350.405C135.57 350.922 134.993 351.605 134.575 352.453C134.164 353.302 133.955 354.23 133.949 355.237V356.172C133.949 357.385 134.158 358.446 134.575 359.354C134.999 360.255 135.599 360.955 136.375 361.452C137.151 361.949 138.069 362.197 139.129 362.197C139.852 362.197 140.485 362.085 141.028 361.859C141.579 361.634 142.039 361.332 142.41 360.955C142.788 360.57 143.073 360.149 143.266 359.692L144.946 360.239C144.714 360.882 144.333 361.475 143.803 362.018C143.279 362.562 142.623 363 141.834 363.331C141.052 363.656 140.15 363.818 139.129 363.818ZM154.05 363.848C153.128 363.848 152.286 363.669 151.524 363.311C150.762 362.946 150.155 362.423 149.704 361.74C149.254 361.051 149.028 360.215 149.028 359.234C149.028 358.479 149.171 357.842 149.456 357.325C149.741 356.808 150.145 356.384 150.669 356.053C151.193 355.721 151.812 355.459 152.528 355.267C153.244 355.075 154.033 354.926 154.895 354.82C155.75 354.714 156.472 354.621 157.062 354.541C157.659 354.462 158.113 354.336 158.425 354.163C158.736 353.991 158.892 353.713 158.892 353.328V352.97C158.892 351.929 158.58 351.111 157.957 350.514C157.341 349.911 156.453 349.609 155.293 349.609C154.192 349.609 153.294 349.851 152.598 350.335C151.909 350.819 151.425 351.389 151.146 352.045L149.466 351.439C149.811 350.604 150.288 349.937 150.898 349.44C151.508 348.937 152.19 348.575 152.946 348.357C153.702 348.131 154.467 348.018 155.243 348.018C155.826 348.018 156.433 348.095 157.062 348.247C157.699 348.4 158.289 348.665 158.832 349.043C159.376 349.414 159.817 349.934 160.155 350.604C160.493 351.267 160.662 352.108 160.662 353.129V363.5H158.892V361.084H158.783C158.57 361.535 158.256 361.972 157.838 362.396C157.42 362.821 156.897 363.169 156.267 363.44C155.637 363.712 154.898 363.848 154.05 363.848ZM154.288 362.227C155.23 362.227 156.045 362.018 156.734 361.601C157.424 361.183 157.954 360.63 158.325 359.94C158.703 359.244 158.892 358.479 158.892 357.643V355.436C158.759 355.562 158.537 355.675 158.226 355.774C157.921 355.874 157.566 355.963 157.162 356.043C156.764 356.116 156.366 356.179 155.969 356.232C155.571 356.285 155.213 356.331 154.895 356.371C154.033 356.477 153.297 356.643 152.687 356.868C152.078 357.093 151.61 357.405 151.285 357.803C150.961 358.194 150.798 358.697 150.798 359.314C150.798 360.242 151.13 360.961 151.793 361.472C152.455 361.975 153.287 362.227 154.288 362.227ZM167.7 353.955V363.5H165.93V348.227H167.65V350.624H167.809C168.167 349.841 168.724 349.215 169.48 348.744C170.242 348.267 171.183 348.028 172.304 348.028C173.331 348.028 174.233 348.244 175.008 348.675C175.79 349.099 176.397 349.725 176.828 350.554C177.265 351.383 177.484 352.4 177.484 353.607V363.5H175.714V353.716C175.714 352.463 175.363 351.472 174.66 350.743C173.964 350.014 173.029 349.649 171.856 349.649C171.054 349.649 170.341 349.821 169.718 350.166C169.095 350.511 168.601 351.008 168.237 351.658C167.879 352.301 167.7 353.066 167.7 353.955ZM182.725 363.5V348.227H184.505V363.5H182.725ZM183.63 345.602C183.265 345.602 182.953 345.48 182.695 345.234C182.436 344.982 182.307 344.681 182.307 344.33C182.307 343.978 182.436 343.68 182.695 343.435C182.953 343.183 183.265 343.057 183.63 343.057C183.994 343.057 184.306 343.183 184.564 343.435C184.823 343.68 184.952 343.978 184.952 344.33C184.952 344.681 184.823 344.982 184.564 345.234C184.306 345.48 183.994 345.602 183.63 345.602ZM189.745 363.5V348.227H191.465V350.574H191.625C191.929 349.785 192.437 349.165 193.146 348.714C193.862 348.257 194.72 348.028 195.721 348.028C196.775 348.028 197.64 348.277 198.316 348.774C198.999 349.265 199.509 349.941 199.848 350.803H199.977C200.322 349.954 200.882 349.281 201.657 348.784C202.439 348.28 203.387 348.028 204.501 348.028C205.92 348.028 207.04 348.476 207.862 349.371C208.684 350.259 209.095 351.558 209.095 353.268V363.5H207.325V353.268C207.325 352.062 207.017 351.157 206.4 350.554C205.784 349.951 204.972 349.649 203.964 349.649C202.797 349.649 201.899 350.007 201.269 350.723C200.64 351.439 200.325 352.347 200.325 353.447V363.5H198.515V353.109C198.515 352.075 198.227 351.24 197.65 350.604C197.073 349.967 196.261 349.649 195.214 349.649C194.511 349.649 193.878 349.821 193.315 350.166C192.758 350.511 192.317 350.991 191.992 351.608C191.674 352.218 191.515 352.92 191.515 353.716V363.5H189.745ZM218.606 363.848C217.685 363.848 216.843 363.669 216.081 363.311C215.318 362.946 214.712 362.423 214.261 361.74C213.81 361.051 213.585 360.215 213.585 359.234C213.585 358.479 213.727 357.842 214.012 357.325C214.297 356.808 214.702 356.384 215.225 356.053C215.749 355.721 216.369 355.459 217.085 355.267C217.801 355.075 218.59 354.926 219.451 354.82C220.306 354.714 221.029 354.621 221.619 354.541C222.215 354.462 222.67 354.336 222.981 354.163C223.293 353.991 223.448 353.713 223.448 353.328V352.97C223.448 351.929 223.137 351.111 222.514 350.514C221.897 349.911 221.009 349.609 219.849 349.609C218.749 349.609 217.85 349.851 217.154 350.335C216.465 350.819 215.981 351.389 215.703 352.045L214.022 351.439C214.367 350.604 214.844 349.937 215.454 349.44C216.064 348.937 216.747 348.575 217.502 348.357C218.258 348.131 219.024 348.018 219.799 348.018C220.383 348.018 220.989 348.095 221.619 348.247C222.255 348.4 222.845 348.665 223.389 349.043C223.932 349.414 224.373 349.934 224.711 350.604C225.049 351.267 225.218 352.108 225.218 353.129V363.5H223.448V361.084H223.339C223.127 361.535 222.812 361.972 222.394 362.396C221.977 362.821 221.453 363.169 220.823 363.44C220.194 363.712 219.455 363.848 218.606 363.848ZM218.845 362.227C219.786 362.227 220.601 362.018 221.291 361.601C221.98 361.183 222.51 360.63 222.882 359.94C223.259 359.244 223.448 358.479 223.448 357.643V355.436C223.316 355.562 223.094 355.675 222.782 355.774C222.477 355.874 222.123 355.963 221.718 356.043C221.321 356.116 220.923 356.179 220.525 356.232C220.127 356.285 219.769 356.331 219.451 356.371C218.59 356.477 217.854 356.643 217.244 356.868C216.634 357.093 216.167 357.405 215.842 357.803C215.517 358.194 215.355 358.697 215.355 359.314C215.355 360.242 215.686 360.961 216.349 361.472C217.012 361.975 217.844 362.227 218.845 362.227ZM236.502 348.227V349.768H229.214V348.227H236.502ZM231.491 344.568H233.27V359.513C233.27 360.149 233.38 360.65 233.599 361.014C233.817 361.372 234.102 361.627 234.454 361.78C234.805 361.926 235.18 361.999 235.577 361.999C235.809 361.999 236.008 361.985 236.174 361.959C236.34 361.926 236.485 361.893 236.611 361.859L236.989 363.46C236.817 363.527 236.605 363.586 236.353 363.639C236.101 363.699 235.789 363.729 235.418 363.729C234.769 363.729 234.142 363.586 233.539 363.301C232.942 363.016 232.452 362.592 232.067 362.028C231.683 361.465 231.491 360.766 231.491 359.93V344.568ZM241.101 363.5V348.227H242.881V363.5H241.101ZM242.006 345.602C241.642 345.602 241.33 345.48 241.072 345.234C240.813 344.982 240.684 344.681 240.684 344.33C240.684 343.978 240.813 343.68 241.072 343.435C241.33 343.183 241.642 343.057 242.006 343.057C242.371 343.057 242.682 343.183 242.941 343.435C243.199 343.68 243.329 343.978 243.329 344.33C243.329 344.681 243.199 344.982 242.941 345.234C242.682 345.48 242.371 345.602 242.006 345.602ZM254.058 363.818C252.739 363.818 251.572 363.483 250.558 362.814C249.551 362.144 248.762 361.22 248.192 360.04C247.622 358.853 247.336 357.484 247.336 355.933C247.336 354.369 247.622 352.993 248.192 351.807C248.762 350.614 249.551 349.686 250.558 349.023C251.572 348.353 252.739 348.018 254.058 348.018C255.377 348.018 256.541 348.353 257.548 349.023C258.556 349.692 259.345 350.62 259.915 351.807C260.491 352.993 260.78 354.369 260.78 355.933C260.78 357.484 260.495 358.853 259.925 360.04C259.354 361.22 258.562 362.144 257.548 362.814C256.541 363.483 255.377 363.818 254.058 363.818ZM254.058 362.197C255.119 362.197 256.017 361.912 256.753 361.342C257.488 360.772 258.045 360.013 258.423 359.065C258.808 358.117 259 357.073 259 355.933C259 354.793 258.808 353.746 258.423 352.791C258.045 351.837 257.488 351.071 256.753 350.494C256.017 349.918 255.119 349.629 254.058 349.629C253.004 349.629 252.106 349.918 251.363 350.494C250.628 351.071 250.068 351.837 249.683 352.791C249.305 353.746 249.116 354.793 249.116 355.933C249.116 357.073 249.305 358.117 249.683 359.065C250.068 360.013 250.628 360.772 251.363 361.342C252.099 361.912 252.997 362.197 254.058 362.197ZM266.995 353.955V363.5H265.225V348.227H266.945V350.624H267.104C267.462 349.841 268.019 349.215 268.775 348.744C269.537 348.267 270.478 348.028 271.599 348.028C272.626 348.028 273.528 348.244 274.303 348.675C275.085 349.099 275.692 349.725 276.123 350.554C276.56 351.383 276.779 352.4 276.779 353.607V363.5H275.009V353.716C275.009 352.463 274.658 351.472 273.955 350.743C273.259 350.014 272.324 349.649 271.151 349.649C270.349 349.649 269.636 349.821 269.013 350.166C268.39 350.511 267.896 351.008 267.532 351.658C267.174 352.301 266.995 353.066 266.995 353.955Z" fill="black"/>
<line x1="100.558" y1="352.5" x2="52.5579" y2="352.5" stroke="black" stroke-width="2"/>
<rect x="101.558" y="401.5" width="143" height="42" stroke="black" stroke-width="2"/>
<path d="M115.292 432.5H113.343L120.751 412.136H122.74L130.147 432.5H128.198L121.815 414.553H121.676L115.292 432.5ZM116.694 424.695H126.796V426.365H116.694V424.695ZM135.599 422.955V432.5H133.83V417.227H135.55V419.624H135.709C136.067 418.841 136.624 418.215 137.379 417.744C138.142 417.267 139.083 417.028 140.203 417.028C141.231 417.028 142.132 417.244 142.908 417.675C143.69 418.099 144.296 418.725 144.727 419.554C145.165 420.383 145.383 421.4 145.383 422.607V432.5H143.614V422.716C143.614 421.463 143.262 420.472 142.56 419.743C141.864 419.014 140.929 418.649 139.756 418.649C138.954 418.649 138.241 418.821 137.618 419.166C136.995 419.511 136.501 420.008 136.136 420.658C135.778 421.301 135.599 422.066 135.599 422.955ZM156.57 432.818C155.205 432.818 154.015 432.477 153.001 431.794C151.993 431.111 151.211 430.177 150.654 428.99C150.097 427.804 149.819 426.451 149.819 424.933C149.819 423.402 150.101 422.04 150.664 420.847C151.234 419.653 152.023 418.719 153.03 418.043C154.038 417.36 155.208 417.018 156.54 417.018C157.561 417.018 158.486 417.217 159.315 417.615C160.143 418.006 160.826 418.56 161.363 419.276C161.906 419.985 162.248 420.813 162.387 421.761H160.597C160.412 420.9 159.964 420.164 159.255 419.554C158.552 418.937 157.657 418.629 156.57 418.629C155.596 418.629 154.734 418.894 153.985 419.425C153.236 419.948 152.649 420.681 152.225 421.622C151.807 422.557 151.599 423.641 151.599 424.874C151.599 426.113 151.804 427.21 152.215 428.165C152.626 429.113 153.203 429.855 153.945 430.392C154.694 430.929 155.569 431.197 156.57 431.197C157.246 431.197 157.863 431.071 158.42 430.82C158.983 430.561 159.454 430.196 159.832 429.726C160.216 429.255 160.475 428.695 160.607 428.045H162.397C162.264 428.967 161.936 429.789 161.413 430.511C160.896 431.227 160.223 431.791 159.394 432.202C158.572 432.613 157.631 432.818 156.57 432.818ZM172.925 432.818C171.5 432.818 170.267 432.487 169.226 431.824C168.185 431.154 167.38 430.23 166.81 429.05C166.247 427.863 165.965 426.498 165.965 424.953C165.965 423.415 166.247 422.05 166.81 420.857C167.38 419.657 168.166 418.719 169.166 418.043C170.174 417.36 171.337 417.018 172.657 417.018C173.485 417.018 174.284 417.171 175.053 417.476C175.822 417.774 176.511 418.235 177.121 418.858C177.738 419.474 178.225 420.253 178.583 421.195C178.941 422.129 179.12 423.236 179.12 424.516V425.391H167.188V423.83H177.31C177.31 422.848 177.111 421.967 176.713 421.185C176.322 420.396 175.775 419.773 175.073 419.315C174.377 418.858 173.571 418.629 172.657 418.629C171.689 418.629 170.837 418.888 170.101 419.405C169.365 419.922 168.789 420.605 168.371 421.453C167.96 422.302 167.751 423.23 167.745 424.237V425.172C167.745 426.385 167.953 427.446 168.371 428.354C168.795 429.255 169.395 429.955 170.171 430.452C170.946 430.949 171.864 431.197 172.925 431.197C173.648 431.197 174.281 431.085 174.824 430.859C175.374 430.634 175.835 430.332 176.206 429.955C176.584 429.57 176.869 429.149 177.061 428.692L178.742 429.239C178.51 429.882 178.129 430.475 177.598 431.018C177.075 431.562 176.418 432 175.63 432.331C174.847 432.656 173.946 432.818 172.925 432.818ZM193.841 420.578L192.22 421.036C192.061 420.578 191.836 420.164 191.544 419.793C191.253 419.421 190.871 419.126 190.401 418.908C189.937 418.689 189.36 418.58 188.671 418.58C187.637 418.58 186.788 418.825 186.125 419.315C185.462 419.806 185.131 420.439 185.131 421.214C185.131 421.871 185.356 422.404 185.807 422.815C186.264 423.22 186.967 423.541 187.915 423.78L190.222 424.347C191.501 424.658 192.459 425.152 193.095 425.828C193.738 426.504 194.06 427.353 194.06 428.374C194.06 429.235 193.821 430.001 193.344 430.67C192.867 431.34 192.201 431.867 191.345 432.251C190.497 432.629 189.513 432.818 188.392 432.818C186.901 432.818 185.671 432.483 184.703 431.814C183.736 431.138 183.116 430.163 182.844 428.891L184.544 428.473C184.763 429.381 185.191 430.067 185.827 430.531C186.47 430.995 187.315 431.227 188.362 431.227C189.536 431.227 190.474 430.965 191.176 430.442C191.879 429.911 192.23 429.249 192.23 428.453C192.23 427.837 192.025 427.32 191.614 426.902C191.203 426.478 190.58 426.166 189.745 425.967L187.249 425.371C185.923 425.053 184.942 424.549 184.306 423.859C183.669 423.17 183.351 422.315 183.351 421.294C183.351 420.452 183.58 419.713 184.037 419.077C184.495 418.434 185.124 417.93 185.926 417.565C186.728 417.201 187.643 417.018 188.671 417.018C190.069 417.018 191.186 417.337 192.022 417.973C192.863 418.603 193.47 419.471 193.841 420.578ZM204.511 417.227V418.768H197.223V417.227H204.511ZM199.5 413.568H201.279V428.513C201.279 429.149 201.389 429.65 201.608 430.014C201.826 430.372 202.111 430.627 202.463 430.78C202.814 430.926 203.188 430.999 203.586 430.999C203.818 430.999 204.017 430.985 204.183 430.959C204.349 430.926 204.494 430.893 204.62 430.859L204.998 432.46C204.826 432.527 204.614 432.586 204.362 432.639C204.11 432.699 203.798 432.729 203.427 432.729C202.777 432.729 202.151 432.586 201.548 432.301C200.951 432.016 200.461 431.592 200.076 431.028C199.692 430.465 199.5 429.766 199.5 428.93V413.568ZM209.09 432.5V417.227H210.811V419.574H210.94C211.245 418.805 211.775 418.185 212.531 417.714C213.293 417.237 214.155 416.999 215.116 416.999C215.262 416.999 215.424 417.002 215.603 417.009C215.782 417.015 215.931 417.022 216.051 417.028V418.828C215.971 418.815 215.832 418.795 215.633 418.768C215.434 418.742 215.219 418.729 214.987 418.729C214.191 418.729 213.482 418.898 212.859 419.236C212.242 419.567 211.755 420.028 211.397 420.618C211.039 421.208 210.86 421.881 210.86 422.636V432.5H209.09ZM221.329 438.227C220.977 438.227 220.649 438.194 220.344 438.128C220.039 438.062 219.797 437.989 219.618 437.909L220.096 436.348C220.699 436.534 221.236 436.6 221.707 436.547C222.177 436.5 222.595 436.288 222.959 435.911C223.324 435.539 223.649 434.969 223.934 434.2L224.491 432.649L218.873 417.227H220.792L225.326 430.163H225.465L229.999 417.227H231.918L225.455 434.916C225.183 435.652 224.849 436.265 224.451 436.756C224.053 437.253 223.592 437.621 223.069 437.859C222.552 438.105 221.972 438.227 221.329 438.227Z" fill="black"/>
<line x1="100.558" y1="421.5" x2="52.5579" y2="421.5" stroke="black" stroke-width="2"/>
<line x1="70.6201" y1="385.933" x2="38.6201" y2="385.933" stroke="black" stroke-width="2"/>
<line x1="53.6201" y1="402" x2="53.6201" y2="370" stroke="black" stroke-width="2"/>
<line x1="53.6201" y1="420.5" x2="53.6201" y2="408.5" stroke="black" stroke-width="2"/>
</svg>
