<svg width="500" height="400" viewBox="0 0 500 400" fill="none" xmlns="http://www.w3.org/2000/svg">
<mask id="path-1-inside-1_499_240" fill="white">
<path fill-rule="evenodd" clip-rule="evenodd" d="M184.375 50H228.125L241.25 63.0435H315.625V150H184.375V67.3913V63.0435V50Z"/>
</mask>
<path fill-rule="evenodd" clip-rule="evenodd" d="M184.375 50H228.125L241.25 63.0435H315.625V150H184.375V67.3913V63.0435V50Z" fill="#C4C4C4"/>
<path d="M228.125 50L229.535 48.5814L228.95 48H228.125V50ZM184.375 50V48H182.375V50H184.375ZM241.25 63.0435L239.84 64.4621L240.425 65.0435H241.25V63.0435ZM315.625 63.0435H317.625V61.0435H315.625V63.0435ZM315.625 150V152H317.625V150H315.625ZM184.375 150H182.375V152H184.375V150ZM228.125 48H184.375V52H228.125V48ZM242.66 61.6249L229.535 48.5814L226.715 51.4186L239.84 64.4621L242.66 61.6249ZM241.25 65.0435H315.625V61.0435H241.25V65.0435ZM313.625 63.0435V150H317.625V63.0435H313.625ZM315.625 148H184.375V152H315.625V148ZM186.375 150V67.3913H182.375V150H186.375ZM186.375 67.3913V63.0435H182.375V67.3913H186.375ZM182.375 50V63.0435H186.375V50H182.375Z" fill="black" mask="url(#path-1-inside-1_499_240)"/>
<line x1="100.436" y1="185.144" x2="100.436" y2="228.275" stroke="black" stroke-width="2"/>
<line x1="400.233" y1="185.144" x2="400.233" y2="228.275" stroke="black" stroke-width="2"/>
<line x1="250.567" y1="149.68" x2="250.567" y2="219.648" stroke="black" stroke-width="2"/>
<line x1="400" y1="186.144" x2="100" y2="186.144" stroke="black" stroke-width="2"/>
<mask id="path-7-inside-2_499_240" fill="white">
<path fill-rule="evenodd" clip-rule="evenodd" d="M267.313 219.565H206.25V350H293.75V245.838L267.313 219.565Z"/>
</mask>
<path fill-rule="evenodd" clip-rule="evenodd" d="M267.313 219.565H206.25V350H293.75V245.838L267.313 219.565Z" fill="#C4C4C4"/>
<path d="M206.25 219.565V217.565H204.25V219.565H206.25ZM267.313 219.565L268.723 218.147L268.138 217.565H267.313V219.565ZM206.25 350H204.25V352H206.25V350ZM293.75 350V352H295.75V350H293.75ZM293.75 245.838H295.75V245.006L295.16 244.419L293.75 245.838ZM206.25 221.565H267.313V217.565H206.25V221.565ZM208.25 350V219.565H204.25V350H208.25ZM293.75 348H206.25V352H293.75V348ZM291.75 245.838V350H295.75V245.838H291.75ZM295.16 244.419L268.723 218.147L265.903 220.984L292.34 247.257L295.16 244.419Z" fill="black" mask="url(#path-7-inside-2_499_240)"/>
<mask id="path-9-inside-3_499_240" fill="white">
<path fill-rule="evenodd" clip-rule="evenodd" d="M267.5 219.751V245.652H293.563L267.5 219.751Z"/>
</mask>
<path fill-rule="evenodd" clip-rule="evenodd" d="M267.5 219.751V245.652H293.563L267.5 219.751Z" fill="#C4C4C4"/>
<path d="M267.5 245.652H265.5V247.652H267.5V245.652ZM267.5 219.751L268.91 218.332L265.5 214.943V219.751H267.5ZM293.563 245.652V247.652H298.413L294.973 244.233L293.563 245.652ZM269.5 245.652V219.751H265.5V245.652H269.5ZM293.563 243.652H267.5V247.652H293.563V243.652ZM294.973 244.233L268.91 218.332L266.09 221.169L292.153 247.071L294.973 244.233Z" fill="black" mask="url(#path-9-inside-3_499_240)"/>
<mask id="path-11-inside-4_499_240" fill="white">
<path fill-rule="evenodd" clip-rule="evenodd" d="M118.063 219.565H57V350H144.5V245.838L118.063 219.565Z"/>
</mask>
<path fill-rule="evenodd" clip-rule="evenodd" d="M118.063 219.565H57V350H144.5V245.838L118.063 219.565Z" fill="#C4C4C4"/>
<path d="M57 219.565V217.565H55V219.565H57ZM118.063 219.565L119.473 218.147L118.888 217.565H118.063V219.565ZM57 350H55V352H57V350ZM144.5 350V352H146.5V350H144.5ZM144.5 245.838H146.5V245.006L145.91 244.419L144.5 245.838ZM57 221.565H118.063V217.565H57V221.565ZM59 350V219.565H55V350H59ZM144.5 348H57V352H144.5V348ZM142.5 245.838V350H146.5V245.838H142.5ZM145.91 244.419L119.473 218.147L116.653 220.984L143.09 247.257L145.91 244.419Z" fill="black" mask="url(#path-11-inside-4_499_240)"/>
<mask id="path-13-inside-5_499_240" fill="white">
<path fill-rule="evenodd" clip-rule="evenodd" d="M118.25 219.751V245.652H144.313L118.25 219.751Z"/>
</mask>
<path fill-rule="evenodd" clip-rule="evenodd" d="M118.25 219.751V245.652H144.313L118.25 219.751Z" fill="#C4C4C4"/>
<path d="M118.25 245.652H116.25V247.652H118.25V245.652ZM118.25 219.751L119.66 218.332L116.25 214.943V219.751H118.25ZM144.313 245.652V247.652H149.163L145.723 244.233L144.313 245.652ZM120.25 245.652V219.751H116.25V245.652H120.25ZM144.313 243.652H118.25V247.652H144.313V243.652ZM145.723 244.233L119.66 218.332L116.84 221.169L142.903 247.071L145.723 244.233Z" fill="black" mask="url(#path-13-inside-5_499_240)"/>
<mask id="path-15-inside-6_499_240" fill="white">
<path fill-rule="evenodd" clip-rule="evenodd" d="M417.063 219.565H356V350H443.5V245.838L417.063 219.565Z"/>
</mask>
<path fill-rule="evenodd" clip-rule="evenodd" d="M417.063 219.565H356V350H443.5V245.838L417.063 219.565Z" fill="#C4C4C4"/>
<path d="M356 219.565V217.565H354V219.565H356ZM417.063 219.565L418.473 218.147L417.888 217.565H417.063V219.565ZM356 350H354V352H356V350ZM443.5 350V352H445.5V350H443.5ZM443.5 245.838H445.5V245.006L444.91 244.419L443.5 245.838ZM356 221.565H417.063V217.565H356V221.565ZM358 350V219.565H354V350H358ZM443.5 348H356V352H443.5V348ZM441.5 245.838V350H445.5V245.838H441.5ZM444.91 244.419L418.473 218.147L415.653 220.984L442.09 247.257L444.91 244.419Z" fill="black" mask="url(#path-15-inside-6_499_240)"/>
<mask id="path-17-inside-7_499_240" fill="white">
<path fill-rule="evenodd" clip-rule="evenodd" d="M417.25 219.751V245.652H443.313L417.25 219.751Z"/>
</mask>
<path fill-rule="evenodd" clip-rule="evenodd" d="M417.25 219.751V245.652H443.313L417.25 219.751Z" fill="#C4C4C4"/>
<path d="M417.25 245.652H415.25V247.652H417.25V245.652ZM417.25 219.751L418.66 218.332L415.25 214.943V219.751H417.25ZM443.313 245.652V247.652H448.163L444.723 244.233L443.313 245.652ZM419.25 245.652V219.751H415.25V245.652H419.25ZM443.313 243.652H417.25V247.652H443.313V243.652ZM444.723 244.233L418.66 218.332L415.84 221.169L441.903 247.071L444.723 244.233Z" fill="black" mask="url(#path-17-inside-7_499_240)"/>
</svg>
