<svg width="500" height="400" viewBox="0 0 500 400" fill="none" xmlns="http://www.w3.org/2000/svg">
<g clip-path="url(#clip0_501_432)">
<mask id="path-1-inside-1_501_432" fill="white">
<path fill-rule="evenodd" clip-rule="evenodd" d="M441 295.082C441 295.082 441 295.082 441 295.082C441 228.524 387.044 174.569 320.486 174.569C253.928 174.569 199.972 228.524 199.972 295.082C199.972 295.155 199.972 295.227 199.972 295.299V536.11H441V295.082H441Z"/>
</mask>
<path fill-rule="evenodd" clip-rule="evenodd" d="M441 295.082C441 295.082 441 295.082 441 295.082C441 228.524 387.044 174.569 320.486 174.569C253.928 174.569 199.972 228.524 199.972 295.082C199.972 295.155 199.972 295.227 199.972 295.299V536.11H441V295.082H441Z" fill="#C4C4C4"/>
<path d="M441 295.082H439V297.082H441V295.082ZM199.972 295.299L201.972 295.299L201.972 295.295L199.972 295.299ZM199.972 536.11H197.972V538.11H199.972V536.11ZM441 536.11V538.11H443V536.11H441ZM441 295.082H443V293.082H441V295.082ZM439 295.082C439 295.082 439 295.082 439 295.082C439 295.082 439 295.082 439 295.082C439 295.082 439 295.082 439 295.082C439 295.082 439 295.082 439 295.082C439 295.082 439 295.082 439 295.082C439 295.082 439 295.082 439 295.082C439 295.082 439 295.082 439 295.082C439 295.082 439 295.082 439 295.082C439 295.082 439 295.082 439 295.082C439 295.082 439 295.082 439 295.082C439 295.082 439 295.082 439 295.082C439 295.082 439 295.082 439 295.082C439 295.082 439 295.082 439 295.082C439 295.082 439 295.082 439 295.082C439 295.082 439 295.082 439 295.082C439 295.082 439 295.082 439 295.082C439 295.082 439 295.082 439 295.082C439 295.082 439 295.082 439 295.082C439 295.082 439 295.082 439 295.082C439 295.082 439 295.082 439 295.082C439 295.082 439 295.082 439 295.082C439 295.082 439 295.082 439 295.082C439 295.082 439 295.082 439 295.082C439 295.082 439 295.082 439 295.082C439 295.082 439 295.082 439 295.082C439 295.082 439 295.082 439 295.082C439 295.082 439 295.082 439 295.082C439 295.082 439 295.082 439 295.082C439 295.082 439 295.082 439 295.082C439 295.082 439 295.082 439 295.082C439 295.082 439 295.082 439 295.082C439 295.082 439 295.082 439 295.082C439 295.082 439 295.082 439 295.082C439 295.082 439 295.082 439 295.082C439 295.082 439 295.082 439 295.082C439 295.082 439 295.082 439 295.082C439 295.082 439 295.082 439 295.082C439 295.082 439 295.082 439 295.082C439 295.082 439 295.082 439 295.082C439 295.082 439 295.082 439 295.082C439 295.082 439 295.082 439 295.082C439 295.082 439 295.082 439 295.082C439 295.082 439 295.082 439 295.082C439 295.082 439 295.082 439 295.082C439 295.082 439 295.082 439 295.082C439 295.082 439 295.082 439 295.082C439 295.082 439 295.082 439 295.082C439 295.082 439 295.082 439 295.082C439 295.082 439 295.082 439 295.082C439 295.082 439 295.082 439 295.082C439 295.082 439 295.082 439 295.082C439 295.082 439 295.082 439 295.082C439 295.082 439 295.082 439 295.082C439 295.082 439 295.082 439 295.082C439 295.082 439 295.082 439 295.082C439 295.082 439 295.082 439 295.082C439 295.082 439 295.082 439 295.082C439 295.082 439 295.082 439 295.082C439 295.082 439 295.082 439 295.082C439 295.082 439 295.082 439 295.082C439 295.082 439 295.082 439 295.082C439 295.082 439 295.082 439 295.082C439 295.082 439 295.082 439 295.082C439 295.082 439 295.082 439 295.082C439 295.082 439 295.082 439 295.082C439 295.082 439 295.082 439 295.082C439 295.082 439 295.082 439 295.082C439 295.082 439 295.082 439 295.082C439 295.082 439 295.082 439 295.082C439 295.082 439 295.082 439 295.082C439 295.082 439 295.082 439 295.082C439 295.082 439 295.082 439 295.082C439 295.082 439 295.082 439 295.082C439 295.082 439 295.082 439 295.082C439 295.082 439 295.082 439 295.082C439 295.082 439 295.082 439 295.082C439 295.082 439 295.082 439 295.082C439 295.082 439 295.082 439 295.082C439 295.082 439 295.082 439 295.082C439 295.082 439 295.082 439 295.082C439 295.082 439 295.082 439 295.082C439 295.082 439 295.082 439 295.082C439 295.082 439 295.082 439 295.082C439 295.082 439 295.082 439 295.082C439 295.082 439 295.082 439 295.082C439 295.082 439 295.082 439 295.082C439 295.082 439 295.082 439 295.082C439 295.082 439 295.082 439 295.082C439 295.082 439 295.082 439 295.082C439 295.082 439 295.082 439 295.082C439 295.082 439 295.082 439 295.082C439 295.082 439 295.082 439 295.082C439 295.082 439 295.082 439 295.082C439 295.082 439 295.082 439 295.082C439 295.082 439 295.082 439 295.082C439 295.082 439 295.082 439 295.082C439 295.082 439 295.082 439 295.082C439 295.082 439 295.082 439 295.082C439 295.082 439 295.082 439 295.082C439 295.082 439 295.082 439 295.082C439 295.082 439 295.082 439 295.082C439 295.082 439 295.082 439 295.082C439 295.082 439 295.082 439 295.082C439 295.082 439 295.082 439 295.082C439 295.082 439 295.082 439 295.082C439 295.082 439 295.082 439 295.082C439 295.082 439 295.082 439 295.082C439 295.082 439 295.082 439 295.082C439 295.082 439 295.082 439 295.082C439 295.082 439 295.082 439 295.082C439 295.082 439 295.082 439 295.082C439 295.082 439 295.082 439 295.082C439 295.082 439 295.082 439 295.082C439 295.082 439 295.082 439 295.082C439 295.082 439 295.082 439 295.082C439 295.082 439 295.082 439 295.082C439 295.082 439 295.082 439 295.082C439 295.082 439 295.082 439 295.082C439 295.082 439 295.082 439 295.082C439 295.082 439 295.082 439 295.082C439 295.082 439 295.082 439 295.082C439 295.082 439 295.082 439 295.082C439 295.082 439 295.082 439 295.082C439 295.082 439 295.082 439 295.082C439 295.082 439 295.082 439 295.082C439 295.082 439 295.082 439 295.082C439 295.082 439 295.082 439 295.082C439 295.082 439 295.082 439 295.082C439 295.082 439 295.082 439 295.082C439 295.082 439 295.082 439 295.082C439 295.082 439 295.082 439 295.082C439 295.082 439 295.082 439 295.082C439 295.082 439 295.082 439 295.082C439 295.082 439 295.082 439 295.082C439 295.082 439 295.082 439 295.082C439 295.082 439 295.082 439 295.082C439 295.082 439 295.082 439 295.082C439 295.082 439 295.082 439 295.082C439 295.082 439 295.082 439 295.082C439 295.082 439 295.082 439 295.082C439 295.082 439 295.082 439 295.082C439 295.082 439 295.082 439 295.082C439 295.082 439 295.082 439 295.082C439 295.082 439 295.082 439 295.082C439 295.082 439 295.082 439 295.082C439 295.082 439 295.082 439 295.082C439 295.082 439 295.082 439 295.082C439 295.082 439 295.082 439 295.082C439 295.082 439 295.082 439 295.082C439 295.082 439 295.082 439 295.082C439 295.082 439 295.082 439 295.082C439 295.082 439 295.082 439 295.082C439 295.082 439 295.082 439 295.082C439 295.082 439 295.082 439 295.082C439 295.082 439 295.082 439 295.082C439 295.082 439 295.082 439 295.082C439 295.082 439 295.082 439 295.082C439 295.082 439 295.082 439 295.082C439 295.082 439 295.082 439 295.082C439 295.082 439 295.082 439 295.082C439 295.082 439 295.082 439 295.082C439 295.082 439 295.082 439 295.082C439 295.082 439 295.082 439 295.082C439 295.082 439 295.082 439 295.082C439 295.082 439 295.082 439 295.082C439 295.082 439 295.082 439 295.082C439 295.082 439 295.082 439 295.082C439 295.082 439 295.082 439 295.082C439 295.082 439 295.082 439 295.082C439 295.082 439 295.082 439 295.082C439 295.082 439 295.082 439 295.082C439 295.082 439 295.082 439 295.082C439 295.082 439 295.082 439 295.082C439 295.082 439 295.082 439 295.082C439 295.082 439 295.082 439 295.082C439 295.082 439 295.082 439 295.082C439 295.082 439 295.082 439 295.082C439 295.082 439 295.082 439 295.082C439 295.082 439 295.082 439 295.082C439 295.082 439 295.082 439 295.082C439 295.082 439 295.082 439 295.082C439 295.082 439 295.082 439 295.082C439 295.082 439 295.082 439 295.082C439 295.082 439 295.082 439 295.082C439 295.082 439 295.082 439 295.082C439 295.082 439 295.082 439 295.082C439 295.082 439 295.082 439 295.082C439 295.082 439 295.082 439 295.082C439 295.082 439 295.082 439 295.082C439 295.082 439 295.082 439 295.082C439 295.082 439 295.082 439 295.082C439 295.082 439 295.082 439 295.082C439 295.082 439 295.082 439 295.082C439 295.082 439 295.082 439 295.082C439 295.082 439 295.082 439 295.082C439 295.082 439 295.082 439 295.082C439 295.082 439 295.082 439 295.082C439 295.082 439 295.082 439 295.082C439 295.082 439 295.082 439 295.082C439 295.082 439 295.082 439 295.082C439 295.082 439 295.082 439 295.082C439 295.082 439 295.082 439 295.082C439 295.082 439 295.082 439 295.082C439 295.082 439 295.082 439 295.082C439 295.082 439 295.082 439 295.082C439 295.082 439 295.082 439 295.082C439 295.082 439 295.082 439 295.082C439 295.082 439 295.082 439 295.082C439 295.082 439 295.082 439 295.082C439 295.082 439 295.082 439 295.082C439 295.082 439 295.082 439 295.082C439 295.082 439 295.082 439 295.082C439 295.082 439 295.082 439 295.082C439 295.082 439 295.082 439 295.082C439 295.082 439 295.082 439 295.082C439 295.082 439 295.082 439 295.082C439 295.082 439 295.082 439 295.082C439 295.082 439 295.082 439 295.082C439 295.082 439 295.082 439 295.082C439 295.082 439 295.082 439 295.082C439 295.082 439 295.082 439 295.082C439 295.082 439 295.082 439 295.082C439 295.082 439 295.082 439 295.082C439 295.082 439 295.082 439 295.082C439 295.082 439 295.082 439 295.082C439 295.082 439 295.082 439 295.082C439 295.082 439 295.082 439 295.082C439 295.082 439 295.082 439 295.082C439 295.082 439 295.082 439 295.082C439 295.082 439 295.082 439 295.082C439 295.082 439 295.082 439 295.082C439 295.082 439 295.082 439 295.082C439 295.082 439 295.082 439 295.082C439 295.082 439 295.082 439 295.082C439 295.082 439 295.082 439 295.082C439 295.082 439 295.082 439 295.082C439 295.082 439 295.082 439 295.082C439 295.082 439 295.082 439 295.082C439 295.082 439 295.082 439 295.082C439 295.082 439 295.082 439 295.082C439 295.082 439 295.082 439 295.082C439 295.082 439 295.082 439 295.082C439 295.082 439 295.082 439 295.082C439 295.082 439 295.082 439 295.082C439 295.082 439 295.082 439 295.082C439 295.082 439 295.082 439 295.082C439 295.082 439 295.082 439 295.082C439 295.082 439 295.082 439 295.082C439 295.082 439 295.082 439 295.082C439 295.082 439 295.082 439 295.082C439 295.082 439 295.082 439 295.082C439 295.082 439 295.082 439 295.082C439 295.082 439 295.082 439 295.082C439 295.082 439 295.082 439 295.082C439 295.082 439 295.082 439 295.082C439 295.082 439 295.082 439 295.082C439 295.082 439 295.082 439 295.082C439 295.082 439 295.082 439 295.082C439 295.082 439 295.082 439 295.082C439 295.082 439 295.082 439 295.082C439 295.082 439 295.082 439 295.082C439 295.082 439 295.082 439 295.082C439 295.082 439 295.082 439 295.082C439 295.082 439 295.082 439 295.082C439 295.082 439 295.082 439 295.082C439 295.082 439 295.082 439 295.082C439 295.082 439 295.082 439 295.082C439 295.082 439 295.082 439 295.082C439 295.082 439 295.082 439 295.082C439 295.082 439 295.082 439 295.082C439 295.082 439 295.082 439 295.082C439 295.082 439 295.082 439 295.082C439 295.082 439 295.082 439 295.082C439 295.082 439 295.082 439 295.082C439 295.082 439 295.082 439 295.082C439 295.082 439 295.082 439 295.082C439 295.082 439 295.082 439 295.082C439 295.082 439 295.082 439 295.082C439 295.082 439 295.082 439 295.082C439 295.082 439 295.082 439 295.082C439 295.082 439 295.082 439 295.082C439 295.082 439 295.082 439 295.082C439 295.082 439 295.082 439 295.082C439 295.082 439 295.082 439 295.082C439 295.082 439 295.082 439 295.082C439 295.082 439 295.082 439 295.082C439 295.082 439 295.082 439 295.082C439 295.082 439 295.082 439 295.082C439 295.082 439 295.082 439 295.082C439 295.082 439 295.082 439 295.082C439 295.082 439 295.082 439 295.082C439 295.082 439 295.082 439 295.082C439 295.082 439 295.082 439 295.082C439 295.082 439 295.082 439 295.082C439 295.082 439 295.082 439 295.082C439 295.082 439 295.082 439 295.082C439 295.082 439 295.082 439 295.082C439 295.082 439 295.082 439 295.082C439 295.082 439 295.082 439 295.082C439 295.082 439 295.082 439 295.082C439 295.082 439 295.082 439 295.082C439 295.082 439 295.082 439 295.082C439 295.082 439 295.082 439 295.082C439 295.082 439 295.082 439 295.082C439 295.082 439 295.082 439 295.082C439 295.082 439 295.082 439 295.082C439 295.082 439 295.082 439 295.082C439 295.082 439 295.082 439 295.082C439 295.082 439 295.082 439 295.082C439 295.082 439 295.082 439 295.082C439 295.082 439 295.082 439 295.082C439 295.082 439 295.082 439 295.082C439 295.082 439 295.082 439 295.082C439 295.082 439 295.082 439 295.082C439 295.082 439 295.082 439 295.082C439 295.082 439 295.082 439 295.082C439 295.082 439 295.082 439 295.082C439 295.082 439 295.082 439 295.082C439 295.082 439 295.082 439 295.082C439 295.082 439 295.082 439 295.082C439 295.082 439 295.082 439 295.082C439 295.082 439 295.082 439 295.082C439 295.082 439 295.082 439 295.082C439 295.082 439 295.082 439 295.082C439 295.082 439 295.082 439 295.082C439 295.082 439 295.082 439 295.082C439 295.082 439 295.082 439 295.082C439 295.082 439 295.082 439 295.082C439 295.082 439 295.082 439 295.082C439 295.082 439 295.082 439 295.082C439 295.082 439 295.082 439 295.082C439 295.082 439 295.082 439 295.082C439 295.082 439 295.082 439 295.082C439 295.082 439 295.082 439 295.082C439 295.082 439 295.082 439 295.082C439 295.082 439 295.082 439 295.082C439 295.082 439 295.082 439 295.082C439 295.082 439 295.082 439 295.082C439 295.082 439 295.082 439 295.082C439 295.082 439 295.082 439 295.082C439 295.082 439 295.082 439 295.082C439 295.082 439 295.082 439 295.082C439 295.082 439 295.082 439 295.082C439 295.082 439 295.082 439 295.082C439 295.082 439 295.082 439 295.082C439 295.082 439 295.082 439 295.082C439 295.082 439 295.082 439 295.082C439 295.082 439 295.082 439 295.082C439 295.082 439 295.082 439 295.082C439 295.082 439 295.082 439 295.082C439 295.082 439 295.082 439 295.082C439 295.082 439 295.082 439 295.082C439 295.082 439 295.082 439 295.082C439 295.082 439 295.082 439 295.082C439 295.082 439 295.082 439 295.082C439 295.082 439 295.082 439 295.082C439 295.082 439 295.082 439 295.082C439 295.082 439 295.082 439 295.082C439 295.082 439 295.082 439 295.082C439 295.082 439 295.082 439 295.082C439 295.082 439 295.082 439 295.082C439 295.082 439 295.082 439 295.082C439 295.082 439 295.082 439 295.082C439 295.082 439 295.082 439 295.082C439 295.082 439 295.082 439 295.082C439 295.082 439 295.082 439 295.082C439 295.082 439 295.082 439 295.082C439 295.082 439 295.082 439 295.082C439 295.082 439 295.082 439 295.082C439 295.082 439 295.082 439 295.082C439 295.082 439 295.082 439 295.082C439 295.082 439 295.082 439 295.082C439 295.082 439 295.082 439 295.082C439 295.082 439 295.082 439 295.082C439 295.082 439 295.082 439 295.082C439 295.082 439 295.082 439 295.082C439 295.082 439 295.082 439 295.082C439 295.082 439 295.082 439 295.082C439 295.082 439 295.082 439 295.082C439 295.082 439 295.082 439 295.082C439 295.082 439 295.082 439 295.082C439 295.082 439 295.082 439 295.082C439 295.082 439 295.082 439 295.082C439 295.082 439 295.082 439 295.082C439 295.082 439 295.082 439 295.082C439 295.082 439 295.082 439 295.082C439 295.082 439 295.082 439 295.082C439 295.082 439 295.082 439 295.082C439 295.082 439 295.082 439 295.082C439 295.082 439 295.082 439 295.082C439 295.082 439 295.082 439 295.082C439 295.082 439 295.082 439 295.082C439 295.082 439 295.082 439 295.082C439 295.082 439 295.082 439 295.082C439 295.082 439 295.082 439 295.082C439 295.082 439 295.082 439 295.082C439 295.082 439 295.082 439 295.082C439 295.082 439 295.082 439 295.082C439 295.082 439 295.082 439 295.082C439 295.082 439 295.082 439 295.082C439 295.082 439 295.082 439 295.082C439 295.082 439 295.082 439 295.082C439 295.082 439 295.082 439 295.082C439 295.082 439 295.082 439 295.082C439 295.082 439 295.082 439 295.082C439 295.082 439 295.082 439 295.082C439 295.082 439 295.082 439 295.082C439 295.082 439 295.082 439 295.082C439 295.082 439 295.082 439 295.082C439 295.082 439 295.082 439 295.082C439 295.082 439 295.082 439 295.082C439 295.082 439 295.082 439 295.082C439 295.082 439 295.082 439 295.082C439 295.082 439 295.082 439 295.082C439 295.082 439 295.082 439 295.082C439 295.082 439 295.082 439 295.082C439 295.082 439 295.082 439 295.082C439 295.082 439 295.082 439 295.082C439 295.082 439 295.082 439 295.082C439 295.082 439 295.082 439 295.082C439 295.082 439 295.082 439 295.082C439 295.082 439 295.082 439 295.082C439 295.082 439 295.082 439 295.082C439 295.082 439 295.082 439 295.082C439 295.082 439 295.082 439 295.082C439 295.082 439 295.082 439 295.082C439 295.082 439 295.082 439 295.082C439 295.082 439 295.082 439 295.082C439 295.082 439 295.082 439 295.082C439 295.082 439 295.082 439 295.082C439 295.082 439 295.082 439 295.082C439 295.082 439 295.082 439 295.082C439 295.082 439 295.082 439 295.082C439 295.082 439 295.082 439 295.082C439 295.082 439 295.082 439 295.082C439 295.082 439 295.082 439 295.082C439 295.082 439 295.082 439 295.082C439 295.082 439 295.082 439 295.082C439 295.082 439 295.082 439 295.082C439 295.082 439 295.082 439 295.082C439 295.082 439 295.082 439 295.082C439 295.082 439 295.082 439 295.082C439 295.082 439 295.082 439 295.082C439 295.082 439 295.082 439 295.082C439 295.082 439 295.082 439 295.082C439 295.082 439 295.082 439 295.082C439 295.082 439 295.082 439 295.082C439 295.082 439 295.082 439 295.082C439 295.082 439 295.082 439 295.082C439 295.082 439 295.082 439 295.082C439 295.082 439 295.082 439 295.082C439 295.082 439 295.082 439 295.082C439 295.082 439 295.082 439 295.082C439 295.082 439 295.082 439 295.082C439 295.082 439 295.082 439 295.082C439 295.082 439 295.082 439 295.082C439 295.082 439 295.082 439 295.082C439 295.082 439 295.082 439 295.082C439 295.082 439 295.082 439 295.082C439 295.082 439 295.082 439 295.082C439 295.082 439 295.082 439 295.082C439 295.082 439 295.082 439 295.082C439 295.082 439 295.082 439 295.082C439 295.082 439 295.082 439 295.082C439 295.082 439 295.082 439 295.082C439 295.082 439 295.082 439 295.082C439 295.082 439 295.082 439 295.082C439 295.082 439 295.082 439 295.082C439 295.082 439 295.082 439 295.082C439 295.082 439 295.082 439 295.082C439 295.082 439 295.082 439 295.082C439 295.082 439 295.082 439 295.082C439 295.082 439 295.082 439 295.082C439 295.082 439 295.082 439 295.082C439 295.082 439 295.082 439 295.082C439 295.082 439 295.082 439 295.082C439 295.082 439 295.082 439 295.082C439 295.082 439 295.082 439 295.082C439 295.082 439 295.082 439 295.082C439 295.082 439 295.082 439 295.082C439 295.082 439 295.082 439 295.082C439 295.082 439 295.082 439 295.082C439 295.082 439 295.082 439 295.082C439 295.082 439 295.082 439 295.082C439 295.082 439 295.082 439 295.082C439 295.082 439 295.082 439 295.082C439 295.082 439 295.082 439 295.082C439 295.082 439 295.082 439 295.082C439 295.082 439 295.082 439 295.082C439 295.082 439 295.082 439 295.082C439 295.082 439 295.082 439 295.082C439 295.082 439 295.082 439 295.082C439 295.082 439 295.082 439 295.082C439 295.082 439 295.082 439 295.082C439 295.082 439 295.082 439 295.082C439 295.082 439 295.082 439 295.082C439 295.082 439 295.082 439 295.082C439 295.082 439 295.082 439 295.082C439 295.082 439 295.082 439 295.082C439 295.082 439 295.082 439 295.082C439 295.082 439 295.082 439 295.082C439 295.082 439 295.082 439 295.082C439 295.082 439 295.082 439 295.082C439 295.082 439 295.082 439 295.082C439 295.082 439 295.082 439 295.082C439 295.082 439 295.082 439 295.082C439 295.082 439 295.082 439 295.082C439 295.082 439 295.082 439 295.082C439 295.082 439 295.082 439 295.082C439 295.082 439 295.082 439 295.082C439 295.082 439 295.082 439 295.082C439 295.082 439 295.082 439 295.082H443C443 295.082 443 295.082 443 295.082C443 295.082 443 295.082 443 295.082C443 295.082 443 295.082 443 295.082C443 295.082 443 295.082 443 295.082C443 295.082 443 295.082 443 295.082C443 295.082 443 295.082 443 295.082C443 295.082 443 295.082 443 295.082C443 295.082 443 295.082 443 295.082C443 295.082 443 295.082 443 295.082C443 295.082 443 295.082 443 295.082C443 295.082 443 295.082 443 295.082C443 295.082 443 295.082 443 295.082C443 295.082 443 295.082 443 295.082C443 295.082 443 295.082 443 295.082C443 295.082 443 295.082 443 295.082C443 295.082 443 295.082 443 295.082C443 295.082 443 295.082 443 295.082C443 295.082 443 295.082 443 295.082C443 295.082 443 295.082 443 295.082C443 295.082 443 295.082 443 295.082C443 295.082 443 295.082 443 295.082C443 295.082 443 295.082 443 295.082C443 295.082 443 295.082 443 295.082C443 295.082 443 295.082 443 295.082C443 295.082 443 295.082 443 295.082C443 295.082 443 295.082 443 295.082C443 295.082 443 295.082 443 295.082C443 295.082 443 295.082 443 295.082C443 295.082 443 295.082 443 295.082C443 295.082 443 295.082 443 295.082C443 295.082 443 295.082 443 295.082C443 295.082 443 295.082 443 295.082C443 295.082 443 295.082 443 295.082C443 295.082 443 295.082 443 295.082C443 295.082 443 295.082 443 295.082C443 295.082 443 295.082 443 295.082C443 295.082 443 295.082 443 295.082C443 295.082 443 295.082 443 295.082C443 295.082 443 295.082 443 295.082C443 295.082 443 295.082 443 295.082C443 295.082 443 295.082 443 295.082C443 295.082 443 295.082 443 295.082C443 295.082 443 295.082 443 295.082C443 295.082 443 295.082 443 295.082C443 295.082 443 295.082 443 295.082C443 295.082 443 295.082 443 295.082C443 295.082 443 295.082 443 295.082C443 295.082 443 295.082 443 295.082C443 295.082 443 295.082 443 295.082C443 295.082 443 295.082 443 295.082C443 295.082 443 295.082 443 295.082C443 295.082 443 295.082 443 295.082C443 295.082 443 295.082 443 295.082C443 295.082 443 295.082 443 295.082C443 295.082 443 295.082 443 295.082C443 295.082 443 295.082 443 295.082C443 295.082 443 295.082 443 295.082C443 295.082 443 295.082 443 295.082C443 295.082 443 295.082 443 295.082C443 295.082 443 295.082 443 295.082C443 295.082 443 295.082 443 295.082C443 295.082 443 295.082 443 295.082C443 295.082 443 295.082 443 295.082C443 295.082 443 295.082 443 295.082C443 295.082 443 295.082 443 295.082C443 295.082 443 295.082 443 295.082C443 295.082 443 295.082 443 295.082C443 295.082 443 295.082 443 295.082C443 295.082 443 295.082 443 295.082C443 295.082 443 295.082 443 295.082C443 295.082 443 295.082 443 295.082C443 295.082 443 295.082 443 295.082C443 295.082 443 295.082 443 295.082C443 295.082 443 295.082 443 295.082C443 295.082 443 295.082 443 295.082C443 295.082 443 295.082 443 295.082C443 295.082 443 295.082 443 295.082C443 295.082 443 295.082 443 295.082C443 295.082 443 295.082 443 295.082C443 295.082 443 295.082 443 295.082C443 295.082 443 295.082 443 295.082C443 295.082 443 295.082 443 295.082C443 295.082 443 295.082 443 295.082C443 295.082 443 295.082 443 295.082C443 295.082 443 295.082 443 295.082C443 295.082 443 295.082 443 295.082C443 295.082 443 295.082 443 295.082C443 295.082 443 295.082 443 295.082C443 295.082 443 295.082 443 295.082C443 295.082 443 295.082 443 295.082C443 295.082 443 295.082 443 295.082C443 295.082 443 295.082 443 295.082C443 295.082 443 295.082 443 295.082C443 295.082 443 295.082 443 295.082C443 295.082 443 295.082 443 295.082C443 295.082 443 295.082 443 295.082C443 295.082 443 295.082 443 295.082C443 295.082 443 295.082 443 295.082C443 295.082 443 295.082 443 295.082C443 295.082 443 295.082 443 295.082C443 295.082 443 295.082 443 295.082C443 295.082 443 295.082 443 295.082C443 295.082 443 295.082 443 295.082C443 295.082 443 295.082 443 295.082C443 295.082 443 295.082 443 295.082C443 295.082 443 295.082 443 295.082C443 295.082 443 295.082 443 295.082C443 295.082 443 295.082 443 295.082C443 295.082 443 295.082 443 295.082C443 295.082 443 295.082 443 295.082C443 295.082 443 295.082 443 295.082C443 295.082 443 295.082 443 295.082C443 295.082 443 295.082 443 295.082C443 295.082 443 295.082 443 295.082C443 295.082 443 295.082 443 295.082C443 295.082 443 295.082 443 295.082C443 295.082 443 295.082 443 295.082C443 295.082 443 295.082 443 295.082C443 295.082 443 295.082 443 295.082C443 295.082 443 295.082 443 295.082C443 295.082 443 295.082 443 295.082C443 295.082 443 295.082 443 295.082C443 295.082 443 295.082 443 295.082C443 295.082 443 295.082 443 295.082C443 295.082 443 295.082 443 295.082C443 295.082 443 295.082 443 295.082C443 295.082 443 295.082 443 295.082C443 295.082 443 295.082 443 295.082C443 295.082 443 295.082 443 295.082C443 295.082 443 295.082 443 295.082C443 295.082 443 295.082 443 295.082C443 295.082 443 295.082 443 295.082C443 295.082 443 295.082 443 295.082C443 295.082 443 295.082 443 295.082C443 295.082 443 295.082 443 295.082C443 295.082 443 295.082 443 295.082C443 295.082 443 295.082 443 295.082C443 295.082 443 295.082 443 295.082C443 295.082 443 295.082 443 295.082C443 295.082 443 295.082 443 295.082C443 295.082 443 295.082 443 295.082C443 295.082 443 295.082 443 295.082C443 295.082 443 295.082 443 295.082C443 295.082 443 295.082 443 295.082C443 295.082 443 295.082 443 295.082C443 295.082 443 295.082 443 295.082C443 295.082 443 295.082 443 295.082C443 295.082 443 295.082 443 295.082C443 295.082 443 295.082 443 295.082C443 295.082 443 295.082 443 295.082C443 295.082 443 295.082 443 295.082C443 295.082 443 295.082 443 295.082C443 295.082 443 295.082 443 295.082C443 295.082 443 295.082 443 295.082C443 295.082 443 295.082 443 295.082C443 295.082 443 295.082 443 295.082C443 295.082 443 295.082 443 295.082C443 295.082 443 295.082 443 295.082C443 295.082 443 295.082 443 295.082C443 295.082 443 295.082 443 295.082C443 295.082 443 295.082 443 295.082C443 295.082 443 295.082 443 295.082C443 295.082 443 295.082 443 295.082C443 295.082 443 295.082 443 295.082C443 295.082 443 295.082 443 295.082C443 295.082 443 295.082 443 295.082C443 295.082 443 295.082 443 295.082C443 295.082 443 295.082 443 295.082C443 295.082 443 295.082 443 295.082C443 295.082 443 295.082 443 295.082C443 295.082 443 295.082 443 295.082C443 295.082 443 295.082 443 295.082C443 295.082 443 295.082 443 295.082C443 295.082 443 295.082 443 295.082C443 295.082 443 295.082 443 295.082C443 295.082 443 295.082 443 295.082C443 295.082 443 295.082 443 295.082C443 295.082 443 295.082 443 295.082C443 295.082 443 295.082 443 295.082C443 295.082 443 295.082 443 295.082C443 295.082 443 295.082 443 295.082C443 295.082 443 295.082 443 295.082C443 295.082 443 295.082 443 295.082C443 295.082 443 295.082 443 295.082C443 295.082 443 295.082 443 295.082C443 295.082 443 295.082 443 295.082C443 295.082 443 295.082 443 295.082C443 295.082 443 295.082 443 295.082C443 295.082 443 295.082 443 295.082C443 295.082 443 295.082 443 295.082C443 295.082 443 295.082 443 295.082C443 295.082 443 295.082 443 295.082C443 295.082 443 295.082 443 295.082C443 295.082 443 295.082 443 295.082C443 295.082 443 295.082 443 295.082C443 295.082 443 295.082 443 295.082C443 295.082 443 295.082 443 295.082C443 295.082 443 295.082 443 295.082C443 295.082 443 295.082 443 295.082C443 295.082 443 295.082 443 295.082C443 295.082 443 295.082 443 295.082C443 295.082 443 295.082 443 295.082C443 295.082 443 295.082 443 295.082C443 295.082 443 295.082 443 295.082C443 295.082 443 295.082 443 295.082C443 295.082 443 295.082 443 295.082C443 295.082 443 295.082 443 295.082C443 295.082 443 295.082 443 295.082C443 295.082 443 295.082 443 295.082C443 295.082 443 295.082 443 295.082C443 295.082 443 295.082 443 295.082C443 295.082 443 295.082 443 295.082C443 295.082 443 295.082 443 295.082C443 295.082 443 295.082 443 295.082C443 295.082 443 295.082 443 295.082C443 295.082 443 295.082 443 295.082C443 295.082 443 295.082 443 295.082C443 295.082 443 295.082 443 295.082C443 295.082 443 295.082 443 295.082C443 295.082 443 295.082 443 295.082C443 295.082 443 295.082 443 295.082C443 295.082 443 295.082 443 295.082C443 295.082 443 295.082 443 295.082C443 295.082 443 295.082 443 295.082C443 295.082 443 295.082 443 295.082C443 295.082 443 295.082 443 295.082C443 295.082 443 295.082 443 295.082C443 295.082 443 295.082 443 295.082C443 295.082 443 295.082 443 295.082C443 295.082 443 295.082 443 295.082C443 295.082 443 295.082 443 295.082C443 295.082 443 295.082 443 295.082C443 295.082 443 295.082 443 295.082C443 295.082 443 295.082 443 295.082C443 295.082 443 295.082 443 295.082C443 295.082 443 295.082 443 295.082C443 295.082 443 295.082 443 295.082C443 295.082 443 295.082 443 295.082C443 295.082 443 295.082 443 295.082C443 295.082 443 295.082 443 295.082C443 295.082 443 295.082 443 295.082C443 295.082 443 295.082 443 295.082C443 295.082 443 295.082 443 295.082C443 295.082 443 295.082 443 295.082C443 295.082 443 295.082 443 295.082C443 295.082 443 295.082 443 295.082C443 295.082 443 295.082 443 295.082C443 295.082 443 295.082 443 295.082C443 295.082 443 295.082 443 295.082C443 295.082 443 295.082 443 295.082C443 295.082 443 295.082 443 295.082C443 295.082 443 295.082 443 295.082C443 295.082 443 295.082 443 295.082C443 295.082 443 295.082 443 295.082C443 295.082 443 295.082 443 295.082C443 295.082 443 295.082 443 295.082C443 295.082 443 295.082 443 295.082C443 295.082 443 295.082 443 295.082C443 295.082 443 295.082 443 295.082C443 295.082 443 295.082 443 295.082C443 295.082 443 295.082 443 295.082C443 295.082 443 295.082 443 295.082C443 295.082 443 295.082 443 295.082C443 295.082 443 295.082 443 295.082C443 295.082 443 295.082 443 295.082C443 295.082 443 295.082 443 295.082C443 295.082 443 295.082 443 295.082C443 295.082 443 295.082 443 295.082C443 295.082 443 295.082 443 295.082C443 295.082 443 295.082 443 295.082C443 295.082 443 295.082 443 295.082C443 295.082 443 295.082 443 295.082C443 295.082 443 295.082 443 295.082C443 295.082 443 295.082 443 295.082C443 295.082 443 295.082 443 295.082C443 295.082 443 295.082 443 295.082C443 295.082 443 295.082 443 295.082C443 295.082 443 295.082 443 295.082C443 295.082 443 295.082 443 295.082C443 295.082 443 295.082 443 295.082C443 295.082 443 295.082 443 295.082C443 295.082 443 295.082 443 295.082C443 295.082 443 295.082 443 295.082C443 295.082 443 295.082 443 295.082C443 295.082 443 295.082 443 295.082C443 295.082 443 295.082 443 295.082C443 295.082 443 295.082 443 295.082C443 295.082 443 295.082 443 295.082C443 295.082 443 295.082 443 295.082C443 295.082 443 295.082 443 295.082C443 295.082 443 295.082 443 295.082C443 295.082 443 295.082 443 295.082C443 295.082 443 295.082 443 295.082C443 295.082 443 295.082 443 295.082C443 295.082 443 295.082 443 295.082C443 295.082 443 295.082 443 295.082C443 295.082 443 295.082 443 295.082C443 295.082 443 295.082 443 295.082C443 295.082 443 295.082 443 295.082C443 295.082 443 295.082 443 295.082C443 295.082 443 295.082 443 295.082C443 295.082 443 295.082 443 295.082C443 295.082 443 295.082 443 295.082C443 295.082 443 295.082 443 295.082C443 295.082 443 295.082 443 295.082C443 295.082 443 295.082 443 295.082C443 295.082 443 295.082 443 295.082C443 295.082 443 295.082 443 295.082C443 295.082 443 295.082 443 295.082C443 295.082 443 295.082 443 295.082C443 295.082 443 295.082 443 295.082C443 295.082 443 295.082 443 295.082C443 295.082 443 295.082 443 295.082C443 295.082 443 295.082 443 295.082C443 295.082 443 295.082 443 295.082C443 295.082 443 295.082 443 295.082C443 295.082 443 295.082 443 295.082C443 295.082 443 295.082 443 295.082C443 295.082 443 295.082 443 295.082C443 295.082 443 295.082 443 295.082C443 295.082 443 295.082 443 295.082C443 295.082 443 295.082 443 295.082C443 295.082 443 295.082 443 295.082C443 295.082 443 295.082 443 295.082C443 295.082 443 295.082 443 295.082C443 295.082 443 295.082 443 295.082C443 295.082 443 295.082 443 295.082C443 295.082 443 295.082 443 295.082C443 295.082 443 295.082 443 295.082C443 295.082 443 295.082 443 295.082C443 295.082 443 295.082 443 295.082C443 295.082 443 295.082 443 295.082C443 295.082 443 295.082 443 295.082C443 295.082 443 295.082 443 295.082C443 295.082 443 295.082 443 295.082C443 295.082 443 295.082 443 295.082C443 295.082 443 295.082 443 295.082C443 295.082 443 295.082 443 295.082C443 295.082 443 295.082 443 295.082C443 295.082 443 295.082 443 295.082C443 295.082 443 295.082 443 295.082C443 295.082 443 295.082 443 295.082C443 295.082 443 295.082 443 295.082C443 295.082 443 295.082 443 295.082C443 295.082 443 295.082 443 295.082C443 295.082 443 295.082 443 295.082C443 295.082 443 295.082 443 295.082C443 295.082 443 295.082 443 295.082C443 295.082 443 295.082 443 295.082C443 295.082 443 295.082 443 295.082C443 295.082 443 295.082 443 295.082C443 295.082 443 295.082 443 295.082C443 295.082 443 295.082 443 295.082C443 295.082 443 295.082 443 295.082C443 295.082 443 295.082 443 295.082C443 295.082 443 295.082 443 295.082C443 295.082 443 295.082 443 295.082C443 295.082 443 295.082 443 295.082C443 295.082 443 295.082 443 295.082C443 295.082 443 295.082 443 295.082C443 295.082 443 295.082 443 295.082C443 295.082 443 295.082 443 295.082C443 295.082 443 295.082 443 295.082C443 295.082 443 295.082 443 295.082C443 295.082 443 295.082 443 295.082C443 295.082 443 295.082 443 295.082C443 295.082 443 295.082 443 295.082C443 295.082 443 295.082 443 295.082C443 295.082 443 295.082 443 295.082C443 295.082 443 295.082 443 295.082C443 295.082 443 295.082 443 295.082C443 295.082 443 295.082 443 295.082C443 295.082 443 295.082 443 295.082C443 295.082 443 295.082 443 295.082C443 295.082 443 295.082 443 295.082C443 295.082 443 295.082 443 295.082C443 295.082 443 295.082 443 295.082C443 295.082 443 295.082 443 295.082C443 295.082 443 295.082 443 295.082C443 295.082 443 295.082 443 295.082C443 295.082 443 295.082 443 295.082C443 295.082 443 295.082 443 295.082C443 295.082 443 295.082 443 295.082C443 295.082 443 295.082 443 295.082C443 295.082 443 295.082 443 295.082C443 295.082 443 295.082 443 295.082C443 295.082 443 295.082 443 295.082C443 295.082 443 295.082 443 295.082C443 295.082 443 295.082 443 295.082C443 295.082 443 295.082 443 295.082C443 295.082 443 295.082 443 295.082C443 295.082 443 295.082 443 295.082C443 295.082 443 295.082 443 295.082C443 295.082 443 295.082 443 295.082C443 295.082 443 295.082 443 295.082C443 295.082 443 295.082 443 295.082C443 295.082 443 295.082 443 295.082C443 295.082 443 295.082 443 295.082C443 295.082 443 295.082 443 295.082C443 295.082 443 295.082 443 295.082C443 295.082 443 295.082 443 295.082C443 295.082 443 295.082 443 295.082C443 295.082 443 295.082 443 295.082C443 295.082 443 295.082 443 295.082C443 295.082 443 295.082 443 295.082C443 295.082 443 295.082 443 295.082C443 295.082 443 295.082 443 295.082C443 295.082 443 295.082 443 295.082C443 295.082 443 295.082 443 295.082C443 295.082 443 295.082 443 295.082C443 295.082 443 295.082 443 295.082C443 295.082 443 295.082 443 295.082C443 295.082 443 295.082 443 295.082C443 295.082 443 295.082 443 295.082C443 295.082 443 295.082 443 295.082C443 295.082 443 295.082 443 295.082C443 295.082 443 295.082 443 295.082C443 295.082 443 295.082 443 295.082C443 295.082 443 295.082 443 295.082C443 295.082 443 295.082 443 295.082C443 295.082 443 295.082 443 295.082C443 295.082 443 295.082 443 295.082C443 295.082 443 295.082 443 295.082C443 295.082 443 295.082 443 295.082C443 295.082 443 295.082 443 295.082C443 295.082 443 295.082 443 295.082C443 295.082 443 295.082 443 295.082C443 295.082 443 295.082 443 295.082C443 295.082 443 295.082 443 295.082C443 295.082 443 295.082 443 295.082C443 295.082 443 295.082 443 295.082C443 295.082 443 295.082 443 295.082C443 295.082 443 295.082 443 295.082C443 295.082 443 295.082 443 295.082C443 295.082 443 295.082 443 295.082C443 295.082 443 295.082 443 295.082C443 295.082 443 295.082 443 295.082C443 295.082 443 295.082 443 295.082C443 295.082 443 295.082 443 295.082C443 295.082 443 295.082 443 295.082C443 295.082 443 295.082 443 295.082C443 295.082 443 295.082 443 295.082C443 295.082 443 295.082 443 295.082C443 295.082 443 295.082 443 295.082C443 295.082 443 295.082 443 295.082C443 295.082 443 295.082 443 295.082C443 295.082 443 295.082 443 295.082C443 295.082 443 295.082 443 295.082C443 295.082 443 295.082 443 295.082C443 295.082 443 295.082 443 295.082C443 295.082 443 295.082 443 295.082C443 295.082 443 295.082 443 295.082C443 295.082 443 295.082 443 295.082C443 295.082 443 295.082 443 295.082C443 295.082 443 295.082 443 295.082C443 295.082 443 295.082 443 295.082C443 295.082 443 295.082 443 295.082C443 295.082 443 295.082 443 295.082C443 295.082 443 295.082 443 295.082C443 295.082 443 295.082 443 295.082C443 295.082 443 295.082 443 295.082C443 295.082 443 295.082 443 295.082C443 295.082 443 295.082 443 295.082C443 295.082 443 295.082 443 295.082C443 295.082 443 295.082 443 295.082C443 295.082 443 295.082 443 295.082C443 295.082 443 295.082 443 295.082C443 295.082 443 295.082 443 295.082C443 295.082 443 295.082 443 295.082C443 295.082 443 295.082 443 295.082C443 295.082 443 295.082 443 295.082C443 295.082 443 295.082 443 295.082C443 295.082 443 295.082 443 295.082C443 295.082 443 295.082 443 295.082C443 295.082 443 295.082 443 295.082C443 295.082 443 295.082 443 295.082C443 295.082 443 295.082 443 295.082C443 295.082 443 295.082 443 295.082C443 295.082 443 295.082 443 295.082C443 295.082 443 295.082 443 295.082C443 295.082 443 295.082 443 295.082C443 295.082 443 295.082 443 295.082C443 295.082 443 295.082 443 295.082C443 295.082 443 295.082 443 295.082C443 295.082 443 295.082 443 295.082C443 295.082 443 295.082 443 295.082C443 295.082 443 295.082 443 295.082C443 295.082 443 295.082 443 295.082C443 295.082 443 295.082 443 295.082C443 295.082 443 295.082 443 295.082C443 295.082 443 295.082 443 295.082C443 295.082 443 295.082 443 295.082C443 295.082 443 295.082 443 295.082C443 295.082 443 295.082 443 295.082C443 295.082 443 295.082 443 295.082C443 295.082 443 295.082 443 295.082C443 295.082 443 295.082 443 295.082C443 295.082 443 295.082 443 295.082C443 295.082 443 295.082 443 295.082C443 295.082 443 295.082 443 295.082C443 295.082 443 295.082 443 295.082C443 295.082 443 295.082 443 295.082C443 295.082 443 295.082 443 295.082C443 295.082 443 295.082 443 295.082C443 295.082 443 295.082 443 295.082C443 295.082 443 295.082 443 295.082C443 295.082 443 295.082 443 295.082C443 295.082 443 295.082 443 295.082C443 295.082 443 295.082 443 295.082C443 295.082 443 295.082 443 295.082C443 295.082 443 295.082 443 295.082C443 295.082 443 295.082 443 295.082H439ZM320.486 176.569C385.939 176.569 439 229.629 439 295.082H443C443 227.42 388.148 172.569 320.486 172.569V176.569ZM201.972 295.082C201.972 229.629 255.033 176.569 320.486 176.569V172.569C252.823 172.569 197.972 227.42 197.972 295.082H201.972ZM201.972 295.295C201.972 295.224 201.972 295.153 201.972 295.082H197.972C197.972 295.156 197.972 295.229 197.972 295.302L201.972 295.295ZM201.972 536.11V295.299H197.972V536.11H201.972ZM441 534.11H199.972V538.11H441V534.11ZM439 295.082V536.11H443V295.082H439ZM441 297.082H441V293.082H441V297.082Z" fill="black" mask="url(#path-1-inside-1_501_432)"/>
<circle cx="319.988" cy="116.304" r="59.2569" fill="#C4C4C4" stroke="black" stroke-width="2"/>
<mask id="path-4-inside-2_501_432" fill="white">
<path fill-rule="evenodd" clip-rule="evenodd" d="M260.856 320.768C260.856 265.303 215.893 220.34 160.428 220.34C104.963 220.34 60 265.303 60 320.768C60 320.768 60 320.768 60 320.768V521.624H260.856V320.768Z"/>
</mask>
<path fill-rule="evenodd" clip-rule="evenodd" d="M260.856 320.768C260.856 265.303 215.893 220.34 160.428 220.34C104.963 220.34 60 265.303 60 320.768C60 320.768 60 320.768 60 320.768V521.624H260.856V320.768Z" fill="#C4C4C4"/>
<path d="M60 521.624H58V523.624H60V521.624ZM260.856 521.624V523.624H262.856V521.624H260.856ZM160.428 222.34C214.788 222.34 258.856 266.408 258.856 320.768H262.856C262.856 264.198 216.998 218.34 160.428 218.34V222.34ZM62 320.768C62 266.408 106.068 222.34 160.428 222.34V218.34C103.859 218.34 58 264.198 58 320.768H62ZM62 320.768C62 320.768 62 320.768 62 320.768C62 320.768 62 320.768 62 320.768C62 320.768 62 320.768 62 320.768C62 320.768 62 320.768 62 320.768C62 320.768 62 320.768 62 320.768C62 320.768 62 320.768 62 320.768C62 320.768 62 320.768 62 320.768C62 320.768 62 320.768 62 320.768C62 320.768 62 320.768 62 320.768C62 320.768 62 320.768 62 320.768C62 320.768 62 320.768 62 320.768C62 320.768 62 320.768 62 320.768C62 320.768 62 320.768 62 320.768C62 320.768 62 320.768 62 320.768C62 320.768 62 320.768 62 320.768C62 320.768 62 320.768 62 320.768C62 320.768 62 320.768 62 320.768C62 320.768 62 320.768 62 320.768C62 320.768 62 320.768 62 320.768C62 320.768 62 320.768 62 320.768C62 320.768 62 320.768 62 320.768C62 320.768 62 320.768 62 320.768C62 320.768 62 320.768 62 320.768C62 320.768 62 320.768 62 320.768C62 320.768 62 320.768 62 320.768C62 320.768 62 320.768 62 320.768C62 320.768 62 320.768 62 320.768C62 320.768 62 320.768 62 320.768C62 320.768 62 320.768 62 320.768C62 320.768 62 320.768 62 320.768C62 320.768 62 320.768 62 320.768C62 320.768 62 320.768 62 320.768C62 320.768 62 320.768 62 320.768C62 320.768 62 320.768 62 320.768C62 320.768 62 320.768 62 320.768C62 320.768 62 320.768 62 320.768C62 320.768 62 320.768 62 320.768C62 320.768 62 320.768 62 320.768C62 320.768 62 320.768 62 320.768C62 320.768 62 320.768 62 320.768C62 320.768 62 320.768 62 320.768C62 320.768 62 320.768 62 320.768C62 320.768 62 320.768 62 320.768C62 320.768 62 320.768 62 320.768C62 320.768 62 320.768 62 320.768C62 320.768 62 320.768 62 320.768C62 320.768 62 320.768 62 320.768C62 320.768 62 320.768 62 320.768C62 320.768 62 320.768 62 320.768C62 320.768 62 320.768 62 320.768C62 320.768 62 320.768 62 320.768C62 320.768 62 320.768 62 320.768C62 320.768 62 320.768 62 320.768C62 320.768 62 320.768 62 320.768C62 320.768 62 320.768 62 320.768C62 320.768 62 320.768 62 320.768C62 320.768 62 320.768 62 320.768C62 320.768 62 320.768 62 320.768C62 320.768 62 320.768 62 320.768C62 320.768 62 320.768 62 320.768C62 320.768 62 320.768 62 320.768C62 320.768 62 320.768 62 320.768C62 320.768 62 320.768 62 320.768C62 320.768 62 320.768 62 320.768C62 320.768 62 320.768 62 320.768C62 320.768 62 320.768 62 320.768C62 320.768 62 320.768 62 320.768C62 320.768 62 320.768 62 320.768C62 320.768 62 320.768 62 320.768C62 320.768 62 320.768 62 320.768C62 320.768 62 320.768 62 320.768C62 320.768 62 320.768 62 320.768C62 320.768 62 320.768 62 320.768C62 320.768 62 320.768 62 320.768C62 320.768 62 320.768 62 320.768C62 320.768 62 320.768 62 320.768C62 320.768 62 320.768 62 320.768C62 320.768 62 320.768 62 320.768C62 320.768 62 320.768 62 320.768C62 320.768 62 320.768 62 320.768C62 320.768 62 320.768 62 320.768C62 320.768 62 320.768 62 320.768C62 320.768 62 320.768 62 320.768C62 320.768 62 320.768 62 320.768C62 320.768 62 320.768 62 320.768C62 320.768 62 320.768 62 320.768C62 320.768 62 320.768 62 320.768C62 320.768 62 320.768 62 320.768C62 320.768 62 320.768 62 320.768C62 320.768 62 320.768 62 320.768C62 320.768 62 320.768 62 320.768C62 320.768 62 320.768 62 320.768C62 320.768 62 320.768 62 320.768C62 320.768 62 320.768 62 320.768C62 320.768 62 320.768 62 320.768C62 320.768 62 320.768 62 320.768C62 320.768 62 320.768 62 320.768C62 320.768 62 320.768 62 320.768C62 320.768 62 320.768 62 320.768C62 320.768 62 320.768 62 320.768C62 320.768 62 320.768 62 320.768C62 320.768 62 320.768 62 320.768C62 320.768 62 320.768 62 320.768C62 320.768 62 320.768 62 320.768C62 320.768 62 320.768 62 320.768C62 320.768 62 320.768 62 320.768C62 320.768 62 320.768 62 320.768C62 320.768 62 320.768 62 320.768C62 320.768 62 320.768 62 320.768C62 320.768 62 320.768 62 320.768C62 320.768 62 320.768 62 320.768C62 320.768 62 320.768 62 320.768C62 320.768 62 320.768 62 320.768C62 320.768 62 320.768 62 320.768C62 320.768 62 320.768 62 320.768C62 320.768 62 320.768 62 320.768C62 320.768 62 320.768 62 320.768C62 320.768 62 320.768 62 320.768C62 320.768 62 320.768 62 320.768C62 320.768 62 320.768 62 320.768C62 320.768 62 320.768 62 320.768C62 320.768 62 320.768 62 320.768C62 320.768 62 320.768 62 320.768C62 320.768 62 320.768 62 320.768C62 320.768 62 320.768 62 320.768C62 320.768 62 320.768 62 320.768C62 320.768 62 320.768 62 320.768C62 320.768 62 320.768 62 320.768C62 320.768 62 320.768 62 320.768C62 320.768 62 320.768 62 320.768C62 320.768 62 320.768 62 320.768C62 320.768 62 320.768 62 320.768C62 320.768 62 320.768 62 320.768C62 320.768 62 320.768 62 320.768C62 320.768 62 320.768 62 320.768C62 320.768 62 320.768 62 320.768C62 320.768 62 320.768 62 320.768C62 320.768 62 320.768 62 320.768C62 320.768 62 320.768 62 320.768C62 320.768 62 320.768 62 320.768C62 320.768 62 320.768 62 320.768C62 320.768 62 320.768 62 320.768C62 320.768 62 320.768 62 320.768C62 320.768 62 320.768 62 320.768C62 320.768 62 320.768 62 320.768C62 320.768 62 320.768 62 320.768C62 320.768 62 320.768 62 320.768C62 320.768 62 320.768 62 320.768C62 320.768 62 320.768 62 320.768C62 320.768 62 320.768 62 320.768C62 320.768 62 320.768 62 320.768C62 320.768 62 320.768 62 320.768C62 320.768 62 320.768 62 320.768C62 320.768 62 320.768 62 320.768C62 320.768 62 320.768 62 320.768C62 320.768 62 320.768 62 320.768C62 320.768 62 320.768 62 320.768C62 320.768 62 320.768 62 320.768C62 320.768 62 320.768 62 320.768C62 320.768 62 320.768 62 320.768C62 320.768 62 320.768 62 320.768C62 320.768 62 320.768 62 320.768C62 320.768 62 320.768 62 320.768C62 320.768 62 320.768 62 320.768C62 320.768 62 320.768 62 320.768C62 320.768 62 320.768 62 320.768C62 320.768 62 320.768 62 320.768C62 320.768 62 320.768 62 320.768C62 320.768 62 320.768 62 320.768C62 320.768 62 320.768 62 320.768C62 320.768 62 320.768 62 320.768C62 320.768 62 320.768 62 320.768C62 320.768 62 320.768 62 320.768C62 320.768 62 320.768 62 320.768C62 320.768 62 320.768 62 320.768C62 320.768 62 320.768 62 320.768C62 320.768 62 320.768 62 320.768C62 320.768 62 320.768 62 320.768C62 320.768 62 320.768 62 320.768C62 320.768 62 320.768 62 320.768C62 320.768 62 320.768 62 320.768C62 320.768 62 320.768 62 320.768C62 320.768 62 320.768 62 320.768C62 320.768 62 320.768 62 320.768C62 320.768 62 320.768 62 320.768C62 320.768 62 320.768 62 320.768C62 320.768 62 320.768 62 320.768C62 320.768 62 320.768 62 320.768C62 320.768 62 320.768 62 320.768C62 320.768 62 320.768 62 320.768C62 320.768 62 320.768 62 320.768C62 320.768 62 320.768 62 320.768C62 320.768 62 320.768 62 320.768C62 320.768 62 320.768 62 320.768C62 320.768 62 320.768 62 320.768C62 320.768 62 320.768 62 320.768C62 320.768 62 320.768 62 320.768C62 320.768 62 320.768 62 320.768C62 320.768 62 320.768 62 320.768C62 320.768 62 320.768 62 320.768C62 320.768 62 320.768 62 320.768C62 320.768 62 320.768 62 320.768C62 320.768 62 320.768 62 320.768C62 320.768 62 320.768 62 320.768C62 320.768 62 320.768 62 320.768C62 320.768 62 320.768 62 320.768C62 320.768 62 320.768 62 320.768C62 320.768 62 320.768 62 320.768C62 320.768 62 320.768 62 320.768C62 320.768 62 320.768 62 320.768C62 320.768 62 320.768 62 320.768C62 320.768 62 320.768 62 320.768C62 320.768 62 320.768 62 320.768C62 320.768 62 320.768 62 320.768C62 320.768 62 320.768 62 320.768C62 320.768 62 320.768 62 320.768C62 320.768 62 320.768 62 320.768C62 320.768 62 320.768 62 320.768C62 320.768 62 320.768 62 320.768C62 320.768 62 320.768 62 320.768C62 320.768 62 320.768 62 320.768C62 320.768 62 320.768 62 320.768C62 320.768 62 320.768 62 320.768C62 320.768 62 320.768 62 320.768C62 320.768 62 320.768 62 320.768C62 320.768 62 320.768 62 320.768C62 320.768 62 320.768 62 320.768C62 320.768 62 320.768 62 320.768C62 320.768 62 320.768 62 320.768C62 320.768 62 320.768 62 320.768C62 320.768 62 320.768 62 320.768C62 320.768 62 320.768 62 320.768C62 320.768 62 320.768 62 320.768C62 320.768 62 320.768 62 320.768C62 320.768 62 320.768 62 320.768C62 320.768 62 320.768 62 320.768C62 320.768 62 320.768 62 320.768C62 320.768 62 320.768 62 320.768C62 320.768 62 320.768 62 320.768C62 320.768 62 320.768 62 320.768C62 320.768 62 320.768 62 320.768C62 320.768 62 320.768 62 320.768C62 320.768 62 320.768 62 320.768C62 320.768 62 320.768 62 320.768C62 320.768 62 320.768 62 320.768C62 320.768 62 320.768 62 320.768C62 320.768 62 320.768 62 320.768C62 320.768 62 320.768 62 320.768C62 320.768 62 320.768 62 320.768C62 320.768 62 320.768 62 320.768C62 320.768 62 320.768 62 320.768C62 320.768 62 320.768 62 320.768C62 320.768 62 320.768 62 320.768C62 320.768 62 320.768 62 320.768C62 320.768 62 320.768 62 320.768C62 320.768 62 320.768 62 320.768C62 320.768 62 320.768 62 320.768C62 320.768 62 320.768 62 320.768C62 320.768 62 320.768 62 320.768C62 320.768 62 320.768 62 320.768C62 320.768 62 320.768 62 320.768C62 320.768 62 320.768 62 320.768C62 320.768 62 320.768 62 320.768C62 320.768 62 320.768 62 320.768C62 320.768 62 320.768 62 320.768C62 320.768 62 320.768 62 320.768C62 320.768 62 320.768 62 320.768C62 320.768 62 320.768 62 320.768C62 320.768 62 320.768 62 320.768C62 320.768 62 320.768 62 320.768C62 320.768 62 320.768 62 320.768C62 320.768 62 320.768 62 320.768C62 320.768 62 320.768 62 320.768C62 320.768 62 320.768 62 320.768C62 320.768 62 320.768 62 320.768C62 320.768 62 320.768 62 320.768C62 320.768 62 320.768 62 320.768C62 320.768 62 320.768 62 320.768C62 320.768 62 320.768 62 320.768C62 320.768 62 320.768 62 320.768C62 320.768 62 320.768 62 320.768C62 320.768 62 320.768 62 320.768C62 320.768 62 320.768 62 320.768C62 320.768 62 320.768 62 320.768C62 320.768 62 320.768 62 320.768C62 320.768 62 320.768 62 320.768C62 320.768 62 320.768 62 320.768C62 320.768 62 320.768 62 320.768C62 320.768 62 320.768 62 320.768C62 320.768 62 320.768 62 320.768C62 320.768 62 320.768 62 320.768C62 320.768 62 320.768 62 320.768C62 320.768 62 320.768 62 320.768C62 320.768 62 320.768 62 320.768C62 320.768 62 320.768 62 320.768C62 320.768 62 320.768 62 320.768C62 320.768 62 320.768 62 320.768C62 320.768 62 320.768 62 320.768C62 320.768 62 320.768 62 320.768C62 320.768 62 320.768 62 320.768C62 320.768 62 320.768 62 320.768C62 320.768 62 320.768 62 320.768C62 320.768 62 320.768 62 320.768C62 320.768 62 320.768 62 320.768C62 320.768 62 320.768 62 320.768C62 320.768 62 320.768 62 320.768C62 320.768 62 320.768 62 320.768C62 320.768 62 320.768 62 320.768C62 320.768 62 320.768 62 320.768C62 320.768 62 320.768 62 320.768C62 320.768 62 320.768 62 320.768C62 320.768 62 320.768 62 320.768C62 320.768 62 320.768 62 320.768C62 320.768 62 320.768 62 320.768C62 320.768 62 320.768 62 320.768C62 320.768 62 320.768 62 320.768C62 320.768 62 320.768 62 320.768C62 320.768 62 320.768 62 320.768C62 320.768 62 320.768 62 320.768C62 320.768 62 320.768 62 320.768C62 320.768 62 320.768 62 320.768C62 320.768 62 320.768 62 320.768C62 320.768 62 320.768 62 320.768C62 320.768 62 320.768 62 320.768C62 320.768 62 320.768 62 320.768C62 320.768 62 320.768 62 320.768C62 320.768 62 320.768 62 320.768C62 320.768 62 320.768 62 320.768C62 320.768 62 320.768 62 320.768C62 320.768 62 320.768 62 320.768C62 320.768 62 320.768 62 320.768C62 320.768 62 320.768 62 320.768C62 320.768 62 320.768 62 320.768C62 320.768 62 320.768 62 320.768C62 320.768 62 320.768 62 320.768C62 320.768 62 320.768 62 320.768C62 320.768 62 320.768 62 320.768C62 320.768 62 320.768 62 320.768C62 320.768 62 320.768 62 320.768C62 320.768 62 320.768 62 320.768C62 320.768 62 320.768 62 320.768C62 320.768 62 320.768 62 320.768C62 320.768 62 320.768 62 320.768C62 320.768 62 320.768 62 320.768C62 320.768 62 320.768 62 320.768C62 320.768 62 320.768 62 320.768C62 320.768 62 320.768 62 320.768C62 320.768 62 320.768 62 320.768C62 320.768 62 320.768 62 320.768C62 320.768 62 320.768 62 320.768C62 320.768 62 320.768 62 320.768C62 320.768 62 320.768 62 320.768C62 320.768 62 320.768 62 320.768C62 320.768 62 320.768 62 320.768C62 320.768 62 320.768 62 320.768C62 320.768 62 320.768 62 320.768C62 320.768 62 320.768 62 320.768C62 320.768 62 320.768 62 320.768C62 320.768 62 320.768 62 320.768C62 320.768 62 320.768 62 320.768C62 320.768 62 320.768 62 320.768C62 320.768 62 320.768 62 320.768C62 320.768 62 320.768 62 320.768C62 320.768 62 320.768 62 320.768C62 320.768 62 320.768 62 320.768C62 320.768 62 320.768 62 320.768C62 320.768 62 320.768 62 320.768C62 320.768 62 320.768 62 320.768C62 320.768 62 320.768 62 320.768C62 320.768 62 320.768 62 320.768C62 320.768 62 320.768 62 320.768C62 320.768 62 320.768 62 320.768C62 320.768 62 320.768 62 320.768C62 320.768 62 320.768 62 320.768C62 320.768 62 320.768 62 320.768C62 320.768 62 320.768 62 320.768C62 320.768 62 320.768 62 320.768C62 320.768 62 320.768 62 320.768C62 320.768 62 320.768 62 320.768C62 320.768 62 320.768 62 320.768C62 320.768 62 320.768 62 320.768C62 320.768 62 320.768 62 320.768C62 320.768 62 320.768 62 320.768C62 320.768 62 320.768 62 320.768C62 320.768 62 320.768 62 320.768C62 320.768 62 320.768 62 320.768C62 320.768 62 320.768 62 320.768C62 320.768 62 320.768 62 320.768C62 320.768 62 320.768 62 320.768C62 320.768 62 320.768 62 320.768C62 320.768 62 320.768 62 320.768C62 320.768 62 320.768 62 320.768C62 320.768 62 320.768 62 320.768C62 320.768 62 320.768 62 320.768C62 320.768 62 320.768 62 320.768C62 320.768 62 320.768 62 320.768C62 320.768 62 320.768 62 320.768C62 320.768 62 320.768 62 320.768C62 320.768 62 320.768 62 320.768C62 320.768 62 320.768 62 320.768C62 320.768 62 320.768 62 320.768C62 320.768 62 320.768 62 320.768C62 320.768 62 320.768 62 320.768C62 320.768 62 320.768 62 320.768C62 320.768 62 320.768 62 320.768C62 320.768 62 320.768 62 320.768C62 320.768 62 320.768 62 320.768C62 320.768 62 320.768 62 320.768C62 320.768 62 320.768 62 320.768C62 320.768 62 320.768 62 320.768C62 320.768 62 320.768 62 320.768C62 320.768 62 320.768 62 320.768C62 320.768 62 320.768 62 320.768C62 320.768 62 320.768 62 320.768C62 320.768 62 320.768 62 320.768C62 320.768 62 320.768 62 320.768C62 320.768 62 320.768 62 320.768C62 320.768 62 320.768 62 320.768C62 320.768 62 320.768 62 320.768C62 320.768 62 320.768 62 320.768C62 320.768 62 320.768 62 320.768C62 320.768 62 320.768 62 320.768C62 320.768 62 320.768 62 320.768C62 320.768 62 320.768 62 320.768C62 320.768 62 320.768 62 320.768C62 320.768 62 320.768 62 320.768C62 320.768 62 320.768 62 320.768C62 320.768 62 320.768 62 320.768C62 320.768 62 320.768 62 320.768C62 320.768 62 320.768 62 320.768C62 320.768 62 320.768 62 320.768C62 320.768 62 320.768 62 320.768C62 320.768 62 320.768 62 320.768C62 320.768 62 320.768 62 320.768C62 320.768 62 320.768 62 320.768C62 320.768 62 320.768 62 320.768C62 320.768 62 320.768 62 320.768C62 320.768 62 320.768 62 320.768C62 320.768 62 320.768 62 320.768C62 320.768 62 320.768 62 320.768C62 320.768 62 320.768 62 320.768C62 320.768 62 320.768 62 320.768C62 320.768 62 320.768 62 320.768C62 320.768 62 320.768 62 320.768C62 320.768 62 320.768 62 320.768C62 320.768 62 320.768 62 320.768C62 320.768 62 320.768 62 320.768C62 320.768 62 320.768 62 320.768C62 320.768 62 320.768 62 320.768C62 320.768 62 320.768 62 320.768C62 320.768 62 320.768 62 320.768C62 320.768 62 320.768 62 320.768C62 320.768 62 320.768 62 320.768C62 320.768 62 320.768 62 320.768C62 320.768 62 320.768 62 320.768C62 320.768 62 320.768 62 320.768C62 320.768 62 320.768 62 320.768C62 320.768 62 320.768 62 320.768C62 320.768 62 320.768 62 320.768C62 320.768 62 320.768 62 320.768C62 320.768 62 320.768 62 320.768C62 320.768 62 320.768 62 320.768C62 320.768 62 320.768 62 320.768C62 320.768 62 320.768 62 320.768C62 320.768 62 320.768 62 320.768C62 320.768 62 320.768 62 320.768C62 320.768 62 320.768 62 320.768C62 320.768 62 320.768 62 320.768C62 320.768 62 320.768 62 320.768C62 320.768 62 320.768 62 320.768C62 320.768 62 320.768 62 320.768C62 320.768 62 320.768 62 320.768C62 320.768 62 320.768 62 320.768C62 320.768 62 320.768 62 320.768C62 320.768 62 320.768 62 320.768C62 320.768 62 320.768 62 320.768C62 320.768 62 320.768 62 320.768C62 320.768 62 320.768 62 320.768C62 320.768 62 320.768 62 320.768C62 320.768 62 320.768 62 320.768C62 320.768 62 320.768 62 320.768C62 320.768 62 320.768 62 320.768C62 320.768 62 320.768 62 320.768C62 320.768 62 320.768 62 320.768C62 320.768 62 320.768 62 320.768C62 320.768 62 320.768 62 320.768C62 320.768 62 320.768 62 320.768C62 320.768 62 320.768 62 320.768C62 320.768 62 320.768 62 320.768C62 320.768 62 320.768 62 320.768C62 320.768 62 320.768 62 320.768C62 320.768 62 320.768 62 320.768C62 320.768 62 320.768 62 320.768C62 320.768 62 320.768 62 320.768C62 320.768 62 320.768 62 320.768C62 320.768 62 320.768 62 320.768C62 320.768 62 320.768 62 320.768C62 320.768 62 320.768 62 320.768C62 320.768 62 320.768 62 320.768C62 320.768 62 320.768 62 320.768C62 320.768 62 320.768 62 320.768C62 320.768 62 320.768 62 320.768C62 320.768 62 320.768 62 320.768C62 320.768 62 320.768 62 320.768C62 320.768 62 320.768 62 320.768C62 320.768 62 320.768 62 320.768C62 320.768 62 320.768 62 320.768C62 320.768 62 320.768 62 320.768C62 320.768 62 320.768 62 320.768C62 320.768 62 320.768 62 320.768C62 320.768 62 320.768 62 320.768C62 320.768 62 320.768 62 320.768H58C58 320.768 58 320.768 58 320.768C58 320.768 58 320.768 58 320.768C58 320.768 58 320.768 58 320.768C58 320.768 58 320.768 58 320.768C58 320.768 58 320.768 58 320.768C58 320.768 58 320.768 58 320.768C58 320.768 58 320.768 58 320.768C58 320.768 58 320.768 58 320.768C58 320.768 58 320.768 58 320.768C58 320.768 58 320.768 58 320.768C58 320.768 58 320.768 58 320.768C58 320.768 58 320.768 58 320.768C58 320.768 58 320.768 58 320.768C58 320.768 58 320.768 58 320.768C58 320.768 58 320.768 58 320.768C58 320.768 58 320.768 58 320.768C58 320.768 58 320.768 58 320.768C58 320.768 58 320.768 58 320.768C58 320.768 58 320.768 58 320.768C58 320.768 58 320.768 58 320.768C58 320.768 58 320.768 58 320.768C58 320.768 58 320.768 58 320.768C58 320.768 58 320.768 58 320.768C58 320.768 58 320.768 58 320.768C58 320.768 58 320.768 58 320.768C58 320.768 58 320.768 58 320.768C58 320.768 58 320.768 58 320.768C58 320.768 58 320.768 58 320.768C58 320.768 58 320.768 58 320.768C58 320.768 58 320.768 58 320.768C58 320.768 58 320.768 58 320.768C58 320.768 58 320.768 58 320.768C58 320.768 58 320.768 58 320.768C58 320.768 58 320.768 58 320.768C58 320.768 58 320.768 58 320.768C58 320.768 58 320.768 58 320.768C58 320.768 58 320.768 58 320.768C58 320.768 58 320.768 58 320.768C58 320.768 58 320.768 58 320.768C58 320.768 58 320.768 58 320.768C58 320.768 58 320.768 58 320.768C58 320.768 58 320.768 58 320.768C58 320.768 58 320.768 58 320.768C58 320.768 58 320.768 58 320.768C58 320.768 58 320.768 58 320.768C58 320.768 58 320.768 58 320.768C58 320.768 58 320.768 58 320.768C58 320.768 58 320.768 58 320.768C58 320.768 58 320.768 58 320.768C58 320.768 58 320.768 58 320.768C58 320.768 58 320.768 58 320.768C58 320.768 58 320.768 58 320.768C58 320.768 58 320.768 58 320.768C58 320.768 58 320.768 58 320.768C58 320.768 58 320.768 58 320.768C58 320.768 58 320.768 58 320.768C58 320.768 58 320.768 58 320.768C58 320.768 58 320.768 58 320.768C58 320.768 58 320.768 58 320.768C58 320.768 58 320.768 58 320.768C58 320.768 58 320.768 58 320.768C58 320.768 58 320.768 58 320.768C58 320.768 58 320.768 58 320.768C58 320.768 58 320.768 58 320.768C58 320.768 58 320.768 58 320.768C58 320.768 58 320.768 58 320.768C58 320.768 58 320.768 58 320.768C58 320.768 58 320.768 58 320.768C58 320.768 58 320.768 58 320.768C58 320.768 58 320.768 58 320.768C58 320.768 58 320.768 58 320.768C58 320.768 58 320.768 58 320.768C58 320.768 58 320.768 58 320.768C58 320.768 58 320.768 58 320.768C58 320.768 58 320.768 58 320.768C58 320.768 58 320.768 58 320.768C58 320.768 58 320.768 58 320.768C58 320.768 58 320.768 58 320.768C58 320.768 58 320.768 58 320.768C58 320.768 58 320.768 58 320.768C58 320.768 58 320.768 58 320.768C58 320.768 58 320.768 58 320.768C58 320.768 58 320.768 58 320.768C58 320.768 58 320.768 58 320.768C58 320.768 58 320.768 58 320.768C58 320.768 58 320.768 58 320.768C58 320.768 58 320.768 58 320.768C58 320.768 58 320.768 58 320.768C58 320.768 58 320.768 58 320.768C58 320.768 58 320.768 58 320.768C58 320.768 58 320.768 58 320.768C58 320.768 58 320.768 58 320.768C58 320.768 58 320.768 58 320.768C58 320.768 58 320.768 58 320.768C58 320.768 58 320.768 58 320.768C58 320.768 58 320.768 58 320.768C58 320.768 58 320.768 58 320.768C58 320.768 58 320.768 58 320.768C58 320.768 58 320.768 58 320.768C58 320.768 58 320.768 58 320.768C58 320.768 58 320.768 58 320.768C58 320.768 58 320.768 58 320.768C58 320.768 58 320.768 58 320.768C58 320.768 58 320.768 58 320.768C58 320.768 58 320.768 58 320.768C58 320.768 58 320.768 58 320.768C58 320.768 58 320.768 58 320.768C58 320.768 58 320.768 58 320.768C58 320.768 58 320.768 58 320.768C58 320.768 58 320.768 58 320.768C58 320.768 58 320.768 58 320.768C58 320.768 58 320.768 58 320.768C58 320.768 58 320.768 58 320.768C58 320.768 58 320.768 58 320.768C58 320.768 58 320.768 58 320.768C58 320.768 58 320.768 58 320.768C58 320.768 58 320.768 58 320.768C58 320.768 58 320.768 58 320.768C58 320.768 58 320.768 58 320.768C58 320.768 58 320.768 58 320.768C58 320.768 58 320.768 58 320.768C58 320.768 58 320.768 58 320.768C58 320.768 58 320.768 58 320.768C58 320.768 58 320.768 58 320.768C58 320.768 58 320.768 58 320.768C58 320.768 58 320.768 58 320.768C58 320.768 58 320.768 58 320.768C58 320.768 58 320.768 58 320.768C58 320.768 58 320.768 58 320.768C58 320.768 58 320.768 58 320.768C58 320.768 58 320.768 58 320.768C58 320.768 58 320.768 58 320.768C58 320.768 58 320.768 58 320.768C58 320.768 58 320.768 58 320.768C58 320.768 58 320.768 58 320.768C58 320.768 58 320.768 58 320.768C58 320.768 58 320.768 58 320.768C58 320.768 58 320.768 58 320.768C58 320.768 58 320.768 58 320.768C58 320.768 58 320.768 58 320.768C58 320.768 58 320.768 58 320.768C58 320.768 58 320.768 58 320.768C58 320.768 58 320.768 58 320.768C58 320.768 58 320.768 58 320.768C58 320.768 58 320.768 58 320.768C58 320.768 58 320.768 58 320.768C58 320.768 58 320.768 58 320.768C58 320.768 58 320.768 58 320.768C58 320.768 58 320.768 58 320.768C58 320.768 58 320.768 58 320.768C58 320.768 58 320.768 58 320.768C58 320.768 58 320.768 58 320.768C58 320.768 58 320.768 58 320.768C58 320.768 58 320.768 58 320.768C58 320.768 58 320.768 58 320.768C58 320.768 58 320.768 58 320.768C58 320.768 58 320.768 58 320.768C58 320.768 58 320.768 58 320.768C58 320.768 58 320.768 58 320.768C58 320.768 58 320.768 58 320.768C58 320.768 58 320.768 58 320.768C58 320.768 58 320.768 58 320.768C58 320.768 58 320.768 58 320.768C58 320.768 58 320.768 58 320.768C58 320.768 58 320.768 58 320.768C58 320.768 58 320.768 58 320.768C58 320.768 58 320.768 58 320.768C58 320.768 58 320.768 58 320.768C58 320.768 58 320.768 58 320.768C58 320.768 58 320.768 58 320.768C58 320.768 58 320.768 58 320.768C58 320.768 58 320.768 58 320.768C58 320.768 58 320.768 58 320.768C58 320.768 58 320.768 58 320.768C58 320.768 58 320.768 58 320.768C58 320.768 58 320.768 58 320.768C58 320.768 58 320.768 58 320.768C58 320.768 58 320.768 58 320.768C58 320.768 58 320.768 58 320.768C58 320.768 58 320.768 58 320.768C58 320.768 58 320.768 58 320.768C58 320.768 58 320.768 58 320.768C58 320.768 58 320.768 58 320.768C58 320.768 58 320.768 58 320.768C58 320.768 58 320.768 58 320.768C58 320.768 58 320.768 58 320.768C58 320.768 58 320.768 58 320.768C58 320.768 58 320.768 58 320.768C58 320.768 58 320.768 58 320.768C58 320.768 58 320.768 58 320.768C58 320.768 58 320.768 58 320.768C58 320.768 58 320.768 58 320.768C58 320.768 58 320.768 58 320.768C58 320.768 58 320.768 58 320.768C58 320.768 58 320.768 58 320.768C58 320.768 58 320.768 58 320.768C58 320.768 58 320.768 58 320.768C58 320.768 58 320.768 58 320.768C58 320.768 58 320.768 58 320.768C58 320.768 58 320.768 58 320.768C58 320.768 58 320.768 58 320.768C58 320.768 58 320.768 58 320.768C58 320.768 58 320.768 58 320.768C58 320.768 58 320.768 58 320.768C58 320.768 58 320.768 58 320.768C58 320.768 58 320.768 58 320.768C58 320.768 58 320.768 58 320.768C58 320.768 58 320.768 58 320.768C58 320.768 58 320.768 58 320.768C58 320.768 58 320.768 58 320.768C58 320.768 58 320.768 58 320.768C58 320.768 58 320.768 58 320.768C58 320.768 58 320.768 58 320.768C58 320.768 58 320.768 58 320.768C58 320.768 58 320.768 58 320.768C58 320.768 58 320.768 58 320.768C58 320.768 58 320.768 58 320.768C58 320.768 58 320.768 58 320.768C58 320.768 58 320.768 58 320.768C58 320.768 58 320.768 58 320.768C58 320.768 58 320.768 58 320.768C58 320.768 58 320.768 58 320.768C58 320.768 58 320.768 58 320.768C58 320.768 58 320.768 58 320.768C58 320.768 58 320.768 58 320.768C58 320.768 58 320.768 58 320.768C58 320.768 58 320.768 58 320.768C58 320.768 58 320.768 58 320.768C58 320.768 58 320.768 58 320.768C58 320.768 58 320.768 58 320.768C58 320.768 58 320.768 58 320.768C58 320.768 58 320.768 58 320.768C58 320.768 58 320.768 58 320.768C58 320.768 58 320.768 58 320.768C58 320.768 58 320.768 58 320.768C58 320.768 58 320.768 58 320.768C58 320.768 58 320.768 58 320.768C58 320.768 58 320.768 58 320.768C58 320.768 58 320.768 58 320.768C58 320.768 58 320.768 58 320.768C58 320.768 58 320.768 58 320.768C58 320.768 58 320.768 58 320.768C58 320.768 58 320.768 58 320.768C58 320.768 58 320.768 58 320.768C58 320.768 58 320.768 58 320.768C58 320.768 58 320.768 58 320.768C58 320.768 58 320.768 58 320.768C58 320.768 58 320.768 58 320.768C58 320.768 58 320.768 58 320.768C58 320.768 58 320.768 58 320.768C58 320.768 58 320.768 58 320.768C58 320.768 58 320.768 58 320.768C58 320.768 58 320.768 58 320.768C58 320.768 58 320.768 58 320.768C58 320.768 58 320.768 58 320.768C58 320.768 58 320.768 58 320.768C58 320.768 58 320.768 58 320.768C58 320.768 58 320.768 58 320.768C58 320.768 58 320.768 58 320.768C58 320.768 58 320.768 58 320.768C58 320.768 58 320.768 58 320.768C58 320.768 58 320.768 58 320.768C58 320.768 58 320.768 58 320.768C58 320.768 58 320.768 58 320.768C58 320.768 58 320.768 58 320.768C58 320.768 58 320.768 58 320.768C58 320.768 58 320.768 58 320.768C58 320.768 58 320.768 58 320.768C58 320.768 58 320.768 58 320.768C58 320.768 58 320.768 58 320.768C58 320.768 58 320.768 58 320.768C58 320.768 58 320.768 58 320.768C58 320.768 58 320.768 58 320.768C58 320.768 58 320.768 58 320.768C58 320.768 58 320.768 58 320.768C58 320.768 58 320.768 58 320.768C58 320.768 58 320.768 58 320.768C58 320.768 58 320.768 58 320.768C58 320.768 58 320.768 58 320.768C58 320.768 58 320.768 58 320.768C58 320.768 58 320.768 58 320.768C58 320.768 58 320.768 58 320.768C58 320.768 58 320.768 58 320.768C58 320.768 58 320.768 58 320.768C58 320.768 58 320.768 58 320.768C58 320.768 58 320.768 58 320.768C58 320.768 58 320.768 58 320.768C58 320.768 58 320.768 58 320.768C58 320.768 58 320.768 58 320.768C58 320.768 58 320.768 58 320.768C58 320.768 58 320.768 58 320.768C58 320.768 58 320.768 58 320.768C58 320.768 58 320.768 58 320.768C58 320.768 58 320.768 58 320.768C58 320.768 58 320.768 58 320.768C58 320.768 58 320.768 58 320.768C58 320.768 58 320.768 58 320.768C58 320.768 58 320.768 58 320.768C58 320.768 58 320.768 58 320.768C58 320.768 58 320.768 58 320.768C58 320.768 58 320.768 58 320.768C58 320.768 58 320.768 58 320.768C58 320.768 58 320.768 58 320.768C58 320.768 58 320.768 58 320.768C58 320.768 58 320.768 58 320.768C58 320.768 58 320.768 58 320.768C58 320.768 58 320.768 58 320.768C58 320.768 58 320.768 58 320.768C58 320.768 58 320.768 58 320.768C58 320.768 58 320.768 58 320.768C58 320.768 58 320.768 58 320.768C58 320.768 58 320.768 58 320.768C58 320.768 58 320.768 58 320.768C58 320.768 58 320.768 58 320.768C58 320.768 58 320.768 58 320.768C58 320.768 58 320.768 58 320.768C58 320.768 58 320.768 58 320.768C58 320.768 58 320.768 58 320.768C58 320.768 58 320.768 58 320.768C58 320.768 58 320.768 58 320.768C58 320.768 58 320.768 58 320.768C58 320.768 58 320.768 58 320.768C58 320.768 58 320.768 58 320.768C58 320.768 58 320.768 58 320.768C58 320.768 58 320.768 58 320.768C58 320.768 58 320.768 58 320.768C58 320.768 58 320.768 58 320.768C58 320.768 58 320.768 58 320.768C58 320.768 58 320.768 58 320.768C58 320.768 58 320.768 58 320.768C58 320.768 58 320.768 58 320.768C58 320.768 58 320.768 58 320.768C58 320.768 58 320.768 58 320.768C58 320.768 58 320.768 58 320.768C58 320.768 58 320.768 58 320.768C58 320.768 58 320.768 58 320.768C58 320.768 58 320.768 58 320.768C58 320.768 58 320.768 58 320.768C58 320.768 58 320.768 58 320.768C58 320.768 58 320.768 58 320.768C58 320.768 58 320.768 58 320.768C58 320.768 58 320.768 58 320.768C58 320.768 58 320.768 58 320.768C58 320.768 58 320.768 58 320.768C58 320.768 58 320.768 58 320.768C58 320.768 58 320.768 58 320.768C58 320.768 58 320.768 58 320.768C58 320.768 58 320.768 58 320.768C58 320.768 58 320.768 58 320.768C58 320.768 58 320.768 58 320.768C58 320.768 58 320.768 58 320.768C58 320.768 58 320.768 58 320.768C58 320.768 58 320.768 58 320.768C58 320.768 58 320.768 58 320.768C58 320.768 58 320.768 58 320.768C58 320.768 58 320.768 58 320.768C58 320.768 58 320.768 58 320.768C58 320.768 58 320.768 58 320.768C58 320.768 58 320.768 58 320.768C58 320.768 58 320.768 58 320.768C58 320.768 58 320.768 58 320.768C58 320.768 58 320.768 58 320.768C58 320.768 58 320.768 58 320.768C58 320.768 58 320.768 58 320.768C58 320.768 58 320.768 58 320.768C58 320.768 58 320.768 58 320.768C58 320.768 58 320.768 58 320.768C58 320.768 58 320.768 58 320.768C58 320.768 58 320.768 58 320.768C58 320.768 58 320.768 58 320.768C58 320.768 58 320.768 58 320.768C58 320.768 58 320.768 58 320.768C58 320.768 58 320.768 58 320.768C58 320.768 58 320.768 58 320.768C58 320.768 58 320.768 58 320.768C58 320.768 58 320.768 58 320.768C58 320.768 58 320.768 58 320.768C58 320.768 58 320.768 58 320.768C58 320.768 58 320.768 58 320.768C58 320.768 58 320.768 58 320.768C58 320.768 58 320.768 58 320.768C58 320.768 58 320.768 58 320.768C58 320.768 58 320.768 58 320.768C58 320.768 58 320.768 58 320.768C58 320.768 58 320.768 58 320.768C58 320.768 58 320.768 58 320.768C58 320.768 58 320.768 58 320.768C58 320.768 58 320.768 58 320.768C58 320.768 58 320.768 58 320.768C58 320.768 58 320.768 58 320.768C58 320.768 58 320.768 58 320.768C58 320.768 58 320.768 58 320.768C58 320.768 58 320.768 58 320.768C58 320.768 58 320.768 58 320.768C58 320.768 58 320.768 58 320.768C58 320.768 58 320.768 58 320.768C58 320.768 58 320.768 58 320.768C58 320.768 58 320.768 58 320.768C58 320.768 58 320.768 58 320.768C58 320.768 58 320.768 58 320.768C58 320.768 58 320.768 58 320.768C58 320.768 58 320.768 58 320.768C58 320.768 58 320.768 58 320.768C58 320.768 58 320.768 58 320.768C58 320.768 58 320.768 58 320.768C58 320.768 58 320.768 58 320.768C58 320.768 58 320.768 58 320.768C58 320.768 58 320.768 58 320.768C58 320.768 58 320.768 58 320.768C58 320.768 58 320.768 58 320.768C58 320.768 58 320.768 58 320.768C58 320.768 58 320.768 58 320.768C58 320.768 58 320.768 58 320.768C58 320.768 58 320.768 58 320.768C58 320.768 58 320.768 58 320.768C58 320.768 58 320.768 58 320.768C58 320.768 58 320.768 58 320.768C58 320.768 58 320.768 58 320.768C58 320.768 58 320.768 58 320.768C58 320.768 58 320.768 58 320.768C58 320.768 58 320.768 58 320.768C58 320.768 58 320.768 58 320.768C58 320.768 58 320.768 58 320.768C58 320.768 58 320.768 58 320.768C58 320.768 58 320.768 58 320.768C58 320.768 58 320.768 58 320.768C58 320.768 58 320.768 58 320.768C58 320.768 58 320.768 58 320.768C58 320.768 58 320.768 58 320.768C58 320.768 58 320.768 58 320.768C58 320.768 58 320.768 58 320.768C58 320.768 58 320.768 58 320.768C58 320.768 58 320.768 58 320.768C58 320.768 58 320.768 58 320.768C58 320.768 58 320.768 58 320.768C58 320.768 58 320.768 58 320.768C58 320.768 58 320.768 58 320.768C58 320.768 58 320.768 58 320.768C58 320.768 58 320.768 58 320.768C58 320.768 58 320.768 58 320.768C58 320.768 58 320.768 58 320.768C58 320.768 58 320.768 58 320.768C58 320.768 58 320.768 58 320.768C58 320.768 58 320.768 58 320.768C58 320.768 58 320.768 58 320.768C58 320.768 58 320.768 58 320.768C58 320.768 58 320.768 58 320.768C58 320.768 58 320.768 58 320.768C58 320.768 58 320.768 58 320.768C58 320.768 58 320.768 58 320.768C58 320.768 58 320.768 58 320.768C58 320.768 58 320.768 58 320.768C58 320.768 58 320.768 58 320.768C58 320.768 58 320.768 58 320.768C58 320.768 58 320.768 58 320.768C58 320.768 58 320.768 58 320.768C58 320.768 58 320.768 58 320.768C58 320.768 58 320.768 58 320.768C58 320.768 58 320.768 58 320.768C58 320.768 58 320.768 58 320.768C58 320.768 58 320.768 58 320.768C58 320.768 58 320.768 58 320.768C58 320.768 58 320.768 58 320.768C58 320.768 58 320.768 58 320.768C58 320.768 58 320.768 58 320.768C58 320.768 58 320.768 58 320.768C58 320.768 58 320.768 58 320.768C58 320.768 58 320.768 58 320.768C58 320.768 58 320.768 58 320.768C58 320.768 58 320.768 58 320.768C58 320.768 58 320.768 58 320.768C58 320.768 58 320.768 58 320.768C58 320.768 58 320.768 58 320.768C58 320.768 58 320.768 58 320.768C58 320.768 58 320.768 58 320.768C58 320.768 58 320.768 58 320.768C58 320.768 58 320.768 58 320.768C58 320.768 58 320.768 58 320.768C58 320.768 58 320.768 58 320.768C58 320.768 58 320.768 58 320.768C58 320.768 58 320.768 58 320.768C58 320.768 58 320.768 58 320.768C58 320.768 58 320.768 58 320.768C58 320.768 58 320.768 58 320.768C58 320.768 58 320.768 58 320.768C58 320.768 58 320.768 58 320.768C58 320.768 58 320.768 58 320.768C58 320.768 58 320.768 58 320.768C58 320.768 58 320.768 58 320.768C58 320.768 58 320.768 58 320.768C58 320.768 58 320.768 58 320.768C58 320.768 58 320.768 58 320.768C58 320.768 58 320.768 58 320.768C58 320.768 58 320.768 58 320.768C58 320.768 58 320.768 58 320.768C58 320.768 58 320.768 58 320.768C58 320.768 58 320.768 58 320.768C58 320.768 58 320.768 58 320.768C58 320.768 58 320.768 58 320.768C58 320.768 58 320.768 58 320.768C58 320.768 58 320.768 58 320.768C58 320.768 58 320.768 58 320.768C58 320.768 58 320.768 58 320.768C58 320.768 58 320.768 58 320.768C58 320.768 58 320.768 58 320.768C58 320.768 58 320.768 58 320.768C58 320.768 58 320.768 58 320.768C58 320.768 58 320.768 58 320.768C58 320.768 58 320.768 58 320.768C58 320.768 58 320.768 58 320.768C58 320.768 58 320.768 58 320.768C58 320.768 58 320.768 58 320.768H62ZM62 521.624V320.768H58V521.624H62ZM260.856 519.624H60V523.624H260.856V519.624ZM258.856 320.768V521.624H262.856V320.768H258.856Z" fill="black" mask="url(#path-4-inside-2_501_432)"/>
<circle cx="160.013" cy="171.786" r="49.2141" fill="#C4C4C4" stroke="black" stroke-width="2"/>
<mask id="path-7-inside-3_501_432" fill="white">
<path fill-rule="evenodd" clip-rule="evenodd" d="M341.198 401.531C341.198 357.159 305.228 321.188 260.856 321.188C216.484 321.188 180.513 357.159 180.513 401.531C180.513 401.576 180.513 401.622 180.513 401.667V562.216H341.198L341.198 401.531Z"/>
</mask>
<path fill-rule="evenodd" clip-rule="evenodd" d="M341.198 401.531C341.198 357.159 305.228 321.188 260.856 321.188C216.484 321.188 180.513 357.159 180.513 401.531C180.513 401.576 180.513 401.622 180.513 401.667V562.216H341.198L341.198 401.531Z" fill="#C4C4C4"/>
<path d="M341.198 401.531L339.198 401.531L339.198 401.531L341.198 401.531ZM180.513 401.667L182.513 401.667L182.513 401.664L180.513 401.667ZM180.513 562.216H178.513V564.216H180.513V562.216ZM341.198 562.216V564.216H343.198L343.198 562.216L341.198 562.216ZM260.856 323.188C304.123 323.188 339.198 358.264 339.198 401.531H343.198C343.198 356.054 306.332 319.188 260.856 319.188V323.188ZM182.513 401.531C182.513 358.264 217.588 323.188 260.856 323.188V319.188C215.379 319.188 178.513 356.054 178.513 401.531H182.513ZM182.513 401.664C182.513 401.619 182.513 401.575 182.513 401.531H178.513C178.513 401.577 178.513 401.624 178.513 401.67L182.513 401.664ZM182.513 562.216V401.667H178.513V562.216H182.513ZM341.198 560.216H180.513V564.216H341.198V560.216ZM339.198 401.531L339.198 562.216L343.198 562.216L343.198 401.531L339.198 401.531Z" fill="black" mask="url(#path-7-inside-3_501_432)"/>
<circle cx="260.524" cy="282.345" r="39.1712" fill="#C4C4C4" stroke="black" stroke-width="2"/>
</g>
<defs>
<clipPath id="clip0_501_432">
<rect width="500" height="400" fill="white"/>
</clipPath>
</defs>
</svg>
