<svg width="500" height="200" viewBox="0 0 500 200" fill="none" xmlns="http://www.w3.org/2000/svg">
<path d="M460.764 124.84V120.465C460.764 118.548 461.025 116.851 461.546 115.371C462.066 113.892 462.941 112.476 464.171 111.121C465.421 109.767 467.119 108.34 469.264 106.84C471.389 105.34 473.056 103.955 474.264 102.684C475.494 101.392 476.358 100.101 476.858 98.8088C477.379 97.4963 477.639 96.0901 477.639 94.5901C477.639 91.9443 477.014 89.6005 475.764 87.5588C474.514 85.4963 472.806 83.8818 470.639 82.7151C468.494 81.5484 466.077 80.9651 463.389 80.9651C460.556 80.9651 458.025 81.6213 455.796 82.9338C453.587 84.2255 451.837 85.9963 450.546 88.2463C449.275 90.4755 448.639 93.0068 448.639 95.8401H446.639C446.639 92.6318 447.369 89.7568 448.827 87.2151C450.285 84.6734 452.275 82.663 454.796 81.1838C457.337 79.7047 460.202 78.9651 463.389 78.9651C466.452 78.9651 469.202 79.6422 471.639 80.9963C474.098 82.3505 476.046 84.2047 477.483 86.5588C478.921 88.8922 479.639 91.5693 479.639 94.5901C479.639 96.3401 479.337 97.9651 478.733 99.4651C478.15 100.944 477.181 102.403 475.827 103.84C474.473 105.278 472.66 106.819 470.389 108.465C468.41 109.903 466.858 111.215 465.733 112.403C464.629 113.569 463.858 114.788 463.421 116.059C462.983 117.309 462.764 118.778 462.764 120.465V124.84H460.764Z" fill="black"/>
<line x1="8.74228e-08" y1="141.84" x2="432.227" y2="141.84" stroke="black" stroke-width="2"/>
<line x1="418.792" y1="128.168" x2="432.934" y2="142.31" stroke="black" stroke-width="2"/>
<line x1="417.555" y1="156.275" x2="431.697" y2="142.133" stroke="black" stroke-width="2"/>
<path fill-rule="evenodd" clip-rule="evenodd" d="M28.8469 141.84C28.847 114.847 50.729 92.9653 77.7219 92.9653C104.715 92.9653 126.597 114.847 126.597 141.84H127.597C127.597 114.295 105.267 91.9653 77.7219 91.9653C50.1768 91.9653 27.847 114.295 27.8469 141.84H28.8469Z" fill="black"/>
<path d="M28.8469 141.84V142.34H29.3469L29.3469 141.84L28.8469 141.84ZM126.597 141.84L126.097 141.84L126.097 142.34H126.597V141.84ZM127.597 141.84V142.34H128.097L128.097 141.84L127.597 141.84ZM27.8469 141.84L27.3469 141.84L27.3469 142.34H27.8469V141.84ZM77.7219 92.4653C50.4529 92.4653 28.347 114.571 28.3469 141.84L29.3469 141.84C29.347 115.124 51.0052 93.4653 77.7219 93.4653V92.4653ZM127.097 141.84C127.097 114.571 104.991 92.4653 77.7219 92.4653V93.4653C104.439 93.4653 126.097 115.124 126.097 141.84L127.097 141.84ZM126.597 142.34H127.597V141.34H126.597V142.34ZM77.7219 92.4653C104.991 92.4653 127.097 114.571 127.097 141.84L128.097 141.84C128.097 114.019 105.543 91.4653 77.7219 91.4653V92.4653ZM28.3469 141.84C28.347 114.571 50.4529 92.4653 77.7219 92.4653V91.4653C49.9006 91.4653 27.347 114.019 27.3469 141.84L28.3469 141.84ZM27.8469 142.34H28.8469V141.34H27.8469V142.34Z" fill="black"/>
<circle cx="77.7219" cy="67.0176" r="24" stroke="black" stroke-width="2"/>
<path fill-rule="evenodd" clip-rule="evenodd" d="M153.597 141.84C153.597 114.847 175.479 92.9653 202.472 92.9653C229.465 92.9653 251.347 114.847 251.347 141.84H252.347C252.347 114.295 230.017 91.9653 202.472 91.9653C174.927 91.9653 152.597 114.295 152.597 141.84H153.597Z" fill="black"/>
<path d="M153.597 141.84V142.34H154.097L154.097 141.84L153.597 141.84ZM251.347 141.84L250.847 141.84L250.847 142.34H251.347V141.84ZM252.347 141.84V142.34H252.847L252.847 141.84L252.347 141.84ZM152.597 141.84L152.097 141.84L152.097 142.34H152.597V141.84ZM202.472 92.4653C175.203 92.4653 153.097 114.571 153.097 141.84L154.097 141.84C154.097 115.124 175.755 93.4653 202.472 93.4653V92.4653ZM251.847 141.84C251.847 114.571 229.741 92.4653 202.472 92.4653V93.4653C229.189 93.4653 250.847 115.124 250.847 141.84L251.847 141.84ZM251.347 142.34H252.347V141.34H251.347V142.34ZM202.472 92.4653C229.741 92.4653 251.847 114.571 251.847 141.84L252.847 141.84C252.847 114.019 230.293 91.4653 202.472 91.4653V92.4653ZM153.097 141.84C153.097 114.571 175.203 92.4653 202.472 92.4653V91.4653C174.651 91.4653 152.097 114.019 152.097 141.84L153.097 141.84ZM152.597 142.34H153.597V141.34H152.597V142.34Z" fill="black"/>
<circle cx="202.472" cy="67.0176" r="24" stroke="black" stroke-width="2"/>
<path fill-rule="evenodd" clip-rule="evenodd" d="M278.347 141.84C278.347 114.847 300.229 92.9653 327.222 92.9653C354.215 92.9653 376.097 114.847 376.097 141.84H377.097C377.097 114.295 354.767 91.9653 327.222 91.9653C299.677 91.9653 277.347 114.295 277.347 141.84H278.347Z" fill="black"/>
<path d="M278.347 141.84V142.34H278.847L278.847 141.84L278.347 141.84ZM376.097 141.84L375.597 141.84L375.597 142.34H376.097V141.84ZM377.097 141.84V142.34H377.597L377.597 141.84L377.097 141.84ZM277.347 141.84L276.847 141.84L276.847 142.34H277.347V141.84ZM327.222 92.4653C299.953 92.4653 277.847 114.571 277.847 141.84L278.847 141.84C278.847 115.124 300.505 93.4653 327.222 93.4653V92.4653ZM376.597 141.84C376.597 114.571 354.491 92.4653 327.222 92.4653V93.4653C353.939 93.4653 375.597 115.124 375.597 141.84L376.597 141.84ZM376.097 142.34H377.097V141.34H376.097V142.34ZM327.222 92.4653C354.491 92.4653 376.597 114.571 376.597 141.84L377.597 141.84C377.597 114.019 355.043 91.4653 327.222 91.4653V92.4653ZM277.847 141.84C277.847 114.571 299.953 92.4653 327.222 92.4653V91.4653C299.401 91.4653 276.847 114.019 276.847 141.84L277.847 141.84ZM277.347 142.34H278.347V141.34H277.347V142.34Z" fill="black"/>
<circle cx="327.222" cy="67.0176" r="24" stroke="black" stroke-width="2"/>
<rect x="461.139" y="139.79" width="2" height="2" fill="black"/>
</svg>
