<svg width="500" height="400" viewBox="0 0 500 400" fill="none" xmlns="http://www.w3.org/2000/svg">
<rect x="65" y="87" width="338" height="252" fill="#C4C4C4" stroke="black" stroke-width="2"/>
<path d="M81.1392 59.0097L80 58.8496V60V314.769V315.638L80.8608 315.759L231.861 336.99L233 337.15V336V81.2308V80.3615L232.139 80.2405L81.1392 59.0097Z" fill="#C4C4C4" stroke="black" stroke-width="2"/>
<path d="M386.863 59.0095L388 58.8517V60V314.769V315.64L387.137 315.76L234.137 336.991L233 337.148V336V81.2308V80.36L233.863 80.2403L386.863 59.0095Z" fill="#C4C4C4" stroke="black" stroke-width="2"/>
<rect x="424" y="148" width="10" height="112" fill="#C4C4C4" stroke="black" stroke-width="2"/>
<mask id="path-5-inside-1_501_324" fill="white">
<path fill-rule="evenodd" clip-rule="evenodd" d="M423 261L423 261L429 267L435 261L435 261L423 261Z"/>
</mask>
<path fill-rule="evenodd" clip-rule="evenodd" d="M423 261L423 261L429 267L435 261L435 261L423 261Z" fill="black"/>
<path d="M423 261L422.293 260.293L421.586 261L422.293 261.707L423 261ZM423 261L423 260L422.586 260L422.293 260.293L423 261ZM429 267L428.293 267.707L429 268.414L429.707 267.707L429 267ZM435 261L435.707 261.707L436.414 261L435.707 260.293L435 261ZM435 261L435.707 260.293L435.414 260L435 260L435 261ZM423.707 261.707L423.707 261.707L422.293 260.293L422.293 260.293L423.707 261.707ZM429.707 266.293L423.707 260.293L422.293 261.707L428.293 267.707L429.707 266.293ZM434.293 260.293L428.293 266.293L429.707 267.707L435.707 261.707L434.293 260.293ZM434.293 261.707L434.293 261.707L435.707 260.293L435.707 260.293L434.293 261.707ZM435 260L423 260L423 262L435 262L435 260Z" fill="black" mask="url(#path-5-inside-1_501_324)"/>
</svg>
