<svg width="500" height="200" viewBox="0 0 500 200" fill="none" xmlns="http://www.w3.org/2000/svg">
<rect width="500" height="200" fill="#C4C4C4"/>
<line x1="56" y1="68" x2="88" y2="68" stroke="black" stroke-width="2"/>
<line x1="52.7071" y1="80.2929" x2="96.7071" y2="124.293" stroke="black" stroke-width="2"/>
<line x1="51.2929" y1="120.293" x2="95.2929" y2="76.2929" stroke="black" stroke-width="2"/>
<line x1="103" y1="84" x2="103" y2="116" stroke="black" stroke-width="2"/>
<line x1="41" y1="84" x2="41" y2="116" stroke="black" stroke-width="2"/>
<g clip-path="url(#clip0_543_6)">
<rect x="25" y="53" width="32" height="32" rx="16" fill="#C4C4C4"/>
<mask id="path-8-inside-1_543_6" fill="white">
<path fill-rule="evenodd" clip-rule="evenodd" d="M29.4406 84.0641C29.4405 84.0428 29.4404 84.0215 29.4404 84.0001C29.4404 77.6159 34.6159 72.4404 41.0001 72.4404C47.3843 72.4404 52.5597 77.6158 52.5598 84H52.5599V107.119H29.4406V84.0641Z"/>
</mask>
<path fill-rule="evenodd" clip-rule="evenodd" d="M29.4406 84.0641C29.4405 84.0428 29.4404 84.0215 29.4404 84.0001C29.4404 77.6159 34.6159 72.4404 41.0001 72.4404C47.3843 72.4404 52.5597 77.6158 52.5598 84H52.5599V107.119H29.4406V84.0641Z" fill="#C4C4C4"/>
<path d="M29.4406 84.0641H31.4406L31.4406 84.0533L29.4406 84.0641ZM52.5598 84L50.5598 84L50.5598 86H52.5598V84ZM52.5599 84H54.5599V82H52.5599V84ZM52.5599 107.119V109.119H54.5599V107.119H52.5599ZM29.4406 107.119H27.4406V109.119H29.4406V107.119ZM31.4406 84.0533C31.4405 84.0356 31.4404 84.0178 31.4404 84.0001H27.4404C27.4404 84.0251 27.4405 84.05 27.4406 84.075L31.4406 84.0533ZM31.4404 84.0001C31.4404 78.7204 35.7204 74.4404 41.0001 74.4404V70.4404C33.5113 70.4404 27.4404 76.5113 27.4404 84.0001H31.4404ZM41.0001 74.4404C46.2797 74.4404 50.5597 78.7204 50.5598 84L54.5598 84C54.5597 76.5112 48.4889 70.4404 41.0001 70.4404V74.4404ZM52.5598 86H52.5599V82H52.5598V86ZM50.5599 84V107.119H54.5599V84H50.5599ZM52.5599 105.119H29.4406V109.119H52.5599V105.119ZM31.4406 107.119V84.0641H27.4406V107.119H31.4406Z" fill="black" mask="url(#path-8-inside-1_543_6)"/>
<circle cx="41" cy="66.6604" r="4.77983" fill="#C4C4C4" stroke="black" stroke-width="2"/>
</g>
<rect x="26" y="54" width="30" height="30" rx="15" stroke="black" stroke-width="2"/>
<g clip-path="url(#clip1_543_6)">
<rect x="87" y="53" width="32" height="32" rx="16" fill="#C4C4C4"/>
<mask id="path-13-inside-2_543_6" fill="white">
<path fill-rule="evenodd" clip-rule="evenodd" d="M91.4406 84.0641C91.4405 84.0428 91.4404 84.0215 91.4404 84.0001C91.4404 77.6159 96.6159 72.4404 103 72.4404C109.384 72.4404 114.56 77.6158 114.56 84H114.56V107.119H91.4406V84.0641Z"/>
</mask>
<path fill-rule="evenodd" clip-rule="evenodd" d="M91.4406 84.0641C91.4405 84.0428 91.4404 84.0215 91.4404 84.0001C91.4404 77.6159 96.6159 72.4404 103 72.4404C109.384 72.4404 114.56 77.6158 114.56 84H114.56V107.119H91.4406V84.0641Z" fill="#C4C4C4"/>
<path d="M91.4406 84.0641H93.4406L93.4406 84.0533L91.4406 84.0641ZM114.56 84L112.56 84L112.56 86H114.56V84ZM114.56 84H116.56V82H114.56V84ZM114.56 107.119V109.119H116.56V107.119H114.56ZM91.4406 107.119H89.4406V109.119H91.4406V107.119ZM93.4406 84.0533C93.4405 84.0356 93.4404 84.0178 93.4404 84.0001H89.4404C89.4404 84.0251 89.4405 84.05 89.4406 84.075L93.4406 84.0533ZM93.4404 84.0001C93.4404 78.7204 97.7204 74.4404 103 74.4404V70.4404C95.5113 70.4404 89.4404 76.5113 89.4404 84.0001H93.4404ZM103 74.4404C108.28 74.4404 112.56 78.7204 112.56 84L116.56 84C116.56 76.5112 110.489 70.4404 103 70.4404V74.4404ZM114.56 86H114.56V82H114.56V86ZM112.56 84V107.119H116.56V84H112.56ZM114.56 105.119H91.4406V109.119H114.56V105.119ZM93.4406 107.119V84.0641H89.4406V107.119H93.4406Z" fill="black" mask="url(#path-13-inside-2_543_6)"/>
<circle cx="103" cy="66.6604" r="4.77983" fill="#C4C4C4" stroke="black" stroke-width="2"/>
</g>
<rect x="88" y="54" width="30" height="30" rx="15" stroke="black" stroke-width="2"/>
<g clip-path="url(#clip2_543_6)">
<rect x="87" y="53" width="32" height="32" rx="16" fill="#C4C4C4"/>
<mask id="path-18-inside-3_543_6" fill="white">
<path fill-rule="evenodd" clip-rule="evenodd" d="M91.4406 84.0641C91.4405 84.0428 91.4404 84.0215 91.4404 84.0001C91.4404 77.6159 96.6159 72.4404 103 72.4404C109.384 72.4404 114.56 77.6158 114.56 84H114.56V107.119H91.4406V84.0641Z"/>
</mask>
<path fill-rule="evenodd" clip-rule="evenodd" d="M91.4406 84.0641C91.4405 84.0428 91.4404 84.0215 91.4404 84.0001C91.4404 77.6159 96.6159 72.4404 103 72.4404C109.384 72.4404 114.56 77.6158 114.56 84H114.56V107.119H91.4406V84.0641Z" fill="#C4C4C4"/>
<path d="M91.4406 84.0641H93.4406L93.4406 84.0533L91.4406 84.0641ZM114.56 84L112.56 84L112.56 86H114.56V84ZM114.56 84H116.56V82H114.56V84ZM114.56 107.119V109.119H116.56V107.119H114.56ZM91.4406 107.119H89.4406V109.119H91.4406V107.119ZM93.4406 84.0533C93.4405 84.0356 93.4404 84.0178 93.4404 84.0001H89.4404C89.4404 84.0251 89.4405 84.05 89.4406 84.075L93.4406 84.0533ZM93.4404 84.0001C93.4404 78.7204 97.7204 74.4404 103 74.4404V70.4404C95.5113 70.4404 89.4404 76.5113 89.4404 84.0001H93.4404ZM103 74.4404C108.28 74.4404 112.56 78.7204 112.56 84L116.56 84C116.56 76.5112 110.489 70.4404 103 70.4404V74.4404ZM114.56 86H114.56V82H114.56V86ZM112.56 84V107.119H116.56V84H112.56ZM114.56 105.119H91.4406V109.119H114.56V105.119ZM93.4406 107.119V84.0641H89.4406V107.119H93.4406Z" fill="black" mask="url(#path-18-inside-3_543_6)"/>
<circle cx="103" cy="66.6604" r="4.77983" fill="#C4C4C4" stroke="black" stroke-width="2"/>
</g>
<rect x="88" y="54" width="30" height="30" rx="15" stroke="black" stroke-width="2"/>
<line x1="56" y1="130" x2="88" y2="130" stroke="black" stroke-width="2"/>
<g clip-path="url(#clip3_543_6)">
<rect x="25" y="115" width="32" height="32" rx="16" fill="#C4C4C4"/>
<mask id="path-24-inside-4_543_6" fill="white">
<path fill-rule="evenodd" clip-rule="evenodd" d="M29.4406 146.064C29.4405 146.043 29.4404 146.021 29.4404 146C29.4404 139.616 34.6159 134.44 41.0001 134.44C47.3843 134.44 52.5597 139.616 52.5598 146H52.5599V169.119H29.4406V146.064Z"/>
</mask>
<path fill-rule="evenodd" clip-rule="evenodd" d="M29.4406 146.064C29.4405 146.043 29.4404 146.021 29.4404 146C29.4404 139.616 34.6159 134.44 41.0001 134.44C47.3843 134.44 52.5597 139.616 52.5598 146H52.5599V169.119H29.4406V146.064Z" fill="#C4C4C4"/>
<path d="M29.4406 146.064H31.4406L31.4406 146.053L29.4406 146.064ZM52.5598 146L50.5598 146L50.5598 148H52.5598V146ZM52.5599 146H54.5599V144H52.5599V146ZM52.5599 169.119V171.119H54.5599V169.119H52.5599ZM29.4406 169.119H27.4406V171.119H29.4406V169.119ZM31.4406 146.053C31.4405 146.036 31.4404 146.018 31.4404 146H27.4404C27.4404 146.025 27.4405 146.05 27.4406 146.075L31.4406 146.053ZM31.4404 146C31.4404 140.72 35.7204 136.44 41.0001 136.44V132.44C33.5113 132.44 27.4404 138.511 27.4404 146H31.4404ZM41.0001 136.44C46.2797 136.44 50.5597 140.72 50.5598 146L54.5598 146C54.5597 138.511 48.4889 132.44 41.0001 132.44V136.44ZM52.5598 148H52.5599V144H52.5598V148ZM50.5599 146V169.119H54.5599V146H50.5599ZM52.5599 167.119H29.4406V171.119H52.5599V167.119ZM31.4406 169.119V146.064H27.4406V169.119H31.4406Z" fill="black" mask="url(#path-24-inside-4_543_6)"/>
<circle cx="41" cy="128.66" r="4.77983" fill="#C4C4C4" stroke="black" stroke-width="2"/>
</g>
<rect x="26" y="116" width="30" height="30" rx="15" stroke="black" stroke-width="2"/>
<g clip-path="url(#clip4_543_6)">
<rect x="87" y="115" width="32" height="32" rx="16" fill="#C4C4C4"/>
<mask id="path-29-inside-5_543_6" fill="white">
<path fill-rule="evenodd" clip-rule="evenodd" d="M91.4406 146.064C91.4405 146.043 91.4404 146.021 91.4404 146C91.4404 139.616 96.6159 134.44 103 134.44C109.384 134.44 114.56 139.616 114.56 146H114.56V169.119H91.4406V146.064Z"/>
</mask>
<path fill-rule="evenodd" clip-rule="evenodd" d="M91.4406 146.064C91.4405 146.043 91.4404 146.021 91.4404 146C91.4404 139.616 96.6159 134.44 103 134.44C109.384 134.44 114.56 139.616 114.56 146H114.56V169.119H91.4406V146.064Z" fill="#C4C4C4"/>
<path d="M91.4406 146.064H93.4406L93.4406 146.053L91.4406 146.064ZM114.56 146L112.56 146L112.56 148H114.56V146ZM114.56 146H116.56V144H114.56V146ZM114.56 169.119V171.119H116.56V169.119H114.56ZM91.4406 169.119H89.4406V171.119H91.4406V169.119ZM93.4406 146.053C93.4405 146.036 93.4404 146.018 93.4404 146H89.4404C89.4404 146.025 89.4405 146.05 89.4406 146.075L93.4406 146.053ZM93.4404 146C93.4404 140.72 97.7204 136.44 103 136.44V132.44C95.5113 132.44 89.4404 138.511 89.4404 146H93.4404ZM103 136.44C108.28 136.44 112.56 140.72 112.56 146L116.56 146C116.56 138.511 110.489 132.44 103 132.44V136.44ZM114.56 148H114.56V144H114.56V148ZM112.56 146V169.119H116.56V146H112.56ZM114.56 167.119H91.4406V171.119H114.56V167.119ZM93.4406 169.119V146.064H89.4406V169.119H93.4406Z" fill="black" mask="url(#path-29-inside-5_543_6)"/>
<circle cx="103" cy="128.66" r="4.77983" fill="#C4C4C4" stroke="black" stroke-width="2"/>
</g>
<rect x="88" y="116" width="30" height="30" rx="15" stroke="black" stroke-width="2"/>
<g clip-path="url(#clip5_543_6)">
<rect x="87" y="115" width="32" height="32" rx="16" fill="#C4C4C4"/>
<mask id="path-34-inside-6_543_6" fill="white">
<path fill-rule="evenodd" clip-rule="evenodd" d="M91.4406 146.064C91.4405 146.043 91.4404 146.021 91.4404 146C91.4404 139.616 96.6159 134.44 103 134.44C109.384 134.44 114.56 139.616 114.56 146H114.56V169.119H91.4406V146.064Z"/>
</mask>
<path fill-rule="evenodd" clip-rule="evenodd" d="M91.4406 146.064C91.4405 146.043 91.4404 146.021 91.4404 146C91.4404 139.616 96.6159 134.44 103 134.44C109.384 134.44 114.56 139.616 114.56 146H114.56V169.119H91.4406V146.064Z" fill="#C4C4C4"/>
<path d="M91.4406 146.064H93.4406L93.4406 146.053L91.4406 146.064ZM114.56 146L112.56 146L112.56 148H114.56V146ZM114.56 146H116.56V144H114.56V146ZM114.56 169.119V171.119H116.56V169.119H114.56ZM91.4406 169.119H89.4406V171.119H91.4406V169.119ZM93.4406 146.053C93.4405 146.036 93.4404 146.018 93.4404 146H89.4404C89.4404 146.025 89.4405 146.05 89.4406 146.075L93.4406 146.053ZM93.4404 146C93.4404 140.72 97.7204 136.44 103 136.44V132.44C95.5113 132.44 89.4404 138.511 89.4404 146H93.4404ZM103 136.44C108.28 136.44 112.56 140.72 112.56 146L116.56 146C116.56 138.511 110.489 132.44 103 132.44V136.44ZM114.56 148H114.56V144H114.56V148ZM112.56 146V169.119H116.56V146H112.56ZM114.56 167.119H91.4406V171.119H114.56V167.119ZM93.4406 169.119V146.064H89.4406V169.119H93.4406Z" fill="black" mask="url(#path-34-inside-6_543_6)"/>
<circle cx="103" cy="128.66" r="4.77983" fill="#C4C4C4" stroke="black" stroke-width="2"/>
</g>
<rect x="88" y="116" width="30" height="30" rx="15" stroke="black" stroke-width="2"/>
<line x1="174.25" y1="101.44" x2="257.25" y2="101.44" stroke="black" stroke-width="2"/>
<line x1="194.134" y1="137.88" x2="235.634" y2="65.9998" stroke="black" stroke-width="2"/>
<line x1="195.866" y1="65.9998" x2="237.366" y2="137.88" stroke="black" stroke-width="2"/>
<line x1="204" y1="53.5" x2="228" y2="53.5" stroke="black" stroke-width="2"/>
<line x1="204" y1="145.5" x2="228" y2="145.5" stroke="black" stroke-width="2"/>
<line x1="178.866" y1="66" x2="166.866" y2="86.7846" stroke="black" stroke-width="2"/>
<line x1="177.134" y1="135.785" x2="165.134" y2="115" stroke="black" stroke-width="2"/>
<g clip-path="url(#clip6_543_6)">
<rect x="173" y="38.5" width="32" height="32" rx="16" fill="#C4C4C4"/>
<mask id="path-46-inside-7_543_6" fill="white">
<path fill-rule="evenodd" clip-rule="evenodd" d="M177.441 69.5641C177.44 69.5428 177.44 69.5215 177.44 69.5001C177.44 63.1159 182.616 57.9404 189 57.9404C195.384 57.9404 200.56 63.1158 200.56 69.5H200.56V92.6193H177.441V69.5641Z"/>
</mask>
<path fill-rule="evenodd" clip-rule="evenodd" d="M177.441 69.5641C177.44 69.5428 177.44 69.5215 177.44 69.5001C177.44 63.1159 182.616 57.9404 189 57.9404C195.384 57.9404 200.56 63.1158 200.56 69.5H200.56V92.6193H177.441V69.5641Z" fill="#C4C4C4"/>
<path d="M177.441 69.5641H179.441L179.441 69.5533L177.441 69.5641ZM200.56 69.5L198.56 69.5L198.56 71.5H200.56V69.5ZM200.56 69.5H202.56V67.5H200.56V69.5ZM200.56 92.6193V94.6193H202.56V92.6193H200.56ZM177.441 92.6193H175.441V94.6193H177.441V92.6193ZM179.441 69.5533C179.44 69.5356 179.44 69.5178 179.44 69.5001H175.44C175.44 69.5251 175.44 69.55 175.441 69.575L179.441 69.5533ZM179.44 69.5001C179.44 64.2204 183.72 59.9404 189 59.9404V55.9404C181.511 55.9404 175.44 62.0113 175.44 69.5001H179.44ZM189 59.9404C194.28 59.9404 198.56 64.2204 198.56 69.5L202.56 69.5C202.56 62.0112 196.489 55.9404 189 55.9404V59.9404ZM200.56 71.5H200.56V67.5H200.56V71.5ZM198.56 69.5V92.6193H202.56V69.5H198.56ZM200.56 90.6193H177.441V94.6193H200.56V90.6193ZM179.441 92.6193V69.5641H175.441V92.6193H179.441Z" fill="black" mask="url(#path-46-inside-7_543_6)"/>
<circle cx="189" cy="52.1604" r="4.77983" fill="#C4C4C4" stroke="black" stroke-width="2"/>
</g>
<rect x="174" y="39.5" width="30" height="30" rx="15" stroke="black" stroke-width="2"/>
<g clip-path="url(#clip7_543_6)">
<rect x="173" y="129.5" width="32" height="32" rx="16" fill="#C4C4C4"/>
<mask id="path-51-inside-8_543_6" fill="white">
<path fill-rule="evenodd" clip-rule="evenodd" d="M177.441 160.564C177.44 160.543 177.44 160.521 177.44 160.5C177.44 154.116 182.616 148.94 189 148.94C195.384 148.94 200.56 154.116 200.56 160.5H200.56V183.619H177.441V160.564Z"/>
</mask>
<path fill-rule="evenodd" clip-rule="evenodd" d="M177.441 160.564C177.44 160.543 177.44 160.521 177.44 160.5C177.44 154.116 182.616 148.94 189 148.94C195.384 148.94 200.56 154.116 200.56 160.5H200.56V183.619H177.441V160.564Z" fill="#C4C4C4"/>
<path d="M177.441 160.564H179.441L179.441 160.553L177.441 160.564ZM200.56 160.5L198.56 160.5L198.56 162.5H200.56V160.5ZM200.56 160.5H202.56V158.5H200.56V160.5ZM200.56 183.619V185.619H202.56V183.619H200.56ZM177.441 183.619H175.441V185.619H177.441V183.619ZM179.441 160.553C179.44 160.536 179.44 160.518 179.44 160.5H175.44C175.44 160.525 175.44 160.55 175.441 160.575L179.441 160.553ZM179.44 160.5C179.44 155.22 183.72 150.94 189 150.94V146.94C181.511 146.94 175.44 153.011 175.44 160.5H179.44ZM189 150.94C194.28 150.94 198.56 155.22 198.56 160.5L202.56 160.5C202.56 153.011 196.489 146.94 189 146.94V150.94ZM200.56 162.5H200.56V158.5H200.56V162.5ZM198.56 160.5V183.619H202.56V160.5H198.56ZM200.56 181.619H177.441V185.619H200.56V181.619ZM179.441 183.619V160.564H175.441V183.619H179.441Z" fill="black" mask="url(#path-51-inside-8_543_6)"/>
<circle cx="189" cy="143.16" r="4.77983" fill="#C4C4C4" stroke="black" stroke-width="2"/>
</g>
<rect x="174" y="130.5" width="30" height="30" rx="15" stroke="black" stroke-width="2"/>
<g clip-path="url(#clip8_543_6)">
<rect x="143" y="84.5" width="32" height="32" rx="16" fill="#C4C4C4"/>
<mask id="path-56-inside-9_543_6" fill="white">
<path fill-rule="evenodd" clip-rule="evenodd" d="M147.441 115.564C147.44 115.543 147.44 115.521 147.44 115.5C147.44 109.116 152.616 103.94 159 103.94C165.384 103.94 170.56 109.116 170.56 115.5H170.56V138.619H147.441V115.564Z"/>
</mask>
<path fill-rule="evenodd" clip-rule="evenodd" d="M147.441 115.564C147.44 115.543 147.44 115.521 147.44 115.5C147.44 109.116 152.616 103.94 159 103.94C165.384 103.94 170.56 109.116 170.56 115.5H170.56V138.619H147.441V115.564Z" fill="#C4C4C4"/>
<path d="M147.441 115.564H149.441L149.441 115.553L147.441 115.564ZM170.56 115.5L168.56 115.5L168.56 117.5H170.56V115.5ZM170.56 115.5H172.56V113.5H170.56V115.5ZM170.56 138.619V140.619H172.56V138.619H170.56ZM147.441 138.619H145.441V140.619H147.441V138.619ZM149.441 115.553C149.44 115.536 149.44 115.518 149.44 115.5H145.44C145.44 115.525 145.44 115.55 145.441 115.575L149.441 115.553ZM149.44 115.5C149.44 110.22 153.72 105.94 159 105.94V101.94C151.511 101.94 145.44 108.011 145.44 115.5H149.44ZM159 105.94C164.28 105.94 168.56 110.22 168.56 115.5L172.56 115.5C172.56 108.011 166.489 101.94 159 101.94V105.94ZM170.56 117.5H170.56V113.5H170.56V117.5ZM168.56 115.5V138.619H172.56V115.5H168.56ZM170.56 136.619H147.441V140.619H170.56V136.619ZM149.441 138.619V115.564H145.441V138.619H149.441Z" fill="black" mask="url(#path-56-inside-9_543_6)"/>
<circle cx="159" cy="98.1604" r="4.77983" fill="#C4C4C4" stroke="black" stroke-width="2"/>
</g>
<rect x="144" y="85.5" width="30" height="30" rx="15" stroke="black" stroke-width="2"/>
<line y1="-1" x2="24" y2="-1" transform="matrix(0.5 0.866025 0.866025 -0.5 254 65.5)" stroke="black" stroke-width="2"/>
<line y1="-1" x2="24" y2="-1" transform="matrix(0.5 -0.866025 -0.866025 -0.5 254 135.285)" stroke="black" stroke-width="2"/>
<g clip-path="url(#clip9_543_6)">
<rect width="32" height="32" rx="16" transform="matrix(-1 0 0 1 259 38.5)" fill="#C4C4C4"/>
<mask id="path-63-inside-10_543_6" fill="white">
<path fill-rule="evenodd" clip-rule="evenodd" d="M254.559 69.5641C254.56 69.5428 254.56 69.5215 254.56 69.5001C254.56 63.1159 249.384 57.9404 243 57.9404C236.616 57.9404 231.44 63.1158 231.44 69.5H231.44V92.6193H254.559V69.5641Z"/>
</mask>
<path fill-rule="evenodd" clip-rule="evenodd" d="M254.559 69.5641C254.56 69.5428 254.56 69.5215 254.56 69.5001C254.56 63.1159 249.384 57.9404 243 57.9404C236.616 57.9404 231.44 63.1158 231.44 69.5H231.44V92.6193H254.559V69.5641Z" fill="#C4C4C4"/>
<path d="M254.559 69.5641H252.559L252.559 69.5533L254.559 69.5641ZM231.44 69.5L233.44 69.5L233.44 71.5H231.44V69.5ZM231.44 69.5H229.44V67.5H231.44V69.5ZM231.44 92.6193V94.6193H229.44V92.6193H231.44ZM254.559 92.6193H256.559V94.6193H254.559V92.6193ZM252.559 69.5533C252.56 69.5356 252.56 69.5178 252.56 69.5001H256.56C256.56 69.5251 256.56 69.55 256.559 69.575L252.559 69.5533ZM252.56 69.5001C252.56 64.2204 248.28 59.9404 243 59.9404V55.9404C250.489 55.9404 256.56 62.0113 256.56 69.5001H252.56ZM243 59.9404C237.72 59.9404 233.44 64.2204 233.44 69.5L229.44 69.5C229.44 62.0112 235.511 55.9404 243 55.9404V59.9404ZM231.44 71.5H231.44V67.5H231.44V71.5ZM233.44 69.5V92.6193H229.44V69.5H233.44ZM231.44 90.6193H254.559V94.6193H231.44V90.6193ZM252.559 92.6193V69.5641H256.559V92.6193H252.559Z" fill="black" mask="url(#path-63-inside-10_543_6)"/>
<circle cx="5.77983" cy="5.77983" r="4.77983" transform="matrix(-1 0 0 1 248.78 46.3806)" fill="#C4C4C4" stroke="black" stroke-width="2"/>
</g>
<rect x="-1" y="1" width="30" height="30" rx="15" transform="matrix(-1 0 0 1 257 38.5)" stroke="black" stroke-width="2"/>
<g clip-path="url(#clip10_543_6)">
<rect width="32" height="32" rx="16" transform="matrix(-1 0 0 1 259 129.5)" fill="#C4C4C4"/>
<mask id="path-68-inside-11_543_6" fill="white">
<path fill-rule="evenodd" clip-rule="evenodd" d="M254.559 160.564C254.56 160.543 254.56 160.521 254.56 160.5C254.56 154.116 249.384 148.94 243 148.94C236.616 148.94 231.44 154.116 231.44 160.5H231.44V183.619H254.559V160.564Z"/>
</mask>
<path fill-rule="evenodd" clip-rule="evenodd" d="M254.559 160.564C254.56 160.543 254.56 160.521 254.56 160.5C254.56 154.116 249.384 148.94 243 148.94C236.616 148.94 231.44 154.116 231.44 160.5H231.44V183.619H254.559V160.564Z" fill="#C4C4C4"/>
<path d="M254.559 160.564H252.559L252.559 160.553L254.559 160.564ZM231.44 160.5L233.44 160.5L233.44 162.5H231.44V160.5ZM231.44 160.5H229.44V158.5H231.44V160.5ZM231.44 183.619V185.619H229.44V183.619H231.44ZM254.559 183.619H256.559V185.619H254.559V183.619ZM252.559 160.553C252.56 160.536 252.56 160.518 252.56 160.5H256.56C256.56 160.525 256.56 160.55 256.559 160.575L252.559 160.553ZM252.56 160.5C252.56 155.22 248.28 150.94 243 150.94V146.94C250.489 146.94 256.56 153.011 256.56 160.5H252.56ZM243 150.94C237.72 150.94 233.44 155.22 233.44 160.5L229.44 160.5C229.44 153.011 235.511 146.94 243 146.94V150.94ZM231.44 162.5H231.44V158.5H231.44V162.5ZM233.44 160.5V183.619H229.44V160.5H233.44ZM231.44 181.619H254.559V185.619H231.44V181.619ZM252.559 183.619V160.564H256.559V183.619H252.559Z" fill="black" mask="url(#path-68-inside-11_543_6)"/>
<circle cx="5.77983" cy="5.77983" r="4.77983" transform="matrix(-1 0 0 1 248.78 137.381)" fill="#C4C4C4" stroke="black" stroke-width="2"/>
</g>
<rect x="-1" y="1" width="30" height="30" rx="15" transform="matrix(-1 0 0 1 257 129.5)" stroke="black" stroke-width="2"/>
<g clip-path="url(#clip11_543_6)">
<rect width="32" height="32" rx="16" transform="matrix(-1 0 0 1 289 84.5)" fill="#C4C4C4"/>
<mask id="path-73-inside-12_543_6" fill="white">
<path fill-rule="evenodd" clip-rule="evenodd" d="M284.559 115.564C284.56 115.543 284.56 115.521 284.56 115.5C284.56 109.116 279.384 103.94 273 103.94C266.616 103.94 261.44 109.116 261.44 115.5H261.44V138.619H284.559V115.564Z"/>
</mask>
<path fill-rule="evenodd" clip-rule="evenodd" d="M284.559 115.564C284.56 115.543 284.56 115.521 284.56 115.5C284.56 109.116 279.384 103.94 273 103.94C266.616 103.94 261.44 109.116 261.44 115.5H261.44V138.619H284.559V115.564Z" fill="#C4C4C4"/>
<path d="M284.559 115.564H282.559L282.559 115.553L284.559 115.564ZM261.44 115.5L263.44 115.5L263.44 117.5H261.44V115.5ZM261.44 115.5H259.44V113.5H261.44V115.5ZM261.44 138.619V140.619H259.44V138.619H261.44ZM284.559 138.619H286.559V140.619H284.559V138.619ZM282.559 115.553C282.56 115.536 282.56 115.518 282.56 115.5H286.56C286.56 115.525 286.56 115.55 286.559 115.575L282.559 115.553ZM282.56 115.5C282.56 110.22 278.28 105.94 273 105.94V101.94C280.489 101.94 286.56 108.011 286.56 115.5H282.56ZM273 105.94C267.72 105.94 263.44 110.22 263.44 115.5L259.44 115.5C259.44 108.011 265.511 101.94 273 101.94V105.94ZM261.44 117.5H261.44V113.5H261.44V117.5ZM263.44 115.5V138.619H259.44V115.5H263.44ZM261.44 136.619H284.559V140.619H261.44V136.619ZM282.559 138.619V115.564H286.559V138.619H282.559Z" fill="black" mask="url(#path-73-inside-12_543_6)"/>
<circle cx="5.77983" cy="5.77983" r="4.77983" transform="matrix(-1 0 0 1 278.78 92.3806)" fill="#C4C4C4" stroke="black" stroke-width="2"/>
</g>
<rect x="-1" y="1" width="30" height="30" rx="15" transform="matrix(-1 0 0 1 287 84.5)" stroke="black" stroke-width="2"/>
<line x1="364.707" y1="70.2929" x2="426.707" y2="132.293" stroke="black" stroke-width="2"/>
<line x1="363.293" y1="132.293" x2="425.293" y2="70.2929" stroke="black" stroke-width="2"/>
<line x1="345" y1="101" x2="445" y2="101" stroke="black" stroke-width="2"/>
<line x1="395" y1="57" x2="395" y2="147" stroke="black" stroke-width="2"/>
<line x1="408.5" y1="47.134" x2="422.356" y2="55.134" stroke="black" stroke-width="2"/>
<line y1="-1" x2="16" y2="-1" transform="matrix(0.866025 -0.5 -0.5 -0.866025 408 156)" stroke="black" stroke-width="2"/>
<line x1="445.866" y1="73.5" x2="453.866" y2="87.3564" stroke="black" stroke-width="2"/>
<line y1="-1" x2="16" y2="-1" transform="matrix(0.5 -0.866025 -0.866025 -0.5 445 129.856)" stroke="black" stroke-width="2"/>
<g clip-path="url(#clip12_543_6)">
<rect width="32" height="32" rx="16" transform="matrix(-1 0 0 1 411 25)" fill="#C4C4C4"/>
<mask id="path-86-inside-13_543_6" fill="white">
<path fill-rule="evenodd" clip-rule="evenodd" d="M406.559 56.0641C406.56 56.0428 406.56 56.0215 406.56 56.0001C406.56 49.6159 401.384 44.4404 395 44.4404C388.616 44.4404 383.44 49.6158 383.44 56H383.44V79.1193H406.559V56.0641Z"/>
</mask>
<path fill-rule="evenodd" clip-rule="evenodd" d="M406.559 56.0641C406.56 56.0428 406.56 56.0215 406.56 56.0001C406.56 49.6159 401.384 44.4404 395 44.4404C388.616 44.4404 383.44 49.6158 383.44 56H383.44V79.1193H406.559V56.0641Z" fill="#C4C4C4"/>
<path d="M406.559 56.0641H404.559L404.559 56.0533L406.559 56.0641ZM383.44 56L385.44 56L385.44 58H383.44V56ZM383.44 56H381.44V54H383.44V56ZM383.44 79.1193V81.1193H381.44V79.1193H383.44ZM406.559 79.1193H408.559V81.1193H406.559V79.1193ZM404.559 56.0533C404.56 56.0356 404.56 56.0178 404.56 56.0001H408.56C408.56 56.0251 408.56 56.05 408.559 56.075L404.559 56.0533ZM404.56 56.0001C404.56 50.7204 400.28 46.4404 395 46.4404V42.4404C402.489 42.4404 408.56 48.5113 408.56 56.0001H404.56ZM395 46.4404C389.72 46.4404 385.44 50.7204 385.44 56L381.44 56C381.44 48.5112 387.511 42.4404 395 42.4404V46.4404ZM383.44 58H383.44V54H383.44V58ZM385.44 56V79.1193H381.44V56H385.44ZM383.44 77.1193H406.559V81.1193H383.44V77.1193ZM404.559 79.1193V56.0641H408.559V79.1193H404.559Z" fill="black" mask="url(#path-86-inside-13_543_6)"/>
<circle cx="5.77983" cy="5.77983" r="4.77983" transform="matrix(-1 0 0 1 400.78 32.8806)" fill="#C4C4C4" stroke="black" stroke-width="2"/>
</g>
<rect x="-1" y="1" width="30" height="30" rx="15" transform="matrix(-1 0 0 1 409 25)" stroke="black" stroke-width="2"/>
<g clip-path="url(#clip13_543_6)">
<rect width="32" height="32" rx="16" transform="matrix(-1 0 0 1 411 143)" fill="#C4C4C4"/>
<mask id="path-91-inside-14_543_6" fill="white">
<path fill-rule="evenodd" clip-rule="evenodd" d="M406.559 174.064C406.56 174.043 406.56 174.021 406.56 174C406.56 167.616 401.384 162.44 395 162.44C388.616 162.44 383.44 167.616 383.44 174H383.44V197.119H406.559V174.064Z"/>
</mask>
<path fill-rule="evenodd" clip-rule="evenodd" d="M406.559 174.064C406.56 174.043 406.56 174.021 406.56 174C406.56 167.616 401.384 162.44 395 162.44C388.616 162.44 383.44 167.616 383.44 174H383.44V197.119H406.559V174.064Z" fill="#C4C4C4"/>
<path d="M406.559 174.064H404.559L404.559 174.053L406.559 174.064ZM383.44 174L385.44 174L385.44 176H383.44V174ZM383.44 174H381.44V172H383.44V174ZM383.44 197.119V199.119H381.44V197.119H383.44ZM406.559 197.119H408.559V199.119H406.559V197.119ZM404.559 174.053C404.56 174.036 404.56 174.018 404.56 174H408.56C408.56 174.025 408.56 174.05 408.559 174.075L404.559 174.053ZM404.56 174C404.56 168.72 400.28 164.44 395 164.44V160.44C402.489 160.44 408.56 166.511 408.56 174H404.56ZM395 164.44C389.72 164.44 385.44 168.72 385.44 174L381.44 174C381.44 166.511 387.511 160.44 395 160.44V164.44ZM383.44 176H383.44V172H383.44V176ZM385.44 174V197.119H381.44V174H385.44ZM383.44 195.119H406.559V199.119H383.44V195.119ZM404.559 197.119V174.064H408.559V197.119H404.559Z" fill="black" mask="url(#path-91-inside-14_543_6)"/>
<circle cx="5.77983" cy="5.77983" r="4.77983" transform="matrix(-1 0 0 1 400.78 150.881)" fill="#C4C4C4" stroke="black" stroke-width="2"/>
</g>
<rect x="-1" y="1" width="30" height="30" rx="15" transform="matrix(-1 0 0 1 409 143)" stroke="black" stroke-width="2"/>
<g clip-path="url(#clip14_543_6)">
<rect width="32" height="32" rx="16" transform="matrix(-1 0 0 1 453 127)" fill="#C4C4C4"/>
<mask id="path-96-inside-15_543_6" fill="white">
<path fill-rule="evenodd" clip-rule="evenodd" d="M448.559 158.064C448.56 158.043 448.56 158.021 448.56 158C448.56 151.616 443.384 146.44 437 146.44C430.616 146.44 425.44 151.616 425.44 158H425.44V181.119H448.559V158.064Z"/>
</mask>
<path fill-rule="evenodd" clip-rule="evenodd" d="M448.559 158.064C448.56 158.043 448.56 158.021 448.56 158C448.56 151.616 443.384 146.44 437 146.44C430.616 146.44 425.44 151.616 425.44 158H425.44V181.119H448.559V158.064Z" fill="#C4C4C4"/>
<path d="M448.559 158.064H446.559L446.559 158.053L448.559 158.064ZM425.44 158L427.44 158L427.44 160H425.44V158ZM425.44 158H423.44V156H425.44V158ZM425.44 181.119V183.119H423.44V181.119H425.44ZM448.559 181.119H450.559V183.119H448.559V181.119ZM446.559 158.053C446.56 158.036 446.56 158.018 446.56 158H450.56C450.56 158.025 450.56 158.05 450.559 158.075L446.559 158.053ZM446.56 158C446.56 152.72 442.28 148.44 437 148.44V144.44C444.489 144.44 450.56 150.511 450.56 158H446.56ZM437 148.44C431.72 148.44 427.44 152.72 427.44 158L423.44 158C423.44 150.511 429.511 144.44 437 144.44V148.44ZM425.44 160H425.44V156H425.44V160ZM427.44 158V181.119H423.44V158H427.44ZM425.44 179.119H448.559V183.119H425.44V179.119ZM446.559 181.119V158.064H450.559V181.119H446.559Z" fill="black" mask="url(#path-96-inside-15_543_6)"/>
<circle cx="5.77983" cy="5.77983" r="4.77983" transform="matrix(-1 0 0 1 442.78 134.881)" fill="#C4C4C4" stroke="black" stroke-width="2"/>
</g>
<rect x="-1" y="1" width="30" height="30" rx="15" transform="matrix(-1 0 0 1 451 127)" stroke="black" stroke-width="2"/>
<g clip-path="url(#clip15_543_6)">
<rect width="32" height="32" rx="16" transform="matrix(-1 0 0 1 476 86)" fill="#C4C4C4"/>
<mask id="path-101-inside-16_543_6" fill="white">
<path fill-rule="evenodd" clip-rule="evenodd" d="M471.559 117.064C471.56 117.043 471.56 117.021 471.56 117C471.56 110.616 466.384 105.44 460 105.44C453.616 105.44 448.44 110.616 448.44 117H448.44V140.119H471.559V117.064Z"/>
</mask>
<path fill-rule="evenodd" clip-rule="evenodd" d="M471.559 117.064C471.56 117.043 471.56 117.021 471.56 117C471.56 110.616 466.384 105.44 460 105.44C453.616 105.44 448.44 110.616 448.44 117H448.44V140.119H471.559V117.064Z" fill="#C4C4C4"/>
<path d="M471.559 117.064H469.559L469.559 117.053L471.559 117.064ZM448.44 117L450.44 117L450.44 119H448.44V117ZM448.44 117H446.44V115H448.44V117ZM448.44 140.119V142.119H446.44V140.119H448.44ZM471.559 140.119H473.559V142.119H471.559V140.119ZM469.559 117.053C469.56 117.036 469.56 117.018 469.56 117H473.56C473.56 117.025 473.56 117.05 473.559 117.075L469.559 117.053ZM469.56 117C469.56 111.72 465.28 107.44 460 107.44V103.44C467.489 103.44 473.56 109.511 473.56 117H469.56ZM460 107.44C454.72 107.44 450.44 111.72 450.44 117L446.44 117C446.44 109.511 452.511 103.44 460 103.44V107.44ZM448.44 119H448.44V115H448.44V119ZM450.44 117V140.119H446.44V117H450.44ZM448.44 138.119H471.559V142.119H448.44V138.119ZM469.559 140.119V117.064H473.559V140.119H469.559Z" fill="black" mask="url(#path-101-inside-16_543_6)"/>
<circle cx="5.77983" cy="5.77983" r="4.77983" transform="matrix(-1 0 0 1 465.78 93.8806)" fill="#C4C4C4" stroke="black" stroke-width="2"/>
</g>
<rect x="-1" y="1" width="30" height="30" rx="15" transform="matrix(-1 0 0 1 474 86)" stroke="black" stroke-width="2"/>
<g clip-path="url(#clip16_543_6)">
<rect width="32" height="32" rx="16" transform="matrix(-1 0 0 1 453 45)" fill="#C4C4C4"/>
<mask id="path-106-inside-17_543_6" fill="white">
<path fill-rule="evenodd" clip-rule="evenodd" d="M448.559 76.0641C448.56 76.0428 448.56 76.0215 448.56 76.0001C448.56 69.6159 443.384 64.4404 437 64.4404C430.616 64.4404 425.44 69.6158 425.44 76H425.44V99.1193H448.559V76.0641Z"/>
</mask>
<path fill-rule="evenodd" clip-rule="evenodd" d="M448.559 76.0641C448.56 76.0428 448.56 76.0215 448.56 76.0001C448.56 69.6159 443.384 64.4404 437 64.4404C430.616 64.4404 425.44 69.6158 425.44 76H425.44V99.1193H448.559V76.0641Z" fill="#C4C4C4"/>
<path d="M448.559 76.0641H446.559L446.559 76.0533L448.559 76.0641ZM425.44 76L427.44 76L427.44 78H425.44V76ZM425.44 76H423.44V74H425.44V76ZM425.44 99.1193V101.119H423.44V99.1193H425.44ZM448.559 99.1193H450.559V101.119H448.559V99.1193ZM446.559 76.0533C446.56 76.0356 446.56 76.0178 446.56 76.0001H450.56C450.56 76.0251 450.56 76.05 450.559 76.075L446.559 76.0533ZM446.56 76.0001C446.56 70.7204 442.28 66.4404 437 66.4404V62.4404C444.489 62.4404 450.56 68.5113 450.56 76.0001H446.56ZM437 66.4404C431.72 66.4404 427.44 70.7204 427.44 76L423.44 76C423.44 68.5112 429.511 62.4404 437 62.4404V66.4404ZM425.44 78H425.44V74H425.44V78ZM427.44 76V99.1193H423.44V76H427.44ZM425.44 97.1193H448.559V101.119H425.44V97.1193ZM446.559 99.1193V76.0641H450.559V99.1193H446.559Z" fill="black" mask="url(#path-106-inside-17_543_6)"/>
<circle cx="5.77983" cy="5.77983" r="4.77983" transform="matrix(-1 0 0 1 442.78 52.8806)" fill="#C4C4C4" stroke="black" stroke-width="2"/>
</g>
<rect x="-1" y="1" width="30" height="30" rx="15" transform="matrix(-1 0 0 1 451 45)" stroke="black" stroke-width="2"/>
<line y1="-1" x2="16" y2="-1" transform="matrix(-0.866025 0.5 0.5 0.866025 381 48)" stroke="black" stroke-width="2"/>
<line x1="380.5" y1="156.866" x2="366.644" y2="148.866" stroke="black" stroke-width="2"/>
<line y1="-1" x2="16" y2="-1" transform="matrix(-0.5 0.866025 0.866025 0.5 344 74)" stroke="black" stroke-width="2"/>
<line x1="343.134" y1="130.356" x2="335.134" y2="116.5" stroke="black" stroke-width="2"/>
<g clip-path="url(#clip17_543_6)">
<rect x="336" y="127" width="32" height="32" rx="16" fill="#C4C4C4"/>
<mask id="path-115-inside-18_543_6" fill="white">
<path fill-rule="evenodd" clip-rule="evenodd" d="M340.441 158.064C340.44 158.043 340.44 158.021 340.44 158C340.44 151.616 345.616 146.44 352 146.44C358.384 146.44 363.56 151.616 363.56 158H363.56V181.119H340.441V158.064Z"/>
</mask>
<path fill-rule="evenodd" clip-rule="evenodd" d="M340.441 158.064C340.44 158.043 340.44 158.021 340.44 158C340.44 151.616 345.616 146.44 352 146.44C358.384 146.44 363.56 151.616 363.56 158H363.56V181.119H340.441V158.064Z" fill="#C4C4C4"/>
<path d="M340.441 158.064H342.441L342.441 158.053L340.441 158.064ZM363.56 158L361.56 158L361.56 160H363.56V158ZM363.56 158H365.56V156H363.56V158ZM363.56 181.119V183.119H365.56V181.119H363.56ZM340.441 181.119H338.441V183.119H340.441V181.119ZM342.441 158.053C342.44 158.036 342.44 158.018 342.44 158H338.44C338.44 158.025 338.44 158.05 338.441 158.075L342.441 158.053ZM342.44 158C342.44 152.72 346.72 148.44 352 148.44V144.44C344.511 144.44 338.44 150.511 338.44 158H342.44ZM352 148.44C357.28 148.44 361.56 152.72 361.56 158L365.56 158C365.56 150.511 359.489 144.44 352 144.44V148.44ZM363.56 160H363.56V156H363.56V160ZM361.56 158V181.119H365.56V158H361.56ZM363.56 179.119H340.441V183.119H363.56V179.119ZM342.441 181.119V158.064H338.441V181.119H342.441Z" fill="black" mask="url(#path-115-inside-18_543_6)"/>
<circle cx="352" cy="140.66" r="4.77983" fill="#C4C4C4" stroke="black" stroke-width="2"/>
</g>
<rect x="337" y="128" width="30" height="30" rx="15" stroke="black" stroke-width="2"/>
<g clip-path="url(#clip18_543_6)">
<rect x="313" y="86" width="32" height="32" rx="16" fill="#C4C4C4"/>
<mask id="path-120-inside-19_543_6" fill="white">
<path fill-rule="evenodd" clip-rule="evenodd" d="M317.441 117.064C317.44 117.043 317.44 117.021 317.44 117C317.44 110.616 322.616 105.44 329 105.44C335.384 105.44 340.56 110.616 340.56 117H340.56V140.119H317.441V117.064Z"/>
</mask>
<path fill-rule="evenodd" clip-rule="evenodd" d="M317.441 117.064C317.44 117.043 317.44 117.021 317.44 117C317.44 110.616 322.616 105.44 329 105.44C335.384 105.44 340.56 110.616 340.56 117H340.56V140.119H317.441V117.064Z" fill="#C4C4C4"/>
<path d="M317.441 117.064H319.441L319.441 117.053L317.441 117.064ZM340.56 117L338.56 117L338.56 119H340.56V117ZM340.56 117H342.56V115H340.56V117ZM340.56 140.119V142.119H342.56V140.119H340.56ZM317.441 140.119H315.441V142.119H317.441V140.119ZM319.441 117.053C319.44 117.036 319.44 117.018 319.44 117H315.44C315.44 117.025 315.44 117.05 315.441 117.075L319.441 117.053ZM319.44 117C319.44 111.72 323.72 107.44 329 107.44V103.44C321.511 103.44 315.44 109.511 315.44 117H319.44ZM329 107.44C334.28 107.44 338.56 111.72 338.56 117L342.56 117C342.56 109.511 336.489 103.44 329 103.44V107.44ZM340.56 119H340.56V115H340.56V119ZM338.56 117V140.119H342.56V117H338.56ZM340.56 138.119H317.441V142.119H340.56V138.119ZM319.441 140.119V117.064H315.441V140.119H319.441Z" fill="black" mask="url(#path-120-inside-19_543_6)"/>
<circle cx="329" cy="99.6604" r="4.77983" fill="#C4C4C4" stroke="black" stroke-width="2"/>
</g>
<rect x="314" y="87" width="30" height="30" rx="15" stroke="black" stroke-width="2"/>
<g clip-path="url(#clip19_543_6)">
<rect x="336" y="45" width="32" height="32" rx="16" fill="#C4C4C4"/>
<mask id="path-125-inside-20_543_6" fill="white">
<path fill-rule="evenodd" clip-rule="evenodd" d="M340.441 76.0641C340.44 76.0428 340.44 76.0215 340.44 76.0001C340.44 69.6159 345.616 64.4404 352 64.4404C358.384 64.4404 363.56 69.6158 363.56 76H363.56V99.1193H340.441V76.0641Z"/>
</mask>
<path fill-rule="evenodd" clip-rule="evenodd" d="M340.441 76.0641C340.44 76.0428 340.44 76.0215 340.44 76.0001C340.44 69.6159 345.616 64.4404 352 64.4404C358.384 64.4404 363.56 69.6158 363.56 76H363.56V99.1193H340.441V76.0641Z" fill="#C4C4C4"/>
<path d="M340.441 76.0641H342.441L342.441 76.0533L340.441 76.0641ZM363.56 76L361.56 76L361.56 78H363.56V76ZM363.56 76H365.56V74H363.56V76ZM363.56 99.1193V101.119H365.56V99.1193H363.56ZM340.441 99.1193H338.441V101.119H340.441V99.1193ZM342.441 76.0533C342.44 76.0356 342.44 76.0178 342.44 76.0001H338.44C338.44 76.0251 338.44 76.05 338.441 76.075L342.441 76.0533ZM342.44 76.0001C342.44 70.7204 346.72 66.4404 352 66.4404V62.4404C344.511 62.4404 338.44 68.5113 338.44 76.0001H342.44ZM352 66.4404C357.28 66.4404 361.56 70.7204 361.56 76L365.56 76C365.56 68.5112 359.489 62.4404 352 62.4404V66.4404ZM363.56 78H363.56V74H363.56V78ZM361.56 76V99.1193H365.56V76H361.56ZM363.56 97.1193H340.441V101.119H363.56V97.1193ZM342.441 99.1193V76.0641H338.441V99.1193H342.441Z" fill="black" mask="url(#path-125-inside-20_543_6)"/>
<circle cx="352" cy="58.6604" r="4.77983" fill="#C4C4C4" stroke="black" stroke-width="2"/>
</g>
<rect x="337" y="46" width="30" height="30" rx="15" stroke="black" stroke-width="2"/>
<defs>
<clipPath id="clip0_543_6">
<rect x="25" y="53" width="32" height="32" rx="16" fill="white"/>
</clipPath>
<clipPath id="clip1_543_6">
<rect x="87" y="53" width="32" height="32" rx="16" fill="white"/>
</clipPath>
<clipPath id="clip2_543_6">
<rect x="87" y="53" width="32" height="32" rx="16" fill="white"/>
</clipPath>
<clipPath id="clip3_543_6">
<rect x="25" y="115" width="32" height="32" rx="16" fill="white"/>
</clipPath>
<clipPath id="clip4_543_6">
<rect x="87" y="115" width="32" height="32" rx="16" fill="white"/>
</clipPath>
<clipPath id="clip5_543_6">
<rect x="87" y="115" width="32" height="32" rx="16" fill="white"/>
</clipPath>
<clipPath id="clip6_543_6">
<rect x="173" y="38.5" width="32" height="32" rx="16" fill="white"/>
</clipPath>
<clipPath id="clip7_543_6">
<rect x="173" y="129.5" width="32" height="32" rx="16" fill="white"/>
</clipPath>
<clipPath id="clip8_543_6">
<rect x="143" y="84.5" width="32" height="32" rx="16" fill="white"/>
</clipPath>
<clipPath id="clip9_543_6">
<rect width="32" height="32" rx="16" transform="matrix(-1 0 0 1 259 38.5)" fill="white"/>
</clipPath>
<clipPath id="clip10_543_6">
<rect width="32" height="32" rx="16" transform="matrix(-1 0 0 1 259 129.5)" fill="white"/>
</clipPath>
<clipPath id="clip11_543_6">
<rect width="32" height="32" rx="16" transform="matrix(-1 0 0 1 289 84.5)" fill="white"/>
</clipPath>
<clipPath id="clip12_543_6">
<rect width="32" height="32" rx="16" transform="matrix(-1 0 0 1 411 25)" fill="white"/>
</clipPath>
<clipPath id="clip13_543_6">
<rect width="32" height="32" rx="16" transform="matrix(-1 0 0 1 411 143)" fill="white"/>
</clipPath>
<clipPath id="clip14_543_6">
<rect width="32" height="32" rx="16" transform="matrix(-1 0 0 1 453 127)" fill="white"/>
</clipPath>
<clipPath id="clip15_543_6">
<rect width="32" height="32" rx="16" transform="matrix(-1 0 0 1 476 86)" fill="white"/>
</clipPath>
<clipPath id="clip16_543_6">
<rect width="32" height="32" rx="16" transform="matrix(-1 0 0 1 453 45)" fill="white"/>
</clipPath>
<clipPath id="clip17_543_6">
<rect x="336" y="127" width="32" height="32" rx="16" fill="white"/>
</clipPath>
<clipPath id="clip18_543_6">
<rect x="313" y="86" width="32" height="32" rx="16" fill="white"/>
</clipPath>
<clipPath id="clip19_543_6">
<rect x="336" y="45" width="32" height="32" rx="16" fill="white"/>
</clipPath>
</defs>
</svg>
