<svg width="500" height="200" viewBox="0 0 500 200" fill="none" xmlns="http://www.w3.org/2000/svg">
<line y1="137.5" x2="438" y2="137.5" stroke="#C4C4C4"/>
<line x1="424.319" y1="123.823" x2="438.461" y2="137.965" stroke="#C4C4C4"/>
<line x1="423.789" y1="151.931" x2="437.931" y2="137.788" stroke="#C4C4C4"/>
<path d="M150.929 58.5931C148.469 53.6746 143.198 49.5643 136.143 49.5643C126.398 49.5643 119.464 57.8426 119.546 66.43H119.546L119.547 66.4333C119.552 66.5939 119.502 66.7514 119.405 66.8799C119.309 67.0085 119.172 67.1004 119.016 67.1405C113.012 68.6609 108.564 74.0835 108.564 80.5714C108.564 88.2386 114.761 94.4357 122.429 94.4357H163.571C171.982 94.4357 177.436 89.0529 177.436 82.2857C177.436 76.6568 173.447 71.0673 167.748 70.1109L167.747 70.1107C167.583 70.0848 167.433 70.0019 167.324 69.8767C167.215 69.7518 167.154 69.5927 167.15 69.4272C167.15 64.4973 164.946 61.116 161.934 59.3088L161.857 59.4374L161.934 59.3088C158.927 57.5045 155.087 57.2979 151.879 58.9015L151.879 58.902C151.711 58.9868 151.518 59.0018 151.339 58.9438C151.161 58.8859 151.014 58.7598 150.929 58.5931ZM150.929 58.5931C150.929 58.5933 150.929 58.5935 150.929 58.5936L150.795 58.6607L150.928 58.5926C150.928 58.5928 150.928 58.5929 150.929 58.5931ZM118.079 66.0365L118.183 66.0053L118.186 65.8963C118.397 56.7334 125.821 48.15 136.143 48.15C143.432 48.15 148.974 52.2668 151.788 57.3406L151.854 57.4583L151.978 57.4061C155.474 55.9356 159.433 56.1706 162.637 58.0929C165.901 60.0513 168.275 63.7692 168.484 68.7651L168.489 68.8799L168.601 68.9052C174.705 70.2826 178.85 76.1925 178.85 82.2857C178.85 89.7983 172.593 95.85 163.571 95.85H122.429C114.001 95.85 107.15 88.9994 107.15 80.5714C107.15 73.6702 111.778 67.924 118.079 66.0365Z" fill="#C4C4C4" stroke="black" stroke-width="0.3"/>
<line x1="142.5" y1="137" x2="142.5" y2="95" stroke="#C4C4C4"/>
<line x1="294.5" y1="137" x2="294.5" y2="95" stroke="#C4C4C4"/>
<path d="M261.932 75.9091V74.8182L280.614 62.6818V63.9773L262.955 75.4318L263.159 75.0909V75.6364L262.955 75.2955L280.614 86.75V88.0455L261.932 75.9091ZM301.5 52.4545L290.25 94.25H289.091L300.341 52.4545H301.5ZM328.612 75.9091L309.93 88.0455V86.75L327.589 75.2955L327.384 75.6364V75.0909L327.589 75.4318L309.93 63.9773V62.6818L328.612 74.8182V75.9091Z" fill="#C4C4C4"/>
<rect x="261.5" y="52.5" width="67" height="42" stroke="#C4C4C4"/>
</svg>
