<svg width="32" height="13" viewBox="0 0 32 13" fill="none" xmlns="http://www.w3.org/2000/svg">
<rect x="0.65" y="0.65" width="30.7" height="11.7" fill="black"/>
<rect x="0.65" y="0.65" width="30.7" height="11.7" stroke="black" stroke-width="1.3"/>
<path d="M3.73932 10.821V2.09377H6.85012C7.5291 2.09377 8.0916 2.21735 8.53762 2.46451C8.98364 2.71167 9.31745 3.04974 9.53904 3.47872C9.76063 3.90485 9.87143 4.38497 9.87143 4.91906C9.87143 5.45599 9.75921 5.93894 9.53478 6.36792C9.31319 6.79406 8.97796 7.13212 8.5291 7.38212C8.08307 7.62928 7.52199 7.75286 6.84586 7.75286H4.70665V6.63639H6.72654C7.15552 6.63639 7.50353 6.56252 7.77057 6.41479C8.03762 6.26423 8.23364 6.05968 8.35864 5.80116C8.48364 5.54264 8.54614 5.2486 8.54614 4.91906C8.54614 4.58951 8.48364 4.2969 8.35864 4.04122C8.23364 3.78553 8.0362 3.58525 7.76631 3.44036C7.49927 3.29548 7.14699 3.22303 6.70949 3.22303H5.05609V10.821H3.73932ZM15.6804 10.821H12.8551V2.09377H15.7699C16.625 2.09377 17.3594 2.26849 17.973 2.61792C18.5866 2.96451 19.0568 3.46309 19.3835 4.11366C19.7131 4.76139 19.8778 5.53837 19.8778 6.44462C19.8778 7.35372 19.7116 8.13497 19.3793 8.78837C19.0497 9.44178 18.5724 9.94462 17.9474 10.2969C17.3224 10.6463 16.5668 10.821 15.6804 10.821ZM14.1719 9.67048H15.6079C16.2727 9.67048 16.8253 9.54548 17.2656 9.29548C17.706 9.04264 18.0355 8.67758 18.2543 8.20031C18.473 7.72019 18.5824 7.13497 18.5824 6.44462C18.5824 5.75997 18.473 5.179 18.2543 4.70173C18.0383 4.22445 17.7159 3.86224 17.2869 3.61508C16.8579 3.36792 16.3253 3.24434 15.6889 3.24434H14.1719V9.67048ZM22.9553 10.821V2.09377H28.3672V3.22729H24.272V5.88639H27.9794V7.01565H24.272V10.821H22.9553Z" fill="#C4C4C4"/>
</svg>
