<svg width="500" height="305" viewBox="0 0 500 305" fill="none" xmlns="http://www.w3.org/2000/svg">
<path d="M259.919 46.5C277.678 46.4964 295.175 50.7928 310.912 59.022C326.65 67.2512 340.161 79.1685 350.291 93.7553C360.421 108.342 366.869 125.165 369.083 142.786C371.297 160.407 369.212 178.302 363.006 194.941L259.941 156.5L259.919 46.5Z" fill="white" stroke="black" stroke-width="1.8" stroke-linejoin="round"/>
<path d="M362.967 195.044C352.79 222.247 332.268 244.321 305.877 256.45C279.486 268.578 249.37 269.778 222.098 259.786L259.941 156.5L362.967 195.044Z" fill="#E6E6E6" stroke="black" stroke-width="1.8" stroke-linejoin="round"/>
<path d="M221.995 259.748C205.064 253.525 189.923 243.234 177.906 229.781C165.889 216.329 157.364 200.127 153.083 182.604L259.941 156.5L221.995 259.748Z" fill="#CACACA" stroke="black" stroke-width="1.8" stroke-linejoin="round"/>
<path d="M153.058 182.497C148.904 165.421 148.903 147.599 153.053 130.523C157.203 113.447 165.384 97.6131 176.911 84.3483L259.941 156.5L153.058 182.497Z" fill="#A4A4A4" stroke="black" stroke-width="1.8" stroke-linejoin="round"/>
<path d="M176.983 84.2653C186.987 72.776 199.268 63.4899 213.049 56.9956L259.941 156.5L176.983 84.2653Z" fill="#6C6C6C" stroke="black" stroke-width="1.8" stroke-linejoin="round"/>
<path d="M213.149 56.9487C227.742 50.0896 243.664 46.5225 259.789 46.5001L259.941 156.5L213.149 56.9487Z" fill="#323232" stroke="black" stroke-width="1.8" stroke-linejoin="round"/>
<path d="M355.966 58.0878H354.194C354.125 57.709 353.999 57.3757 353.813 57.0878C353.627 56.7999 353.4 56.5556 353.131 56.3548C352.862 56.1541 352.561 56.0026 352.228 55.9003C351.898 55.798 351.548 55.7469 351.177 55.7469C350.506 55.7469 349.906 55.9154 349.375 56.2526C348.849 56.5897 348.432 57.084 348.125 57.7355C347.822 58.387 347.671 59.1825 347.671 60.1219C347.671 61.0689 347.822 61.8681 348.125 62.5196C348.432 63.1711 348.851 63.6635 349.381 63.9969C349.911 64.3302 350.508 64.4969 351.171 64.4969C351.538 64.4969 351.887 64.4476 352.216 64.3492C352.55 64.2469 352.851 64.0973 353.12 63.9003C353.389 63.7033 353.616 63.4628 353.802 63.1787C353.991 62.8908 354.122 62.5613 354.194 62.1901L355.966 62.1957C355.872 62.7677 355.688 63.2942 355.415 63.7753C355.146 64.2526 354.8 64.6654 354.375 65.0139C353.955 65.3586 353.474 65.6257 352.932 65.8151C352.391 66.0045 351.8 66.0992 351.16 66.0992C350.152 66.0992 349.254 65.8605 348.466 65.3832C347.678 64.9022 347.057 64.2147 346.603 63.3207C346.152 62.4268 345.927 61.3605 345.927 60.1219C345.927 58.8795 346.154 57.8132 346.608 56.923C347.063 56.0291 347.684 55.3435 348.472 54.8662C349.26 54.3851 350.156 54.1446 351.16 54.1446C351.777 54.1446 352.353 54.2336 352.887 54.4117C353.425 54.5859 353.908 54.8435 354.336 55.1844C354.764 55.5215 355.118 55.9344 355.398 56.423C355.678 56.9079 355.868 57.4628 355.966 58.0878ZM359.63 60.7582V65.9401H357.931V54.3037H359.607V58.6332H359.715C359.92 58.1635 360.232 57.7904 360.652 57.5139C361.073 57.2374 361.622 57.0992 362.3 57.0992C362.899 57.0992 363.421 57.2223 363.868 57.4685C364.319 57.7147 364.668 58.0821 364.914 58.5707C365.164 59.0556 365.289 59.6617 365.289 60.3889V65.9401H363.59V60.5935C363.59 59.9533 363.425 59.4571 363.096 59.1048C362.766 58.7488 362.308 58.5707 361.721 58.5707C361.319 58.5707 360.959 58.656 360.641 58.8264C360.327 58.9969 360.079 59.2469 359.897 59.5764C359.719 59.9022 359.63 60.2961 359.63 60.7582ZM367.556 65.9401V57.2128H369.198V58.5992H369.289C369.448 58.1295 369.728 57.7601 370.13 57.4912C370.535 57.2185 370.993 57.0821 371.505 57.0821C371.611 57.0821 371.736 57.0859 371.88 57.0935C372.027 57.101 372.143 57.1105 372.226 57.1219V58.7469C372.158 58.7279 372.037 58.7071 371.863 58.6844C371.688 58.6579 371.514 58.6446 371.34 58.6446C370.938 58.6446 370.58 58.7298 370.266 58.9003C369.955 59.067 369.709 59.2999 369.527 59.5992C369.346 59.8946 369.255 60.2317 369.255 60.6105V65.9401H367.556ZM373.696 65.9401V57.2128H375.395V65.9401H373.696ZM374.554 55.8662C374.259 55.8662 374.005 55.7677 373.793 55.5707C373.585 55.37 373.481 55.1314 373.481 54.8548C373.481 54.5745 373.585 54.3359 373.793 54.1389C374.005 53.9382 374.259 53.8378 374.554 53.8378C374.85 53.8378 375.102 53.9382 375.31 54.1389C375.522 54.3359 375.628 54.5745 375.628 54.8548C375.628 55.1314 375.522 55.37 375.31 55.5707C375.102 55.7677 374.85 55.8662 374.554 55.8662ZM384.221 59.3435L382.681 59.6162C382.616 59.4192 382.514 59.2317 382.374 59.0537C382.238 58.8757 382.052 58.7298 381.817 58.6162C381.582 58.5026 381.289 58.4457 380.937 58.4457C380.455 58.4457 380.054 58.5537 379.732 58.7696C379.41 58.9817 379.249 59.2564 379.249 59.5935C379.249 59.8851 379.357 60.12 379.573 60.298C379.789 60.476 380.137 60.6219 380.618 60.7355L382.005 61.0537C382.808 61.2393 383.406 61.5253 383.8 61.9117C384.194 62.298 384.391 62.7999 384.391 63.4173C384.391 63.9401 384.24 64.406 383.937 64.8151C383.637 65.2204 383.219 65.5385 382.681 65.7696C382.147 66.0007 381.527 66.1162 380.823 66.1162C379.846 66.1162 379.048 65.9079 378.431 65.4912C377.813 65.0707 377.435 64.4742 377.295 63.7014L378.937 63.4514C379.039 63.8795 379.249 64.2033 379.567 64.423C379.885 64.6389 380.3 64.7469 380.812 64.7469C381.368 64.7469 381.813 64.6314 382.147 64.4003C382.48 64.1654 382.647 63.8795 382.647 63.5423C382.647 63.2696 382.545 63.0404 382.34 62.8548C382.139 62.6692 381.83 62.5291 381.414 62.4344L379.937 62.1105C379.122 61.9249 378.52 61.6295 378.13 61.2242C377.743 60.8189 377.55 60.3056 377.55 59.6844C377.55 59.1692 377.694 58.7185 377.982 58.3321C378.27 57.9457 378.668 57.6446 379.175 57.4287C379.683 57.209 380.264 57.0992 380.92 57.0992C381.863 57.0992 382.605 57.3037 383.147 57.7128C383.688 58.1181 384.046 58.6617 384.221 59.3435ZM390.333 57.2128V58.5764H385.566V57.2128H390.333ZM386.844 55.1219H388.543V63.3776C388.543 63.7071 388.592 63.9552 388.691 64.1219C388.789 64.2848 388.916 64.3965 389.071 64.4571C389.231 64.5139 389.403 64.5423 389.589 64.5423C389.725 64.5423 389.844 64.5329 389.946 64.5139C390.049 64.495 390.128 64.4798 390.185 64.4685L390.492 65.8719C390.393 65.9098 390.253 65.9476 390.071 65.9855C389.89 66.0272 389.662 66.0499 389.39 66.0537C388.943 66.0613 388.526 65.9817 388.14 65.8151C387.753 65.6484 387.441 65.3908 387.202 65.0423C386.964 64.6939 386.844 64.2564 386.844 63.7298V55.1219ZM392.212 65.9401V57.2128H393.911V65.9401H392.212ZM393.07 55.8662C392.775 55.8662 392.521 55.7677 392.309 55.5707C392.1 55.37 391.996 55.1314 391.996 54.8548C391.996 54.5745 392.1 54.3359 392.309 54.1389C392.521 53.9382 392.775 53.8378 393.07 53.8378C393.366 53.8378 393.617 53.9382 393.826 54.1389C394.038 54.3359 394.144 54.5745 394.144 54.8548C394.144 55.1314 394.038 55.37 393.826 55.5707C393.617 55.7677 393.366 55.8662 393.07 55.8662ZM398.736 66.1332C398.183 66.1332 397.683 66.031 397.236 65.8264C396.789 65.6181 396.435 65.317 396.174 64.923C395.916 64.5291 395.787 64.0461 395.787 63.4742C395.787 62.9817 395.882 62.5764 396.071 62.2582C396.261 61.9401 396.517 61.6882 396.839 61.5026C397.161 61.317 397.52 61.1768 397.918 61.0821C398.316 60.9874 398.721 60.9154 399.134 60.8662C399.657 60.8056 400.081 60.7564 400.407 60.7185C400.732 60.6768 400.969 60.6105 401.117 60.5196C401.265 60.4287 401.339 60.281 401.339 60.0764V60.0367C401.339 59.5404 401.198 59.156 400.918 58.8832C400.642 58.6105 400.229 58.4742 399.679 58.4742C399.107 58.4742 398.657 58.601 398.327 58.8548C398.001 59.1048 397.776 59.3832 397.651 59.6901L396.054 59.3264C396.244 58.7961 396.52 58.3681 396.884 58.0423C397.251 57.7128 397.674 57.4742 398.151 57.3264C398.628 57.1749 399.13 57.0992 399.657 57.0992C400.005 57.0992 400.375 57.1408 400.765 57.2242C401.159 57.3037 401.526 57.4514 401.867 57.6673C402.212 57.8832 402.494 58.192 402.714 58.5935C402.933 58.9912 403.043 59.5082 403.043 60.1446V65.9401H401.384V64.7469H401.316C401.206 64.9666 401.041 65.1825 400.821 65.3946C400.602 65.6067 400.32 65.7829 399.975 65.923C399.63 66.0632 399.217 66.1332 398.736 66.1332ZM399.106 64.7696C399.575 64.7696 399.977 64.6768 400.31 64.4912C400.647 64.3056 400.903 64.0632 401.077 63.7639C401.255 63.4609 401.344 63.137 401.344 62.7923V61.6673C401.284 61.7279 401.166 61.7848 400.992 61.8378C400.821 61.887 400.626 61.9306 400.407 61.9685C400.187 62.0026 399.973 62.0348 399.765 62.0651C399.556 62.0916 399.382 62.1143 399.242 62.1332C398.912 62.1749 398.611 62.245 398.339 62.3435C398.07 62.442 397.854 62.584 397.691 62.7696C397.532 62.9514 397.452 63.1939 397.452 63.4969C397.452 63.9173 397.607 64.2355 397.918 64.4514C398.229 64.6635 398.625 64.7696 399.106 64.7696ZM407.005 60.7582V65.9401H405.306V57.2128H406.937V58.6332H407.045C407.245 58.1711 407.56 57.7999 407.988 57.5196C408.42 57.2393 408.963 57.0992 409.618 57.0992C410.213 57.0992 410.734 57.2242 411.181 57.4742C411.628 57.7204 411.974 58.0878 412.221 58.5764C412.467 59.0651 412.59 59.6692 412.59 60.3889V65.9401H410.891V60.5935C410.891 59.9609 410.726 59.4666 410.397 59.1105C410.067 58.7507 409.615 58.5707 409.039 58.5707C408.645 58.5707 408.295 58.656 407.988 58.8264C407.685 58.9969 407.444 59.2469 407.266 59.5764C407.092 59.9022 407.005 60.2961 407.005 60.7582ZM414.868 65.9401V57.2128H416.567V65.9401H414.868ZM415.726 55.8662C415.431 55.8662 415.177 55.7677 414.965 55.5707C414.757 55.37 414.652 55.1314 414.652 54.8548C414.652 54.5745 414.757 54.3359 414.965 54.1389C415.177 53.9382 415.431 53.8378 415.726 53.8378C416.022 53.8378 416.274 53.9382 416.482 54.1389C416.694 54.3359 416.8 54.5745 416.8 54.8548C416.8 55.1314 416.694 55.37 416.482 55.5707C416.274 55.7677 416.022 55.8662 415.726 55.8662ZM422.927 57.2128V58.5764H418.16V57.2128H422.927ZM419.438 55.1219H421.137V63.3776C421.137 63.7071 421.186 63.9552 421.285 64.1219C421.383 64.2848 421.51 64.3965 421.665 64.4571C421.824 64.5139 421.997 64.5423 422.182 64.5423C422.319 64.5423 422.438 64.5329 422.54 64.5139C422.643 64.495 422.722 64.4798 422.779 64.4685L423.086 65.8719C422.987 65.9098 422.847 65.9476 422.665 65.9855C422.483 66.0272 422.256 66.0499 421.983 66.0537C421.536 66.0613 421.12 65.9817 420.733 65.8151C420.347 65.6484 420.035 65.3908 419.796 65.0423C419.557 64.6939 419.438 64.2564 419.438 63.7298V55.1219ZM425.88 69.2128C425.626 69.2128 425.395 69.192 425.187 69.1503C424.978 69.1124 424.823 69.0707 424.721 69.0253L425.13 67.6332C425.44 67.7166 425.717 67.7526 425.959 67.7412C426.202 67.7298 426.416 67.6389 426.601 67.4685C426.791 67.298 426.957 67.0196 427.101 66.6332L427.312 66.0537L424.118 57.2128H425.937L428.147 63.9855H428.238L430.448 57.2128H432.272L428.675 67.1048C428.509 67.5594 428.296 67.9439 428.039 68.2582C427.781 68.5764 427.474 68.8151 427.118 68.9742C426.762 69.1332 426.349 69.2128 425.88 69.2128ZM434.988 66.048C434.677 66.048 434.41 65.9382 434.187 65.7185C433.963 65.495 433.851 65.226 433.851 64.9117C433.851 64.601 433.963 64.3359 434.187 64.1162C434.41 63.8927 434.677 63.781 434.988 63.781C435.298 63.781 435.565 63.8927 435.789 64.1162C436.012 64.3359 436.124 64.601 436.124 64.9117C436.124 65.12 436.071 65.3113 435.965 65.4855C435.863 65.656 435.726 65.7923 435.556 65.8946C435.385 65.9969 435.196 66.048 434.988 66.048ZM434.988 59.6957C434.677 59.6957 434.41 59.584 434.187 59.3605C433.963 59.137 433.851 58.87 433.851 58.5594C433.851 58.2488 433.963 57.9836 434.187 57.7639C434.41 57.5404 434.677 57.4287 434.988 57.4287C435.298 57.4287 435.565 57.5404 435.789 57.7639C436.012 57.9836 436.124 58.2488 436.124 58.5594C436.124 58.7677 436.071 58.959 435.965 59.1332C435.863 59.3037 435.726 59.4401 435.556 59.5423C435.385 59.6446 435.196 59.6957 434.988 59.6957ZM446.662 66.0992C445.882 66.0992 445.185 65.9647 444.571 65.6957C443.962 65.4268 443.479 65.0537 443.123 64.5764C442.77 64.0954 442.581 63.5385 442.554 62.906H444.339C444.361 63.2507 444.477 63.5499 444.685 63.8037C444.897 64.0537 445.174 64.2469 445.515 64.3832C445.856 64.5196 446.234 64.5878 446.651 64.5878C447.109 64.5878 447.515 64.5082 447.867 64.3492C448.223 64.1901 448.501 63.9685 448.702 63.6844C448.903 63.3965 449.003 63.0651 449.003 62.6901C449.003 62.2999 448.903 61.9571 448.702 61.6617C448.505 61.3624 448.215 61.1276 447.833 60.9571C447.454 60.7867 446.996 60.7014 446.458 60.7014H445.475V59.2696H446.458C446.89 59.2696 447.268 59.192 447.594 59.0367C447.924 58.8814 448.181 58.6654 448.367 58.3889C448.553 58.1086 448.645 57.781 448.645 57.406C448.645 57.0461 448.564 56.7336 448.401 56.4685C448.242 56.1995 448.015 55.9893 447.719 55.8378C447.428 55.6863 447.083 55.6105 446.685 55.6105C446.306 55.6105 445.952 55.6806 445.623 55.8207C445.297 55.9571 445.032 56.1541 444.827 56.4117C444.623 56.6654 444.513 56.9704 444.498 57.3264H442.799C442.818 56.6976 443.003 56.1446 443.356 55.6673C443.712 55.1901 444.181 54.817 444.765 54.548C445.348 54.2791 445.996 54.1446 446.708 54.1446C447.454 54.1446 448.098 54.2904 448.64 54.5821C449.185 54.87 449.606 55.2545 449.901 55.7355C450.2 56.2166 450.348 56.7431 450.344 57.3151C450.348 57.9666 450.166 58.5196 449.799 58.9742C449.435 59.4287 448.95 59.7336 448.344 59.8889V59.9798C449.117 60.0973 449.715 60.4041 450.14 60.9003C450.568 61.3965 450.78 62.012 450.776 62.7469C450.78 63.387 450.602 63.9609 450.242 64.4685C449.886 64.976 449.399 65.3757 448.782 65.6673C448.164 65.9552 447.458 66.0992 446.662 66.0992ZM456.975 66.1332C456.077 66.1295 455.31 65.8927 454.674 65.423C454.037 64.9533 453.551 64.2696 453.214 63.3719C452.876 62.4742 452.708 61.3927 452.708 60.1276C452.708 58.8662 452.876 57.7885 453.214 56.8946C453.554 56.0007 454.043 55.3189 454.679 54.8492C455.32 54.3795 456.085 54.1446 456.975 54.1446C457.865 54.1446 458.628 54.3814 459.265 54.8548C459.901 55.3245 460.388 56.0064 460.725 56.9003C461.066 57.7904 461.236 58.8662 461.236 60.1276C461.236 61.3965 461.068 62.4798 460.731 63.3776C460.393 64.2715 459.907 64.9552 459.27 65.4287C458.634 65.8984 457.869 66.1332 456.975 66.1332ZM456.975 64.6162C457.763 64.6162 458.378 64.2317 458.821 63.4628C459.268 62.6939 459.492 61.5821 459.492 60.1276C459.492 59.1617 459.39 58.3454 459.185 57.6787C458.984 57.0082 458.695 56.5007 458.316 56.156C457.941 55.8075 457.494 55.6332 456.975 55.6332C456.191 55.6332 455.575 56.0196 455.128 56.7923C454.681 57.5651 454.456 58.6768 454.452 60.1276C454.452 61.0973 454.553 61.9173 454.753 62.5878C454.958 63.2545 455.248 63.7601 455.623 64.1048C455.998 64.4457 456.448 64.6162 456.975 64.6162ZM463.972 66.048C463.661 66.048 463.394 65.9382 463.171 65.7185C462.947 65.495 462.836 65.226 462.836 64.9117C462.836 64.601 462.947 64.3359 463.171 64.1162C463.394 63.8927 463.661 63.781 463.972 63.781C464.283 63.781 464.55 63.8927 464.773 64.1162C464.997 64.3359 465.108 64.601 465.108 64.9117C465.108 65.12 465.055 65.3113 464.949 65.4855C464.847 65.656 464.711 65.7923 464.54 65.8946C464.37 65.9969 464.18 66.048 463.972 66.048ZM467.456 65.9401L472.536 55.8946V55.8094H466.661V54.3037H474.354V55.8605L469.292 65.9401H467.456ZM482.404 63.7582V63.1446C482.404 62.7052 482.495 62.3037 482.677 61.9401C482.862 61.5726 483.131 61.2791 483.483 61.0594C483.839 60.8359 484.269 60.7242 484.773 60.7242C485.288 60.7242 485.72 60.834 486.069 61.0537C486.417 61.2734 486.68 61.567 486.858 61.9344C487.04 62.3018 487.131 62.7052 487.131 63.1446V63.7582C487.131 64.1976 487.04 64.601 486.858 64.9685C486.677 65.3321 486.41 65.6257 486.057 65.8492C485.709 66.0689 485.281 66.1787 484.773 66.1787C484.262 66.1787 483.83 66.0689 483.478 65.8492C483.125 65.6257 482.858 65.3321 482.677 64.9685C482.495 64.601 482.404 64.1976 482.404 63.7582ZM483.728 63.1446V63.7582C483.728 64.084 483.805 64.3795 483.961 64.6446C484.116 64.9098 484.387 65.0423 484.773 65.0423C485.156 65.0423 485.423 64.9098 485.574 64.6446C485.726 64.3795 485.802 64.084 485.802 63.7582V63.1446C485.802 62.8189 485.728 62.5234 485.58 62.2582C485.436 61.9931 485.167 61.8605 484.773 61.8605C484.394 61.8605 484.125 61.9931 483.966 62.2582C483.807 62.5234 483.728 62.8189 483.728 63.1446ZM476.552 57.0992V56.4855C476.552 56.0461 476.643 55.6427 476.824 55.2753C477.01 54.9079 477.279 54.6143 477.631 54.3946C477.987 54.1749 478.417 54.0651 478.921 54.0651C479.436 54.0651 479.868 54.1749 480.216 54.3946C480.565 54.6143 480.828 54.9079 481.006 55.2753C481.184 55.6427 481.273 56.0461 481.273 56.4855V57.0992C481.273 57.5385 481.182 57.942 481 58.3094C480.822 58.673 480.557 58.9666 480.205 59.1901C479.857 59.4098 479.428 59.5196 478.921 59.5196C478.406 59.5196 477.972 59.4098 477.62 59.1901C477.271 58.9666 477.006 58.673 476.824 58.3094C476.643 57.942 476.552 57.5385 476.552 57.0992ZM477.881 56.4855V57.0992C477.881 57.4249 477.957 57.7204 478.108 57.9855C478.264 58.2507 478.535 58.3832 478.921 58.3832C479.3 58.3832 479.565 58.2507 479.716 57.9855C479.872 57.7204 479.949 57.4249 479.949 57.0992V56.4855C479.949 56.1598 479.875 55.8643 479.728 55.5992C479.58 55.334 479.311 55.2014 478.921 55.2014C478.542 55.2014 478.273 55.334 478.114 55.5992C477.959 55.8643 477.881 56.1598 477.881 56.4855ZM477.091 65.9401L485.091 54.3037H486.449L478.449 65.9401H477.091Z" fill="black"/>
<path d="M314.691 277.367V289.004H312.935V277.367H314.691ZM323.651 282.407L322.112 282.68C322.047 282.483 321.945 282.295 321.805 282.117C321.668 281.939 321.483 281.794 321.248 281.68C321.013 281.566 320.719 281.509 320.367 281.509C319.886 281.509 319.485 281.617 319.163 281.833C318.841 282.045 318.68 282.32 318.68 282.657C318.68 282.949 318.788 283.184 319.004 283.362C319.219 283.54 319.568 283.686 320.049 283.799L321.435 284.117C322.238 284.303 322.837 284.589 323.231 284.975C323.625 285.362 323.822 285.864 323.822 286.481C323.822 287.004 323.67 287.47 323.367 287.879C323.068 288.284 322.649 288.602 322.112 288.833C321.577 289.064 320.958 289.18 320.254 289.18C319.276 289.18 318.479 288.972 317.862 288.555C317.244 288.134 316.865 287.538 316.725 286.765L318.367 286.515C318.469 286.943 318.68 287.267 318.998 287.487C319.316 287.703 319.731 287.811 320.242 287.811C320.799 287.811 321.244 287.695 321.577 287.464C321.911 287.229 322.077 286.943 322.077 286.606C322.077 286.333 321.975 286.104 321.771 285.919C321.57 285.733 321.261 285.593 320.844 285.498L319.367 285.174C318.553 284.989 317.951 284.693 317.56 284.288C317.174 283.883 316.981 283.369 316.981 282.748C316.981 282.233 317.125 281.782 317.413 281.396C317.701 281.009 318.098 280.708 318.606 280.492C319.113 280.273 319.695 280.163 320.35 280.163C321.293 280.163 322.036 280.367 322.577 280.777C323.119 281.182 323.477 281.725 323.651 282.407ZM327.389 277.367V289.004H325.69V277.367H327.389ZM332.214 289.197C331.661 289.197 331.161 289.095 330.714 288.89C330.267 288.682 329.913 288.381 329.651 287.987C329.394 287.593 329.265 287.11 329.265 286.538C329.265 286.045 329.36 285.64 329.549 285.322C329.738 285.004 329.994 284.752 330.316 284.566C330.638 284.381 330.998 284.241 331.396 284.146C331.793 284.051 332.199 283.979 332.612 283.93C333.134 283.869 333.558 283.82 333.884 283.782C334.21 283.741 334.447 283.674 334.594 283.583C334.742 283.492 334.816 283.345 334.816 283.14V283.1C334.816 282.604 334.676 282.22 334.396 281.947C334.119 281.674 333.706 281.538 333.157 281.538C332.585 281.538 332.134 281.665 331.805 281.919C331.479 282.169 331.254 282.447 331.129 282.754L329.532 282.39C329.721 281.86 329.998 281.432 330.362 281.106C330.729 280.777 331.151 280.538 331.629 280.39C332.106 280.239 332.608 280.163 333.134 280.163C333.483 280.163 333.852 280.205 334.242 280.288C334.636 280.367 335.004 280.515 335.344 280.731C335.689 280.947 335.971 281.256 336.191 281.657C336.411 282.055 336.521 282.572 336.521 283.208V289.004H334.862V287.811H334.793C334.683 288.03 334.519 288.246 334.299 288.458C334.079 288.67 333.797 288.847 333.452 288.987C333.108 289.127 332.695 289.197 332.214 289.197ZM332.583 287.833C333.053 287.833 333.454 287.741 333.788 287.555C334.125 287.369 334.38 287.127 334.555 286.828C334.733 286.525 334.822 286.201 334.822 285.856V284.731C334.761 284.792 334.644 284.848 334.469 284.902C334.299 284.951 334.104 284.994 333.884 285.032C333.665 285.066 333.451 285.098 333.242 285.129C333.034 285.155 332.86 285.178 332.719 285.197C332.39 285.239 332.089 285.309 331.816 285.407C331.547 285.506 331.331 285.648 331.168 285.833C331.009 286.015 330.93 286.258 330.93 286.561C330.93 286.981 331.085 287.299 331.396 287.515C331.706 287.727 332.102 287.833 332.583 287.833ZM338.783 289.004V280.277H340.414V281.697H340.522C340.704 281.216 341.001 280.841 341.414 280.572C341.827 280.299 342.321 280.163 342.897 280.163C343.48 280.163 343.969 280.299 344.363 280.572C344.761 280.845 345.054 281.22 345.244 281.697H345.335C345.543 281.231 345.874 280.86 346.329 280.583C346.783 280.303 347.325 280.163 347.954 280.163C348.746 280.163 349.391 280.411 349.891 280.907C350.395 281.403 350.647 282.152 350.647 283.152V289.004H348.948V283.311C348.948 282.72 348.787 282.292 348.465 282.027C348.143 281.761 347.759 281.629 347.312 281.629C346.759 281.629 346.329 281.799 346.022 282.14C345.715 282.477 345.562 282.911 345.562 283.441V289.004H343.869V283.203C343.869 282.729 343.721 282.348 343.425 282.061C343.13 281.773 342.746 281.629 342.272 281.629C341.95 281.629 341.653 281.714 341.38 281.884C341.111 282.051 340.893 282.284 340.727 282.583C340.564 282.883 340.482 283.229 340.482 283.623V289.004H338.783ZM354.043 289.112C353.733 289.112 353.466 289.002 353.242 288.782C353.019 288.559 352.907 288.29 352.907 287.975C352.907 287.665 353.019 287.4 353.242 287.18C353.466 286.956 353.733 286.845 354.043 286.845C354.354 286.845 354.621 286.956 354.844 287.18C355.068 287.4 355.18 287.665 355.18 287.975C355.18 288.184 355.127 288.375 355.021 288.549C354.918 288.72 354.782 288.856 354.612 288.958C354.441 289.061 354.252 289.112 354.043 289.112ZM354.043 282.759C353.733 282.759 353.466 282.648 353.242 282.424C353.019 282.201 352.907 281.934 352.907 281.623C352.907 281.312 353.019 281.047 353.242 280.828C353.466 280.604 353.733 280.492 354.043 280.492C354.354 280.492 354.621 280.604 354.844 280.828C355.068 281.047 355.18 281.312 355.18 281.623C355.18 281.831 355.127 282.023 355.021 282.197C354.918 282.367 354.782 282.504 354.612 282.606C354.441 282.708 354.252 282.759 354.043 282.759ZM361.667 289.004V287.731L365.604 283.652C366.025 283.208 366.371 282.82 366.644 282.487C366.921 282.15 367.127 281.83 367.264 281.527C367.4 281.223 367.468 280.902 367.468 280.561C367.468 280.174 367.377 279.841 367.195 279.561C367.014 279.277 366.765 279.059 366.451 278.907C366.137 278.752 365.782 278.674 365.389 278.674C364.972 278.674 364.608 278.759 364.298 278.93C363.987 279.1 363.748 279.341 363.582 279.652C363.415 279.962 363.332 280.326 363.332 280.742H361.656C361.656 280.034 361.818 279.415 362.144 278.884C362.47 278.354 362.917 277.943 363.485 277.652C364.053 277.356 364.699 277.208 365.423 277.208C366.154 277.208 366.798 277.354 367.354 277.646C367.915 277.934 368.353 278.328 368.667 278.828C368.981 279.324 369.139 279.884 369.139 280.509C369.139 280.941 369.057 281.364 368.894 281.777C368.735 282.189 368.457 282.65 368.059 283.157C367.661 283.661 367.108 284.273 366.4 284.992L364.087 287.413V287.498H369.326V289.004H361.667ZM370.985 286.731V285.311L376.014 277.367H377.133V279.458H376.423L372.826 285.152V285.242H379.718V286.731H370.985ZM376.502 289.004V286.299L376.514 285.652V277.367H378.178V289.004H376.502ZM382.403 289.112C382.092 289.112 381.825 289.002 381.602 288.782C381.378 288.559 381.266 288.29 381.266 287.975C381.266 287.665 381.378 287.4 381.602 287.18C381.825 286.956 382.092 286.845 382.403 286.845C382.713 286.845 382.98 286.956 383.204 287.18C383.427 287.4 383.539 287.665 383.539 287.975C383.539 288.184 383.486 288.375 383.38 288.549C383.278 288.72 383.141 288.856 382.971 288.958C382.8 289.061 382.611 289.112 382.403 289.112ZM389.521 277.208C390.04 277.212 390.551 277.307 391.055 277.492C391.558 277.678 392.013 277.981 392.418 278.402C392.827 278.822 393.153 279.39 393.396 280.106C393.642 280.818 393.767 281.705 393.771 282.765C393.771 283.784 393.668 284.691 393.464 285.487C393.259 286.278 392.966 286.947 392.583 287.492C392.204 288.038 391.744 288.453 391.202 288.737C390.661 289.021 390.051 289.163 389.373 289.163C388.68 289.163 388.064 289.027 387.526 288.754C386.988 288.481 386.551 288.104 386.214 287.623C385.877 287.138 385.666 286.581 385.583 285.953H387.316C387.43 286.453 387.661 286.858 388.009 287.169C388.362 287.475 388.816 287.629 389.373 287.629C390.225 287.629 390.89 287.258 391.367 286.515C391.844 285.769 392.085 284.727 392.089 283.39H391.998C391.801 283.716 391.555 283.996 391.259 284.231C390.968 284.466 390.64 284.648 390.276 284.777C389.913 284.905 389.524 284.97 389.112 284.97C388.441 284.97 387.831 284.805 387.282 284.475C386.733 284.146 386.295 283.693 385.969 283.117C385.644 282.542 385.481 281.884 385.481 281.146C385.481 280.411 385.648 279.744 385.981 279.146C386.318 278.547 386.788 278.074 387.39 277.725C387.996 277.373 388.706 277.201 389.521 277.208ZM389.526 278.686C389.083 278.686 388.683 278.795 388.327 279.015C387.975 279.231 387.697 279.525 387.492 279.896C387.288 280.263 387.185 280.672 387.185 281.123C387.185 281.574 387.284 281.983 387.481 282.35C387.682 282.714 387.954 283.004 388.299 283.22C388.648 283.432 389.045 283.538 389.492 283.538C389.826 283.538 390.136 283.473 390.424 283.345C390.712 283.216 390.964 283.038 391.18 282.811C391.396 282.58 391.564 282.318 391.685 282.027C391.807 281.735 391.867 281.428 391.867 281.106C391.867 280.678 391.765 280.28 391.56 279.913C391.36 279.545 391.083 279.25 390.731 279.027C390.379 278.799 389.977 278.686 389.526 278.686ZM401.897 286.822V286.208C401.897 285.769 401.988 285.367 402.17 285.004C402.355 284.636 402.624 284.343 402.977 284.123C403.333 283.9 403.763 283.788 404.266 283.788C404.782 283.788 405.213 283.898 405.562 284.117C405.91 284.337 406.174 284.631 406.352 284.998C406.533 285.366 406.624 285.769 406.624 286.208V286.822C406.624 287.261 406.533 287.665 406.352 288.032C406.17 288.396 405.903 288.689 405.55 288.913C405.202 289.133 404.774 289.242 404.266 289.242C403.755 289.242 403.323 289.133 402.971 288.913C402.619 288.689 402.352 288.396 402.17 288.032C401.988 287.665 401.897 287.261 401.897 286.822ZM403.221 286.208V286.822C403.221 287.148 403.299 287.443 403.454 287.708C403.609 287.973 403.88 288.106 404.266 288.106C404.649 288.106 404.916 287.973 405.067 287.708C405.219 287.443 405.295 287.148 405.295 286.822V286.208C405.295 285.883 405.221 285.587 405.073 285.322C404.929 285.057 404.66 284.924 404.266 284.924C403.888 284.924 403.619 285.057 403.46 285.322C403.3 285.587 403.221 285.883 403.221 286.208ZM396.045 280.163V279.549C396.045 279.11 396.136 278.706 396.317 278.339C396.503 277.972 396.772 277.678 397.124 277.458C397.48 277.239 397.91 277.129 398.414 277.129C398.929 277.129 399.361 277.239 399.71 277.458C400.058 277.678 400.321 277.972 400.499 278.339C400.677 278.706 400.766 279.11 400.766 279.549V280.163C400.766 280.602 400.675 281.006 400.494 281.373C400.316 281.737 400.05 282.03 399.698 282.254C399.35 282.473 398.922 282.583 398.414 282.583C397.899 282.583 397.465 282.473 397.113 282.254C396.764 282.03 396.499 281.737 396.317 281.373C396.136 281.006 396.045 280.602 396.045 280.163ZM397.374 279.549V280.163C397.374 280.489 397.45 280.784 397.602 281.049C397.757 281.314 398.028 281.447 398.414 281.447C398.793 281.447 399.058 281.314 399.21 281.049C399.365 280.784 399.442 280.489 399.442 280.163V279.549C399.442 279.223 399.369 278.928 399.221 278.663C399.073 278.398 398.804 278.265 398.414 278.265C398.035 278.265 397.766 278.398 397.607 278.663C397.452 278.928 397.374 279.223 397.374 279.549ZM396.585 289.004L404.585 277.367H405.942L397.942 289.004H396.585Z" fill="black"/>
<path d="M19.7382 278.603H21.4995V286.257C21.4995 287.071 21.3082 287.793 20.9257 288.421C20.5431 289.046 20.0052 289.539 19.312 289.899C18.6189 290.255 17.8064 290.433 16.8745 290.433C15.9465 290.433 15.1359 290.255 14.4427 289.899C13.7495 289.539 13.2117 289.046 12.8291 288.421C12.4465 287.793 12.2552 287.071 12.2552 286.257V278.603H14.0109V286.115C14.0109 286.641 14.1264 287.109 14.3575 287.518C14.5923 287.927 14.9238 288.249 15.3518 288.484C15.7798 288.715 16.2874 288.83 16.8745 288.83C17.4654 288.83 17.9749 288.715 18.4029 288.484C18.8348 288.249 19.1643 287.927 19.3916 287.518C19.6226 287.109 19.7382 286.641 19.7382 286.115V278.603ZM25.6146 285.058V290.24H23.9157V281.512H25.5464V282.933H25.6544C25.8551 282.471 26.1695 282.099 26.5975 281.819C27.0294 281.539 27.5729 281.399 28.2282 281.399C28.8229 281.399 29.3438 281.524 29.7907 281.774C30.2377 282.02 30.5843 282.387 30.8305 282.876C31.0767 283.365 31.1998 283.969 31.1998 284.688V290.24H29.501V284.893C29.501 284.26 29.3362 283.766 29.0066 283.41C28.6771 283.05 28.2244 282.87 27.6487 282.87C27.2547 282.87 26.9044 282.955 26.5975 283.126C26.2945 283.296 26.054 283.546 25.876 283.876C25.7017 284.202 25.6146 284.596 25.6146 285.058ZM36.018 290.433C35.465 290.433 34.965 290.33 34.518 290.126C34.071 289.918 33.7169 289.616 33.4555 289.222C33.1979 288.829 33.0691 288.346 33.0691 287.774C33.0691 287.281 33.1638 286.876 33.3532 286.558C33.5426 286.24 33.7983 285.988 34.1203 285.802C34.4422 285.616 34.8021 285.476 35.1998 285.382C35.5975 285.287 36.0028 285.215 36.4157 285.166C36.9385 285.105 37.3627 285.056 37.6885 285.018C38.0142 284.976 38.251 284.91 38.3987 284.819C38.5464 284.728 38.6203 284.58 38.6203 284.376V284.336C38.6203 283.84 38.4801 283.455 38.1998 283.183C37.9233 282.91 37.5104 282.774 36.9612 282.774C36.3892 282.774 35.9385 282.9 35.6089 283.154C35.2832 283.404 35.0578 283.683 34.9328 283.99L33.3362 283.626C33.5256 283.096 33.8021 282.668 34.1657 282.342C34.5332 282.012 34.9555 281.774 35.4328 281.626C35.91 281.474 36.4119 281.399 36.9385 281.399C37.2869 281.399 37.6563 281.44 38.0464 281.524C38.4403 281.603 38.8078 281.751 39.1487 281.967C39.4934 282.183 39.7756 282.491 39.9953 282.893C40.215 283.291 40.3248 283.808 40.3248 284.444V290.24H38.6657V289.046H38.5975C38.4877 289.266 38.3229 289.482 38.1032 289.694C37.8835 289.906 37.6013 290.082 37.2566 290.222C36.9119 290.363 36.4991 290.433 36.018 290.433ZM36.3873 289.069C36.857 289.069 37.2585 288.976 37.5919 288.791C37.929 288.605 38.1847 288.363 38.3589 288.063C38.5369 287.76 38.626 287.436 38.626 287.092V285.967C38.5653 286.027 38.4479 286.084 38.2737 286.137C38.1032 286.186 37.9082 286.23 37.6885 286.268C37.4688 286.302 37.2547 286.334 37.0464 286.365C36.8381 286.391 36.6638 286.414 36.5237 286.433C36.1941 286.474 35.893 286.544 35.6203 286.643C35.3513 286.741 35.1354 286.883 34.9725 287.069C34.8135 287.251 34.7339 287.493 34.7339 287.796C34.7339 288.217 34.8892 288.535 35.1998 288.751C35.5104 288.963 35.9063 289.069 36.3873 289.069ZM46.741 281.512V282.876H41.8092V281.512H46.741ZM43.1615 290.24V280.501C43.1615 279.955 43.2808 279.503 43.5194 279.143C43.7581 278.779 44.0743 278.508 44.4683 278.33C44.8622 278.149 45.2903 278.058 45.7524 278.058C46.0933 278.058 46.385 278.086 46.6274 278.143C46.8698 278.196 47.0497 278.245 47.1671 278.291L46.7694 279.666C46.6899 279.643 46.5876 279.616 46.4626 279.586C46.3376 279.552 46.1861 279.535 46.0081 279.535C45.5952 279.535 45.2997 279.637 45.1217 279.842C44.9475 280.046 44.8603 280.342 44.8603 280.728V290.24H43.1615ZM52.6473 281.512V282.876H47.7154V281.512H52.6473ZM49.0677 290.24V280.501C49.0677 279.955 49.187 279.503 49.4257 279.143C49.6643 278.779 49.9806 278.508 50.3745 278.33C50.7685 278.149 51.1965 278.058 51.6586 278.058C51.9995 278.058 52.2912 278.086 52.5336 278.143C52.776 278.196 52.956 278.245 53.0734 278.291L52.6757 279.666C52.5961 279.643 52.4939 279.616 52.3689 279.586C52.2439 279.552 52.0923 279.535 51.9143 279.535C51.5014 279.535 51.206 279.637 51.0279 279.842C50.8537 280.046 50.7666 280.342 50.7666 280.728V290.24H49.0677ZM54.4001 290.24V281.512H56.099V290.24H54.4001ZM55.2581 280.166C54.9626 280.166 54.7088 280.067 54.4967 279.87C54.2884 279.669 54.1842 279.431 54.1842 279.154C54.1842 278.874 54.2884 278.635 54.4967 278.438C54.7088 278.238 54.9626 278.137 55.2581 278.137C55.5535 278.137 55.8054 278.238 56.0137 278.438C56.2259 278.635 56.3319 278.874 56.3319 279.154C56.3319 279.431 56.2259 279.669 56.0137 279.87C55.8054 280.067 55.5535 280.166 55.2581 280.166ZM60.0833 278.603V290.24H58.3845V278.603H60.0833ZM62.3689 290.24V281.512H64.0677V290.24H62.3689ZM63.2268 280.166C62.9314 280.166 62.6776 280.067 62.4654 279.87C62.2571 279.669 62.1529 279.431 62.1529 279.154C62.1529 278.874 62.2571 278.635 62.4654 278.438C62.6776 278.238 62.9314 278.137 63.2268 278.137C63.5223 278.137 63.7742 278.238 63.9825 278.438C64.1946 278.635 64.3007 278.874 64.3007 279.154C64.3007 279.431 64.1946 279.669 63.9825 279.87C63.7742 280.067 63.5223 280.166 63.2268 280.166ZM68.893 290.433C68.34 290.433 67.84 290.33 67.393 290.126C66.946 289.918 66.5919 289.616 66.3305 289.222C66.0729 288.829 65.9441 288.346 65.9441 287.774C65.9441 287.281 66.0388 286.876 66.2282 286.558C66.4176 286.24 66.6733 285.988 66.9953 285.802C67.3172 285.616 67.6771 285.476 68.0748 285.382C68.4725 285.287 68.8778 285.215 69.2907 285.166C69.8135 285.105 70.2377 285.056 70.5635 285.018C70.8892 284.976 71.126 284.91 71.2737 284.819C71.4214 284.728 71.4953 284.58 71.4953 284.376V284.336C71.4953 283.84 71.3551 283.455 71.0748 283.183C70.7983 282.91 70.3854 282.774 69.8362 282.774C69.2642 282.774 68.8135 282.9 68.4839 283.154C68.1582 283.404 67.9328 283.683 67.8078 283.99L66.2112 283.626C66.4006 283.096 66.6771 282.668 67.0407 282.342C67.4082 282.012 67.8305 281.774 68.3078 281.626C68.785 281.474 69.2869 281.399 69.8135 281.399C70.1619 281.399 70.5313 281.44 70.9214 281.524C71.3153 281.603 71.6828 281.751 72.0237 281.967C72.3684 282.183 72.6506 282.491 72.8703 282.893C73.09 283.291 73.1998 283.808 73.1998 284.444V290.24H71.5407V289.046H71.4725C71.3627 289.266 71.1979 289.482 70.9782 289.694C70.7585 289.906 70.4763 290.082 70.1316 290.222C69.7869 290.363 69.3741 290.433 68.893 290.433ZM69.2623 289.069C69.732 289.069 70.1335 288.976 70.4669 288.791C70.804 288.605 71.0597 288.363 71.2339 288.063C71.4119 287.76 71.501 287.436 71.501 287.092V285.967C71.4403 286.027 71.3229 286.084 71.1487 286.137C70.9782 286.186 70.7832 286.23 70.5635 286.268C70.3438 286.302 70.1297 286.334 69.9214 286.365C69.7131 286.391 69.5388 286.414 69.3987 286.433C69.0691 286.474 68.768 286.544 68.4953 286.643C68.2263 286.741 68.0104 286.883 67.8475 287.069C67.6885 287.251 67.6089 287.493 67.6089 287.796C67.6089 288.217 67.7642 288.535 68.0748 288.751C68.3854 288.963 68.7813 289.069 69.2623 289.069ZM79.5365 281.512V282.876H74.7694V281.512H79.5365ZM76.0478 279.421H77.7467V287.677C77.7467 288.007 77.7959 288.255 77.8944 288.421C77.9929 288.584 78.1198 288.696 78.2751 288.757C78.4342 288.813 78.6065 288.842 78.7921 288.842C78.9285 288.842 79.0478 288.832 79.1501 288.813C79.2524 288.794 79.3319 288.779 79.3887 288.768L79.6956 290.171C79.5971 290.209 79.4569 290.247 79.2751 290.285C79.0933 290.327 78.866 290.349 78.5933 290.353C78.1463 290.361 77.7296 290.281 77.3433 290.115C76.9569 289.948 76.6444 289.69 76.4058 289.342C76.1671 288.993 76.0478 288.556 76.0478 288.029V279.421ZM85.0833 290.416C84.2235 290.416 83.483 290.232 82.8617 289.865C82.2443 289.493 81.7671 288.972 81.4299 288.302C81.0966 287.628 80.9299 286.838 80.9299 285.933C80.9299 285.039 81.0966 284.251 81.4299 283.569C81.7671 282.887 82.2367 282.355 82.839 281.972C83.4451 281.59 84.1534 281.399 84.964 281.399C85.4564 281.399 85.9337 281.48 86.3958 281.643C86.858 281.806 87.2727 282.061 87.6402 282.41C88.0076 282.758 88.2974 283.211 88.5095 283.768C88.7216 284.321 88.8277 284.993 88.8277 285.785V286.387H81.8902V285.115H87.1629C87.1629 284.668 87.072 284.272 86.8902 283.927C86.7083 283.579 86.4527 283.304 86.1231 283.103C85.7974 282.902 85.4148 282.802 84.9754 282.802C84.4981 282.802 84.0814 282.919 83.7254 283.154C83.3731 283.385 83.1004 283.688 82.9072 284.063C82.7178 284.435 82.6231 284.838 82.6231 285.274V286.268C82.6231 286.851 82.7254 287.347 82.9299 287.757C83.1383 288.166 83.428 288.478 83.7992 288.694C84.1705 288.906 84.6042 289.012 85.1004 289.012C85.4224 289.012 85.7159 288.967 85.9811 288.876C86.2462 288.781 86.4754 288.641 86.6686 288.455C86.8618 288.27 87.0095 288.041 87.1118 287.768L88.7197 288.058C88.5909 288.531 88.3599 288.946 88.0265 289.302C87.697 289.654 87.2822 289.929 86.7822 290.126C86.286 290.319 85.7197 290.416 85.0833 290.416ZM93.9796 290.41C93.2751 290.41 92.6463 290.23 92.0933 289.87C91.544 289.507 91.1122 288.99 90.7978 288.319C90.4872 287.645 90.3319 286.836 90.3319 285.893C90.3319 284.95 90.4891 284.143 90.8035 283.472C91.1217 282.802 91.5573 282.289 92.1103 281.933C92.6634 281.577 93.2903 281.399 93.991 281.399C94.5327 281.399 94.9683 281.49 95.2978 281.671C95.6312 281.849 95.8887 282.058 96.0706 282.296C96.2562 282.535 96.4001 282.745 96.5024 282.927H96.6046V278.603H98.3035V290.24H96.6444V288.882H96.5024C96.4001 289.067 96.2524 289.279 96.0592 289.518C95.8698 289.757 95.6084 289.965 95.2751 290.143C94.9418 290.321 94.51 290.41 93.9796 290.41ZM94.3546 288.961C94.8433 288.961 95.2562 288.832 95.5933 288.575C95.9342 288.313 96.1918 287.952 96.366 287.49C96.544 287.027 96.6331 286.49 96.6331 285.876C96.6331 285.27 96.5459 284.74 96.3717 284.285C96.1975 283.83 95.9418 283.476 95.6046 283.222C95.2675 282.969 94.8509 282.842 94.3546 282.842C93.8433 282.842 93.4171 282.974 93.0762 283.24C92.7353 283.505 92.4778 283.866 92.3035 284.325C92.1331 284.783 92.0478 285.3 92.0478 285.876C92.0478 286.459 92.135 286.984 92.3092 287.45C92.4834 287.916 92.741 288.285 93.0819 288.558C93.4266 288.827 93.8509 288.961 94.3546 288.961ZM105.16 278.058L101.41 291.99H99.893L103.643 278.058H105.16ZM107.723 290.24H105.859L110.046 278.603H112.075L116.262 290.24H114.399L111.109 280.717H111.018L107.723 290.24ZM108.035 285.683H114.08V287.16H108.035V285.683ZM121.333 281.512V282.876H116.566V281.512H121.333ZM117.845 279.421H119.544V287.677C119.544 288.007 119.593 288.255 119.691 288.421C119.79 288.584 119.917 288.696 120.072 288.757C120.231 288.813 120.403 288.842 120.589 288.842C120.725 288.842 120.845 288.832 120.947 288.813C121.049 288.794 121.129 288.779 121.186 288.768L121.492 290.171C121.394 290.209 121.254 290.247 121.072 290.285C120.89 290.327 120.663 290.349 120.39 290.353C119.943 290.361 119.527 290.281 119.14 290.115C118.754 289.948 118.441 289.69 118.203 289.342C117.964 288.993 117.845 288.556 117.845 288.029V279.421ZM125.099 285.058V290.24H123.4V278.603H125.076V282.933H125.184C125.389 282.463 125.701 282.09 126.122 281.813C126.542 281.537 127.091 281.399 127.769 281.399C128.368 281.399 128.891 281.522 129.338 281.768C129.788 282.014 130.137 282.382 130.383 282.87C130.633 283.355 130.758 283.961 130.758 284.688V290.24H129.059V284.893C129.059 284.253 128.894 283.757 128.565 283.404C128.235 283.048 127.777 282.87 127.19 282.87C126.788 282.87 126.429 282.955 126.11 283.126C125.796 283.296 125.548 283.546 125.366 283.876C125.188 284.202 125.099 284.596 125.099 285.058ZM136.786 290.416C135.927 290.416 135.186 290.232 134.565 289.865C133.947 289.493 133.47 288.972 133.133 288.302C132.8 287.628 132.633 286.838 132.633 285.933C132.633 285.039 132.8 284.251 133.133 283.569C133.47 282.887 133.94 282.355 134.542 281.972C135.148 281.59 135.857 281.399 136.667 281.399C137.16 281.399 137.637 281.48 138.099 281.643C138.561 281.806 138.976 282.061 139.343 282.41C139.711 282.758 140 283.211 140.213 283.768C140.425 284.321 140.531 284.993 140.531 285.785V286.387H133.593V285.115H138.866C138.866 284.668 138.775 284.272 138.593 283.927C138.411 283.579 138.156 283.304 137.826 283.103C137.5 282.902 137.118 282.802 136.679 282.802C136.201 282.802 135.785 282.919 135.429 283.154C135.076 283.385 134.804 283.688 134.61 284.063C134.421 284.435 134.326 284.838 134.326 285.274V286.268C134.326 286.851 134.429 287.347 134.633 287.757C134.841 288.166 135.131 288.478 135.502 288.694C135.874 288.906 136.307 289.012 136.804 289.012C137.125 289.012 137.419 288.967 137.684 288.876C137.949 288.781 138.179 288.641 138.372 288.455C138.565 288.27 138.713 288.041 138.815 287.768L140.423 288.058C140.294 288.531 140.063 288.946 139.73 289.302C139.4 289.654 138.985 289.929 138.485 290.126C137.989 290.319 137.423 290.416 136.786 290.416ZM142.416 290.24V281.512H144.115V290.24H142.416ZM143.274 280.166C142.978 280.166 142.724 280.067 142.512 279.87C142.304 279.669 142.2 279.431 142.2 279.154C142.2 278.874 142.304 278.635 142.512 278.438C142.724 278.238 142.978 278.137 143.274 278.137C143.569 278.137 143.821 278.238 144.029 278.438C144.241 278.635 144.348 278.874 144.348 279.154C144.348 279.431 144.241 279.669 144.029 279.87C143.821 280.067 143.569 280.166 143.274 280.166ZM152.94 283.643L151.4 283.916C151.336 283.719 151.233 283.531 151.093 283.353C150.957 283.175 150.771 283.029 150.536 282.916C150.302 282.802 150.008 282.745 149.656 282.745C149.175 282.745 148.773 282.853 148.451 283.069C148.129 283.281 147.968 283.556 147.968 283.893C147.968 284.185 148.076 284.419 148.292 284.597C148.508 284.775 148.857 284.921 149.338 285.035L150.724 285.353C151.527 285.539 152.125 285.825 152.519 286.211C152.913 286.597 153.11 287.099 153.11 287.717C153.11 288.24 152.959 288.705 152.656 289.115C152.357 289.52 151.938 289.838 151.4 290.069C150.866 290.3 150.247 290.416 149.542 290.416C148.565 290.416 147.768 290.207 147.15 289.791C146.533 289.37 146.154 288.774 146.014 288.001L147.656 287.751C147.758 288.179 147.968 288.503 148.286 288.722C148.605 288.938 149.019 289.046 149.531 289.046C150.088 289.046 150.533 288.931 150.866 288.7C151.199 288.465 151.366 288.179 151.366 287.842C151.366 287.569 151.264 287.34 151.059 287.154C150.858 286.969 150.55 286.829 150.133 286.734L148.656 286.41C147.841 286.224 147.239 285.929 146.849 285.524C146.463 285.118 146.269 284.605 146.269 283.984C146.269 283.469 146.413 283.018 146.701 282.632C146.989 282.245 147.387 281.944 147.894 281.728C148.402 281.508 148.983 281.399 149.639 281.399C150.582 281.399 151.324 281.603 151.866 282.012C152.408 282.418 152.766 282.961 152.94 283.643ZM159.052 281.512V282.876H154.285V281.512H159.052ZM155.563 279.421H157.262V287.677C157.262 288.007 157.312 288.255 157.41 288.421C157.509 288.584 157.635 288.696 157.791 288.757C157.95 288.813 158.122 288.842 158.308 288.842C158.444 288.842 158.563 288.832 158.666 288.813C158.768 288.794 158.848 288.779 158.904 288.768L159.211 290.171C159.113 290.209 158.973 290.247 158.791 290.285C158.609 290.327 158.382 290.349 158.109 290.353C157.662 290.361 157.245 290.281 156.859 290.115C156.473 289.948 156.16 289.69 155.921 289.342C155.683 288.993 155.563 288.556 155.563 288.029V279.421ZM162.051 290.347C161.74 290.347 161.473 290.238 161.25 290.018C161.026 289.794 160.914 289.525 160.914 289.211C160.914 288.9 161.026 288.635 161.25 288.416C161.473 288.192 161.74 288.08 162.051 288.08C162.361 288.08 162.628 288.192 162.852 288.416C163.075 288.635 163.187 288.9 163.187 289.211C163.187 289.419 163.134 289.611 163.028 289.785C162.926 289.955 162.789 290.092 162.619 290.194C162.448 290.296 162.259 290.347 162.051 290.347ZM162.051 283.995C161.74 283.995 161.473 283.883 161.25 283.66C161.026 283.436 160.914 283.169 160.914 282.859C160.914 282.548 161.026 282.283 161.25 282.063C161.473 281.84 161.74 281.728 162.051 281.728C162.361 281.728 162.628 281.84 162.852 282.063C163.075 282.283 163.187 282.548 163.187 282.859C163.187 283.067 163.134 283.258 163.028 283.433C162.926 283.603 162.789 283.74 162.619 283.842C162.448 283.944 162.259 283.995 162.051 283.995ZM174.089 278.603V290.24H172.328V280.365H172.259L169.475 282.183V280.501L172.379 278.603H174.089ZM181.078 290.399C180.366 290.399 179.725 290.262 179.157 289.99C178.593 289.713 178.142 289.334 177.805 288.853C177.468 288.372 177.288 287.823 177.265 287.205H178.97C179.011 287.705 179.233 288.116 179.634 288.438C180.036 288.76 180.517 288.921 181.078 288.921C181.525 288.921 181.92 288.819 182.265 288.615C182.614 288.406 182.886 288.12 183.083 287.757C183.284 287.393 183.384 286.978 183.384 286.512C183.384 286.039 183.282 285.616 183.078 285.245C182.873 284.874 182.591 284.582 182.231 284.37C181.875 284.158 181.466 284.05 181.004 284.046C180.652 284.046 180.297 284.107 179.941 284.228C179.585 284.349 179.297 284.508 179.078 284.705L177.47 284.467L178.123 278.603H184.521V280.109H179.583L179.214 283.365H179.282C179.509 283.145 179.811 282.961 180.186 282.813C180.564 282.666 180.97 282.592 181.402 282.592C182.11 282.592 182.741 282.76 183.294 283.097C183.85 283.435 184.288 283.895 184.606 284.478C184.928 285.058 185.087 285.724 185.083 286.478C185.087 287.232 184.917 287.904 184.572 288.495C184.231 289.086 183.758 289.552 183.152 289.893C182.549 290.23 181.858 290.399 181.078 290.399ZM187.879 290.347C187.568 290.347 187.301 290.238 187.078 290.018C186.854 289.794 186.742 289.525 186.742 289.211C186.742 288.9 186.854 288.635 187.078 288.416C187.301 288.192 187.568 288.08 187.879 288.08C188.189 288.08 188.456 288.192 188.68 288.416C188.903 288.635 189.015 288.9 189.015 289.211C189.015 289.419 188.962 289.611 188.856 289.785C188.754 289.955 188.617 290.092 188.447 290.194C188.277 290.296 188.087 290.347 187.879 290.347ZM194.909 290.399C194.39 290.391 193.878 290.296 193.375 290.115C192.875 289.933 192.42 289.63 192.011 289.205C191.602 288.781 191.274 288.211 191.028 287.495C190.786 286.779 190.664 285.885 190.664 284.813C190.664 283.798 190.765 282.897 190.965 282.109C191.17 281.321 191.464 280.656 191.846 280.115C192.229 279.569 192.691 279.154 193.232 278.87C193.774 278.586 194.382 278.444 195.056 278.444C195.75 278.444 196.365 278.58 196.903 278.853C197.441 279.126 197.876 279.503 198.21 279.984C198.547 280.465 198.761 281.012 198.852 281.626H197.119C197.001 281.141 196.768 280.745 196.42 280.438C196.072 280.132 195.617 279.978 195.056 279.978C194.204 279.978 193.539 280.349 193.062 281.092C192.589 281.834 192.35 282.866 192.346 284.188H192.431C192.632 283.859 192.878 283.579 193.17 283.347C193.465 283.113 193.795 282.933 194.159 282.808C194.526 282.679 194.912 282.615 195.318 282.615C195.992 282.615 196.602 282.779 197.147 283.109C197.697 283.435 198.134 283.885 198.46 284.461C198.786 285.037 198.948 285.696 198.948 286.438C198.948 287.181 198.78 287.853 198.443 288.455C198.109 289.058 197.64 289.535 197.034 289.887C196.428 290.236 195.719 290.406 194.909 290.399ZM194.903 288.921C195.35 288.921 195.75 288.811 196.102 288.592C196.454 288.372 196.732 288.077 196.937 287.705C197.142 287.334 197.244 286.919 197.244 286.461C197.244 286.014 197.143 285.607 196.943 285.24C196.746 284.872 196.473 284.58 196.125 284.365C195.78 284.149 195.386 284.041 194.943 284.041C194.606 284.041 194.293 284.105 194.005 284.234C193.721 284.363 193.471 284.541 193.255 284.768C193.039 284.995 192.869 285.257 192.744 285.552C192.623 285.844 192.562 286.152 192.562 286.478C192.562 286.914 192.662 287.317 192.863 287.688C193.068 288.06 193.346 288.359 193.698 288.586C194.054 288.81 194.456 288.921 194.903 288.921ZM207.092 288.058V287.444C207.092 287.005 207.183 286.603 207.365 286.24C207.55 285.872 207.819 285.579 208.171 285.359C208.527 285.135 208.957 285.024 209.461 285.024C209.976 285.024 210.408 285.133 210.757 285.353C211.105 285.573 211.368 285.866 211.546 286.234C211.728 286.601 211.819 287.005 211.819 287.444V288.058C211.819 288.497 211.728 288.9 211.546 289.268C211.365 289.632 211.098 289.925 210.745 290.149C210.397 290.368 209.969 290.478 209.461 290.478C208.95 290.478 208.518 290.368 208.166 290.149C207.813 289.925 207.546 289.632 207.365 289.268C207.183 288.9 207.092 288.497 207.092 288.058ZM208.416 287.444V288.058C208.416 288.383 208.493 288.679 208.649 288.944C208.804 289.209 209.075 289.342 209.461 289.342C209.844 289.342 210.111 289.209 210.262 288.944C210.414 288.679 210.49 288.383 210.49 288.058V287.444C210.49 287.118 210.416 286.823 210.268 286.558C210.124 286.293 209.855 286.16 209.461 286.16C209.082 286.16 208.813 286.293 208.654 286.558C208.495 286.823 208.416 287.118 208.416 287.444ZM201.24 281.399V280.785C201.24 280.346 201.33 279.942 201.512 279.575C201.698 279.207 201.967 278.914 202.319 278.694C202.675 278.474 203.105 278.365 203.609 278.365C204.124 278.365 204.556 278.474 204.904 278.694C205.253 278.914 205.516 279.207 205.694 279.575C205.872 279.942 205.961 280.346 205.961 280.785V281.399C205.961 281.838 205.87 282.241 205.688 282.609C205.51 282.972 205.245 283.266 204.893 283.49C204.545 283.709 204.116 283.819 203.609 283.819C203.094 283.819 202.66 283.709 202.308 283.49C201.959 283.266 201.694 282.972 201.512 282.609C201.33 282.241 201.24 281.838 201.24 281.399ZM202.569 280.785V281.399C202.569 281.724 202.645 282.02 202.796 282.285C202.952 282.55 203.223 282.683 203.609 282.683C203.988 282.683 204.253 282.55 204.404 282.285C204.56 282.02 204.637 281.724 204.637 281.399V280.785C204.637 280.459 204.563 280.164 204.416 279.899C204.268 279.633 203.999 279.501 203.609 279.501C203.23 279.501 202.961 279.633 202.802 279.899C202.647 280.164 202.569 280.459 202.569 280.785ZM201.779 290.24L209.779 278.603H211.137L203.137 290.24H201.779Z" fill="black"/>
<path d="M34.0521 97.5001V85.8638H35.8078V90.9206H41.6089V85.8638H43.3703V97.5001H41.6089V92.4263H35.8078V97.5001H34.0521ZM45.7907 97.5001V88.7728H47.4896V97.5001H45.7907ZM46.6487 87.4263C46.3532 87.4263 46.0994 87.3278 45.8873 87.1308C45.679 86.93 45.5748 86.6914 45.5748 86.4149C45.5748 86.1346 45.679 85.896 45.8873 85.699C46.0994 85.4982 46.3532 85.3978 46.6487 85.3978C46.9441 85.3978 47.196 85.4982 47.4044 85.699C47.6165 85.896 47.7225 86.1346 47.7225 86.4149C47.7225 86.6914 47.6165 86.93 47.4044 87.1308C47.196 87.3278 46.9441 87.4263 46.6487 87.4263ZM51.474 92.3183V97.5001H49.7751V88.7728H51.4058V90.1933H51.5137C51.7145 89.7312 52.0289 89.36 52.4569 89.0797C52.8887 88.7994 53.4323 88.6592 54.0876 88.6592C54.6823 88.6592 55.2031 88.7842 55.6501 89.0342C56.0971 89.2804 56.4437 89.6478 56.6899 90.1365C56.9361 90.6251 57.0592 91.2293 57.0592 91.949V97.5001H55.3603V92.1535C55.3603 91.521 55.1956 91.0266 54.866 90.6706C54.5365 90.3107 54.0838 90.1308 53.5081 90.1308C53.1141 90.1308 52.7637 90.216 52.4569 90.3865C52.1539 90.5569 51.9134 90.8069 51.7353 91.1365C51.5611 91.4622 51.474 91.8562 51.474 92.3183ZM62.6046 97.6706C61.9001 97.6706 61.2713 97.4907 60.7183 97.1308C60.169 96.7672 59.7372 96.2501 59.4228 95.5797C59.1122 94.9054 58.9569 94.0967 58.9569 93.1535C58.9569 92.2103 59.1141 91.4035 59.4285 90.7331C59.7467 90.0626 60.1823 89.5494 60.7353 89.1933C61.2884 88.8372 61.9153 88.6592 62.616 88.6592C63.1577 88.6592 63.5933 88.7501 63.9228 88.9319C64.2562 89.11 64.5137 89.3183 64.6956 89.5569C64.8812 89.7956 65.0251 90.0058 65.1274 90.1876H65.2296V85.8638H66.9285V97.5001H65.2694V96.1422H65.1274C65.0251 96.3278 64.8774 96.5399 64.6842 96.7785C64.4948 97.0172 64.2334 97.2255 63.9001 97.4035C63.5668 97.5816 63.135 97.6706 62.6046 97.6706ZM62.9796 96.2217C63.4683 96.2217 63.8812 96.0929 64.2183 95.8353C64.5592 95.574 64.8168 95.2122 64.991 94.7501C65.169 94.288 65.2581 93.7501 65.2581 93.1365C65.2581 92.5304 65.1709 92.0001 64.9967 91.5456C64.8225 91.091 64.5668 90.7369 64.2296 90.4831C63.8925 90.2293 63.4759 90.1024 62.9796 90.1024C62.4683 90.1024 62.0421 90.235 61.7012 90.5001C61.3603 90.7653 61.1028 91.127 60.9285 91.5853C60.7581 92.0437 60.6728 92.5607 60.6728 93.1365C60.6728 93.7198 60.76 94.2444 60.9342 94.7103C61.1084 95.1763 61.366 95.5456 61.7069 95.8183C62.0516 96.0872 62.4759 96.2217 62.9796 96.2217ZM74.8816 93.8808V88.7728H76.5862V97.5001H74.9157V95.9888H74.8248C74.6241 96.4547 74.3021 96.8429 73.8589 97.1535C73.4195 97.4603 72.8722 97.6138 72.2169 97.6138C71.6563 97.6138 71.16 97.4907 70.7282 97.2444C70.3002 96.9944 69.9631 96.6251 69.7169 96.1365C69.4744 95.6478 69.3532 95.0437 69.3532 94.324V88.7728H71.0521V94.1194C71.0521 94.7141 71.2169 95.1876 71.5464 95.5399C71.876 95.8922 72.304 96.0683 72.8305 96.0683C73.1487 96.0683 73.465 95.9888 73.7794 95.8297C74.0975 95.6706 74.3608 95.43 74.5691 95.1081C74.7813 94.7861 74.8854 94.377 74.8816 93.8808ZM78.8689 97.5001V88.7728H80.5677V97.5001H78.8689ZM79.7268 87.4263C79.4314 87.4263 79.1776 87.3278 78.9654 87.1308C78.7571 86.93 78.6529 86.6914 78.6529 86.4149C78.6529 86.1346 78.7571 85.896 78.9654 85.699C79.1776 85.4982 79.4314 85.3978 79.7268 85.3978C80.0223 85.3978 80.2742 85.4982 80.4825 85.699C80.6946 85.896 80.8007 86.1346 80.8007 86.4149C80.8007 86.6914 80.6946 86.93 80.4825 87.1308C80.2742 87.3278 80.0223 87.4263 79.7268 87.4263ZM89.393 90.9035L87.8532 91.1763C87.7888 90.9793 87.6866 90.7918 87.5464 90.6138C87.41 90.4357 87.2244 90.2899 86.9896 90.1763C86.7547 90.0626 86.4612 90.0058 86.1089 90.0058C85.6278 90.0058 85.2263 90.1138 84.9044 90.3297C84.5824 90.5418 84.4214 90.8164 84.4214 91.1535C84.4214 91.4452 84.5294 91.68 84.7453 91.8581C84.9612 92.0361 85.3097 92.1819 85.7907 92.2956L87.1771 92.6138C87.9801 92.7994 88.5786 93.0853 88.9725 93.4717C89.3665 93.8581 89.5635 94.36 89.5635 94.9774C89.5635 95.5001 89.4119 95.966 89.1089 96.3751C88.8097 96.7804 88.3911 97.0986 87.8532 97.3297C87.3191 97.5607 86.6998 97.6763 85.9953 97.6763C85.018 97.6763 84.2207 97.4679 83.6032 97.0513C82.9858 96.6308 82.607 96.0342 82.4669 95.2615L84.1089 95.0115C84.2112 95.4395 84.4214 95.7634 84.7396 95.9831C85.0578 96.199 85.4725 96.3069 85.9839 96.3069C86.5407 96.3069 86.9858 96.1914 87.3191 95.9603C87.6525 95.7255 87.8191 95.4395 87.8191 95.1024C87.8191 94.8297 87.7169 94.6005 87.5123 94.4149C87.3116 94.2293 87.0028 94.0891 86.5862 93.9944L85.1089 93.6706C84.2945 93.485 83.6922 93.1895 83.3021 92.7842C82.9157 92.3789 82.7225 91.8657 82.7225 91.2444C82.7225 90.7293 82.8665 90.2785 83.1544 89.8922C83.4422 89.5058 83.84 89.2047 84.3475 88.9888C84.8551 88.7691 85.4366 88.6592 86.0919 88.6592C87.035 88.6592 87.7775 88.8638 88.3191 89.2728C88.8608 89.6782 89.2188 90.2217 89.393 90.9035ZM91.4314 97.5001V88.7728H93.062V90.1933H93.17C93.3518 89.7122 93.6492 89.3372 94.062 89.0683C94.4749 88.7956 94.9692 88.6592 95.545 88.6592C96.1283 88.6592 96.617 88.7956 97.0109 89.0683C97.4086 89.341 97.7022 89.716 97.8916 90.1933H97.9825C98.1908 89.7274 98.5223 89.3562 98.9768 89.0797C99.4314 88.7994 99.973 88.6592 100.602 88.6592C101.393 88.6592 102.039 88.9073 102.539 89.4035C103.043 89.8997 103.295 90.6478 103.295 91.6478V97.5001H101.596V91.8069C101.596 91.216 101.435 90.788 101.113 90.5228C100.791 90.2577 100.407 90.1251 99.9598 90.1251C99.4067 90.1251 98.9768 90.2956 98.67 90.6365C98.3632 90.9736 98.2098 91.4073 98.2098 91.9376V97.5001H96.5166V91.699C96.5166 91.2255 96.3689 90.8448 96.0734 90.5569C95.7779 90.2691 95.3935 90.1251 94.92 90.1251C94.598 90.1251 94.3007 90.2103 94.0279 90.3808C93.759 90.5475 93.5412 90.7804 93.3745 91.0797C93.2117 91.3789 93.1302 91.7255 93.1302 92.1194V97.5001H91.4314ZM106.691 97.6081C106.381 97.6081 106.114 97.4982 105.89 97.2785C105.667 97.055 105.555 96.7861 105.555 96.4717C105.555 96.1611 105.667 95.896 105.89 95.6763C106.114 95.4528 106.381 95.341 106.691 95.341C107.002 95.341 107.269 95.4528 107.492 95.6763C107.716 95.896 107.828 96.1611 107.828 96.4717C107.828 96.68 107.775 96.8713 107.669 97.0456C107.566 97.216 107.43 97.3524 107.259 97.4547C107.089 97.5569 106.9 97.6081 106.691 97.6081ZM106.691 91.2558C106.381 91.2558 106.114 91.1441 105.89 90.9206C105.667 90.6971 105.555 90.43 105.555 90.1194C105.555 89.8088 105.667 89.5437 105.89 89.324C106.114 89.1005 106.381 88.9888 106.691 88.9888C107.002 88.9888 107.269 89.1005 107.492 89.324C107.716 89.5437 107.828 89.8088 107.828 90.1194C107.828 90.3278 107.775 90.5191 107.669 90.6933C107.566 90.8638 107.43 91.0001 107.259 91.1024C107.089 91.2047 106.9 91.2558 106.691 91.2558ZM118.73 85.8638V97.5001H116.968V87.6251H116.9L114.116 89.4433V87.7615L117.019 85.8638H118.73ZM125.718 97.6592C125.006 97.6592 124.366 97.5228 123.798 97.2501C123.233 96.9736 122.783 96.5948 122.446 96.1138C122.108 95.6327 121.929 95.0835 121.906 94.466H123.61C123.652 94.966 123.874 95.377 124.275 95.699C124.677 96.021 125.158 96.1819 125.718 96.1819C126.165 96.1819 126.561 96.0797 126.906 95.8751C127.254 95.6668 127.527 95.3808 127.724 95.0172C127.925 94.6535 128.025 94.2388 128.025 93.7728C128.025 93.2994 127.923 92.877 127.718 92.5058C127.514 92.1346 127.232 91.8429 126.872 91.6308C126.516 91.4187 126.107 91.3107 125.644 91.3069C125.292 91.3069 124.938 91.3675 124.582 91.4888C124.226 91.61 123.938 91.7691 123.718 91.966L122.11 91.7274L122.764 85.8638H129.161V87.3694H124.224L123.855 90.6251H123.923C124.15 90.4054 124.451 90.2217 124.826 90.074C125.205 89.9263 125.61 89.8524 126.042 89.8524C126.75 89.8524 127.381 90.021 127.934 90.3581C128.491 90.6952 128.929 91.1554 129.247 91.7388C129.569 92.3183 129.728 92.985 129.724 93.7388C129.728 94.4925 129.557 95.1649 129.213 95.7558C128.872 96.3467 128.398 96.8126 127.792 97.1535C127.19 97.4907 126.499 97.6592 125.718 97.6592ZM132.519 97.6081C132.209 97.6081 131.942 97.4982 131.718 97.2785C131.495 97.055 131.383 96.7861 131.383 96.4717C131.383 96.1611 131.495 95.896 131.718 95.6763C131.942 95.4528 132.209 95.341 132.519 95.341C132.83 95.341 133.097 95.4528 133.321 95.6763C133.544 95.896 133.656 96.1611 133.656 96.4717C133.656 96.68 133.603 96.8713 133.497 97.0456C133.394 97.216 133.258 97.3524 133.088 97.4547C132.917 97.5569 132.728 97.6081 132.519 97.6081ZM135.909 97.5001V96.2274L139.846 92.1478C140.267 91.7047 140.613 91.3164 140.886 90.9831C141.162 90.646 141.369 90.3259 141.505 90.0228C141.642 89.7198 141.71 89.3978 141.71 89.0569C141.71 88.6706 141.619 88.3372 141.437 88.0569C141.255 87.7728 141.007 87.555 140.693 87.4035C140.378 87.2482 140.024 87.1706 139.63 87.1706C139.214 87.1706 138.85 87.2558 138.539 87.4263C138.229 87.5967 137.99 87.8372 137.823 88.1478C137.657 88.4585 137.573 88.8221 137.573 89.2388H135.897C135.897 88.5304 136.06 87.9111 136.386 87.3808C136.712 86.8505 137.159 86.4395 137.727 86.1478C138.295 85.8524 138.941 85.7047 139.664 85.7047C140.395 85.7047 141.039 85.8505 141.596 86.1422C142.157 86.43 142.594 86.824 142.909 87.324C143.223 87.8202 143.38 88.3808 143.38 89.0058C143.38 89.4376 143.299 89.86 143.136 90.2728C142.977 90.6857 142.698 91.146 142.301 91.6535C141.903 92.1573 141.35 92.7691 140.642 93.4888L138.329 95.9092V95.9944H143.568V97.5001H135.909ZM151.795 95.3183V94.7047C151.795 94.2653 151.886 93.8638 152.068 93.5001C152.253 93.1327 152.522 92.8391 152.875 92.6194C153.231 92.396 153.661 92.2842 154.164 92.2842C154.679 92.2842 155.111 92.3941 155.46 92.6138C155.808 92.8335 156.072 93.127 156.25 93.4944C156.431 93.8619 156.522 94.2653 156.522 94.7047V95.3183C156.522 95.7577 156.431 96.1611 156.25 96.5285C156.068 96.8922 155.801 97.1857 155.448 97.4092C155.1 97.6289 154.672 97.7388 154.164 97.7388C153.653 97.7388 153.221 97.6289 152.869 97.4092C152.517 97.1857 152.25 96.8922 152.068 96.5285C151.886 96.1611 151.795 95.7577 151.795 95.3183ZM153.119 94.7047V95.3183C153.119 95.6441 153.197 95.9395 153.352 96.2047C153.507 96.4698 153.778 96.6024 154.164 96.6024C154.547 96.6024 154.814 96.4698 154.965 96.2047C155.117 95.9395 155.193 95.6441 155.193 95.3183V94.7047C155.193 94.3789 155.119 94.0835 154.971 93.8183C154.827 93.5532 154.558 93.4206 154.164 93.4206C153.786 93.4206 153.517 93.5532 153.357 93.8183C153.198 94.0835 153.119 94.3789 153.119 94.7047ZM145.943 88.6592V88.0456C145.943 87.6062 146.034 87.2028 146.215 86.8353C146.401 86.4679 146.67 86.1744 147.022 85.9547C147.378 85.735 147.808 85.6251 148.312 85.6251C148.827 85.6251 149.259 85.735 149.607 85.9547C149.956 86.1744 150.219 86.4679 150.397 86.8353C150.575 87.2028 150.664 87.6062 150.664 88.0456V88.6592C150.664 89.0986 150.573 89.502 150.392 89.8694C150.214 90.2331 149.948 90.5266 149.596 90.7501C149.248 90.9698 148.82 91.0797 148.312 91.0797C147.797 91.0797 147.363 90.9698 147.011 90.7501C146.662 90.5266 146.397 90.2331 146.215 89.8694C146.034 89.502 145.943 89.0986 145.943 88.6592ZM147.272 88.0456V88.6592C147.272 88.985 147.348 89.2804 147.5 89.5456C147.655 89.8107 147.926 89.9433 148.312 89.9433C148.691 89.9433 148.956 89.8107 149.107 89.5456C149.263 89.2804 149.34 88.985 149.34 88.6592V88.0456C149.34 87.7198 149.267 87.4244 149.119 87.1592C148.971 86.8941 148.702 86.7615 148.312 86.7615C147.933 86.7615 147.664 86.8941 147.505 87.1592C147.35 87.4244 147.272 87.7198 147.272 88.0456ZM146.482 97.5001L154.482 85.8638H155.84L147.84 97.5001H146.482Z" fill="black"/>
<path d="M78.2196 42.5V30.8636H82.4809C83.3067 30.8636 83.9904 31 84.5321 31.2727C85.0737 31.5417 85.479 31.9072 85.748 32.3693C86.0169 32.8277 86.1514 33.3447 86.1514 33.9205C86.1514 34.4053 86.0624 34.8144 85.8843 35.1477C85.7063 35.4773 85.4677 35.7424 85.1684 35.9432C84.873 36.1402 84.5472 36.2841 84.1912 36.375V36.4886C84.5775 36.5076 84.9544 36.6326 85.3218 36.8636C85.6931 37.0909 85.9999 37.4148 86.2423 37.8352C86.4847 38.2557 86.6059 38.767 86.6059 39.3693C86.6059 39.964 86.4658 40.4981 86.1855 40.9716C85.909 41.4413 85.4809 41.8144 84.9014 42.0909C84.3218 42.3636 83.5813 42.5 82.6798 42.5H78.2196ZM79.9753 40.9943H82.5093C83.3503 40.9943 83.9525 40.8314 84.3162 40.5057C84.6798 40.1799 84.8616 39.7727 84.8616 39.2841C84.8616 38.9167 84.7688 38.5795 84.5832 38.2727C84.3976 37.9659 84.1325 37.7216 83.7878 37.5398C83.4468 37.358 83.0415 37.267 82.5718 37.267H79.9753V40.9943ZM79.9753 35.8977H82.3275C82.7215 35.8977 83.0756 35.822 83.39 35.6705C83.7082 35.5189 83.9601 35.3068 84.1457 35.0341C84.3351 34.7576 84.4298 34.4318 84.4298 34.0568C84.4298 33.5758 84.2612 33.1723 83.9241 32.8466C83.587 32.5208 83.07 32.358 82.373 32.358H79.9753V35.8977ZM94.0804 38.8807V33.7727H95.7849V42.5H94.1145V40.9886H94.0235C93.8228 41.4545 93.5008 41.8428 93.0576 42.1534C92.6182 42.4602 92.0709 42.6136 91.4156 42.6136C90.855 42.6136 90.3588 42.4905 89.927 42.2443C89.4989 41.9943 89.1618 41.625 88.9156 41.1364C88.6732 40.6477 88.552 40.0436 88.552 39.3239V33.7727H90.2508V39.1193C90.2508 39.714 90.4156 40.1875 90.7451 40.5398C91.0747 40.892 91.5027 41.0682 92.0292 41.0682C92.3474 41.0682 92.6637 40.9886 92.9781 40.8295C93.2963 40.6705 93.5595 40.4299 93.7679 40.108C93.98 39.786 94.0842 39.3769 94.0804 38.8807ZM101.335 42.6705C100.63 42.6705 100.001 42.4905 99.4483 42.1307C98.899 41.767 98.4672 41.25 98.1528 40.5795C97.8422 39.9053 97.6869 39.0966 97.6869 38.1534C97.6869 37.2102 97.8441 36.4034 98.1585 35.733C98.4767 35.0625 98.9123 34.5492 99.4653 34.1932C100.018 33.8371 100.645 33.6591 101.346 33.6591C101.888 33.6591 102.323 33.75 102.653 33.9318C102.986 34.1098 103.244 34.3182 103.426 34.5568C103.611 34.7955 103.755 35.0057 103.857 35.1875H103.96V30.8636H105.658V42.5H103.999V41.142H103.857C103.755 41.3277 103.607 41.5398 103.414 41.7784C103.225 42.017 102.963 42.2254 102.63 42.4034C102.297 42.5814 101.865 42.6705 101.335 42.6705ZM101.71 41.2216C102.198 41.2216 102.611 41.0928 102.948 40.8352C103.289 40.5739 103.547 40.2121 103.721 39.75C103.899 39.2879 103.988 38.75 103.988 38.1364C103.988 37.5303 103.901 37 103.727 36.5455C103.552 36.0909 103.297 35.7367 102.96 35.483C102.623 35.2292 102.206 35.1023 101.71 35.1023C101.198 35.1023 100.772 35.2348 100.431 35.5C100.09 35.7652 99.8327 36.1269 99.6585 36.5852C99.488 37.0436 99.4028 37.5606 99.4028 38.1364C99.4028 38.7197 99.4899 39.2443 99.6642 39.7102C99.8384 40.1761 100.096 40.5455 100.437 40.8182C100.782 41.0871 101.206 41.2216 101.71 41.2216ZM111.35 42.6705C110.646 42.6705 110.017 42.4905 109.464 42.1307C108.915 41.767 108.483 41.25 108.168 40.5795C107.858 39.9053 107.703 39.0966 107.703 38.1534C107.703 37.2102 107.86 36.4034 108.174 35.733C108.492 35.0625 108.928 34.5492 109.481 34.1932C110.034 33.8371 110.661 33.6591 111.362 33.6591C111.903 33.6591 112.339 33.75 112.668 33.9318C113.002 34.1098 113.259 34.3182 113.441 34.5568C113.627 34.7955 113.771 35.0057 113.873 35.1875H113.975V30.8636H115.674V42.5H114.015V41.142H113.873C113.771 41.3277 113.623 41.5398 113.43 41.7784C113.24 42.017 112.979 42.2254 112.646 42.4034C112.312 42.5814 111.881 42.6705 111.35 42.6705ZM111.725 41.2216C112.214 41.2216 112.627 41.0928 112.964 40.8352C113.305 40.5739 113.562 40.2121 113.737 39.75C113.915 39.2879 114.004 38.75 114.004 38.1364C114.004 37.5303 113.917 37 113.742 36.5455C113.568 36.0909 113.312 35.7367 112.975 35.483C112.638 35.2292 112.221 35.1023 111.725 35.1023C111.214 35.1023 110.788 35.2348 110.447 35.5C110.106 35.7652 109.848 36.1269 109.674 36.5852C109.504 37.0436 109.418 37.5606 109.418 38.1364C109.418 38.7197 109.506 39.2443 109.68 39.7102C109.854 40.1761 110.112 40.5455 110.453 40.8182C110.797 41.0871 111.221 41.2216 111.725 41.2216ZM119.798 37.3182V42.5H118.099V30.8636H119.775V35.1932H119.883C120.087 34.7235 120.4 34.3504 120.82 34.0739C121.241 33.7973 121.79 33.6591 122.468 33.6591C123.067 33.6591 123.589 33.7822 124.036 34.0284C124.487 34.2746 124.836 34.642 125.082 35.1307C125.332 35.6155 125.457 36.2216 125.457 36.9489V42.5H123.758V37.1534C123.758 36.5133 123.593 36.017 123.264 35.6648C122.934 35.3087 122.476 35.1307 121.889 35.1307C121.487 35.1307 121.127 35.2159 120.809 35.3864C120.495 35.5568 120.247 35.8068 120.065 36.1364C119.887 36.4621 119.798 36.8561 119.798 37.3182ZM127.724 42.5V33.7727H129.423V42.5H127.724ZM128.582 32.4261C128.286 32.4261 128.033 32.3277 127.82 32.1307C127.612 31.9299 127.508 31.6913 127.508 31.4148C127.508 31.1345 127.612 30.8958 127.82 30.6989C128.033 30.4981 128.286 30.3977 128.582 30.3977C128.877 30.3977 129.129 30.4981 129.337 30.6989C129.55 30.8958 129.656 31.1345 129.656 31.4148C129.656 31.6913 129.55 31.9299 129.337 32.1307C129.129 32.3277 128.877 32.4261 128.582 32.4261ZM138.248 35.9034L136.708 36.1761C136.644 35.9792 136.542 35.7917 136.401 35.6136C136.265 35.4356 136.079 35.2898 135.845 35.1761C135.61 35.0625 135.316 35.0057 134.964 35.0057C134.483 35.0057 134.081 35.1136 133.759 35.3295C133.437 35.5417 133.276 35.8163 133.276 36.1534C133.276 36.4451 133.384 36.6799 133.6 36.858C133.816 37.036 134.165 37.1818 134.646 37.2955L136.032 37.6136C136.835 37.7992 137.434 38.0852 137.828 38.4716C138.221 38.858 138.418 39.3598 138.418 39.9773C138.418 40.5 138.267 40.9659 137.964 41.375C137.665 41.7803 137.246 42.0985 136.708 42.3295C136.174 42.5606 135.555 42.6761 134.85 42.6761C133.873 42.6761 133.076 42.4678 132.458 42.0511C131.841 41.6307 131.462 41.0341 131.322 40.2614L132.964 40.0114C133.066 40.4394 133.276 40.7633 133.595 40.983C133.913 41.1989 134.328 41.3068 134.839 41.3068C135.396 41.3068 135.841 41.1913 136.174 40.9602C136.507 40.7254 136.674 40.4394 136.674 40.1023C136.674 39.8295 136.572 39.6004 136.367 39.4148C136.167 39.2292 135.858 39.089 135.441 38.9943L133.964 38.6705C133.149 38.4848 132.547 38.1894 132.157 37.7841C131.771 37.3788 131.578 36.8655 131.578 36.2443C131.578 35.7292 131.721 35.2784 132.009 34.892C132.297 34.5057 132.695 34.2045 133.203 33.9886C133.71 33.7689 134.292 33.6591 134.947 33.6591C135.89 33.6591 136.632 33.8636 137.174 34.2727C137.716 34.678 138.074 35.2216 138.248 35.9034ZM140.286 42.5V33.7727H141.917V35.1932H142.025C142.207 34.7121 142.504 34.3371 142.917 34.0682C143.33 33.7955 143.824 33.6591 144.4 33.6591C144.983 33.6591 145.472 33.7955 145.866 34.0682C146.264 34.3409 146.557 34.7159 146.747 35.1932H146.837C147.046 34.7273 147.377 34.3561 147.832 34.0795C148.286 33.7992 148.828 33.6591 149.457 33.6591C150.248 33.6591 150.894 33.9072 151.394 34.4034C151.898 34.8996 152.15 35.6477 152.15 36.6477V42.5H150.451V36.8068C150.451 36.2159 150.29 35.7879 149.968 35.5227C149.646 35.2576 149.262 35.125 148.815 35.125C148.262 35.125 147.832 35.2955 147.525 35.6364C147.218 35.9735 147.065 36.4072 147.065 36.9375V42.5H145.372V36.6989C145.372 36.2254 145.224 35.8447 144.928 35.5568C144.633 35.2689 144.248 35.125 143.775 35.125C143.453 35.125 143.156 35.2102 142.883 35.3807C142.614 35.5473 142.396 35.7803 142.23 36.0795C142.067 36.3788 141.985 36.7254 141.985 37.1193V42.5H140.286ZM155.546 42.608C155.236 42.608 154.969 42.4981 154.745 42.2784C154.522 42.0549 154.41 41.786 154.41 41.4716C154.41 41.161 154.522 40.8958 154.745 40.6761C154.969 40.4527 155.236 40.3409 155.546 40.3409C155.857 40.3409 156.124 40.4527 156.347 40.6761C156.571 40.8958 156.683 41.161 156.683 41.4716C156.683 41.6799 156.63 41.8712 156.524 42.0455C156.421 42.2159 156.285 42.3523 156.114 42.4545C155.944 42.5568 155.755 42.608 155.546 42.608ZM155.546 36.2557C155.236 36.2557 154.969 36.1439 154.745 35.9205C154.522 35.697 154.41 35.4299 154.41 35.1193C154.41 34.8087 154.522 34.5436 154.745 34.3239C154.969 34.1004 155.236 33.9886 155.546 33.9886C155.857 33.9886 156.124 34.1004 156.347 34.3239C156.571 34.5436 156.683 34.8087 156.683 35.1193C156.683 35.3277 156.63 35.5189 156.524 35.6932C156.421 35.8636 156.285 36 156.114 36.1023C155.944 36.2045 155.755 36.2557 155.546 36.2557ZM167.232 42.6591C166.713 42.6515 166.202 42.5568 165.698 42.375C165.198 42.1932 164.744 41.8902 164.335 41.4659C163.926 41.0417 163.598 40.4716 163.352 39.7557C163.109 39.0398 162.988 38.1458 162.988 37.0739C162.988 36.0587 163.088 35.1572 163.289 34.3693C163.494 33.5814 163.787 32.9167 164.17 32.375C164.552 31.8295 165.015 31.4148 165.556 31.1307C166.098 30.8466 166.706 30.7045 167.38 30.7045C168.073 30.7045 168.689 30.8409 169.227 31.1136C169.765 31.3864 170.2 31.7633 170.533 32.2443C170.871 32.7254 171.085 33.2727 171.176 33.8864H169.443C169.325 33.4015 169.092 33.0057 168.744 32.6989C168.395 32.392 167.941 32.2386 167.38 32.2386C166.528 32.2386 165.863 32.6098 165.386 33.3523C164.912 34.0947 164.674 35.1269 164.67 36.4489H164.755C164.956 36.1193 165.202 35.839 165.494 35.608C165.789 35.3731 166.119 35.1932 166.482 35.0682C166.85 34.9394 167.236 34.875 167.641 34.875C168.316 34.875 168.926 35.0398 169.471 35.3693C170.02 35.6951 170.458 36.1458 170.783 36.7216C171.109 37.2973 171.272 37.9564 171.272 38.6989C171.272 39.4413 171.104 40.1136 170.766 40.7159C170.433 41.3182 169.963 41.7955 169.357 42.1477C168.751 42.4962 168.043 42.6667 167.232 42.6591ZM167.227 41.1818C167.674 41.1818 168.073 41.072 168.426 40.8523C168.778 40.6326 169.056 40.3371 169.261 39.9659C169.465 39.5947 169.568 39.1799 169.568 38.7216C169.568 38.2746 169.467 37.8674 169.266 37.5C169.069 37.1326 168.797 36.8409 168.448 36.625C168.104 36.4091 167.71 36.3011 167.266 36.3011C166.929 36.3011 166.617 36.3655 166.329 36.4943C166.045 36.6231 165.795 36.8011 165.579 37.0284C165.363 37.2557 165.193 37.517 165.068 37.8125C164.946 38.1042 164.886 38.4129 164.886 38.7386C164.886 39.1742 164.986 39.5777 165.187 39.9489C165.391 40.3201 165.67 40.6193 166.022 40.8466C166.378 41.0701 166.78 41.1818 167.227 41.1818ZM173.953 42.608C173.642 42.608 173.375 42.4981 173.151 42.2784C172.928 42.0549 172.816 41.786 172.816 41.4716C172.816 41.161 172.928 40.8958 173.151 40.6761C173.375 40.4527 173.642 40.3409 173.953 40.3409C174.263 40.3409 174.53 40.4527 174.754 40.6761C174.977 40.8958 175.089 41.161 175.089 41.4716C175.089 41.6799 175.036 41.8712 174.93 42.0455C174.828 42.2159 174.691 42.3523 174.521 42.4545C174.35 42.5568 174.161 42.608 173.953 42.608ZM180.982 42.6591C180.463 42.6515 179.952 42.5568 179.448 42.375C178.948 42.1932 178.494 41.8902 178.085 41.4659C177.676 41.0417 177.348 40.4716 177.102 39.7557C176.859 39.0398 176.738 38.1458 176.738 37.0739C176.738 36.0587 176.838 35.1572 177.039 34.3693C177.244 33.5814 177.537 32.9167 177.92 32.375C178.302 31.8295 178.765 31.4148 179.306 31.1307C179.848 30.8466 180.456 30.7045 181.13 30.7045C181.823 30.7045 182.439 30.8409 182.977 31.1136C183.515 31.3864 183.95 31.7633 184.283 32.2443C184.621 32.7254 184.835 33.2727 184.926 33.8864H183.193C183.075 33.4015 182.842 33.0057 182.494 32.6989C182.145 32.392 181.691 32.2386 181.13 32.2386C180.278 32.2386 179.613 32.6098 179.136 33.3523C178.662 34.0947 178.424 35.1269 178.42 36.4489H178.505C178.706 36.1193 178.952 35.839 179.244 35.608C179.539 35.3731 179.869 35.1932 180.232 35.0682C180.6 34.9394 180.986 34.875 181.391 34.875C182.066 34.875 182.676 35.0398 183.221 35.3693C183.77 35.6951 184.208 36.1458 184.533 36.7216C184.859 37.2973 185.022 37.9564 185.022 38.6989C185.022 39.4413 184.854 40.1136 184.516 40.7159C184.183 41.3182 183.713 41.7955 183.107 42.1477C182.501 42.4962 181.793 42.6667 180.982 42.6591ZM180.977 41.1818C181.424 41.1818 181.823 41.072 182.176 40.8523C182.528 40.6326 182.806 40.3371 183.011 39.9659C183.215 39.5947 183.318 39.1799 183.318 38.7216C183.318 38.2746 183.217 37.8674 183.016 37.5C182.819 37.1326 182.547 36.8409 182.198 36.625C181.854 36.4091 181.46 36.3011 181.016 36.3011C180.679 36.3011 180.367 36.3655 180.079 36.4943C179.795 36.6231 179.545 36.8011 179.329 37.0284C179.113 37.2557 178.943 37.517 178.818 37.8125C178.696 38.1042 178.636 38.4129 178.636 38.7386C178.636 39.1742 178.736 39.5777 178.937 39.9489C179.141 40.3201 179.42 40.6193 179.772 40.8466C180.128 41.0701 180.53 41.1818 180.977 41.1818ZM193.166 40.3182V39.7045C193.166 39.2652 193.257 38.8636 193.438 38.5C193.624 38.1326 193.893 37.839 194.245 37.6193C194.601 37.3958 195.031 37.2841 195.535 37.2841C196.05 37.2841 196.482 37.3939 196.83 37.6136C197.179 37.8333 197.442 38.1269 197.62 38.4943C197.802 38.8617 197.893 39.2652 197.893 39.7045V40.3182C197.893 40.7576 197.802 41.161 197.62 41.5284C197.438 41.892 197.171 42.1856 196.819 42.4091C196.471 42.6288 196.042 42.7386 195.535 42.7386C195.024 42.7386 194.592 42.6288 194.239 42.4091C193.887 42.1856 193.62 41.892 193.438 41.5284C193.257 41.161 193.166 40.7576 193.166 40.3182ZM194.489 39.7045V40.3182C194.489 40.6439 194.567 40.9394 194.722 41.2045C194.878 41.4697 195.149 41.6023 195.535 41.6023C195.917 41.6023 196.185 41.4697 196.336 41.2045C196.488 40.9394 196.563 40.6439 196.563 40.3182V39.7045C196.563 39.3788 196.489 39.0833 196.342 38.8182C196.198 38.553 195.929 38.4205 195.535 38.4205C195.156 38.4205 194.887 38.553 194.728 38.8182C194.569 39.0833 194.489 39.3788 194.489 39.7045ZM187.313 33.6591V33.0455C187.313 32.6061 187.404 32.2027 187.586 31.8352C187.772 31.4678 188.041 31.1742 188.393 30.9545C188.749 30.7348 189.179 30.625 189.683 30.625C190.198 30.625 190.63 30.7348 190.978 30.9545C191.327 31.1742 191.59 31.4678 191.768 31.8352C191.946 32.2027 192.035 32.6061 192.035 33.0455V33.6591C192.035 34.0985 191.944 34.5019 191.762 34.8693C191.584 35.233 191.319 35.5265 190.967 35.75C190.618 35.9697 190.19 36.0795 189.683 36.0795C189.167 36.0795 188.734 35.9697 188.382 35.75C188.033 35.5265 187.768 35.233 187.586 34.8693C187.404 34.5019 187.313 34.0985 187.313 33.6591ZM188.643 33.0455V33.6591C188.643 33.9848 188.719 34.2803 188.87 34.5455C189.025 34.8106 189.296 34.9432 189.683 34.9432C190.061 34.9432 190.327 34.8106 190.478 34.5455C190.633 34.2803 190.711 33.9848 190.711 33.6591V33.0455C190.711 32.7197 190.637 32.4242 190.489 32.1591C190.342 31.8939 190.073 31.7614 189.683 31.7614C189.304 31.7614 189.035 31.8939 188.876 32.1591C188.721 32.4242 188.643 32.7197 188.643 33.0455ZM187.853 42.5L195.853 30.8636H197.211L189.211 42.5H187.853Z" fill="black"/>
<path d="M240.098 19.0606C240.098 20.303 239.871 21.3712 239.416 22.2651C238.962 23.1553 238.339 23.8409 237.547 24.322C236.759 24.7992 235.863 25.0379 234.86 25.0379C233.852 25.0379 232.952 24.7992 232.161 24.322C231.373 23.8409 230.752 23.1534 230.297 22.2595C229.843 21.3655 229.615 20.2992 229.615 19.0606C229.615 17.8182 229.843 16.7519 230.297 15.8617C230.752 14.9678 231.373 14.2822 232.161 13.8049C232.952 13.3239 233.852 13.0833 234.86 13.0833C235.863 13.0833 236.759 13.3239 237.547 13.8049C238.339 14.2822 238.962 14.9678 239.416 15.8617C239.871 16.7519 240.098 17.8182 240.098 19.0606ZM238.36 19.0606C238.36 18.1136 238.206 17.3163 237.899 16.6686C237.596 16.017 237.18 15.5246 236.649 15.1913C236.123 14.8542 235.526 14.6856 234.86 14.6856C234.189 14.6856 233.591 14.8542 233.064 15.1913C232.538 15.5246 232.121 16.017 231.814 16.6686C231.511 17.3163 231.36 18.1136 231.36 19.0606C231.36 20.0076 231.511 20.8068 231.814 21.4583C232.121 22.1061 232.538 22.5985 233.064 22.9356C233.591 23.2689 234.189 23.4356 234.86 23.4356C235.526 23.4356 236.123 23.2689 236.649 22.9356C237.18 22.5985 237.596 22.1061 237.899 21.4583C238.206 20.8068 238.36 20.0076 238.36 19.0606ZM246.225 16.1515V17.5151H241.458V16.1515H246.225ZM242.736 14.0606H244.435V22.3163C244.435 22.6458 244.484 22.8939 244.583 23.0606C244.681 23.2235 244.808 23.3352 244.963 23.3958C245.122 23.4526 245.295 23.4811 245.48 23.4811C245.617 23.4811 245.736 23.4716 245.838 23.4526C245.941 23.4337 246.02 23.4186 246.077 23.4072L246.384 24.8106C246.285 24.8485 246.145 24.8864 245.963 24.9242C245.782 24.9659 245.554 24.9886 245.282 24.9924C244.835 25 244.418 24.9205 244.032 24.7538C243.645 24.5871 243.333 24.3295 243.094 23.9811C242.855 23.6326 242.736 23.1951 242.736 22.6686V14.0606ZM249.99 19.697V24.8788H248.291V13.2424H249.968V17.572H250.076C250.28 17.1023 250.593 16.7292 251.013 16.4526C251.434 16.1761 251.983 16.0379 252.661 16.0379C253.259 16.0379 253.782 16.161 254.229 16.4072C254.68 16.6534 255.028 17.0208 255.274 17.5095C255.524 17.9943 255.649 18.6004 255.649 19.3276V24.8788H253.951V19.5322C253.951 18.892 253.786 18.3958 253.456 18.0436C253.127 17.6875 252.668 17.5095 252.081 17.5095C251.68 17.5095 251.32 17.5947 251.002 17.7651C250.687 17.9356 250.439 18.1856 250.257 18.5151C250.079 18.8409 249.99 19.2348 249.99 19.697ZM261.678 25.0549C260.818 25.0549 260.077 24.8712 259.456 24.5038C258.839 24.1326 258.362 23.6117 258.024 22.9413C257.691 22.267 257.524 21.4773 257.524 20.572C257.524 19.678 257.691 18.8901 258.024 18.2083C258.362 17.5265 258.831 16.9943 259.434 16.6117C260.04 16.2292 260.748 16.0379 261.559 16.0379C262.051 16.0379 262.528 16.1193 262.99 16.2822C263.452 16.4451 263.867 16.7008 264.235 17.0492C264.602 17.3977 264.892 17.8504 265.104 18.4072C265.316 18.9602 265.422 19.6326 265.422 20.4242V21.0265H258.485V19.7538H263.757C263.757 19.3068 263.666 18.911 263.485 18.5663C263.303 18.2178 263.047 17.9432 262.718 17.7424C262.392 17.5417 262.009 17.4413 261.57 17.4413C261.093 17.4413 260.676 17.5587 260.32 17.7936C259.968 18.0246 259.695 18.3276 259.502 18.7026C259.312 19.0739 259.218 19.4773 259.218 19.9129V20.9072C259.218 21.4905 259.32 21.9867 259.524 22.3958C259.733 22.8049 260.023 23.1174 260.394 23.3333C260.765 23.5455 261.199 23.6515 261.695 23.6515C262.017 23.6515 262.31 23.6061 262.576 23.5151C262.841 23.4205 263.07 23.2803 263.263 23.0947C263.456 22.9091 263.604 22.6799 263.706 22.4072L265.314 22.697C265.185 23.1705 264.954 23.5852 264.621 23.9413C264.291 24.2936 263.877 24.5682 263.377 24.7651C262.88 24.9583 262.314 25.0549 261.678 25.0549ZM267.307 24.8788V16.1515H268.949V17.5379H269.04C269.199 17.0682 269.479 16.6989 269.881 16.4299C270.286 16.1572 270.745 16.0208 271.256 16.0208C271.362 16.0208 271.487 16.0246 271.631 16.0322C271.779 16.0398 271.894 16.0492 271.978 16.0606V17.6856C271.909 17.6667 271.788 17.6458 271.614 17.6231C271.44 17.5966 271.265 17.5833 271.091 17.5833C270.69 17.5833 270.332 17.6686 270.017 17.839C269.707 18.0057 269.46 18.2386 269.279 18.5379C269.097 18.8333 269.006 19.1705 269.006 19.5492V24.8788H267.307ZM274.567 24.9867C274.256 24.9867 273.989 24.8769 273.766 24.6572C273.542 24.4337 273.431 24.1648 273.431 23.8504C273.431 23.5398 273.542 23.2746 273.766 23.0549C273.989 22.8314 274.256 22.7197 274.567 22.7197C274.878 22.7197 275.145 22.8314 275.368 23.0549C275.592 23.2746 275.703 23.5398 275.703 23.8504C275.703 24.0587 275.65 24.25 275.544 24.4242C275.442 24.5947 275.306 24.7311 275.135 24.8333C274.965 24.9356 274.775 24.9867 274.567 24.9867ZM274.567 18.6345C274.256 18.6345 273.989 18.5227 273.766 18.2992C273.542 18.0758 273.431 17.8087 273.431 17.4981C273.431 17.1875 273.542 16.9223 273.766 16.7026C273.989 16.4792 274.256 16.3674 274.567 16.3674C274.878 16.3674 275.145 16.4792 275.368 16.7026C275.592 16.9223 275.703 17.1875 275.703 17.4981C275.703 17.7064 275.65 17.8977 275.544 18.072C275.442 18.2424 275.306 18.3788 275.135 18.4811C274.965 18.5833 274.775 18.6345 274.567 18.6345ZM282.583 24.8788L287.662 14.8333V14.7481H281.787V13.2424H289.48V14.7992L284.418 24.8788H282.583ZM297.53 22.697V22.0833C297.53 21.6439 297.621 21.2424 297.803 20.8788C297.988 20.5114 298.257 20.2178 298.61 19.9981C298.966 19.7746 299.396 19.6629 299.899 19.6629C300.415 19.6629 300.846 19.7727 301.195 19.9924C301.543 20.2121 301.807 20.5057 301.985 20.8731C302.166 21.2405 302.257 21.6439 302.257 22.0833V22.697C302.257 23.1364 302.166 23.5398 301.985 23.9072C301.803 24.2708 301.536 24.5644 301.184 24.7879C300.835 25.0076 300.407 25.1174 299.899 25.1174C299.388 25.1174 298.956 25.0076 298.604 24.7879C298.252 24.5644 297.985 24.2708 297.803 23.9072C297.621 23.5398 297.53 23.1364 297.53 22.697ZM298.854 22.0833V22.697C298.854 23.0227 298.932 23.3182 299.087 23.5833C299.242 23.8485 299.513 23.9811 299.899 23.9811C300.282 23.9811 300.549 23.8485 300.701 23.5833C300.852 23.3182 300.928 23.0227 300.928 22.697V22.0833C300.928 21.7576 300.854 21.4621 300.706 21.197C300.562 20.9318 300.293 20.7992 299.899 20.7992C299.521 20.7992 299.252 20.9318 299.093 21.197C298.934 21.4621 298.854 21.7576 298.854 22.0833ZM291.678 16.0379V15.4242C291.678 14.9848 291.769 14.5814 291.951 14.214C292.136 13.8466 292.405 13.553 292.757 13.3333C293.113 13.1136 293.543 13.0038 294.047 13.0038C294.562 13.0038 294.994 13.1136 295.343 13.3333C295.691 13.553 295.954 13.8466 296.132 14.214C296.31 14.5814 296.399 14.9848 296.399 15.4242V16.0379C296.399 16.4773 296.309 16.8807 296.127 17.2481C295.949 17.6117 295.684 17.9053 295.331 18.1288C294.983 18.3485 294.555 18.4583 294.047 18.4583C293.532 18.4583 293.098 18.3485 292.746 18.1288C292.398 17.9053 292.132 17.6117 291.951 17.2481C291.769 16.8807 291.678 16.4773 291.678 16.0379ZM293.007 15.4242V16.0379C293.007 16.3636 293.083 16.6591 293.235 16.9242C293.39 17.1894 293.661 17.322 294.047 17.322C294.426 17.322 294.691 17.1894 294.843 16.9242C294.998 16.6591 295.076 16.3636 295.076 16.0379V15.4242C295.076 15.0985 295.002 14.803 294.854 14.5379C294.706 14.2727 294.437 14.1401 294.047 14.1401C293.668 14.1401 293.399 14.2727 293.24 14.5379C293.085 14.803 293.007 15.0985 293.007 15.4242ZM292.218 24.8788L300.218 13.2424H301.576L293.576 24.8788H292.218Z" fill="black"/>
<path fill-rule="evenodd" clip-rule="evenodd" d="M334.191 95.5H331.691V99.25L327.941 99.25L327.941 101.75H331.691V110.5H334.191V101.75H337.941V99.25L334.191 99.25V95.5Z" fill="black"/>
<path d="M296.153 231.5C292.159 231.576 288.941 234.833 288.941 238.835C288.941 242.885 292.237 246.172 296.296 246.172C298.194 246.172 299.925 245.453 301.23 244.274C300.31 244.801 299.243 245.103 298.106 245.103C294.639 245.103 291.827 242.297 291.827 238.839C291.827 235.381 294.639 232.576 298.106 232.576C299.252 232.576 300.327 232.882 301.252 233.418C299.944 232.227 298.205 231.5 296.296 231.5C296.249 231.5 296.201 231.5 296.153 231.5Z" fill="black"/>
<path d="M305.941 238.84L299.613 240.891L303.524 235.521V242.159L299.613 236.789L305.941 238.84Z" fill="black"/>
<path d="M177.826 125.457L176.629 124.5L175.433 125.457L176.629 126.415L177.826 125.457Z" fill="black"/>
<path d="M173.642 126.218C174.068 127.213 174.978 128.846 176.509 129.365C177.738 129.782 179.151 129.414 180.712 128.274L179.728 126.799C179.311 127.083 177.903 127.928 176.248 127.683C175.281 127.539 174.407 127.047 173.642 126.218Z" fill="black"/>
<path d="M181.653 130.839C180.971 130.406 180.077 130.285 179.262 130.516C178.49 130.733 177.917 131.303 177.504 131.775C177.146 132.185 176.807 132.659 176.467 133.227C176.435 133.291 175.552 135.035 174.589 134.714C173.712 134.422 173.133 133.849 173.108 133.824L173.108 133.824L173.107 133.823L173.105 133.821L173.105 133.821L173.104 133.82V133.819C173.053 133.763 173.055 133.677 173.109 133.623C173.165 133.567 173.255 133.567 173.31 133.623C173.314 133.626 173.324 133.628 173.341 133.627C173.593 133.608 174.164 133.081 174.259 132.951C175.128 131.764 174.967 129.789 173.914 128.724C173.747 128.555 173.557 128.398 173.349 128.258C172.587 127.742 171.601 127.513 170.575 127.614C169.65 127.704 168.363 128.001 167.411 128.895L168.685 130.678C169.177 130.359 171.077 129.212 172.469 129.569C172.983 129.701 173.371 130.023 173.622 130.525C173.866 131.013 173.874 131.436 173.646 131.783C173.021 132.73 170.754 132.756 170.013 132.735L171.022 135.007C171.674 135.018 172.553 135.141 173.213 135.642C174.069 136.291 173.911 137.366 173.515 138.089C172.804 139.388 171.517 140.165 170.235 140.073C169.466 140.017 168.671 139.727 167.998 139.257C167.988 139.252 166.365 138.286 166.237 136.399C165.982 137.076 165.72 138.238 166.245 139.463C166.659 140.429 167.611 141.234 168.791 141.616C170.151 142.055 171.603 141.874 172.882 141.107C173.958 140.461 174.687 139.703 175.049 138.852C175.516 137.753 175.199 136.584 174.787 135.485C174.767 135.432 174.78 135.372 174.821 135.333C174.86 135.293 174.92 135.282 174.973 135.302C174.984 135.307 176.132 135.753 177.214 135.267C177.912 134.953 178.438 134.322 178.776 133.391C178.966 132.87 179.652 131.486 180.542 131.336C180.919 131.272 181.273 131.437 181.589 131.826C182.03 132.368 181.985 133.2 181.949 133.868C181.943 133.983 181.937 134.094 181.933 134.198C181.906 135.072 181.823 137.732 179.86 138.159C179.466 138.245 179.046 138.215 178.645 138.072C178.032 137.855 177.545 137.45 177.119 137.005C177.201 137.612 177.315 138.221 177.579 138.774C177.936 139.52 178.538 140.027 179.191 140.132C179.577 140.194 180.005 140.126 180.46 139.927C181.253 139.584 181.957 138.927 182.444 138.077C182.864 137.343 183.138 136.451 183.26 135.423C183.377 134.439 183.326 133.601 183.103 132.862C182.839 131.984 182.324 131.266 181.653 130.84V130.839Z" fill="black"/>
<path fill-rule="evenodd" clip-rule="evenodd" d="M187.719 208.864L186.305 210.278L192.669 216.642L186.305 223.006L187.719 224.42L194.083 218.056L200.447 224.42L201.861 223.006L195.498 216.642L201.861 210.278L200.447 208.864L194.083 215.228L187.719 208.864Z" fill="black"/>
<path d="M215.87 83.4287C215.554 83.4287 215.272 83.5682 215.076 83.7858H214.048C213.905 82.3513 213.335 81.0413 212.469 79.9827L213.203 79.2479C213.495 79.2622 213.79 79.1667 214.012 78.9441C214.431 78.5258 214.431 77.8472 214.012 77.4288C213.594 77.0105 212.916 77.0105 212.497 77.4288C212.274 77.6515 212.179 77.9465 212.193 78.2379L211.459 78.9727C210.4 78.106 209.09 77.5365 207.655 77.3934V76.3648C207.873 76.1686 208.013 75.8874 208.013 75.5714C208.013 74.9798 207.533 74.5 206.941 74.5C206.349 74.5 205.87 74.9798 205.87 75.5714C205.87 75.8876 206.009 76.1688 206.227 76.3648V77.3934C204.792 77.5365 203.482 78.106 202.424 78.9727L201.689 78.2379C201.703 77.9465 201.608 77.6515 201.385 77.4288C200.967 77.0105 200.288 77.0105 199.87 77.4288C199.452 77.8472 199.452 78.5258 199.87 78.9441C200.092 79.1667 200.388 79.2622 200.679 79.2479L201.414 79.9827C200.547 81.041 199.978 82.3513 199.834 83.7858H198.806C198.61 83.5682 198.329 83.4287 198.013 83.4287C197.421 83.4287 196.941 83.9084 196.941 84.5001C196.941 85.0918 197.421 85.5716 198.013 85.5716C198.329 85.5716 198.61 85.432 198.806 85.2144H199.834C199.978 86.649 200.547 87.959 201.414 89.0176L200.679 89.7521C200.388 89.7378 200.093 89.8335 199.87 90.0559C199.452 90.4745 199.452 91.1528 199.87 91.5712C200.288 91.9895 200.967 91.9895 201.385 91.5712C201.608 91.3485 201.703 91.0535 201.689 90.7621L202.424 90.0273C203.482 90.894 204.792 91.4635 206.227 91.6066V92.6352C206.009 92.8314 205.87 93.1126 205.87 93.4286C205.87 94.0202 206.349 94.5 206.941 94.5C207.533 94.5 208.013 94.0202 208.013 93.4286C208.013 93.1126 207.873 92.8314 207.655 92.6352V91.6066C209.09 91.4635 210.4 90.894 211.459 90.0273L212.193 90.7621C212.179 91.0535 212.274 91.3485 212.497 91.5712C212.915 91.9895 213.594 91.9895 214.012 91.5712C214.431 91.1528 214.431 90.4745 214.012 90.0559C213.79 89.8333 213.495 89.7378 213.203 89.7521L212.469 89.0173C213.335 87.959 213.905 86.6487 214.048 85.2142H215.076C215.273 85.4318 215.554 85.5713 215.87 85.5713C216.461 85.5713 216.941 85.0916 216.941 84.4999C216.941 83.9082 216.461 83.4287 215.87 83.4287ZM212.606 83.7858H209.697C209.629 83.5265 209.527 83.2832 209.394 83.058L211.449 81.002C212.064 81.7918 212.475 82.7446 212.606 83.7858ZM206.941 85.9287C206.153 85.9287 205.513 85.288 205.513 84.5001C205.513 83.7123 206.153 83.0715 206.941 83.0715C207.729 83.0715 208.37 83.7123 208.37 84.5001C208.37 85.288 207.729 85.9287 206.941 85.9287ZM210.439 79.9917L208.384 82.0477C208.158 81.9146 207.915 81.8118 207.656 81.7444V78.8353C208.697 78.966 209.649 79.3774 210.439 79.9917ZM206.227 78.8353V81.7444C205.968 81.8118 205.724 81.9146 205.499 82.0477L203.443 79.9917C204.233 79.3774 205.186 78.966 206.227 78.8353ZM202.433 81.0017L204.489 83.0577C204.356 83.2832 204.253 83.5263 204.185 83.7856H201.276C201.407 82.7446 201.819 81.7918 202.433 81.0017ZM201.276 85.2144H204.185C204.253 85.4737 204.356 85.717 204.489 85.9423L202.433 87.9983C201.819 87.2085 201.407 86.2556 201.276 85.2144ZM203.443 89.0085L205.499 86.9525C205.724 87.0856 205.967 87.1885 206.227 87.2559V90.1649C205.186 90.0342 204.233 89.6228 203.443 89.0085ZM207.655 90.1649V87.2559C207.915 87.1885 208.158 87.0856 208.383 86.9525L210.439 89.0085C209.649 89.6228 208.697 90.0342 207.655 90.1649ZM211.449 87.9985L209.394 85.9425C209.527 85.717 209.629 85.4739 209.697 85.2147H212.606C212.475 86.2556 212.064 87.2085 211.449 87.9985Z" fill="black"/>
<line x1="313.844" y1="252.087" x2="313.844" y2="274.004" stroke="black" stroke-width="1.8"/>
<line x1="206.841" y1="252.61" x2="206.841" y2="275.24" stroke="black" stroke-width="1.8"/>
<line x1="351.041" y1="94.8077" x2="351.041" y2="69.9401" stroke="black" stroke-width="1.8"/>
<line x1="234.771" y1="48.8303" x2="234.771" y2="28.8788" stroke="black" stroke-width="1.8"/>
<line x1="193.041" y1="68.5" x2="193.041" y2="46.5001" stroke="black" stroke-width="1.8"/>
<line x1="152.041" y1="135.224" x2="152.041" y2="101.5" stroke="black" stroke-width="1.8"/>
</svg>
