<svg width="500" height="500" viewBox="0 0 500 500" fill="none" xmlns="http://www.w3.org/2000/svg">
<rect width="500" height="500" fill="#C4C4C4"/>
<path d="M242.425 40.1876C231.721 40.1876 222.969 48.9239 222.969 59.611V169.99H76.5157C65.8777 169.99 57.1904 178.661 57.1904 189.283V331.376C57.1904 341.997 65.894 350.668 76.5157 350.668H95.2178V372.518C95.2178 376.714 97.9223 380.205 101.299 381.598C104.659 382.992 109.019 382.434 111.986 379.468L140.851 350.668H236.707V420.643C236.707 429.15 243.706 436.132 252.213 436.132H337.872L359.197 457.375C361.721 459.883 365.459 460.391 368.327 459.195C371.195 457.998 373.507 454.999 373.507 451.441V436.132H386.505C395.012 436.132 401.995 429.15 401.995 420.643V314.296C401.995 305.789 395.012 298.807 386.505 298.807H275.144V222.441H358.429L387.556 251.536L387.572 251.519H387.589C390.572 254.502 394.948 255.027 398.325 253.634C401.718 252.224 404.422 248.749 404.422 244.537V222.441H423.337C434.041 222.441 442.794 213.738 442.794 203.034L442.81 59.6109C442.81 48.9075 434.057 40.1875 423.354 40.1875L242.425 40.1876ZM242.425 48.383H423.349C429.66 48.383 434.626 53.3332 434.626 59.611V203.018C434.626 209.312 429.66 214.246 423.349 214.246H400.319C398.058 214.246 396.238 216.081 396.222 218.343V244.536C396.205 245.438 395.796 245.815 395.173 246.077C394.55 246.339 394.009 246.372 393.353 245.717L362.997 215.442H363.03C362.259 214.672 361.21 214.246 360.112 214.246H275.124V189.282C275.124 178.661 266.437 169.99 255.815 169.99H231.13L231.146 59.6108C231.146 53.3166 236.098 48.383 242.425 48.383ZM357.852 78.7558C348.984 78.7558 340.116 82.1488 333.347 88.8693L332.888 89.3283L332.446 88.8693C318.89 75.4123 296.943 75.4123 283.401 88.8693C269.846 102.326 269.846 124.241 283.401 137.7L286.745 141.011L324.232 178.251C329.001 182.988 336.82 182.988 341.59 178.251L379.076 141.011L382.42 137.7C395.976 124.243 395.976 102.328 382.42 88.8693C375.65 82.1324 366.734 78.7558 357.882 78.7558H357.852ZM307.91 86.9022C314.679 86.9022 321.449 89.5083 326.661 94.6881L330.005 97.9991V98.0155C331.595 99.6054 334.185 99.6054 335.775 98.0155L339.118 94.7045C344.331 89.5248 351.068 86.9676 357.853 86.9676C364.639 86.9676 371.393 89.5246 376.605 94.7045C387.03 105.064 387.03 121.537 376.605 131.896L373.294 135.207L335.775 172.448C334.152 174.054 331.611 174.054 329.989 172.448L292.486 135.207L289.142 131.896C278.717 121.537 278.717 105.064 289.142 94.7045C294.354 89.5248 301.124 86.9186 307.894 86.9186L307.91 86.9022ZM76.5144 178.168H255.815C262.06 178.168 266.944 183.069 266.944 189.281V298.808H252.209C243.702 298.808 236.703 305.791 236.703 314.298V342.49L139.176 342.474C138.095 342.474 137.062 342.9 136.292 343.654L106.214 373.633C105.574 374.273 105.066 374.256 104.443 373.994C103.837 373.732 103.427 373.388 103.427 372.486V346.555V346.572C103.427 344.31 101.591 342.49 99.3458 342.474H76.513C70.2679 342.474 65.3837 337.573 65.3837 331.361V189.284C65.3837 183.072 70.2697 178.168 76.5144 178.168ZM163.336 194.428C158.386 194.428 153.846 197.296 151.748 201.787L135.193 237.11H110.705C105.443 237.11 101.083 241.471 101.083 246.732V309.561C101.083 314.822 105.443 319.182 110.705 319.182H202.461C211.1 319.182 218.656 313.232 220.655 304.84L232.703 254.142C234.752 245.553 228.064 237.112 219.23 237.112H179.661V205.576C179.661 199.462 174.613 194.43 168.499 194.43L163.336 194.428ZM163.336 202.607H168.516C170.221 202.607 171.499 203.902 171.499 205.59V241.241V241.224C171.499 243.486 173.335 245.306 175.581 245.322H219.229C222.982 245.322 225.605 248.617 224.752 252.239L212.705 302.953C211.574 307.69 207.362 310.985 202.461 310.985H141.894V242.144L159.17 205.247C159.924 203.641 161.533 202.607 163.336 202.607ZM110.704 245.323H133.685V311.001H110.704C109.852 311.001 109.278 310.395 109.278 309.575V246.747C109.278 245.927 109.852 245.323 110.704 245.323ZM252.21 307.002H386.486C390.617 307.002 393.797 310.198 393.797 314.296V420.643C393.797 424.741 390.617 427.937 386.486 427.937H369.407L369.423 427.921C368.325 427.921 367.276 428.347 366.505 429.117C365.735 429.871 365.309 430.92 365.293 432.002V451.425C365.293 451.688 365.293 451.557 365.161 451.606C365.047 451.655 365.145 451.737 364.965 451.557L342.427 429.101H342.46C341.689 428.347 340.657 427.92 339.575 427.92H252.228C248.098 427.92 244.918 424.724 244.918 420.626V314.28C244.918 310.182 248.098 306.986 252.228 306.986L252.21 307.002ZM305.988 334.031C304.906 334.031 303.857 334.474 303.086 335.244C302.332 336.014 301.89 337.063 301.906 338.145V350.045H289.941C287.695 350.045 285.859 351.881 285.859 354.143C285.859 356.405 287.695 358.224 289.941 358.224H301.89V376.68H289.941C287.695 376.697 285.859 378.516 285.859 380.778C285.859 383.04 287.695 384.86 289.941 384.876H301.89V396.776H301.906C301.89 397.858 302.333 398.907 303.087 399.677C303.857 400.447 304.906 400.89 305.988 400.89C307.086 400.89 308.135 400.464 308.905 399.693C309.676 398.907 310.102 397.858 310.102 396.776V384.876H328.624V396.776C328.608 397.858 329.034 398.907 329.804 399.677C330.575 400.447 331.624 400.89 332.705 400.89C333.804 400.89 334.853 400.464 335.623 399.693C336.393 398.923 336.82 397.874 336.82 396.776V384.876H348.769C351.031 384.86 352.867 383.04 352.867 380.778C352.867 378.516 351.031 376.697 348.769 376.68H336.82V358.224H348.769C351.031 358.224 352.867 356.405 352.867 354.143C352.867 351.881 351.031 350.045 348.769 350.045H336.82V338.145C336.82 337.047 336.393 335.998 335.623 335.228C334.853 334.457 333.804 334.031 332.705 334.031C331.624 334.031 330.575 334.474 329.804 335.244C329.034 336.014 328.608 337.063 328.624 338.145V350.045H310.102V338.145C310.102 337.047 309.676 335.998 308.905 335.228C308.135 334.457 307.086 334.031 305.988 334.031ZM310.102 358.224H328.624V376.68H310.102V358.224Z" fill="black" stroke="#C4C4C4" stroke-width="6"/>
</svg>
