<svg width="500" height="220" viewBox="0 0 500 220" fill="none" xmlns="http://www.w3.org/2000/svg">
<mask id="path-1-outside-1_474_64" maskUnits="userSpaceOnUse" x="53.4189" y="88" width="76" height="42" fill="black">
<rect fill="white" x="53.4189" y="88" width="76" height="42"/>
<path d="M64.8337 129H54.5553V89.7273H65.8309C69.4488 89.7273 72.5425 90.5071 75.1121 92.0668C77.6945 93.6136 79.6697 95.8381 81.0376 98.7401C82.4182 101.642 83.1022 105.132 83.0894 109.21C83.0766 113.391 82.3479 116.957 80.9033 119.911C79.4715 122.851 77.3941 125.101 74.6711 126.661C71.9608 128.22 68.6817 129 64.8337 129ZM55.7826 127.773H64.8337C68.4644 127.773 71.5518 127.038 74.0958 125.567C76.6398 124.085 78.5702 121.956 79.887 119.182C81.2165 116.408 81.8749 113.084 81.8621 109.21C81.8493 105.388 81.2101 102.115 79.9445 99.392C78.6917 96.669 76.8763 94.5852 74.4985 93.1406C72.1207 91.6832 69.2314 90.9545 65.8309 90.9545H55.7826V127.773ZM89.323 129H88.019L102.056 89.7273H103.743L117.78 129H116.476L102.976 91.2614H102.823L89.323 129ZM93.7719 114.503H112.028V115.73H93.7719V114.503ZM127.974 89.7273V129H126.747V89.7273H127.974Z"/>
</mask>
<path d="M64.8337 129H54.5553V89.7273H65.8309C69.4488 89.7273 72.5425 90.5071 75.1121 92.0668C77.6945 93.6136 79.6697 95.8381 81.0376 98.7401C82.4182 101.642 83.1022 105.132 83.0894 109.21C83.0766 113.391 82.3479 116.957 80.9033 119.911C79.4715 122.851 77.3941 125.101 74.6711 126.661C71.9608 128.22 68.6817 129 64.8337 129ZM55.7826 127.773H64.8337C68.4644 127.773 71.5518 127.038 74.0958 125.567C76.6398 124.085 78.5702 121.956 79.887 119.182C81.2165 116.408 81.8749 113.084 81.8621 109.21C81.8493 105.388 81.2101 102.115 79.9445 99.392C78.6917 96.669 76.8763 94.5852 74.4985 93.1406C72.1207 91.6832 69.2314 90.9545 65.8309 90.9545H55.7826V127.773ZM89.323 129H88.019L102.056 89.7273H103.743L117.78 129H116.476L102.976 91.2614H102.823L89.323 129ZM93.7719 114.503H112.028V115.73H93.7719V114.503ZM127.974 89.7273V129H126.747V89.7273H127.974Z" fill="#C4C4C4"/>
<path d="M54.5553 129H53.5553V130H54.5553V129ZM54.5553 89.7273V88.7273H53.5553V89.7273H54.5553ZM75.1121 92.0668L74.5933 92.9216L74.5983 92.9246L75.1121 92.0668ZM81.0376 98.7401L80.133 99.1664L80.1345 99.1697L81.0376 98.7401ZM83.0894 109.21L82.0894 109.207L82.0894 109.207L83.0894 109.21ZM80.9033 119.911L80.005 119.471L80.0043 119.473L80.9033 119.911ZM74.6711 126.661L74.1741 125.793L74.1723 125.794L74.6711 126.661ZM55.7826 127.773H54.7826V128.773H55.7826V127.773ZM74.0958 125.567L74.5961 126.433L74.5994 126.431L74.0958 125.567ZM79.887 119.182L78.9852 118.75L78.9836 118.753L79.887 119.182ZM81.8621 109.21L82.8621 109.207L82.8621 109.207L81.8621 109.21ZM79.9445 99.392L79.036 99.81L79.0377 99.8135L79.9445 99.392ZM74.4985 93.1406L73.9759 93.9932L73.9793 93.9953L74.4985 93.1406ZM55.7826 90.9545V89.9545H54.7826V90.9545H55.7826ZM64.8337 128H54.5553V130H64.8337V128ZM55.5553 129V89.7273H53.5553V129H55.5553ZM54.5553 90.7273H65.8309V88.7273H54.5553V90.7273ZM65.8309 90.7273C69.3032 90.7273 72.2092 91.4746 74.5933 92.9216L75.631 91.2119C72.8758 89.5396 69.5943 88.7273 65.8309 88.7273V90.7273ZM74.5983 92.9246C76.9991 94.3628 78.8438 96.4314 80.133 99.1664L81.9421 98.3137C80.4955 95.2447 78.3899 92.8645 75.626 91.2089L74.5983 92.9246ZM80.1345 99.1697C81.436 101.905 82.1018 105.24 82.0894 109.207L84.0894 109.213C84.1025 105.025 83.4004 101.379 81.9406 98.3104L80.1345 99.1697ZM82.0894 109.207C82.077 113.276 81.3676 116.686 80.005 119.471L81.8016 120.35C83.3282 117.229 84.0763 113.505 84.0894 109.213L82.0894 109.207ZM80.0043 119.473C78.6564 122.241 76.7153 124.337 74.1741 125.793L75.1681 127.528C78.0728 125.864 80.2866 123.461 81.8024 120.348L80.0043 119.473ZM74.1723 125.794C71.6451 127.248 68.5467 128 64.8337 128V130C68.8167 130 72.2766 129.192 75.1699 127.527L74.1723 125.794ZM55.7826 128.773H64.8337V126.773H55.7826V128.773ZM64.8337 128.773C68.599 128.773 71.868 128.01 74.5961 126.433L73.5954 124.702C71.2355 126.065 68.3298 126.773 64.8337 126.773V128.773ZM74.5994 126.431C77.3252 124.842 79.3912 122.559 80.7904 119.611L78.9836 118.753C77.7493 121.353 75.9544 123.327 73.5922 124.704L74.5994 126.431ZM80.7888 119.614C82.1981 116.673 82.8753 113.193 82.8621 109.207L80.8621 109.214C80.8745 112.974 80.235 116.142 78.9852 118.75L80.7888 119.614ZM82.8621 109.207C82.849 105.278 82.1921 101.855 80.8513 98.9706L79.0377 99.8135C80.2282 102.375 80.8497 105.498 80.8621 109.214L82.8621 109.207ZM80.853 98.9741C79.5236 96.0846 77.5792 93.8422 75.0177 92.286L73.9793 93.9953C76.1734 95.3283 77.8598 97.2534 79.0361 99.81L80.853 98.9741ZM75.0211 92.288C72.4547 90.7151 69.3754 89.9545 65.8309 89.9545V91.9545C69.0875 91.9545 71.7866 92.6514 73.9759 93.9932L75.0211 92.288ZM65.8309 89.9545H55.7826V91.9545H65.8309V89.9545ZM54.7826 90.9545V127.773H56.7826V90.9545H54.7826ZM89.323 129V130H90.0273L90.2646 129.337L89.323 129ZM88.019 129L87.0774 128.663L86.5996 130H88.019V129ZM102.056 89.7273V88.7273H101.351L101.114 89.3907L102.056 89.7273ZM103.743 89.7273L104.685 89.3907L104.448 88.7273H103.743V89.7273ZM117.78 129V130H119.2L118.722 128.663L117.78 129ZM116.476 129L115.535 129.337L115.772 130H116.476V129ZM102.976 91.2614L103.918 90.9245L103.681 90.2614H102.976V91.2614ZM102.823 91.2614V90.2614H102.119L101.881 90.9245L102.823 91.2614ZM93.7719 114.503V113.503H92.7719V114.503H93.7719ZM112.028 114.503H113.028V113.503H112.028V114.503ZM112.028 115.73V116.73H113.028V115.73H112.028ZM93.7719 115.73H92.7719V116.73H93.7719V115.73ZM89.323 128H88.019V130H89.323V128ZM88.9607 129.337L102.998 90.0638L101.114 89.3907L87.0774 128.663L88.9607 129.337ZM102.056 90.7273H103.743V88.7273H102.056V90.7273ZM102.802 90.0638L116.839 129.337L118.722 128.663L104.685 89.3907L102.802 90.0638ZM117.78 128H116.476V130H117.78V128ZM117.418 128.663L103.918 90.9245L102.035 91.5982L115.535 129.337L117.418 128.663ZM102.976 90.2614H102.823V92.2614H102.976V90.2614ZM101.881 90.9245L88.3814 128.663L90.2646 129.337L103.765 91.5982L101.881 90.9245ZM93.7719 115.503H112.028V113.503H93.7719V115.503ZM111.028 114.503V115.73H113.028V114.503H111.028ZM112.028 114.73H93.7719V116.73H112.028V114.73ZM94.7719 115.73V114.503H92.7719V115.73H94.7719ZM127.974 89.7273H128.974V88.7273H127.974V89.7273ZM127.974 129V130H128.974V129H127.974ZM126.747 129H125.747V130H126.747V129ZM126.747 89.7273V88.7273H125.747V89.7273H126.747ZM126.974 89.7273V129H128.974V89.7273H126.974ZM127.974 128H126.747V130H127.974V128ZM127.747 129V89.7273H125.747V129H127.747ZM126.747 90.7273H127.974V88.7273H126.747V90.7273Z" fill="black" mask="url(#path-1-outside-1_474_64)"/>
<path d="M382.633 41.9968C379.164 41.9968 376.327 44.8284 376.327 48.2923V84.0677H328.86C325.412 84.0677 322.596 86.878 322.596 90.3206V136.375C322.596 139.818 325.417 142.628 328.86 142.628H334.921V149.71C334.921 151.07 335.798 152.201 336.892 152.653C337.981 153.104 339.395 152.924 340.356 151.962L349.712 142.628H380.78V165.308C380.78 168.065 383.049 170.328 385.806 170.328H413.569L420.481 177.213C421.299 178.026 422.51 178.191 423.44 177.803C424.37 177.415 425.119 176.443 425.119 175.29V170.328H429.332C432.089 170.328 434.352 168.065 434.352 165.308V130.839C434.352 128.082 432.089 125.819 429.332 125.819H393.238V101.068H420.232L429.672 110.498L429.678 110.492H429.683C430.65 111.459 432.068 111.629 433.163 111.178C434.262 110.721 435.139 109.595 435.139 108.229V101.068H441.27C444.739 101.068 447.576 98.2469 447.576 94.7778L447.581 48.2922C447.581 44.8231 444.744 41.9968 441.275 41.9968L382.633 41.9968ZM382.633 44.6531H441.273C443.319 44.6531 444.928 46.2575 444.928 48.2923V94.7724C444.928 96.8124 443.319 98.4115 441.273 98.4115H433.809C433.076 98.4115 432.486 99.0065 432.481 99.7397V108.229C432.476 108.521 432.343 108.644 432.141 108.729C431.939 108.814 431.764 108.824 431.551 108.612L421.712 98.7994H421.723C421.473 98.5497 421.133 98.4116 420.777 98.4116H393.231V90.3206C393.231 86.8781 390.416 84.0676 386.973 84.0676H378.972L378.978 48.2922C378.978 46.2522 380.583 44.6531 382.633 44.6531ZM420.045 54.4974C417.171 54.4974 414.297 55.5971 412.103 57.7753L411.954 57.924L411.81 57.7753C407.417 53.4137 400.303 53.4137 395.914 57.7753C391.521 62.1369 391.521 69.2399 395.914 73.6019L396.998 74.675L409.148 86.7452C410.694 88.2805 413.228 88.2805 414.774 86.7452L426.924 74.675L428.008 73.6019C432.401 69.2403 432.401 62.1373 428.008 57.7753C425.814 55.5918 422.924 54.4974 420.055 54.4974H420.045ZM403.858 57.1377C406.052 57.1377 408.246 57.9824 409.935 59.6612L411.019 60.7344V60.7397C411.535 61.255 412.374 61.255 412.889 60.7397L413.973 59.6665C415.662 57.9877 417.846 57.1589 420.045 57.1589C422.245 57.1589 424.434 57.9877 426.123 59.6665C429.502 63.0242 429.502 68.3632 426.123 71.7208L425.05 72.794L412.889 84.8642C412.363 85.3848 411.54 85.3848 411.014 84.8642L398.859 72.794L397.775 71.7208C394.396 68.3632 394.396 63.0242 397.775 59.6665C399.464 57.9877 401.659 57.143 403.853 57.143L403.858 57.1377ZM328.859 86.7182H386.973C388.997 86.7182 390.58 88.3067 390.58 90.3201V125.819H385.804C383.047 125.819 380.779 128.083 380.779 130.84V139.978L349.169 139.972C348.818 139.972 348.484 140.11 348.234 140.355L338.485 150.071C338.278 150.279 338.113 150.273 337.912 150.188C337.715 150.103 337.582 149.992 337.582 149.699V141.295V141.3C337.582 140.567 336.987 139.977 336.259 139.972H328.859C326.835 139.972 325.252 138.384 325.252 136.37V90.3212C325.252 88.3077 326.835 86.7182 328.859 86.7182ZM357 91.9883C355.395 91.9883 353.924 92.918 353.244 94.3736L347.878 105.822H339.941C338.236 105.822 336.822 107.235 336.822 108.941V129.304C336.822 131.01 338.236 132.423 339.941 132.423H369.681C372.48 132.423 374.929 130.494 375.577 127.774L379.482 111.343C380.146 108.559 377.979 105.823 375.115 105.823H362.291V95.6015C362.291 93.6199 360.655 91.989 358.673 91.989L357 91.9883ZM357 94.6392H358.678C359.231 94.6392 359.645 95.0589 359.645 95.6061V107.161V107.156C359.645 107.889 360.24 108.479 360.968 108.484H375.115C376.332 108.484 377.182 109.552 376.905 110.726L373.001 127.163C372.634 128.698 371.269 129.766 369.68 129.766H350.05V107.454L355.649 95.495C355.894 94.9743 356.415 94.6392 357 94.6392ZM339.941 108.484H347.389V129.771H339.941C339.665 129.771 339.479 129.575 339.479 129.309V108.946C339.479 108.68 339.665 108.484 339.941 108.484ZM385.805 128.475H429.326C430.664 128.475 431.695 129.511 431.695 130.839V165.308C431.695 166.636 430.664 167.672 429.326 167.672H423.79L423.795 167.667C423.439 167.667 423.099 167.805 422.85 168.054C422.6 168.299 422.462 168.639 422.456 168.989V175.285C422.456 175.37 422.456 175.327 422.414 175.343C422.377 175.359 422.409 175.386 422.35 175.327L415.045 168.049H415.056C414.806 167.805 414.472 167.667 414.121 167.667H385.811C384.472 167.667 383.441 166.631 383.441 165.302V130.834C383.441 129.506 384.472 128.47 385.811 128.47L385.805 128.475ZM403.235 137.236C402.884 137.236 402.544 137.379 402.295 137.629C402.05 137.879 401.907 138.219 401.912 138.569V142.426H398.034C397.306 142.426 396.711 143.021 396.711 143.754C396.711 144.487 397.306 145.077 398.034 145.077H401.907V151.059H398.034C397.306 151.064 396.711 151.654 396.711 152.387C396.711 153.12 397.306 153.71 398.034 153.715H401.907V157.572H401.912C401.907 157.923 402.05 158.263 402.295 158.512C402.544 158.762 402.884 158.906 403.235 158.906C403.591 158.906 403.931 158.767 404.181 158.518C404.43 158.263 404.568 157.923 404.568 157.572V153.715H410.572V157.572C410.566 157.923 410.704 158.263 410.954 158.512C411.204 158.762 411.544 158.906 411.894 158.906C412.25 158.906 412.59 158.767 412.84 158.518C413.09 158.268 413.228 157.928 413.228 157.572V153.715H417.101C417.834 153.71 418.429 153.12 418.429 152.387C418.429 151.654 417.834 151.064 417.101 151.059H413.228V145.077H417.101C417.834 145.077 418.429 144.487 418.429 143.754C418.429 143.021 417.834 142.426 417.101 142.426H413.228V138.569C413.228 138.213 413.09 137.873 412.84 137.624C412.59 137.374 412.25 137.236 411.894 137.236C411.544 137.236 411.204 137.379 410.954 137.629C410.704 137.879 410.566 138.219 410.572 138.569V142.426H404.568V138.569C404.568 138.213 404.43 137.873 404.181 137.624C403.931 137.374 403.591 137.236 403.235 137.236ZM404.568 145.077H410.572V151.059H404.568V145.077Z" fill="#C4C4C4" stroke="black" stroke-width="1.5"/>
<line x1="323.457" y1="110.5" x2="156.914" y2="110.5" stroke="#C4C4C4"/>
<line x1="167.831" y1="99.4969" x2="156.517" y2="110.811" stroke="#C4C4C4"/>
<line x1="167.831" y1="121.417" x2="156.517" y2="110.104" stroke="#C4C4C4"/>
</svg>
